%FSLAX34Y34*%
G04 Gerber Fmt 3.4, Leading zero omitted, Abs format*
G04 (created by PCBNEW (2013-10-23 BZR 4410)-product) date Thu 24 Oct 2013 09:27:40 PM EDT*
%MOIN*%
G01*
G70*
G90*
G04 APERTURE LIST*
%ADD10C,0.005906*%
%ADD11C,0.003937*%
%ADD12C,0.222441*%
%ADD13R,0.064961X0.064961*%
%ADD14C,0.064961*%
G04 APERTURE END LIST*
G54D10*
G54D11*
X82000Y-19000D02*
X49000Y-19000D01*
X82000Y-38000D02*
X82000Y-19000D01*
X49000Y-38000D02*
X82000Y-38000D01*
X49000Y-19000D02*
X49000Y-38000D01*
G54D12*
X80000Y-21000D03*
X80000Y-36000D03*
X51000Y-36000D03*
X51000Y-21000D03*
G54D13*
X50000Y-33000D03*
G54D14*
X50000Y-32000D03*
G54D13*
X57000Y-23000D03*
G54D14*
X58000Y-23000D03*
G54D13*
X50000Y-25000D03*
G54D14*
X50000Y-24000D03*
G54D13*
X62000Y-23000D03*
G54D14*
X61000Y-23000D03*
G54D13*
X79000Y-28000D03*
G54D14*
X80000Y-28000D03*
X79000Y-29000D03*
X80000Y-29000D03*
X79000Y-30000D03*
X80000Y-30000D03*
X79000Y-31000D03*
X80000Y-31000D03*
X79000Y-32000D03*
X80000Y-32000D03*
G54D13*
X54000Y-20000D03*
G54D14*
X55000Y-20000D03*
X56000Y-20000D03*
X57000Y-20000D03*
X58000Y-20000D03*
X59000Y-20000D03*
X60000Y-20000D03*
X61000Y-20000D03*
X62000Y-20000D03*
X63000Y-20000D03*
X64000Y-20000D03*
X65000Y-20000D03*
X66000Y-20000D03*
X67000Y-20000D03*
X68000Y-20000D03*
X69000Y-20000D03*
X70000Y-20000D03*
X71000Y-20000D03*
X72000Y-20000D03*
X73000Y-20000D03*
X74000Y-20000D03*
X75000Y-20000D03*
X76000Y-20000D03*
X77000Y-20000D03*
G54D13*
X54000Y-37000D03*
G54D14*
X55000Y-37000D03*
X56000Y-37000D03*
X57000Y-37000D03*
X58000Y-37000D03*
X59000Y-37000D03*
X60000Y-37000D03*
X61000Y-37000D03*
X62000Y-37000D03*
X63000Y-37000D03*
X64000Y-37000D03*
X65000Y-37000D03*
X66000Y-37000D03*
X67000Y-37000D03*
X68000Y-37000D03*
X69000Y-37000D03*
X70000Y-37000D03*
X71000Y-37000D03*
X72000Y-37000D03*
X73000Y-37000D03*
X74000Y-37000D03*
X75000Y-37000D03*
X76000Y-37000D03*
X77000Y-37000D03*
M02*
