%FSLAX34Y34*%
G04 Gerber Fmt 3.4, Leading zero omitted, Abs format*
G04 (created by PCBNEW (2013-10-23 BZR 4410)-product) date Thu 24 Oct 2013 09:27:40 PM EDT*
%MOIN*%
G01*
G70*
G90*
G04 APERTURE LIST*
%ADD10C,0.005906*%
%ADD11C,0.003937*%
%ADD12C,0.003543*%
%ADD13C,0.007874*%
%ADD14C,0.015748*%
%ADD15C,0.009843*%
G04 APERTURE END LIST*
G54D10*
G54D11*
X60808Y-22169D02*
X60785Y-22158D01*
X60751Y-22158D01*
X60718Y-22169D01*
X60695Y-22191D01*
X60684Y-22214D01*
X60673Y-22259D01*
X60673Y-22293D01*
X60684Y-22338D01*
X60695Y-22360D01*
X60718Y-22383D01*
X60751Y-22394D01*
X60774Y-22394D01*
X60808Y-22383D01*
X60819Y-22371D01*
X60819Y-22293D01*
X60774Y-22293D01*
X60920Y-22394D02*
X60920Y-22158D01*
X61055Y-22394D01*
X61055Y-22158D01*
X61168Y-22394D02*
X61168Y-22158D01*
X61224Y-22158D01*
X61258Y-22169D01*
X61280Y-22191D01*
X61291Y-22214D01*
X61303Y-22259D01*
X61303Y-22293D01*
X61291Y-22338D01*
X61280Y-22360D01*
X61258Y-22383D01*
X61224Y-22394D01*
X61168Y-22394D01*
X61657Y-22270D02*
X61691Y-22281D01*
X61702Y-22293D01*
X61713Y-22315D01*
X61713Y-22349D01*
X61702Y-22371D01*
X61691Y-22383D01*
X61668Y-22394D01*
X61578Y-22394D01*
X61578Y-22158D01*
X61657Y-22158D01*
X61679Y-22169D01*
X61691Y-22180D01*
X61702Y-22203D01*
X61702Y-22225D01*
X61691Y-22248D01*
X61679Y-22259D01*
X61657Y-22270D01*
X61578Y-22270D01*
X61859Y-22158D02*
X61904Y-22158D01*
X61927Y-22169D01*
X61949Y-22191D01*
X61961Y-22236D01*
X61961Y-22315D01*
X61949Y-22360D01*
X61927Y-22383D01*
X61904Y-22394D01*
X61859Y-22394D01*
X61837Y-22383D01*
X61814Y-22360D01*
X61803Y-22315D01*
X61803Y-22236D01*
X61814Y-22191D01*
X61837Y-22169D01*
X61859Y-22158D01*
X62107Y-22158D02*
X62152Y-22158D01*
X62174Y-22169D01*
X62197Y-22191D01*
X62208Y-22236D01*
X62208Y-22315D01*
X62197Y-22360D01*
X62174Y-22383D01*
X62152Y-22394D01*
X62107Y-22394D01*
X62084Y-22383D01*
X62062Y-22360D01*
X62051Y-22315D01*
X62051Y-22236D01*
X62062Y-22191D01*
X62084Y-22169D01*
X62107Y-22158D01*
X62276Y-22158D02*
X62411Y-22158D01*
X62343Y-22394D02*
X62343Y-22158D01*
X62534Y-22158D02*
X62557Y-22158D01*
X62579Y-22169D01*
X62591Y-22180D01*
X62602Y-22203D01*
X62613Y-22248D01*
X62613Y-22304D01*
X62602Y-22349D01*
X62591Y-22371D01*
X62579Y-22383D01*
X62557Y-22394D01*
X62534Y-22394D01*
X62512Y-22383D01*
X62501Y-22371D01*
X62489Y-22349D01*
X62478Y-22304D01*
X62478Y-22248D01*
X62489Y-22203D01*
X62501Y-22180D01*
X62512Y-22169D01*
X62534Y-22158D01*
X70680Y-32669D02*
X70680Y-32433D01*
X70770Y-32433D01*
X70792Y-32444D01*
X70803Y-32456D01*
X70815Y-32478D01*
X70815Y-32512D01*
X70803Y-32534D01*
X70792Y-32546D01*
X70770Y-32557D01*
X70680Y-32557D01*
X70905Y-32602D02*
X71017Y-32602D01*
X70882Y-32669D02*
X70961Y-32433D01*
X71040Y-32669D01*
X71152Y-32534D02*
X71130Y-32523D01*
X71118Y-32512D01*
X71107Y-32489D01*
X71107Y-32478D01*
X71118Y-32456D01*
X71130Y-32444D01*
X71152Y-32433D01*
X71197Y-32433D01*
X71220Y-32444D01*
X71231Y-32456D01*
X71242Y-32478D01*
X71242Y-32489D01*
X71231Y-32512D01*
X71220Y-32523D01*
X71197Y-32534D01*
X71152Y-32534D01*
X71130Y-32546D01*
X71118Y-32557D01*
X71107Y-32579D01*
X71107Y-32624D01*
X71118Y-32647D01*
X71130Y-32658D01*
X71152Y-32669D01*
X71197Y-32669D01*
X71220Y-32658D01*
X71231Y-32647D01*
X71242Y-32624D01*
X71242Y-32579D01*
X71231Y-32557D01*
X71220Y-32546D01*
X71197Y-32534D01*
X71703Y-32579D02*
X71883Y-32579D01*
X70680Y-33039D02*
X70680Y-32803D01*
X70770Y-32803D01*
X70792Y-32814D01*
X70803Y-32826D01*
X70815Y-32848D01*
X70815Y-32882D01*
X70803Y-32904D01*
X70792Y-32916D01*
X70770Y-32927D01*
X70680Y-32927D01*
X70905Y-32972D02*
X71017Y-32972D01*
X70882Y-33039D02*
X70961Y-32803D01*
X71040Y-33039D01*
X71130Y-33039D02*
X71175Y-33039D01*
X71197Y-33028D01*
X71208Y-33017D01*
X71231Y-32983D01*
X71242Y-32938D01*
X71242Y-32848D01*
X71231Y-32826D01*
X71220Y-32814D01*
X71197Y-32803D01*
X71152Y-32803D01*
X71130Y-32814D01*
X71118Y-32826D01*
X71107Y-32848D01*
X71107Y-32904D01*
X71118Y-32927D01*
X71130Y-32938D01*
X71152Y-32949D01*
X71197Y-32949D01*
X71220Y-32938D01*
X71231Y-32927D01*
X71242Y-32904D01*
X71703Y-32949D02*
X71883Y-32949D01*
X72176Y-32803D02*
X72176Y-32994D01*
X72187Y-33017D01*
X72198Y-33028D01*
X72221Y-33039D01*
X72266Y-33039D01*
X72288Y-33028D01*
X72300Y-33017D01*
X72311Y-32994D01*
X72311Y-32803D01*
X72412Y-33028D02*
X72446Y-33039D01*
X72502Y-33039D01*
X72525Y-33028D01*
X72536Y-33017D01*
X72547Y-32994D01*
X72547Y-32972D01*
X72536Y-32949D01*
X72525Y-32938D01*
X72502Y-32927D01*
X72457Y-32916D01*
X72435Y-32904D01*
X72423Y-32893D01*
X72412Y-32871D01*
X72412Y-32848D01*
X72423Y-32826D01*
X72435Y-32814D01*
X72457Y-32803D01*
X72513Y-32803D01*
X72547Y-32814D01*
X72637Y-32972D02*
X72750Y-32972D01*
X72615Y-33039D02*
X72693Y-32803D01*
X72772Y-33039D01*
X72986Y-33039D02*
X72907Y-32927D01*
X72851Y-33039D02*
X72851Y-32803D01*
X72941Y-32803D01*
X72963Y-32814D01*
X72974Y-32826D01*
X72986Y-32848D01*
X72986Y-32882D01*
X72974Y-32904D01*
X72963Y-32916D01*
X72941Y-32927D01*
X72851Y-32927D01*
X73053Y-32803D02*
X73188Y-32803D01*
X73121Y-33039D02*
X73121Y-32803D01*
X73391Y-33039D02*
X73256Y-33039D01*
X73323Y-33039D02*
X73323Y-32803D01*
X73301Y-32837D01*
X73278Y-32859D01*
X73256Y-32871D01*
X73458Y-32803D02*
X73593Y-32803D01*
X73526Y-33039D02*
X73526Y-32803D01*
X73649Y-32803D02*
X73807Y-33039D01*
X73807Y-32803D02*
X73649Y-33039D01*
X70680Y-33410D02*
X70680Y-33173D01*
X70770Y-33173D01*
X70792Y-33185D01*
X70803Y-33196D01*
X70815Y-33218D01*
X70815Y-33252D01*
X70803Y-33275D01*
X70792Y-33286D01*
X70770Y-33297D01*
X70680Y-33297D01*
X70905Y-33342D02*
X71017Y-33342D01*
X70882Y-33410D02*
X70961Y-33173D01*
X71040Y-33410D01*
X71242Y-33410D02*
X71107Y-33410D01*
X71175Y-33410D02*
X71175Y-33173D01*
X71152Y-33207D01*
X71130Y-33230D01*
X71107Y-33241D01*
X71388Y-33173D02*
X71411Y-33173D01*
X71433Y-33185D01*
X71445Y-33196D01*
X71456Y-33218D01*
X71467Y-33263D01*
X71467Y-33320D01*
X71456Y-33365D01*
X71445Y-33387D01*
X71433Y-33398D01*
X71411Y-33410D01*
X71388Y-33410D01*
X71366Y-33398D01*
X71355Y-33387D01*
X71343Y-33365D01*
X71332Y-33320D01*
X71332Y-33263D01*
X71343Y-33218D01*
X71355Y-33196D01*
X71366Y-33185D01*
X71388Y-33173D01*
X71748Y-33320D02*
X71928Y-33320D01*
X72221Y-33173D02*
X72221Y-33365D01*
X72232Y-33387D01*
X72243Y-33398D01*
X72266Y-33410D01*
X72311Y-33410D01*
X72333Y-33398D01*
X72345Y-33387D01*
X72356Y-33365D01*
X72356Y-33173D01*
X72457Y-33398D02*
X72491Y-33410D01*
X72547Y-33410D01*
X72570Y-33398D01*
X72581Y-33387D01*
X72592Y-33365D01*
X72592Y-33342D01*
X72581Y-33320D01*
X72570Y-33308D01*
X72547Y-33297D01*
X72502Y-33286D01*
X72480Y-33275D01*
X72468Y-33263D01*
X72457Y-33241D01*
X72457Y-33218D01*
X72468Y-33196D01*
X72480Y-33185D01*
X72502Y-33173D01*
X72558Y-33173D01*
X72592Y-33185D01*
X72682Y-33342D02*
X72794Y-33342D01*
X72660Y-33410D02*
X72738Y-33173D01*
X72817Y-33410D01*
X73031Y-33410D02*
X72952Y-33297D01*
X72896Y-33410D02*
X72896Y-33173D01*
X72986Y-33173D01*
X73008Y-33185D01*
X73019Y-33196D01*
X73031Y-33218D01*
X73031Y-33252D01*
X73019Y-33275D01*
X73008Y-33286D01*
X72986Y-33297D01*
X72896Y-33297D01*
X73098Y-33173D02*
X73233Y-33173D01*
X73166Y-33410D02*
X73166Y-33173D01*
X73436Y-33410D02*
X73301Y-33410D01*
X73368Y-33410D02*
X73368Y-33173D01*
X73346Y-33207D01*
X73323Y-33230D01*
X73301Y-33241D01*
X73672Y-33410D02*
X73593Y-33297D01*
X73537Y-33410D02*
X73537Y-33173D01*
X73627Y-33173D01*
X73649Y-33185D01*
X73661Y-33196D01*
X73672Y-33218D01*
X73672Y-33252D01*
X73661Y-33275D01*
X73649Y-33286D01*
X73627Y-33297D01*
X73537Y-33297D01*
X73751Y-33173D02*
X73908Y-33410D01*
X73908Y-33173D02*
X73751Y-33410D01*
X70680Y-33780D02*
X70680Y-33543D01*
X70770Y-33543D01*
X70792Y-33555D01*
X70803Y-33566D01*
X70815Y-33588D01*
X70815Y-33622D01*
X70803Y-33645D01*
X70792Y-33656D01*
X70770Y-33667D01*
X70680Y-33667D01*
X70905Y-33712D02*
X71017Y-33712D01*
X70882Y-33780D02*
X70961Y-33543D01*
X71040Y-33780D01*
X71242Y-33780D02*
X71107Y-33780D01*
X71175Y-33780D02*
X71175Y-33543D01*
X71152Y-33577D01*
X71130Y-33600D01*
X71107Y-33611D01*
X71467Y-33780D02*
X71332Y-33780D01*
X71400Y-33780D02*
X71400Y-33543D01*
X71377Y-33577D01*
X71355Y-33600D01*
X71332Y-33611D01*
X71748Y-33690D02*
X71928Y-33690D01*
X72221Y-33543D02*
X72221Y-33735D01*
X72232Y-33757D01*
X72243Y-33768D01*
X72266Y-33780D01*
X72311Y-33780D01*
X72333Y-33768D01*
X72345Y-33757D01*
X72356Y-33735D01*
X72356Y-33543D01*
X72457Y-33768D02*
X72491Y-33780D01*
X72547Y-33780D01*
X72570Y-33768D01*
X72581Y-33757D01*
X72592Y-33735D01*
X72592Y-33712D01*
X72581Y-33690D01*
X72570Y-33678D01*
X72547Y-33667D01*
X72502Y-33656D01*
X72480Y-33645D01*
X72468Y-33633D01*
X72457Y-33611D01*
X72457Y-33588D01*
X72468Y-33566D01*
X72480Y-33555D01*
X72502Y-33543D01*
X72558Y-33543D01*
X72592Y-33555D01*
X72772Y-33656D02*
X72806Y-33667D01*
X72817Y-33678D01*
X72828Y-33701D01*
X72828Y-33735D01*
X72817Y-33757D01*
X72806Y-33768D01*
X72783Y-33780D01*
X72693Y-33780D01*
X72693Y-33543D01*
X72772Y-33543D01*
X72794Y-33555D01*
X72806Y-33566D01*
X72817Y-33588D01*
X72817Y-33611D01*
X72806Y-33633D01*
X72794Y-33645D01*
X72772Y-33656D01*
X72693Y-33656D01*
X72929Y-33780D02*
X72929Y-33543D01*
X72986Y-33543D01*
X73019Y-33555D01*
X73042Y-33577D01*
X73053Y-33600D01*
X73064Y-33645D01*
X73064Y-33678D01*
X73053Y-33723D01*
X73042Y-33746D01*
X73019Y-33768D01*
X72986Y-33780D01*
X72929Y-33780D01*
X73166Y-33780D02*
X73166Y-33543D01*
X73244Y-33712D01*
X73323Y-33543D01*
X73323Y-33780D01*
X70680Y-34150D02*
X70680Y-33913D01*
X70770Y-33913D01*
X70792Y-33925D01*
X70803Y-33936D01*
X70815Y-33958D01*
X70815Y-33992D01*
X70803Y-34015D01*
X70792Y-34026D01*
X70770Y-34037D01*
X70680Y-34037D01*
X70905Y-34082D02*
X71017Y-34082D01*
X70882Y-34150D02*
X70961Y-33913D01*
X71040Y-34150D01*
X71242Y-34150D02*
X71107Y-34150D01*
X71175Y-34150D02*
X71175Y-33913D01*
X71152Y-33947D01*
X71130Y-33970D01*
X71107Y-33981D01*
X71332Y-33936D02*
X71343Y-33925D01*
X71366Y-33913D01*
X71422Y-33913D01*
X71445Y-33925D01*
X71456Y-33936D01*
X71467Y-33958D01*
X71467Y-33981D01*
X71456Y-34015D01*
X71321Y-34150D01*
X71467Y-34150D01*
X71748Y-34060D02*
X71928Y-34060D01*
X72221Y-33913D02*
X72221Y-34105D01*
X72232Y-34127D01*
X72243Y-34138D01*
X72266Y-34150D01*
X72311Y-34150D01*
X72333Y-34138D01*
X72345Y-34127D01*
X72356Y-34105D01*
X72356Y-33913D01*
X72457Y-34138D02*
X72491Y-34150D01*
X72547Y-34150D01*
X72570Y-34138D01*
X72581Y-34127D01*
X72592Y-34105D01*
X72592Y-34082D01*
X72581Y-34060D01*
X72570Y-34048D01*
X72547Y-34037D01*
X72502Y-34026D01*
X72480Y-34015D01*
X72468Y-34003D01*
X72457Y-33981D01*
X72457Y-33958D01*
X72468Y-33936D01*
X72480Y-33925D01*
X72502Y-33913D01*
X72558Y-33913D01*
X72592Y-33925D01*
X72772Y-34026D02*
X72806Y-34037D01*
X72817Y-34048D01*
X72828Y-34071D01*
X72828Y-34105D01*
X72817Y-34127D01*
X72806Y-34138D01*
X72783Y-34150D01*
X72693Y-34150D01*
X72693Y-33913D01*
X72772Y-33913D01*
X72794Y-33925D01*
X72806Y-33936D01*
X72817Y-33958D01*
X72817Y-33981D01*
X72806Y-34003D01*
X72794Y-34015D01*
X72772Y-34026D01*
X72693Y-34026D01*
X72929Y-34150D02*
X72929Y-33913D01*
X72986Y-33913D01*
X73019Y-33925D01*
X73042Y-33947D01*
X73053Y-33970D01*
X73064Y-34015D01*
X73064Y-34048D01*
X73053Y-34093D01*
X73042Y-34116D01*
X73019Y-34138D01*
X72986Y-34150D01*
X72929Y-34150D01*
X73166Y-34150D02*
X73166Y-33913D01*
X73256Y-33913D01*
X73278Y-33925D01*
X73289Y-33936D01*
X73301Y-33958D01*
X73301Y-33992D01*
X73289Y-34015D01*
X73278Y-34026D01*
X73256Y-34037D01*
X73166Y-34037D01*
X70680Y-34520D02*
X70680Y-34284D01*
X70770Y-34284D01*
X70792Y-34295D01*
X70803Y-34306D01*
X70815Y-34329D01*
X70815Y-34362D01*
X70803Y-34385D01*
X70792Y-34396D01*
X70770Y-34407D01*
X70680Y-34407D01*
X70905Y-34452D02*
X71017Y-34452D01*
X70882Y-34520D02*
X70961Y-34284D01*
X71040Y-34520D01*
X71242Y-34520D02*
X71107Y-34520D01*
X71175Y-34520D02*
X71175Y-34284D01*
X71152Y-34317D01*
X71130Y-34340D01*
X71107Y-34351D01*
X71321Y-34284D02*
X71467Y-34284D01*
X71388Y-34374D01*
X71422Y-34374D01*
X71445Y-34385D01*
X71456Y-34396D01*
X71467Y-34419D01*
X71467Y-34475D01*
X71456Y-34497D01*
X71445Y-34508D01*
X71422Y-34520D01*
X71355Y-34520D01*
X71332Y-34508D01*
X71321Y-34497D01*
X71748Y-34430D02*
X71928Y-34430D01*
X72288Y-34284D02*
X72288Y-34452D01*
X72277Y-34486D01*
X72255Y-34508D01*
X72221Y-34520D01*
X72198Y-34520D01*
X72367Y-34284D02*
X72502Y-34284D01*
X72435Y-34520D02*
X72435Y-34284D01*
X72581Y-34520D02*
X72581Y-34284D01*
X72660Y-34452D01*
X72738Y-34284D01*
X72738Y-34520D01*
X72839Y-34508D02*
X72873Y-34520D01*
X72929Y-34520D01*
X72952Y-34508D01*
X72963Y-34497D01*
X72974Y-34475D01*
X72974Y-34452D01*
X72963Y-34430D01*
X72952Y-34419D01*
X72929Y-34407D01*
X72884Y-34396D01*
X72862Y-34385D01*
X72851Y-34374D01*
X72839Y-34351D01*
X72839Y-34329D01*
X72851Y-34306D01*
X72862Y-34295D01*
X72884Y-34284D01*
X72941Y-34284D01*
X72974Y-34295D01*
X70680Y-34890D02*
X70680Y-34654D01*
X70770Y-34654D01*
X70792Y-34665D01*
X70803Y-34676D01*
X70815Y-34699D01*
X70815Y-34732D01*
X70803Y-34755D01*
X70792Y-34766D01*
X70770Y-34777D01*
X70680Y-34777D01*
X70905Y-34822D02*
X71017Y-34822D01*
X70882Y-34890D02*
X70961Y-34654D01*
X71040Y-34890D01*
X71242Y-34890D02*
X71107Y-34890D01*
X71175Y-34890D02*
X71175Y-34654D01*
X71152Y-34687D01*
X71130Y-34710D01*
X71107Y-34721D01*
X71445Y-34732D02*
X71445Y-34890D01*
X71388Y-34642D02*
X71332Y-34811D01*
X71478Y-34811D01*
X71748Y-34800D02*
X71928Y-34800D01*
X72288Y-34654D02*
X72288Y-34822D01*
X72277Y-34856D01*
X72255Y-34879D01*
X72221Y-34890D01*
X72198Y-34890D01*
X72367Y-34654D02*
X72502Y-34654D01*
X72435Y-34890D02*
X72435Y-34654D01*
X72716Y-34867D02*
X72705Y-34879D01*
X72671Y-34890D01*
X72648Y-34890D01*
X72615Y-34879D01*
X72592Y-34856D01*
X72581Y-34834D01*
X72570Y-34789D01*
X72570Y-34755D01*
X72581Y-34710D01*
X72592Y-34687D01*
X72615Y-34665D01*
X72648Y-34654D01*
X72671Y-34654D01*
X72705Y-34665D01*
X72716Y-34676D01*
X72817Y-34890D02*
X72817Y-34654D01*
X72952Y-34890D02*
X72851Y-34755D01*
X72952Y-34654D02*
X72817Y-34789D01*
X70680Y-35260D02*
X70680Y-35024D01*
X70770Y-35024D01*
X70792Y-35035D01*
X70803Y-35046D01*
X70815Y-35069D01*
X70815Y-35102D01*
X70803Y-35125D01*
X70792Y-35136D01*
X70770Y-35147D01*
X70680Y-35147D01*
X70905Y-35192D02*
X71017Y-35192D01*
X70882Y-35260D02*
X70961Y-35024D01*
X71040Y-35260D01*
X71242Y-35260D02*
X71107Y-35260D01*
X71175Y-35260D02*
X71175Y-35024D01*
X71152Y-35057D01*
X71130Y-35080D01*
X71107Y-35091D01*
X71456Y-35024D02*
X71343Y-35024D01*
X71332Y-35136D01*
X71343Y-35125D01*
X71366Y-35114D01*
X71422Y-35114D01*
X71445Y-35125D01*
X71456Y-35136D01*
X71467Y-35159D01*
X71467Y-35215D01*
X71456Y-35237D01*
X71445Y-35249D01*
X71422Y-35260D01*
X71366Y-35260D01*
X71343Y-35249D01*
X71332Y-35237D01*
X71748Y-35170D02*
X71928Y-35170D01*
X72288Y-35024D02*
X72288Y-35192D01*
X72277Y-35226D01*
X72255Y-35249D01*
X72221Y-35260D01*
X72198Y-35260D01*
X72367Y-35024D02*
X72502Y-35024D01*
X72435Y-35260D02*
X72435Y-35024D01*
X72581Y-35260D02*
X72581Y-35024D01*
X72637Y-35024D01*
X72671Y-35035D01*
X72693Y-35057D01*
X72705Y-35080D01*
X72716Y-35125D01*
X72716Y-35159D01*
X72705Y-35204D01*
X72693Y-35226D01*
X72671Y-35249D01*
X72637Y-35260D01*
X72581Y-35260D01*
X72817Y-35260D02*
X72817Y-35024D01*
X71339Y-27167D02*
X71339Y-26931D01*
X71429Y-26931D01*
X71452Y-26942D01*
X71463Y-26954D01*
X71474Y-26976D01*
X71474Y-27010D01*
X71463Y-27032D01*
X71452Y-27044D01*
X71429Y-27055D01*
X71339Y-27055D01*
X71710Y-27145D02*
X71699Y-27156D01*
X71665Y-27167D01*
X71643Y-27167D01*
X71609Y-27156D01*
X71587Y-27134D01*
X71575Y-27111D01*
X71564Y-27066D01*
X71564Y-27032D01*
X71575Y-26987D01*
X71587Y-26965D01*
X71609Y-26942D01*
X71643Y-26931D01*
X71665Y-26931D01*
X71699Y-26942D01*
X71710Y-26954D01*
X71935Y-27167D02*
X71800Y-27167D01*
X71868Y-27167D02*
X71868Y-26931D01*
X71845Y-26965D01*
X71823Y-26987D01*
X71800Y-26999D01*
X72014Y-26931D02*
X72160Y-26931D01*
X72082Y-27021D01*
X72115Y-27021D01*
X72138Y-27032D01*
X72149Y-27044D01*
X72160Y-27066D01*
X72160Y-27122D01*
X72149Y-27145D01*
X72138Y-27156D01*
X72115Y-27167D01*
X72048Y-27167D01*
X72025Y-27156D01*
X72014Y-27145D01*
X72442Y-27077D02*
X72622Y-27077D01*
X72880Y-26931D02*
X73015Y-26931D01*
X72948Y-27167D02*
X72948Y-26931D01*
X73083Y-27100D02*
X73195Y-27100D01*
X73060Y-27167D02*
X73139Y-26931D01*
X73218Y-27167D01*
X73296Y-27167D02*
X73296Y-26931D01*
X73375Y-27100D01*
X73454Y-26931D01*
X73454Y-27167D01*
X73566Y-27167D02*
X73566Y-26931D01*
X73656Y-26931D01*
X73679Y-26942D01*
X73690Y-26954D01*
X73701Y-26976D01*
X73701Y-27010D01*
X73690Y-27032D01*
X73679Y-27044D01*
X73656Y-27055D01*
X73566Y-27055D01*
X73803Y-27044D02*
X73881Y-27044D01*
X73915Y-27167D02*
X73803Y-27167D01*
X73803Y-26931D01*
X73915Y-26931D01*
X74151Y-27167D02*
X74073Y-27055D01*
X74016Y-27167D02*
X74016Y-26931D01*
X74106Y-26931D01*
X74129Y-26942D01*
X74140Y-26954D01*
X74151Y-26976D01*
X74151Y-27010D01*
X74140Y-27032D01*
X74129Y-27044D01*
X74106Y-27055D01*
X74016Y-27055D01*
X74421Y-26920D02*
X74219Y-27224D01*
X74635Y-27167D02*
X74556Y-27055D01*
X74500Y-27167D02*
X74500Y-26931D01*
X74590Y-26931D01*
X74613Y-26942D01*
X74624Y-26954D01*
X74635Y-26976D01*
X74635Y-27010D01*
X74624Y-27032D01*
X74613Y-27044D01*
X74590Y-27055D01*
X74500Y-27055D01*
X74703Y-26931D02*
X74838Y-26931D01*
X74770Y-27167D02*
X74770Y-26931D01*
X75051Y-27145D02*
X75040Y-27156D01*
X75006Y-27167D01*
X74984Y-27167D01*
X74950Y-27156D01*
X74928Y-27134D01*
X74916Y-27111D01*
X74905Y-27066D01*
X74905Y-27032D01*
X74916Y-26987D01*
X74928Y-26965D01*
X74950Y-26942D01*
X74984Y-26931D01*
X75006Y-26931D01*
X75040Y-26942D01*
X75051Y-26954D01*
X71339Y-27537D02*
X71339Y-27301D01*
X71429Y-27301D01*
X71452Y-27312D01*
X71463Y-27324D01*
X71474Y-27346D01*
X71474Y-27380D01*
X71463Y-27402D01*
X71452Y-27414D01*
X71429Y-27425D01*
X71339Y-27425D01*
X71710Y-27515D02*
X71699Y-27526D01*
X71665Y-27537D01*
X71643Y-27537D01*
X71609Y-27526D01*
X71587Y-27504D01*
X71575Y-27481D01*
X71564Y-27436D01*
X71564Y-27402D01*
X71575Y-27357D01*
X71587Y-27335D01*
X71609Y-27312D01*
X71643Y-27301D01*
X71665Y-27301D01*
X71699Y-27312D01*
X71710Y-27324D01*
X71935Y-27537D02*
X71800Y-27537D01*
X71868Y-27537D02*
X71868Y-27301D01*
X71845Y-27335D01*
X71823Y-27357D01*
X71800Y-27369D01*
X72138Y-27380D02*
X72138Y-27537D01*
X72082Y-27290D02*
X72025Y-27459D01*
X72172Y-27459D01*
X72442Y-27447D02*
X72622Y-27447D01*
X72959Y-27301D02*
X73004Y-27301D01*
X73026Y-27312D01*
X73049Y-27335D01*
X73060Y-27380D01*
X73060Y-27459D01*
X73049Y-27504D01*
X73026Y-27526D01*
X73004Y-27537D01*
X72959Y-27537D01*
X72937Y-27526D01*
X72914Y-27504D01*
X72903Y-27459D01*
X72903Y-27380D01*
X72914Y-27335D01*
X72937Y-27312D01*
X72959Y-27301D01*
X73150Y-27526D02*
X73184Y-27537D01*
X73240Y-27537D01*
X73263Y-27526D01*
X73274Y-27515D01*
X73285Y-27492D01*
X73285Y-27470D01*
X73274Y-27447D01*
X73263Y-27436D01*
X73240Y-27425D01*
X73195Y-27414D01*
X73173Y-27402D01*
X73161Y-27391D01*
X73150Y-27369D01*
X73150Y-27346D01*
X73161Y-27324D01*
X73173Y-27312D01*
X73195Y-27301D01*
X73251Y-27301D01*
X73285Y-27312D01*
X73521Y-27515D02*
X73510Y-27526D01*
X73476Y-27537D01*
X73454Y-27537D01*
X73420Y-27526D01*
X73398Y-27504D01*
X73386Y-27481D01*
X73375Y-27436D01*
X73375Y-27402D01*
X73386Y-27357D01*
X73398Y-27335D01*
X73420Y-27312D01*
X73454Y-27301D01*
X73476Y-27301D01*
X73510Y-27312D01*
X73521Y-27324D01*
X73600Y-27301D02*
X73746Y-27301D01*
X73668Y-27391D01*
X73701Y-27391D01*
X73724Y-27402D01*
X73735Y-27414D01*
X73746Y-27436D01*
X73746Y-27492D01*
X73735Y-27515D01*
X73724Y-27526D01*
X73701Y-27537D01*
X73634Y-27537D01*
X73611Y-27526D01*
X73600Y-27515D01*
X73836Y-27324D02*
X73848Y-27312D01*
X73870Y-27301D01*
X73926Y-27301D01*
X73949Y-27312D01*
X73960Y-27324D01*
X73971Y-27346D01*
X73971Y-27369D01*
X73960Y-27402D01*
X73825Y-27537D01*
X73971Y-27537D01*
X74073Y-27537D02*
X74073Y-27301D01*
X74185Y-27537D02*
X74185Y-27301D01*
X74320Y-27537D01*
X74320Y-27301D01*
X71339Y-27908D02*
X71339Y-27671D01*
X71429Y-27671D01*
X71452Y-27683D01*
X71463Y-27694D01*
X71474Y-27716D01*
X71474Y-27750D01*
X71463Y-27773D01*
X71452Y-27784D01*
X71429Y-27795D01*
X71339Y-27795D01*
X71710Y-27885D02*
X71699Y-27896D01*
X71665Y-27908D01*
X71643Y-27908D01*
X71609Y-27896D01*
X71587Y-27874D01*
X71575Y-27851D01*
X71564Y-27806D01*
X71564Y-27773D01*
X71575Y-27728D01*
X71587Y-27705D01*
X71609Y-27683D01*
X71643Y-27671D01*
X71665Y-27671D01*
X71699Y-27683D01*
X71710Y-27694D01*
X71935Y-27908D02*
X71800Y-27908D01*
X71868Y-27908D02*
X71868Y-27671D01*
X71845Y-27705D01*
X71823Y-27728D01*
X71800Y-27739D01*
X72149Y-27671D02*
X72037Y-27671D01*
X72025Y-27784D01*
X72037Y-27773D01*
X72059Y-27761D01*
X72115Y-27761D01*
X72138Y-27773D01*
X72149Y-27784D01*
X72160Y-27806D01*
X72160Y-27863D01*
X72149Y-27885D01*
X72138Y-27896D01*
X72115Y-27908D01*
X72059Y-27908D01*
X72037Y-27896D01*
X72025Y-27885D01*
X72442Y-27818D02*
X72622Y-27818D01*
X72959Y-27671D02*
X73004Y-27671D01*
X73026Y-27683D01*
X73049Y-27705D01*
X73060Y-27750D01*
X73060Y-27829D01*
X73049Y-27874D01*
X73026Y-27896D01*
X73004Y-27908D01*
X72959Y-27908D01*
X72937Y-27896D01*
X72914Y-27874D01*
X72903Y-27829D01*
X72903Y-27750D01*
X72914Y-27705D01*
X72937Y-27683D01*
X72959Y-27671D01*
X73150Y-27896D02*
X73184Y-27908D01*
X73240Y-27908D01*
X73263Y-27896D01*
X73274Y-27885D01*
X73285Y-27863D01*
X73285Y-27840D01*
X73274Y-27818D01*
X73263Y-27806D01*
X73240Y-27795D01*
X73195Y-27784D01*
X73173Y-27773D01*
X73161Y-27761D01*
X73150Y-27739D01*
X73150Y-27716D01*
X73161Y-27694D01*
X73173Y-27683D01*
X73195Y-27671D01*
X73251Y-27671D01*
X73285Y-27683D01*
X73521Y-27885D02*
X73510Y-27896D01*
X73476Y-27908D01*
X73454Y-27908D01*
X73420Y-27896D01*
X73398Y-27874D01*
X73386Y-27851D01*
X73375Y-27806D01*
X73375Y-27773D01*
X73386Y-27728D01*
X73398Y-27705D01*
X73420Y-27683D01*
X73454Y-27671D01*
X73476Y-27671D01*
X73510Y-27683D01*
X73521Y-27694D01*
X73600Y-27671D02*
X73746Y-27671D01*
X73668Y-27761D01*
X73701Y-27761D01*
X73724Y-27773D01*
X73735Y-27784D01*
X73746Y-27806D01*
X73746Y-27863D01*
X73735Y-27885D01*
X73724Y-27896D01*
X73701Y-27908D01*
X73634Y-27908D01*
X73611Y-27896D01*
X73600Y-27885D01*
X73836Y-27694D02*
X73848Y-27683D01*
X73870Y-27671D01*
X73926Y-27671D01*
X73949Y-27683D01*
X73960Y-27694D01*
X73971Y-27716D01*
X73971Y-27739D01*
X73960Y-27773D01*
X73825Y-27908D01*
X73971Y-27908D01*
X74118Y-27671D02*
X74163Y-27671D01*
X74185Y-27683D01*
X74208Y-27705D01*
X74219Y-27750D01*
X74219Y-27829D01*
X74208Y-27874D01*
X74185Y-27896D01*
X74163Y-27908D01*
X74118Y-27908D01*
X74095Y-27896D01*
X74073Y-27874D01*
X74061Y-27829D01*
X74061Y-27750D01*
X74073Y-27705D01*
X74095Y-27683D01*
X74118Y-27671D01*
X74320Y-27671D02*
X74320Y-27863D01*
X74331Y-27885D01*
X74343Y-27896D01*
X74365Y-27908D01*
X74410Y-27908D01*
X74433Y-27896D01*
X74444Y-27885D01*
X74455Y-27863D01*
X74455Y-27671D01*
X74534Y-27671D02*
X74669Y-27671D01*
X74601Y-27908D02*
X74601Y-27671D01*
X71339Y-23959D02*
X71339Y-23723D01*
X71429Y-23723D01*
X71452Y-23734D01*
X71463Y-23745D01*
X71474Y-23767D01*
X71474Y-23801D01*
X71463Y-23824D01*
X71452Y-23835D01*
X71429Y-23846D01*
X71339Y-23846D01*
X71654Y-23835D02*
X71688Y-23846D01*
X71699Y-23857D01*
X71710Y-23880D01*
X71710Y-23914D01*
X71699Y-23936D01*
X71688Y-23947D01*
X71665Y-23959D01*
X71575Y-23959D01*
X71575Y-23723D01*
X71654Y-23723D01*
X71677Y-23734D01*
X71688Y-23745D01*
X71699Y-23767D01*
X71699Y-23790D01*
X71688Y-23812D01*
X71677Y-23824D01*
X71654Y-23835D01*
X71575Y-23835D01*
X71857Y-23723D02*
X71879Y-23723D01*
X71902Y-23734D01*
X71913Y-23745D01*
X71924Y-23767D01*
X71935Y-23812D01*
X71935Y-23869D01*
X71924Y-23914D01*
X71913Y-23936D01*
X71902Y-23947D01*
X71879Y-23959D01*
X71857Y-23959D01*
X71834Y-23947D01*
X71823Y-23936D01*
X71812Y-23914D01*
X71800Y-23869D01*
X71800Y-23812D01*
X71812Y-23767D01*
X71823Y-23745D01*
X71834Y-23734D01*
X71857Y-23723D01*
X72397Y-23869D02*
X72577Y-23869D01*
X72858Y-23891D02*
X72970Y-23891D01*
X72835Y-23959D02*
X72914Y-23723D01*
X72993Y-23959D01*
X73071Y-23959D02*
X73071Y-23723D01*
X73128Y-23723D01*
X73161Y-23734D01*
X73184Y-23756D01*
X73195Y-23779D01*
X73206Y-23824D01*
X73206Y-23857D01*
X73195Y-23902D01*
X73184Y-23925D01*
X73161Y-23947D01*
X73128Y-23959D01*
X73071Y-23959D01*
X73443Y-23936D02*
X73431Y-23947D01*
X73398Y-23959D01*
X73375Y-23959D01*
X73341Y-23947D01*
X73319Y-23925D01*
X73308Y-23902D01*
X73296Y-23857D01*
X73296Y-23824D01*
X73308Y-23779D01*
X73319Y-23756D01*
X73341Y-23734D01*
X73375Y-23723D01*
X73398Y-23723D01*
X73431Y-23734D01*
X73443Y-23745D01*
X73544Y-23959D02*
X73544Y-23723D01*
X73656Y-23959D02*
X73656Y-23723D01*
X73791Y-23959D01*
X73791Y-23723D01*
X73938Y-23824D02*
X73915Y-23812D01*
X73904Y-23801D01*
X73893Y-23779D01*
X73893Y-23767D01*
X73904Y-23745D01*
X73915Y-23734D01*
X73938Y-23723D01*
X73983Y-23723D01*
X74005Y-23734D01*
X74016Y-23745D01*
X74028Y-23767D01*
X74028Y-23779D01*
X74016Y-23801D01*
X74005Y-23812D01*
X73983Y-23824D01*
X73938Y-23824D01*
X73915Y-23835D01*
X73904Y-23846D01*
X73893Y-23869D01*
X73893Y-23914D01*
X73904Y-23936D01*
X73915Y-23947D01*
X73938Y-23959D01*
X73983Y-23959D01*
X74005Y-23947D01*
X74016Y-23936D01*
X74028Y-23914D01*
X74028Y-23869D01*
X74016Y-23846D01*
X74005Y-23835D01*
X73983Y-23824D01*
X74298Y-23711D02*
X74095Y-24015D01*
X74343Y-23723D02*
X74478Y-23723D01*
X74410Y-23959D02*
X74410Y-23723D01*
X74556Y-23959D02*
X74556Y-23723D01*
X74669Y-23959D02*
X74669Y-23723D01*
X74748Y-23891D01*
X74826Y-23723D01*
X74826Y-23959D01*
X74916Y-23723D02*
X75062Y-23723D01*
X74984Y-23812D01*
X75017Y-23812D01*
X75040Y-23824D01*
X75051Y-23835D01*
X75062Y-23857D01*
X75062Y-23914D01*
X75051Y-23936D01*
X75040Y-23947D01*
X75017Y-23959D01*
X74950Y-23959D01*
X74928Y-23947D01*
X74916Y-23936D01*
X75299Y-23936D02*
X75287Y-23947D01*
X75254Y-23959D01*
X75231Y-23959D01*
X75197Y-23947D01*
X75175Y-23925D01*
X75164Y-23902D01*
X75152Y-23857D01*
X75152Y-23824D01*
X75164Y-23779D01*
X75175Y-23756D01*
X75197Y-23734D01*
X75231Y-23723D01*
X75254Y-23723D01*
X75287Y-23734D01*
X75299Y-23745D01*
X75400Y-23959D02*
X75400Y-23723D01*
X75400Y-23835D02*
X75535Y-23835D01*
X75535Y-23959D02*
X75535Y-23723D01*
X75625Y-23723D02*
X75771Y-23723D01*
X75692Y-23812D01*
X75726Y-23812D01*
X75749Y-23824D01*
X75760Y-23835D01*
X75771Y-23857D01*
X75771Y-23914D01*
X75760Y-23936D01*
X75749Y-23947D01*
X75726Y-23959D01*
X75659Y-23959D01*
X75636Y-23947D01*
X75625Y-23936D01*
X71339Y-24329D02*
X71339Y-24093D01*
X71429Y-24093D01*
X71452Y-24104D01*
X71463Y-24115D01*
X71474Y-24138D01*
X71474Y-24171D01*
X71463Y-24194D01*
X71452Y-24205D01*
X71429Y-24216D01*
X71339Y-24216D01*
X71654Y-24205D02*
X71688Y-24216D01*
X71699Y-24228D01*
X71710Y-24250D01*
X71710Y-24284D01*
X71699Y-24306D01*
X71688Y-24318D01*
X71665Y-24329D01*
X71575Y-24329D01*
X71575Y-24093D01*
X71654Y-24093D01*
X71677Y-24104D01*
X71688Y-24115D01*
X71699Y-24138D01*
X71699Y-24160D01*
X71688Y-24183D01*
X71677Y-24194D01*
X71654Y-24205D01*
X71575Y-24205D01*
X71935Y-24329D02*
X71800Y-24329D01*
X71868Y-24329D02*
X71868Y-24093D01*
X71845Y-24126D01*
X71823Y-24149D01*
X71800Y-24160D01*
X72397Y-24239D02*
X72577Y-24239D01*
X72858Y-24261D02*
X72970Y-24261D01*
X72835Y-24329D02*
X72914Y-24093D01*
X72993Y-24329D01*
X73071Y-24329D02*
X73071Y-24093D01*
X73128Y-24093D01*
X73161Y-24104D01*
X73184Y-24126D01*
X73195Y-24149D01*
X73206Y-24194D01*
X73206Y-24228D01*
X73195Y-24273D01*
X73184Y-24295D01*
X73161Y-24318D01*
X73128Y-24329D01*
X73071Y-24329D01*
X73443Y-24306D02*
X73431Y-24318D01*
X73398Y-24329D01*
X73375Y-24329D01*
X73341Y-24318D01*
X73319Y-24295D01*
X73308Y-24273D01*
X73296Y-24228D01*
X73296Y-24194D01*
X73308Y-24149D01*
X73319Y-24126D01*
X73341Y-24104D01*
X73375Y-24093D01*
X73398Y-24093D01*
X73431Y-24104D01*
X73443Y-24115D01*
X73544Y-24329D02*
X73544Y-24093D01*
X73656Y-24329D02*
X73656Y-24093D01*
X73791Y-24329D01*
X73791Y-24093D01*
X73915Y-24329D02*
X73960Y-24329D01*
X73983Y-24318D01*
X73994Y-24306D01*
X74016Y-24273D01*
X74028Y-24228D01*
X74028Y-24138D01*
X74016Y-24115D01*
X74005Y-24104D01*
X73983Y-24093D01*
X73938Y-24093D01*
X73915Y-24104D01*
X73904Y-24115D01*
X73893Y-24138D01*
X73893Y-24194D01*
X73904Y-24216D01*
X73915Y-24228D01*
X73938Y-24239D01*
X73983Y-24239D01*
X74005Y-24228D01*
X74016Y-24216D01*
X74028Y-24194D01*
X74298Y-24081D02*
X74095Y-24385D01*
X74343Y-24093D02*
X74478Y-24093D01*
X74410Y-24329D02*
X74410Y-24093D01*
X74556Y-24329D02*
X74556Y-24093D01*
X74669Y-24329D02*
X74669Y-24093D01*
X74748Y-24261D01*
X74826Y-24093D01*
X74826Y-24329D01*
X74916Y-24093D02*
X75062Y-24093D01*
X74984Y-24183D01*
X75017Y-24183D01*
X75040Y-24194D01*
X75051Y-24205D01*
X75062Y-24228D01*
X75062Y-24284D01*
X75051Y-24306D01*
X75040Y-24318D01*
X75017Y-24329D01*
X74950Y-24329D01*
X74928Y-24318D01*
X74916Y-24306D01*
X75299Y-24306D02*
X75287Y-24318D01*
X75254Y-24329D01*
X75231Y-24329D01*
X75197Y-24318D01*
X75175Y-24295D01*
X75164Y-24273D01*
X75152Y-24228D01*
X75152Y-24194D01*
X75164Y-24149D01*
X75175Y-24126D01*
X75197Y-24104D01*
X75231Y-24093D01*
X75254Y-24093D01*
X75287Y-24104D01*
X75299Y-24115D01*
X75400Y-24329D02*
X75400Y-24093D01*
X75400Y-24205D02*
X75535Y-24205D01*
X75535Y-24329D02*
X75535Y-24093D01*
X75749Y-24171D02*
X75749Y-24329D01*
X75692Y-24081D02*
X75636Y-24250D01*
X75782Y-24250D01*
X71339Y-24699D02*
X71339Y-24463D01*
X71429Y-24463D01*
X71452Y-24474D01*
X71463Y-24485D01*
X71474Y-24508D01*
X71474Y-24541D01*
X71463Y-24564D01*
X71452Y-24575D01*
X71429Y-24586D01*
X71339Y-24586D01*
X71654Y-24575D02*
X71688Y-24586D01*
X71699Y-24598D01*
X71710Y-24620D01*
X71710Y-24654D01*
X71699Y-24676D01*
X71688Y-24688D01*
X71665Y-24699D01*
X71575Y-24699D01*
X71575Y-24463D01*
X71654Y-24463D01*
X71677Y-24474D01*
X71688Y-24485D01*
X71699Y-24508D01*
X71699Y-24530D01*
X71688Y-24553D01*
X71677Y-24564D01*
X71654Y-24575D01*
X71575Y-24575D01*
X71800Y-24485D02*
X71812Y-24474D01*
X71834Y-24463D01*
X71890Y-24463D01*
X71913Y-24474D01*
X71924Y-24485D01*
X71935Y-24508D01*
X71935Y-24530D01*
X71924Y-24564D01*
X71789Y-24699D01*
X71935Y-24699D01*
X72397Y-24609D02*
X72577Y-24609D01*
X72948Y-24575D02*
X72982Y-24586D01*
X72993Y-24598D01*
X73004Y-24620D01*
X73004Y-24654D01*
X72993Y-24676D01*
X72982Y-24688D01*
X72959Y-24699D01*
X72869Y-24699D01*
X72869Y-24463D01*
X72948Y-24463D01*
X72970Y-24474D01*
X72982Y-24485D01*
X72993Y-24508D01*
X72993Y-24530D01*
X72982Y-24553D01*
X72970Y-24564D01*
X72948Y-24575D01*
X72869Y-24575D01*
X73150Y-24463D02*
X73195Y-24463D01*
X73218Y-24474D01*
X73240Y-24496D01*
X73251Y-24541D01*
X73251Y-24620D01*
X73240Y-24665D01*
X73218Y-24688D01*
X73195Y-24699D01*
X73150Y-24699D01*
X73128Y-24688D01*
X73105Y-24665D01*
X73094Y-24620D01*
X73094Y-24541D01*
X73105Y-24496D01*
X73128Y-24474D01*
X73150Y-24463D01*
X73398Y-24463D02*
X73443Y-24463D01*
X73465Y-24474D01*
X73488Y-24496D01*
X73499Y-24541D01*
X73499Y-24620D01*
X73488Y-24665D01*
X73465Y-24688D01*
X73443Y-24699D01*
X73398Y-24699D01*
X73375Y-24688D01*
X73353Y-24665D01*
X73341Y-24620D01*
X73341Y-24541D01*
X73353Y-24496D01*
X73375Y-24474D01*
X73398Y-24463D01*
X73566Y-24463D02*
X73701Y-24463D01*
X73634Y-24699D02*
X73634Y-24463D01*
X73904Y-24699D02*
X73769Y-24699D01*
X73836Y-24699D02*
X73836Y-24463D01*
X73814Y-24496D01*
X73791Y-24519D01*
X73769Y-24530D01*
X71339Y-25069D02*
X71339Y-24833D01*
X71429Y-24833D01*
X71452Y-24844D01*
X71463Y-24855D01*
X71474Y-24878D01*
X71474Y-24911D01*
X71463Y-24934D01*
X71452Y-24945D01*
X71429Y-24956D01*
X71339Y-24956D01*
X71654Y-24945D02*
X71688Y-24956D01*
X71699Y-24968D01*
X71710Y-24990D01*
X71710Y-25024D01*
X71699Y-25046D01*
X71688Y-25058D01*
X71665Y-25069D01*
X71575Y-25069D01*
X71575Y-24833D01*
X71654Y-24833D01*
X71677Y-24844D01*
X71688Y-24855D01*
X71699Y-24878D01*
X71699Y-24900D01*
X71688Y-24923D01*
X71677Y-24934D01*
X71654Y-24945D01*
X71575Y-24945D01*
X71789Y-24833D02*
X71935Y-24833D01*
X71857Y-24923D01*
X71890Y-24923D01*
X71913Y-24934D01*
X71924Y-24945D01*
X71935Y-24968D01*
X71935Y-25024D01*
X71924Y-25046D01*
X71913Y-25058D01*
X71890Y-25069D01*
X71823Y-25069D01*
X71800Y-25058D01*
X71789Y-25046D01*
X72397Y-24979D02*
X72577Y-24979D01*
X72937Y-24833D02*
X72937Y-25001D01*
X72925Y-25035D01*
X72903Y-25058D01*
X72869Y-25069D01*
X72847Y-25069D01*
X73015Y-24833D02*
X73150Y-24833D01*
X73083Y-25069D02*
X73083Y-24833D01*
X73229Y-25069D02*
X73229Y-24833D01*
X73285Y-24833D01*
X73319Y-24844D01*
X73341Y-24866D01*
X73353Y-24889D01*
X73364Y-24934D01*
X73364Y-24968D01*
X73353Y-25013D01*
X73341Y-25035D01*
X73319Y-25058D01*
X73285Y-25069D01*
X73229Y-25069D01*
X73510Y-24833D02*
X73555Y-24833D01*
X73578Y-24844D01*
X73600Y-24866D01*
X73611Y-24911D01*
X73611Y-24990D01*
X73600Y-25035D01*
X73578Y-25058D01*
X73555Y-25069D01*
X73510Y-25069D01*
X73488Y-25058D01*
X73465Y-25035D01*
X73454Y-24990D01*
X73454Y-24911D01*
X73465Y-24866D01*
X73488Y-24844D01*
X73510Y-24833D01*
X71339Y-25439D02*
X71339Y-25203D01*
X71429Y-25203D01*
X71452Y-25214D01*
X71463Y-25225D01*
X71474Y-25248D01*
X71474Y-25282D01*
X71463Y-25304D01*
X71452Y-25315D01*
X71429Y-25327D01*
X71339Y-25327D01*
X71654Y-25315D02*
X71688Y-25327D01*
X71699Y-25338D01*
X71710Y-25360D01*
X71710Y-25394D01*
X71699Y-25417D01*
X71688Y-25428D01*
X71665Y-25439D01*
X71575Y-25439D01*
X71575Y-25203D01*
X71654Y-25203D01*
X71677Y-25214D01*
X71688Y-25225D01*
X71699Y-25248D01*
X71699Y-25270D01*
X71688Y-25293D01*
X71677Y-25304D01*
X71654Y-25315D01*
X71575Y-25315D01*
X71913Y-25282D02*
X71913Y-25439D01*
X71857Y-25192D02*
X71800Y-25360D01*
X71947Y-25360D01*
X72397Y-25349D02*
X72577Y-25349D01*
X72937Y-25203D02*
X72937Y-25372D01*
X72925Y-25405D01*
X72903Y-25428D01*
X72869Y-25439D01*
X72847Y-25439D01*
X73015Y-25203D02*
X73150Y-25203D01*
X73083Y-25439D02*
X73083Y-25203D01*
X73364Y-25439D02*
X73285Y-25327D01*
X73229Y-25439D02*
X73229Y-25203D01*
X73319Y-25203D01*
X73341Y-25214D01*
X73353Y-25225D01*
X73364Y-25248D01*
X73364Y-25282D01*
X73353Y-25304D01*
X73341Y-25315D01*
X73319Y-25327D01*
X73229Y-25327D01*
X73454Y-25428D02*
X73488Y-25439D01*
X73544Y-25439D01*
X73566Y-25428D01*
X73578Y-25417D01*
X73589Y-25394D01*
X73589Y-25372D01*
X73578Y-25349D01*
X73566Y-25338D01*
X73544Y-25327D01*
X73499Y-25315D01*
X73476Y-25304D01*
X73465Y-25293D01*
X73454Y-25270D01*
X73454Y-25248D01*
X73465Y-25225D01*
X73476Y-25214D01*
X73499Y-25203D01*
X73555Y-25203D01*
X73589Y-25214D01*
X73656Y-25203D02*
X73791Y-25203D01*
X73724Y-25439D02*
X73724Y-25203D01*
X71339Y-25809D02*
X71339Y-25573D01*
X71429Y-25573D01*
X71452Y-25584D01*
X71463Y-25595D01*
X71474Y-25618D01*
X71474Y-25652D01*
X71463Y-25674D01*
X71452Y-25685D01*
X71429Y-25697D01*
X71339Y-25697D01*
X71654Y-25685D02*
X71688Y-25697D01*
X71699Y-25708D01*
X71710Y-25730D01*
X71710Y-25764D01*
X71699Y-25787D01*
X71688Y-25798D01*
X71665Y-25809D01*
X71575Y-25809D01*
X71575Y-25573D01*
X71654Y-25573D01*
X71677Y-25584D01*
X71688Y-25595D01*
X71699Y-25618D01*
X71699Y-25640D01*
X71688Y-25663D01*
X71677Y-25674D01*
X71654Y-25685D01*
X71575Y-25685D01*
X71924Y-25573D02*
X71812Y-25573D01*
X71800Y-25685D01*
X71812Y-25674D01*
X71834Y-25663D01*
X71890Y-25663D01*
X71913Y-25674D01*
X71924Y-25685D01*
X71935Y-25708D01*
X71935Y-25764D01*
X71924Y-25787D01*
X71913Y-25798D01*
X71890Y-25809D01*
X71834Y-25809D01*
X71812Y-25798D01*
X71800Y-25787D01*
X72397Y-25719D02*
X72577Y-25719D01*
X72869Y-25809D02*
X72869Y-25573D01*
X72970Y-25595D02*
X72982Y-25584D01*
X73004Y-25573D01*
X73060Y-25573D01*
X73083Y-25584D01*
X73094Y-25595D01*
X73105Y-25618D01*
X73105Y-25640D01*
X73094Y-25674D01*
X72959Y-25809D01*
X73105Y-25809D01*
X73341Y-25787D02*
X73330Y-25798D01*
X73296Y-25809D01*
X73274Y-25809D01*
X73240Y-25798D01*
X73218Y-25775D01*
X73206Y-25753D01*
X73195Y-25708D01*
X73195Y-25674D01*
X73206Y-25629D01*
X73218Y-25607D01*
X73240Y-25584D01*
X73274Y-25573D01*
X73296Y-25573D01*
X73330Y-25584D01*
X73341Y-25595D01*
X73431Y-25798D02*
X73465Y-25809D01*
X73521Y-25809D01*
X73544Y-25798D01*
X73555Y-25787D01*
X73566Y-25764D01*
X73566Y-25742D01*
X73555Y-25719D01*
X73544Y-25708D01*
X73521Y-25697D01*
X73476Y-25685D01*
X73454Y-25674D01*
X73443Y-25663D01*
X73431Y-25640D01*
X73431Y-25618D01*
X73443Y-25595D01*
X73454Y-25584D01*
X73476Y-25573D01*
X73533Y-25573D01*
X73566Y-25584D01*
X73668Y-25809D02*
X73668Y-25573D01*
X73746Y-25742D01*
X73825Y-25573D01*
X73825Y-25809D01*
X74016Y-25685D02*
X74050Y-25697D01*
X74061Y-25708D01*
X74073Y-25730D01*
X74073Y-25764D01*
X74061Y-25787D01*
X74050Y-25798D01*
X74028Y-25809D01*
X73938Y-25809D01*
X73938Y-25573D01*
X74016Y-25573D01*
X74039Y-25584D01*
X74050Y-25595D01*
X74061Y-25618D01*
X74061Y-25640D01*
X74050Y-25663D01*
X74039Y-25674D01*
X74016Y-25685D01*
X73938Y-25685D01*
X74163Y-25742D02*
X74275Y-25742D01*
X74140Y-25809D02*
X74219Y-25573D01*
X74298Y-25809D01*
X71339Y-26179D02*
X71339Y-25943D01*
X71429Y-25943D01*
X71452Y-25954D01*
X71463Y-25965D01*
X71474Y-25988D01*
X71474Y-26022D01*
X71463Y-26044D01*
X71452Y-26055D01*
X71429Y-26067D01*
X71339Y-26067D01*
X71654Y-26055D02*
X71688Y-26067D01*
X71699Y-26078D01*
X71710Y-26100D01*
X71710Y-26134D01*
X71699Y-26157D01*
X71688Y-26168D01*
X71665Y-26179D01*
X71575Y-26179D01*
X71575Y-25943D01*
X71654Y-25943D01*
X71677Y-25954D01*
X71688Y-25965D01*
X71699Y-25988D01*
X71699Y-26010D01*
X71688Y-26033D01*
X71677Y-26044D01*
X71654Y-26055D01*
X71575Y-26055D01*
X71913Y-25943D02*
X71868Y-25943D01*
X71845Y-25954D01*
X71834Y-25965D01*
X71812Y-25999D01*
X71800Y-26044D01*
X71800Y-26134D01*
X71812Y-26157D01*
X71823Y-26168D01*
X71845Y-26179D01*
X71890Y-26179D01*
X71913Y-26168D01*
X71924Y-26157D01*
X71935Y-26134D01*
X71935Y-26078D01*
X71924Y-26055D01*
X71913Y-26044D01*
X71890Y-26033D01*
X71845Y-26033D01*
X71823Y-26044D01*
X71812Y-26055D01*
X71800Y-26078D01*
X72397Y-26089D02*
X72577Y-26089D01*
X72869Y-26179D02*
X72869Y-25943D01*
X72970Y-25965D02*
X72982Y-25954D01*
X73004Y-25943D01*
X73060Y-25943D01*
X73083Y-25954D01*
X73094Y-25965D01*
X73105Y-25988D01*
X73105Y-26010D01*
X73094Y-26044D01*
X72959Y-26179D01*
X73105Y-26179D01*
X73341Y-26157D02*
X73330Y-26168D01*
X73296Y-26179D01*
X73274Y-26179D01*
X73240Y-26168D01*
X73218Y-26145D01*
X73206Y-26123D01*
X73195Y-26078D01*
X73195Y-26044D01*
X73206Y-25999D01*
X73218Y-25977D01*
X73240Y-25954D01*
X73274Y-25943D01*
X73296Y-25943D01*
X73330Y-25954D01*
X73341Y-25965D01*
X73431Y-26168D02*
X73465Y-26179D01*
X73521Y-26179D01*
X73544Y-26168D01*
X73555Y-26157D01*
X73566Y-26134D01*
X73566Y-26112D01*
X73555Y-26089D01*
X73544Y-26078D01*
X73521Y-26067D01*
X73476Y-26055D01*
X73454Y-26044D01*
X73443Y-26033D01*
X73431Y-26010D01*
X73431Y-25988D01*
X73443Y-25965D01*
X73454Y-25954D01*
X73476Y-25943D01*
X73533Y-25943D01*
X73566Y-25954D01*
X73803Y-26157D02*
X73791Y-26168D01*
X73758Y-26179D01*
X73735Y-26179D01*
X73701Y-26168D01*
X73679Y-26145D01*
X73668Y-26123D01*
X73656Y-26078D01*
X73656Y-26044D01*
X73668Y-25999D01*
X73679Y-25977D01*
X73701Y-25954D01*
X73735Y-25943D01*
X73758Y-25943D01*
X73791Y-25954D01*
X73803Y-25965D01*
X74016Y-26179D02*
X73904Y-26179D01*
X73904Y-25943D01*
X71339Y-26549D02*
X71339Y-26313D01*
X71429Y-26313D01*
X71452Y-26324D01*
X71463Y-26336D01*
X71474Y-26358D01*
X71474Y-26392D01*
X71463Y-26414D01*
X71452Y-26426D01*
X71429Y-26437D01*
X71339Y-26437D01*
X71654Y-26426D02*
X71688Y-26437D01*
X71699Y-26448D01*
X71710Y-26471D01*
X71710Y-26504D01*
X71699Y-26527D01*
X71688Y-26538D01*
X71665Y-26549D01*
X71575Y-26549D01*
X71575Y-26313D01*
X71654Y-26313D01*
X71677Y-26324D01*
X71688Y-26336D01*
X71699Y-26358D01*
X71699Y-26381D01*
X71688Y-26403D01*
X71677Y-26414D01*
X71654Y-26426D01*
X71575Y-26426D01*
X71789Y-26313D02*
X71947Y-26313D01*
X71845Y-26549D01*
X72397Y-26459D02*
X72577Y-26459D01*
X72869Y-26549D02*
X72869Y-26313D01*
X72970Y-26336D02*
X72982Y-26324D01*
X73004Y-26313D01*
X73060Y-26313D01*
X73083Y-26324D01*
X73094Y-26336D01*
X73105Y-26358D01*
X73105Y-26381D01*
X73094Y-26414D01*
X72959Y-26549D01*
X73105Y-26549D01*
X73341Y-26527D02*
X73330Y-26538D01*
X73296Y-26549D01*
X73274Y-26549D01*
X73240Y-26538D01*
X73218Y-26516D01*
X73206Y-26493D01*
X73195Y-26448D01*
X73195Y-26414D01*
X73206Y-26369D01*
X73218Y-26347D01*
X73240Y-26324D01*
X73274Y-26313D01*
X73296Y-26313D01*
X73330Y-26324D01*
X73341Y-26336D01*
X73431Y-26538D02*
X73465Y-26549D01*
X73521Y-26549D01*
X73544Y-26538D01*
X73555Y-26527D01*
X73566Y-26504D01*
X73566Y-26482D01*
X73555Y-26459D01*
X73544Y-26448D01*
X73521Y-26437D01*
X73476Y-26426D01*
X73454Y-26414D01*
X73443Y-26403D01*
X73431Y-26381D01*
X73431Y-26358D01*
X73443Y-26336D01*
X73454Y-26324D01*
X73476Y-26313D01*
X73533Y-26313D01*
X73566Y-26324D01*
X73668Y-26549D02*
X73668Y-26313D01*
X73724Y-26313D01*
X73758Y-26324D01*
X73780Y-26347D01*
X73791Y-26369D01*
X73803Y-26414D01*
X73803Y-26448D01*
X73791Y-26493D01*
X73780Y-26516D01*
X73758Y-26538D01*
X73724Y-26549D01*
X73668Y-26549D01*
X73893Y-26482D02*
X74005Y-26482D01*
X73870Y-26549D02*
X73949Y-26313D01*
X74028Y-26549D01*
X74705Y-33595D02*
X74705Y-33358D01*
X74795Y-33358D01*
X74818Y-33370D01*
X74829Y-33381D01*
X74840Y-33403D01*
X74840Y-33437D01*
X74829Y-33460D01*
X74818Y-33471D01*
X74795Y-33482D01*
X74705Y-33482D01*
X74942Y-33595D02*
X74942Y-33358D01*
X74998Y-33358D01*
X75032Y-33370D01*
X75054Y-33392D01*
X75065Y-33415D01*
X75077Y-33460D01*
X75077Y-33493D01*
X75065Y-33538D01*
X75054Y-33561D01*
X75032Y-33583D01*
X74998Y-33595D01*
X74942Y-33595D01*
X75223Y-33358D02*
X75245Y-33358D01*
X75268Y-33370D01*
X75279Y-33381D01*
X75290Y-33403D01*
X75302Y-33448D01*
X75302Y-33505D01*
X75290Y-33550D01*
X75279Y-33572D01*
X75268Y-33583D01*
X75245Y-33595D01*
X75223Y-33595D01*
X75200Y-33583D01*
X75189Y-33572D01*
X75178Y-33550D01*
X75167Y-33505D01*
X75167Y-33448D01*
X75178Y-33403D01*
X75189Y-33381D01*
X75200Y-33370D01*
X75223Y-33358D01*
X75583Y-33505D02*
X75763Y-33505D01*
X76100Y-33358D02*
X76145Y-33358D01*
X76168Y-33370D01*
X76190Y-33392D01*
X76201Y-33437D01*
X76201Y-33516D01*
X76190Y-33561D01*
X76168Y-33583D01*
X76145Y-33595D01*
X76100Y-33595D01*
X76078Y-33583D01*
X76055Y-33561D01*
X76044Y-33516D01*
X76044Y-33437D01*
X76055Y-33392D01*
X76078Y-33370D01*
X76100Y-33358D01*
X76291Y-33583D02*
X76325Y-33595D01*
X76381Y-33595D01*
X76404Y-33583D01*
X76415Y-33572D01*
X76426Y-33550D01*
X76426Y-33527D01*
X76415Y-33505D01*
X76404Y-33493D01*
X76381Y-33482D01*
X76336Y-33471D01*
X76314Y-33460D01*
X76303Y-33448D01*
X76291Y-33426D01*
X76291Y-33403D01*
X76303Y-33381D01*
X76314Y-33370D01*
X76336Y-33358D01*
X76393Y-33358D01*
X76426Y-33370D01*
X76663Y-33572D02*
X76651Y-33583D01*
X76618Y-33595D01*
X76595Y-33595D01*
X76561Y-33583D01*
X76539Y-33561D01*
X76528Y-33538D01*
X76516Y-33493D01*
X76516Y-33460D01*
X76528Y-33415D01*
X76539Y-33392D01*
X76561Y-33370D01*
X76595Y-33358D01*
X76618Y-33358D01*
X76651Y-33370D01*
X76663Y-33381D01*
X76764Y-33595D02*
X76764Y-33358D01*
X76876Y-33595D02*
X76876Y-33358D01*
X77011Y-33595D01*
X77011Y-33358D01*
X74705Y-33965D02*
X74705Y-33728D01*
X74795Y-33728D01*
X74818Y-33740D01*
X74829Y-33751D01*
X74840Y-33773D01*
X74840Y-33807D01*
X74829Y-33830D01*
X74818Y-33841D01*
X74795Y-33852D01*
X74705Y-33852D01*
X74942Y-33965D02*
X74942Y-33728D01*
X74998Y-33728D01*
X75032Y-33740D01*
X75054Y-33762D01*
X75065Y-33785D01*
X75077Y-33830D01*
X75077Y-33863D01*
X75065Y-33908D01*
X75054Y-33931D01*
X75032Y-33953D01*
X74998Y-33965D01*
X74942Y-33965D01*
X75302Y-33965D02*
X75167Y-33965D01*
X75234Y-33965D02*
X75234Y-33728D01*
X75212Y-33762D01*
X75189Y-33785D01*
X75167Y-33796D01*
X75583Y-33875D02*
X75763Y-33875D01*
X76100Y-33728D02*
X76145Y-33728D01*
X76168Y-33740D01*
X76190Y-33762D01*
X76201Y-33807D01*
X76201Y-33886D01*
X76190Y-33931D01*
X76168Y-33953D01*
X76145Y-33965D01*
X76100Y-33965D01*
X76078Y-33953D01*
X76055Y-33931D01*
X76044Y-33886D01*
X76044Y-33807D01*
X76055Y-33762D01*
X76078Y-33740D01*
X76100Y-33728D01*
X76291Y-33953D02*
X76325Y-33965D01*
X76381Y-33965D01*
X76404Y-33953D01*
X76415Y-33942D01*
X76426Y-33920D01*
X76426Y-33897D01*
X76415Y-33875D01*
X76404Y-33863D01*
X76381Y-33852D01*
X76336Y-33841D01*
X76314Y-33830D01*
X76303Y-33818D01*
X76291Y-33796D01*
X76291Y-33773D01*
X76303Y-33751D01*
X76314Y-33740D01*
X76336Y-33728D01*
X76393Y-33728D01*
X76426Y-33740D01*
X76663Y-33942D02*
X76651Y-33953D01*
X76618Y-33965D01*
X76595Y-33965D01*
X76561Y-33953D01*
X76539Y-33931D01*
X76528Y-33908D01*
X76516Y-33863D01*
X76516Y-33830D01*
X76528Y-33785D01*
X76539Y-33762D01*
X76561Y-33740D01*
X76595Y-33728D01*
X76618Y-33728D01*
X76651Y-33740D01*
X76663Y-33751D01*
X76809Y-33728D02*
X76854Y-33728D01*
X76876Y-33740D01*
X76899Y-33762D01*
X76910Y-33807D01*
X76910Y-33886D01*
X76899Y-33931D01*
X76876Y-33953D01*
X76854Y-33965D01*
X76809Y-33965D01*
X76786Y-33953D01*
X76764Y-33931D01*
X76753Y-33886D01*
X76753Y-33807D01*
X76764Y-33762D01*
X76786Y-33740D01*
X76809Y-33728D01*
X77011Y-33728D02*
X77011Y-33920D01*
X77023Y-33942D01*
X77034Y-33953D01*
X77056Y-33965D01*
X77101Y-33965D01*
X77124Y-33953D01*
X77135Y-33942D01*
X77146Y-33920D01*
X77146Y-33728D01*
X77225Y-33728D02*
X77360Y-33728D01*
X77293Y-33965D02*
X77293Y-33728D01*
X64056Y-32669D02*
X64056Y-32433D01*
X64146Y-32433D01*
X64168Y-32444D01*
X64179Y-32456D01*
X64191Y-32478D01*
X64191Y-32512D01*
X64179Y-32534D01*
X64168Y-32546D01*
X64146Y-32557D01*
X64056Y-32557D01*
X64281Y-32602D02*
X64393Y-32602D01*
X64258Y-32669D02*
X64337Y-32433D01*
X64416Y-32669D01*
X64539Y-32433D02*
X64562Y-32433D01*
X64584Y-32444D01*
X64596Y-32456D01*
X64607Y-32478D01*
X64618Y-32523D01*
X64618Y-32579D01*
X64607Y-32624D01*
X64596Y-32647D01*
X64584Y-32658D01*
X64562Y-32669D01*
X64539Y-32669D01*
X64517Y-32658D01*
X64506Y-32647D01*
X64494Y-32624D01*
X64483Y-32579D01*
X64483Y-32523D01*
X64494Y-32478D01*
X64506Y-32456D01*
X64517Y-32444D01*
X64539Y-32433D01*
X65079Y-32579D02*
X65259Y-32579D01*
X65541Y-32602D02*
X65653Y-32602D01*
X65518Y-32669D02*
X65597Y-32433D01*
X65676Y-32669D01*
X65754Y-32669D02*
X65754Y-32433D01*
X65811Y-32433D01*
X65844Y-32444D01*
X65867Y-32467D01*
X65878Y-32489D01*
X65889Y-32534D01*
X65889Y-32568D01*
X65878Y-32613D01*
X65867Y-32636D01*
X65844Y-32658D01*
X65811Y-32669D01*
X65754Y-32669D01*
X66125Y-32647D02*
X66114Y-32658D01*
X66080Y-32669D01*
X66058Y-32669D01*
X66024Y-32658D01*
X66002Y-32636D01*
X65991Y-32613D01*
X65979Y-32568D01*
X65979Y-32534D01*
X65991Y-32489D01*
X66002Y-32467D01*
X66024Y-32444D01*
X66058Y-32433D01*
X66080Y-32433D01*
X66114Y-32444D01*
X66125Y-32456D01*
X66272Y-32433D02*
X66294Y-32433D01*
X66317Y-32444D01*
X66328Y-32456D01*
X66339Y-32478D01*
X66350Y-32523D01*
X66350Y-32579D01*
X66339Y-32624D01*
X66328Y-32647D01*
X66317Y-32658D01*
X66294Y-32669D01*
X66272Y-32669D01*
X66249Y-32658D01*
X66238Y-32647D01*
X66227Y-32624D01*
X66215Y-32579D01*
X66215Y-32523D01*
X66227Y-32478D01*
X66238Y-32456D01*
X66249Y-32444D01*
X66272Y-32433D01*
X66620Y-32422D02*
X66418Y-32726D01*
X66665Y-32433D02*
X66800Y-32433D01*
X66733Y-32669D02*
X66733Y-32433D01*
X66879Y-32669D02*
X66879Y-32433D01*
X66992Y-32669D02*
X66992Y-32433D01*
X67070Y-32602D01*
X67149Y-32433D01*
X67149Y-32669D01*
X67250Y-32456D02*
X67262Y-32444D01*
X67284Y-32433D01*
X67340Y-32433D01*
X67363Y-32444D01*
X67374Y-32456D01*
X67385Y-32478D01*
X67385Y-32501D01*
X67374Y-32534D01*
X67239Y-32669D01*
X67385Y-32669D01*
X67622Y-32647D02*
X67610Y-32658D01*
X67577Y-32669D01*
X67554Y-32669D01*
X67520Y-32658D01*
X67498Y-32636D01*
X67487Y-32613D01*
X67475Y-32568D01*
X67475Y-32534D01*
X67487Y-32489D01*
X67498Y-32467D01*
X67520Y-32444D01*
X67554Y-32433D01*
X67577Y-32433D01*
X67610Y-32444D01*
X67622Y-32456D01*
X67723Y-32669D02*
X67723Y-32433D01*
X67723Y-32546D02*
X67858Y-32546D01*
X67858Y-32669D02*
X67858Y-32433D01*
X68094Y-32669D02*
X67959Y-32669D01*
X68026Y-32669D02*
X68026Y-32433D01*
X68004Y-32467D01*
X67982Y-32489D01*
X67959Y-32501D01*
X64056Y-33039D02*
X64056Y-32803D01*
X64146Y-32803D01*
X64168Y-32814D01*
X64179Y-32826D01*
X64191Y-32848D01*
X64191Y-32882D01*
X64179Y-32904D01*
X64168Y-32916D01*
X64146Y-32927D01*
X64056Y-32927D01*
X64281Y-32972D02*
X64393Y-32972D01*
X64258Y-33039D02*
X64337Y-32803D01*
X64416Y-33039D01*
X64618Y-33039D02*
X64483Y-33039D01*
X64551Y-33039D02*
X64551Y-32803D01*
X64528Y-32837D01*
X64506Y-32859D01*
X64483Y-32871D01*
X65079Y-32949D02*
X65259Y-32949D01*
X65541Y-32972D02*
X65653Y-32972D01*
X65518Y-33039D02*
X65597Y-32803D01*
X65676Y-33039D01*
X65754Y-33039D02*
X65754Y-32803D01*
X65811Y-32803D01*
X65844Y-32814D01*
X65867Y-32837D01*
X65878Y-32859D01*
X65889Y-32904D01*
X65889Y-32938D01*
X65878Y-32983D01*
X65867Y-33006D01*
X65844Y-33028D01*
X65811Y-33039D01*
X65754Y-33039D01*
X66125Y-33017D02*
X66114Y-33028D01*
X66080Y-33039D01*
X66058Y-33039D01*
X66024Y-33028D01*
X66002Y-33006D01*
X65991Y-32983D01*
X65979Y-32938D01*
X65979Y-32904D01*
X65991Y-32859D01*
X66002Y-32837D01*
X66024Y-32814D01*
X66058Y-32803D01*
X66080Y-32803D01*
X66114Y-32814D01*
X66125Y-32826D01*
X66350Y-33039D02*
X66215Y-33039D01*
X66283Y-33039D02*
X66283Y-32803D01*
X66260Y-32837D01*
X66238Y-32859D01*
X66215Y-32871D01*
X66620Y-32792D02*
X66418Y-33096D01*
X66665Y-32803D02*
X66800Y-32803D01*
X66733Y-33039D02*
X66733Y-32803D01*
X66879Y-33039D02*
X66879Y-32803D01*
X66992Y-33039D02*
X66992Y-32803D01*
X67070Y-32972D01*
X67149Y-32803D01*
X67149Y-33039D01*
X67250Y-32826D02*
X67262Y-32814D01*
X67284Y-32803D01*
X67340Y-32803D01*
X67363Y-32814D01*
X67374Y-32826D01*
X67385Y-32848D01*
X67385Y-32871D01*
X67374Y-32904D01*
X67239Y-33039D01*
X67385Y-33039D01*
X67622Y-33017D02*
X67610Y-33028D01*
X67577Y-33039D01*
X67554Y-33039D01*
X67520Y-33028D01*
X67498Y-33006D01*
X67487Y-32983D01*
X67475Y-32938D01*
X67475Y-32904D01*
X67487Y-32859D01*
X67498Y-32837D01*
X67520Y-32814D01*
X67554Y-32803D01*
X67577Y-32803D01*
X67610Y-32814D01*
X67622Y-32826D01*
X67723Y-33039D02*
X67723Y-32803D01*
X67723Y-32916D02*
X67858Y-32916D01*
X67858Y-33039D02*
X67858Y-32803D01*
X67959Y-32826D02*
X67970Y-32814D01*
X67993Y-32803D01*
X68049Y-32803D01*
X68071Y-32814D01*
X68083Y-32826D01*
X68094Y-32848D01*
X68094Y-32871D01*
X68083Y-32904D01*
X67948Y-33039D01*
X68094Y-33039D01*
X64056Y-33410D02*
X64056Y-33173D01*
X64146Y-33173D01*
X64168Y-33185D01*
X64179Y-33196D01*
X64191Y-33218D01*
X64191Y-33252D01*
X64179Y-33275D01*
X64168Y-33286D01*
X64146Y-33297D01*
X64056Y-33297D01*
X64281Y-33342D02*
X64393Y-33342D01*
X64258Y-33410D02*
X64337Y-33173D01*
X64416Y-33410D01*
X64483Y-33196D02*
X64494Y-33185D01*
X64517Y-33173D01*
X64573Y-33173D01*
X64596Y-33185D01*
X64607Y-33196D01*
X64618Y-33218D01*
X64618Y-33241D01*
X64607Y-33275D01*
X64472Y-33410D01*
X64618Y-33410D01*
X65079Y-33320D02*
X65259Y-33320D01*
X65541Y-33342D02*
X65653Y-33342D01*
X65518Y-33410D02*
X65597Y-33173D01*
X65676Y-33410D01*
X65754Y-33410D02*
X65754Y-33173D01*
X65811Y-33173D01*
X65844Y-33185D01*
X65867Y-33207D01*
X65878Y-33230D01*
X65889Y-33275D01*
X65889Y-33308D01*
X65878Y-33353D01*
X65867Y-33376D01*
X65844Y-33398D01*
X65811Y-33410D01*
X65754Y-33410D01*
X66125Y-33387D02*
X66114Y-33398D01*
X66080Y-33410D01*
X66058Y-33410D01*
X66024Y-33398D01*
X66002Y-33376D01*
X65991Y-33353D01*
X65979Y-33308D01*
X65979Y-33275D01*
X65991Y-33230D01*
X66002Y-33207D01*
X66024Y-33185D01*
X66058Y-33173D01*
X66080Y-33173D01*
X66114Y-33185D01*
X66125Y-33196D01*
X66215Y-33196D02*
X66227Y-33185D01*
X66249Y-33173D01*
X66305Y-33173D01*
X66328Y-33185D01*
X66339Y-33196D01*
X66350Y-33218D01*
X66350Y-33241D01*
X66339Y-33275D01*
X66204Y-33410D01*
X66350Y-33410D01*
X66620Y-33162D02*
X66418Y-33466D01*
X66665Y-33173D02*
X66800Y-33173D01*
X66733Y-33410D02*
X66733Y-33173D01*
X66879Y-33410D02*
X66879Y-33173D01*
X66992Y-33410D02*
X66992Y-33173D01*
X67070Y-33342D01*
X67149Y-33173D01*
X67149Y-33410D01*
X67250Y-33196D02*
X67262Y-33185D01*
X67284Y-33173D01*
X67340Y-33173D01*
X67363Y-33185D01*
X67374Y-33196D01*
X67385Y-33218D01*
X67385Y-33241D01*
X67374Y-33275D01*
X67239Y-33410D01*
X67385Y-33410D01*
X67622Y-33387D02*
X67610Y-33398D01*
X67577Y-33410D01*
X67554Y-33410D01*
X67520Y-33398D01*
X67498Y-33376D01*
X67487Y-33353D01*
X67475Y-33308D01*
X67475Y-33275D01*
X67487Y-33230D01*
X67498Y-33207D01*
X67520Y-33185D01*
X67554Y-33173D01*
X67577Y-33173D01*
X67610Y-33185D01*
X67622Y-33196D01*
X67723Y-33410D02*
X67723Y-33173D01*
X67723Y-33286D02*
X67858Y-33286D01*
X67858Y-33410D02*
X67858Y-33173D01*
X67948Y-33173D02*
X68094Y-33173D01*
X68015Y-33263D01*
X68049Y-33263D01*
X68071Y-33275D01*
X68083Y-33286D01*
X68094Y-33308D01*
X68094Y-33365D01*
X68083Y-33387D01*
X68071Y-33398D01*
X68049Y-33410D01*
X67982Y-33410D01*
X67959Y-33398D01*
X67948Y-33387D01*
X68364Y-33162D02*
X68161Y-33466D01*
X68443Y-33173D02*
X68443Y-33365D01*
X68454Y-33387D01*
X68465Y-33398D01*
X68488Y-33410D01*
X68533Y-33410D01*
X68555Y-33398D01*
X68566Y-33387D01*
X68578Y-33365D01*
X68578Y-33173D01*
X68679Y-33398D02*
X68713Y-33410D01*
X68769Y-33410D01*
X68791Y-33398D01*
X68803Y-33387D01*
X68814Y-33365D01*
X68814Y-33342D01*
X68803Y-33320D01*
X68791Y-33308D01*
X68769Y-33297D01*
X68724Y-33286D01*
X68701Y-33275D01*
X68690Y-33263D01*
X68679Y-33241D01*
X68679Y-33218D01*
X68690Y-33196D01*
X68701Y-33185D01*
X68724Y-33173D01*
X68780Y-33173D01*
X68814Y-33185D01*
X68904Y-33342D02*
X69016Y-33342D01*
X68881Y-33410D02*
X68960Y-33173D01*
X69039Y-33410D01*
X69253Y-33410D02*
X69174Y-33297D01*
X69118Y-33410D02*
X69118Y-33173D01*
X69208Y-33173D01*
X69230Y-33185D01*
X69241Y-33196D01*
X69253Y-33218D01*
X69253Y-33252D01*
X69241Y-33275D01*
X69230Y-33286D01*
X69208Y-33297D01*
X69118Y-33297D01*
X69320Y-33173D02*
X69455Y-33173D01*
X69388Y-33410D02*
X69388Y-33173D01*
X69523Y-33196D02*
X69534Y-33185D01*
X69556Y-33173D01*
X69613Y-33173D01*
X69635Y-33185D01*
X69646Y-33196D01*
X69658Y-33218D01*
X69658Y-33241D01*
X69646Y-33275D01*
X69511Y-33410D01*
X69658Y-33410D01*
X69725Y-33173D02*
X69860Y-33173D01*
X69793Y-33410D02*
X69793Y-33173D01*
X69916Y-33173D02*
X70074Y-33410D01*
X70074Y-33173D02*
X69916Y-33410D01*
X64056Y-33780D02*
X64056Y-33543D01*
X64146Y-33543D01*
X64168Y-33555D01*
X64179Y-33566D01*
X64191Y-33588D01*
X64191Y-33622D01*
X64179Y-33645D01*
X64168Y-33656D01*
X64146Y-33667D01*
X64056Y-33667D01*
X64281Y-33712D02*
X64393Y-33712D01*
X64258Y-33780D02*
X64337Y-33543D01*
X64416Y-33780D01*
X64472Y-33543D02*
X64618Y-33543D01*
X64539Y-33633D01*
X64573Y-33633D01*
X64596Y-33645D01*
X64607Y-33656D01*
X64618Y-33678D01*
X64618Y-33735D01*
X64607Y-33757D01*
X64596Y-33768D01*
X64573Y-33780D01*
X64506Y-33780D01*
X64483Y-33768D01*
X64472Y-33757D01*
X65079Y-33690D02*
X65259Y-33690D01*
X65541Y-33712D02*
X65653Y-33712D01*
X65518Y-33780D02*
X65597Y-33543D01*
X65676Y-33780D01*
X65754Y-33780D02*
X65754Y-33543D01*
X65811Y-33543D01*
X65844Y-33555D01*
X65867Y-33577D01*
X65878Y-33600D01*
X65889Y-33645D01*
X65889Y-33678D01*
X65878Y-33723D01*
X65867Y-33746D01*
X65844Y-33768D01*
X65811Y-33780D01*
X65754Y-33780D01*
X66125Y-33757D02*
X66114Y-33768D01*
X66080Y-33780D01*
X66058Y-33780D01*
X66024Y-33768D01*
X66002Y-33746D01*
X65991Y-33723D01*
X65979Y-33678D01*
X65979Y-33645D01*
X65991Y-33600D01*
X66002Y-33577D01*
X66024Y-33555D01*
X66058Y-33543D01*
X66080Y-33543D01*
X66114Y-33555D01*
X66125Y-33566D01*
X66204Y-33543D02*
X66350Y-33543D01*
X66272Y-33633D01*
X66305Y-33633D01*
X66328Y-33645D01*
X66339Y-33656D01*
X66350Y-33678D01*
X66350Y-33735D01*
X66339Y-33757D01*
X66328Y-33768D01*
X66305Y-33780D01*
X66238Y-33780D01*
X66215Y-33768D01*
X66204Y-33757D01*
X66620Y-33532D02*
X66418Y-33836D01*
X66665Y-33543D02*
X66800Y-33543D01*
X66733Y-33780D02*
X66733Y-33543D01*
X66879Y-33780D02*
X66879Y-33543D01*
X66992Y-33780D02*
X66992Y-33543D01*
X67070Y-33712D01*
X67149Y-33543D01*
X67149Y-33780D01*
X67250Y-33566D02*
X67262Y-33555D01*
X67284Y-33543D01*
X67340Y-33543D01*
X67363Y-33555D01*
X67374Y-33566D01*
X67385Y-33588D01*
X67385Y-33611D01*
X67374Y-33645D01*
X67239Y-33780D01*
X67385Y-33780D01*
X67622Y-33757D02*
X67610Y-33768D01*
X67577Y-33780D01*
X67554Y-33780D01*
X67520Y-33768D01*
X67498Y-33746D01*
X67487Y-33723D01*
X67475Y-33678D01*
X67475Y-33645D01*
X67487Y-33600D01*
X67498Y-33577D01*
X67520Y-33555D01*
X67554Y-33543D01*
X67577Y-33543D01*
X67610Y-33555D01*
X67622Y-33566D01*
X67723Y-33780D02*
X67723Y-33543D01*
X67723Y-33656D02*
X67858Y-33656D01*
X67858Y-33780D02*
X67858Y-33543D01*
X68071Y-33622D02*
X68071Y-33780D01*
X68015Y-33532D02*
X67959Y-33701D01*
X68105Y-33701D01*
X68364Y-33532D02*
X68161Y-33836D01*
X68443Y-33543D02*
X68443Y-33735D01*
X68454Y-33757D01*
X68465Y-33768D01*
X68488Y-33780D01*
X68533Y-33780D01*
X68555Y-33768D01*
X68566Y-33757D01*
X68578Y-33735D01*
X68578Y-33543D01*
X68679Y-33768D02*
X68713Y-33780D01*
X68769Y-33780D01*
X68791Y-33768D01*
X68803Y-33757D01*
X68814Y-33735D01*
X68814Y-33712D01*
X68803Y-33690D01*
X68791Y-33678D01*
X68769Y-33667D01*
X68724Y-33656D01*
X68701Y-33645D01*
X68690Y-33633D01*
X68679Y-33611D01*
X68679Y-33588D01*
X68690Y-33566D01*
X68701Y-33555D01*
X68724Y-33543D01*
X68780Y-33543D01*
X68814Y-33555D01*
X68904Y-33712D02*
X69016Y-33712D01*
X68881Y-33780D02*
X68960Y-33543D01*
X69039Y-33780D01*
X69253Y-33780D02*
X69174Y-33667D01*
X69118Y-33780D02*
X69118Y-33543D01*
X69208Y-33543D01*
X69230Y-33555D01*
X69241Y-33566D01*
X69253Y-33588D01*
X69253Y-33622D01*
X69241Y-33645D01*
X69230Y-33656D01*
X69208Y-33667D01*
X69118Y-33667D01*
X69320Y-33543D02*
X69455Y-33543D01*
X69388Y-33780D02*
X69388Y-33543D01*
X69523Y-33566D02*
X69534Y-33555D01*
X69556Y-33543D01*
X69613Y-33543D01*
X69635Y-33555D01*
X69646Y-33566D01*
X69658Y-33588D01*
X69658Y-33611D01*
X69646Y-33645D01*
X69511Y-33780D01*
X69658Y-33780D01*
X69894Y-33780D02*
X69815Y-33667D01*
X69759Y-33780D02*
X69759Y-33543D01*
X69849Y-33543D01*
X69871Y-33555D01*
X69883Y-33566D01*
X69894Y-33588D01*
X69894Y-33622D01*
X69883Y-33645D01*
X69871Y-33656D01*
X69849Y-33667D01*
X69759Y-33667D01*
X69973Y-33543D02*
X70130Y-33780D01*
X70130Y-33543D02*
X69973Y-33780D01*
X64056Y-34150D02*
X64056Y-33913D01*
X64146Y-33913D01*
X64168Y-33925D01*
X64179Y-33936D01*
X64191Y-33958D01*
X64191Y-33992D01*
X64179Y-34015D01*
X64168Y-34026D01*
X64146Y-34037D01*
X64056Y-34037D01*
X64281Y-34082D02*
X64393Y-34082D01*
X64258Y-34150D02*
X64337Y-33913D01*
X64416Y-34150D01*
X64596Y-33992D02*
X64596Y-34150D01*
X64539Y-33902D02*
X64483Y-34071D01*
X64629Y-34071D01*
X65079Y-34060D02*
X65259Y-34060D01*
X65541Y-34138D02*
X65574Y-34150D01*
X65631Y-34150D01*
X65653Y-34138D01*
X65664Y-34127D01*
X65676Y-34105D01*
X65676Y-34082D01*
X65664Y-34060D01*
X65653Y-34048D01*
X65631Y-34037D01*
X65586Y-34026D01*
X65563Y-34015D01*
X65552Y-34003D01*
X65541Y-33981D01*
X65541Y-33958D01*
X65552Y-33936D01*
X65563Y-33925D01*
X65586Y-33913D01*
X65642Y-33913D01*
X65676Y-33925D01*
X65777Y-34150D02*
X65777Y-33913D01*
X65867Y-33913D01*
X65889Y-33925D01*
X65901Y-33936D01*
X65912Y-33958D01*
X65912Y-33992D01*
X65901Y-34015D01*
X65889Y-34026D01*
X65867Y-34037D01*
X65777Y-34037D01*
X66013Y-34150D02*
X66013Y-33913D01*
X66125Y-34150D02*
X66125Y-33913D01*
X66260Y-34150D01*
X66260Y-33913D01*
X66362Y-34138D02*
X66395Y-34150D01*
X66452Y-34150D01*
X66474Y-34138D01*
X66485Y-34127D01*
X66497Y-34105D01*
X66497Y-34082D01*
X66485Y-34060D01*
X66474Y-34048D01*
X66452Y-34037D01*
X66407Y-34026D01*
X66384Y-34015D01*
X66373Y-34003D01*
X66362Y-33981D01*
X66362Y-33958D01*
X66373Y-33936D01*
X66384Y-33925D01*
X66407Y-33913D01*
X66463Y-33913D01*
X66497Y-33925D01*
X66587Y-34138D02*
X66620Y-34150D01*
X66677Y-34150D01*
X66699Y-34138D01*
X66710Y-34127D01*
X66722Y-34105D01*
X66722Y-34082D01*
X66710Y-34060D01*
X66699Y-34048D01*
X66677Y-34037D01*
X66632Y-34026D01*
X66609Y-34015D01*
X66598Y-34003D01*
X66587Y-33981D01*
X66587Y-33958D01*
X66598Y-33936D01*
X66609Y-33925D01*
X66632Y-33913D01*
X66688Y-33913D01*
X66722Y-33925D01*
X66992Y-33902D02*
X66789Y-34206D01*
X67059Y-34082D02*
X67172Y-34082D01*
X67037Y-34150D02*
X67115Y-33913D01*
X67194Y-34150D01*
X67273Y-34150D02*
X67273Y-33913D01*
X67329Y-33913D01*
X67363Y-33925D01*
X67385Y-33947D01*
X67397Y-33970D01*
X67408Y-34015D01*
X67408Y-34048D01*
X67397Y-34093D01*
X67385Y-34116D01*
X67363Y-34138D01*
X67329Y-34150D01*
X67273Y-34150D01*
X67644Y-34127D02*
X67633Y-34138D01*
X67599Y-34150D01*
X67577Y-34150D01*
X67543Y-34138D01*
X67520Y-34116D01*
X67509Y-34093D01*
X67498Y-34048D01*
X67498Y-34015D01*
X67509Y-33970D01*
X67520Y-33947D01*
X67543Y-33925D01*
X67577Y-33913D01*
X67599Y-33913D01*
X67633Y-33925D01*
X67644Y-33936D01*
X67847Y-33992D02*
X67847Y-34150D01*
X67790Y-33902D02*
X67734Y-34071D01*
X67880Y-34071D01*
X64056Y-34520D02*
X64056Y-34284D01*
X64146Y-34284D01*
X64168Y-34295D01*
X64179Y-34306D01*
X64191Y-34329D01*
X64191Y-34362D01*
X64179Y-34385D01*
X64168Y-34396D01*
X64146Y-34407D01*
X64056Y-34407D01*
X64281Y-34452D02*
X64393Y-34452D01*
X64258Y-34520D02*
X64337Y-34284D01*
X64416Y-34520D01*
X64607Y-34284D02*
X64494Y-34284D01*
X64483Y-34396D01*
X64494Y-34385D01*
X64517Y-34374D01*
X64573Y-34374D01*
X64596Y-34385D01*
X64607Y-34396D01*
X64618Y-34419D01*
X64618Y-34475D01*
X64607Y-34497D01*
X64596Y-34508D01*
X64573Y-34520D01*
X64517Y-34520D01*
X64494Y-34508D01*
X64483Y-34497D01*
X65079Y-34430D02*
X65259Y-34430D01*
X65541Y-34508D02*
X65574Y-34520D01*
X65631Y-34520D01*
X65653Y-34508D01*
X65664Y-34497D01*
X65676Y-34475D01*
X65676Y-34452D01*
X65664Y-34430D01*
X65653Y-34419D01*
X65631Y-34407D01*
X65586Y-34396D01*
X65563Y-34385D01*
X65552Y-34374D01*
X65541Y-34351D01*
X65541Y-34329D01*
X65552Y-34306D01*
X65563Y-34295D01*
X65586Y-34284D01*
X65642Y-34284D01*
X65676Y-34295D01*
X65777Y-34520D02*
X65777Y-34284D01*
X65867Y-34284D01*
X65889Y-34295D01*
X65901Y-34306D01*
X65912Y-34329D01*
X65912Y-34362D01*
X65901Y-34385D01*
X65889Y-34396D01*
X65867Y-34407D01*
X65777Y-34407D01*
X66013Y-34520D02*
X66013Y-34284D01*
X66114Y-34508D02*
X66148Y-34520D01*
X66204Y-34520D01*
X66227Y-34508D01*
X66238Y-34497D01*
X66249Y-34475D01*
X66249Y-34452D01*
X66238Y-34430D01*
X66227Y-34419D01*
X66204Y-34407D01*
X66159Y-34396D01*
X66137Y-34385D01*
X66125Y-34374D01*
X66114Y-34351D01*
X66114Y-34329D01*
X66125Y-34306D01*
X66137Y-34295D01*
X66159Y-34284D01*
X66215Y-34284D01*
X66249Y-34295D01*
X66485Y-34497D02*
X66474Y-34508D01*
X66440Y-34520D01*
X66418Y-34520D01*
X66384Y-34508D01*
X66362Y-34486D01*
X66350Y-34464D01*
X66339Y-34419D01*
X66339Y-34385D01*
X66350Y-34340D01*
X66362Y-34317D01*
X66384Y-34295D01*
X66418Y-34284D01*
X66440Y-34284D01*
X66474Y-34295D01*
X66485Y-34306D01*
X66587Y-34520D02*
X66587Y-34284D01*
X66722Y-34520D02*
X66620Y-34385D01*
X66722Y-34284D02*
X66587Y-34419D01*
X66992Y-34272D02*
X66789Y-34576D01*
X67059Y-34452D02*
X67172Y-34452D01*
X67037Y-34520D02*
X67115Y-34284D01*
X67194Y-34520D01*
X67273Y-34520D02*
X67273Y-34284D01*
X67329Y-34284D01*
X67363Y-34295D01*
X67385Y-34317D01*
X67397Y-34340D01*
X67408Y-34385D01*
X67408Y-34419D01*
X67397Y-34464D01*
X67385Y-34486D01*
X67363Y-34508D01*
X67329Y-34520D01*
X67273Y-34520D01*
X67644Y-34497D02*
X67633Y-34508D01*
X67599Y-34520D01*
X67577Y-34520D01*
X67543Y-34508D01*
X67520Y-34486D01*
X67509Y-34464D01*
X67498Y-34419D01*
X67498Y-34385D01*
X67509Y-34340D01*
X67520Y-34317D01*
X67543Y-34295D01*
X67577Y-34284D01*
X67599Y-34284D01*
X67633Y-34295D01*
X67644Y-34306D01*
X67858Y-34284D02*
X67745Y-34284D01*
X67734Y-34396D01*
X67745Y-34385D01*
X67768Y-34374D01*
X67824Y-34374D01*
X67847Y-34385D01*
X67858Y-34396D01*
X67869Y-34419D01*
X67869Y-34475D01*
X67858Y-34497D01*
X67847Y-34508D01*
X67824Y-34520D01*
X67768Y-34520D01*
X67745Y-34508D01*
X67734Y-34497D01*
X64056Y-34890D02*
X64056Y-34654D01*
X64146Y-34654D01*
X64168Y-34665D01*
X64179Y-34676D01*
X64191Y-34699D01*
X64191Y-34732D01*
X64179Y-34755D01*
X64168Y-34766D01*
X64146Y-34777D01*
X64056Y-34777D01*
X64281Y-34822D02*
X64393Y-34822D01*
X64258Y-34890D02*
X64337Y-34654D01*
X64416Y-34890D01*
X64596Y-34654D02*
X64551Y-34654D01*
X64528Y-34665D01*
X64517Y-34676D01*
X64494Y-34710D01*
X64483Y-34755D01*
X64483Y-34845D01*
X64494Y-34867D01*
X64506Y-34879D01*
X64528Y-34890D01*
X64573Y-34890D01*
X64596Y-34879D01*
X64607Y-34867D01*
X64618Y-34845D01*
X64618Y-34789D01*
X64607Y-34766D01*
X64596Y-34755D01*
X64573Y-34744D01*
X64528Y-34744D01*
X64506Y-34755D01*
X64494Y-34766D01*
X64483Y-34789D01*
X65079Y-34800D02*
X65259Y-34800D01*
X65541Y-34879D02*
X65574Y-34890D01*
X65631Y-34890D01*
X65653Y-34879D01*
X65664Y-34867D01*
X65676Y-34845D01*
X65676Y-34822D01*
X65664Y-34800D01*
X65653Y-34789D01*
X65631Y-34777D01*
X65586Y-34766D01*
X65563Y-34755D01*
X65552Y-34744D01*
X65541Y-34721D01*
X65541Y-34699D01*
X65552Y-34676D01*
X65563Y-34665D01*
X65586Y-34654D01*
X65642Y-34654D01*
X65676Y-34665D01*
X65777Y-34890D02*
X65777Y-34654D01*
X65867Y-34654D01*
X65889Y-34665D01*
X65901Y-34676D01*
X65912Y-34699D01*
X65912Y-34732D01*
X65901Y-34755D01*
X65889Y-34766D01*
X65867Y-34777D01*
X65777Y-34777D01*
X66013Y-34890D02*
X66013Y-34654D01*
X66125Y-34890D02*
X66125Y-34654D01*
X66204Y-34822D01*
X66283Y-34654D01*
X66283Y-34890D01*
X66395Y-34890D02*
X66395Y-34654D01*
X66497Y-34879D02*
X66530Y-34890D01*
X66587Y-34890D01*
X66609Y-34879D01*
X66620Y-34867D01*
X66632Y-34845D01*
X66632Y-34822D01*
X66620Y-34800D01*
X66609Y-34789D01*
X66587Y-34777D01*
X66542Y-34766D01*
X66519Y-34755D01*
X66508Y-34744D01*
X66497Y-34721D01*
X66497Y-34699D01*
X66508Y-34676D01*
X66519Y-34665D01*
X66542Y-34654D01*
X66598Y-34654D01*
X66632Y-34665D01*
X66778Y-34654D02*
X66823Y-34654D01*
X66845Y-34665D01*
X66868Y-34687D01*
X66879Y-34732D01*
X66879Y-34811D01*
X66868Y-34856D01*
X66845Y-34879D01*
X66823Y-34890D01*
X66778Y-34890D01*
X66755Y-34879D01*
X66733Y-34856D01*
X66722Y-34811D01*
X66722Y-34732D01*
X66733Y-34687D01*
X66755Y-34665D01*
X66778Y-34654D01*
X67149Y-34642D02*
X66947Y-34946D01*
X67217Y-34822D02*
X67329Y-34822D01*
X67194Y-34890D02*
X67273Y-34654D01*
X67352Y-34890D01*
X67430Y-34890D02*
X67430Y-34654D01*
X67487Y-34654D01*
X67520Y-34665D01*
X67543Y-34687D01*
X67554Y-34710D01*
X67565Y-34755D01*
X67565Y-34789D01*
X67554Y-34834D01*
X67543Y-34856D01*
X67520Y-34879D01*
X67487Y-34890D01*
X67430Y-34890D01*
X67802Y-34867D02*
X67790Y-34879D01*
X67757Y-34890D01*
X67734Y-34890D01*
X67700Y-34879D01*
X67678Y-34856D01*
X67667Y-34834D01*
X67655Y-34789D01*
X67655Y-34755D01*
X67667Y-34710D01*
X67678Y-34687D01*
X67700Y-34665D01*
X67734Y-34654D01*
X67757Y-34654D01*
X67790Y-34665D01*
X67802Y-34676D01*
X68004Y-34654D02*
X67959Y-34654D01*
X67937Y-34665D01*
X67925Y-34676D01*
X67903Y-34710D01*
X67892Y-34755D01*
X67892Y-34845D01*
X67903Y-34867D01*
X67914Y-34879D01*
X67937Y-34890D01*
X67982Y-34890D01*
X68004Y-34879D01*
X68015Y-34867D01*
X68026Y-34845D01*
X68026Y-34789D01*
X68015Y-34766D01*
X68004Y-34755D01*
X67982Y-34744D01*
X67937Y-34744D01*
X67914Y-34755D01*
X67903Y-34766D01*
X67892Y-34789D01*
X68296Y-34642D02*
X68094Y-34946D01*
X68341Y-34654D02*
X68476Y-34654D01*
X68409Y-34890D02*
X68409Y-34654D01*
X68555Y-34890D02*
X68555Y-34654D01*
X68668Y-34890D02*
X68668Y-34654D01*
X68746Y-34822D01*
X68825Y-34654D01*
X68825Y-34890D01*
X68915Y-34654D02*
X69061Y-34654D01*
X68983Y-34744D01*
X69016Y-34744D01*
X69039Y-34755D01*
X69050Y-34766D01*
X69061Y-34789D01*
X69061Y-34845D01*
X69050Y-34867D01*
X69039Y-34879D01*
X69016Y-34890D01*
X68949Y-34890D01*
X68926Y-34879D01*
X68915Y-34867D01*
X69298Y-34867D02*
X69286Y-34879D01*
X69253Y-34890D01*
X69230Y-34890D01*
X69196Y-34879D01*
X69174Y-34856D01*
X69163Y-34834D01*
X69151Y-34789D01*
X69151Y-34755D01*
X69163Y-34710D01*
X69174Y-34687D01*
X69196Y-34665D01*
X69230Y-34654D01*
X69253Y-34654D01*
X69286Y-34665D01*
X69298Y-34676D01*
X69399Y-34890D02*
X69399Y-34654D01*
X69399Y-34766D02*
X69534Y-34766D01*
X69534Y-34890D02*
X69534Y-34654D01*
X69770Y-34890D02*
X69635Y-34890D01*
X69703Y-34890D02*
X69703Y-34654D01*
X69680Y-34687D01*
X69658Y-34710D01*
X69635Y-34721D01*
X64056Y-35260D02*
X64056Y-35024D01*
X64146Y-35024D01*
X64168Y-35035D01*
X64179Y-35046D01*
X64191Y-35069D01*
X64191Y-35102D01*
X64179Y-35125D01*
X64168Y-35136D01*
X64146Y-35147D01*
X64056Y-35147D01*
X64281Y-35192D02*
X64393Y-35192D01*
X64258Y-35260D02*
X64337Y-35024D01*
X64416Y-35260D01*
X64472Y-35024D02*
X64629Y-35024D01*
X64528Y-35260D01*
X65079Y-35170D02*
X65259Y-35170D01*
X65541Y-35249D02*
X65574Y-35260D01*
X65631Y-35260D01*
X65653Y-35249D01*
X65664Y-35237D01*
X65676Y-35215D01*
X65676Y-35192D01*
X65664Y-35170D01*
X65653Y-35159D01*
X65631Y-35147D01*
X65586Y-35136D01*
X65563Y-35125D01*
X65552Y-35114D01*
X65541Y-35091D01*
X65541Y-35069D01*
X65552Y-35046D01*
X65563Y-35035D01*
X65586Y-35024D01*
X65642Y-35024D01*
X65676Y-35035D01*
X65777Y-35260D02*
X65777Y-35024D01*
X65867Y-35024D01*
X65889Y-35035D01*
X65901Y-35046D01*
X65912Y-35069D01*
X65912Y-35102D01*
X65901Y-35125D01*
X65889Y-35136D01*
X65867Y-35147D01*
X65777Y-35147D01*
X66013Y-35260D02*
X66013Y-35024D01*
X66125Y-35260D02*
X66125Y-35024D01*
X66204Y-35192D01*
X66283Y-35024D01*
X66283Y-35260D01*
X66440Y-35024D02*
X66485Y-35024D01*
X66508Y-35035D01*
X66530Y-35057D01*
X66542Y-35102D01*
X66542Y-35181D01*
X66530Y-35226D01*
X66508Y-35249D01*
X66485Y-35260D01*
X66440Y-35260D01*
X66418Y-35249D01*
X66395Y-35226D01*
X66384Y-35181D01*
X66384Y-35102D01*
X66395Y-35057D01*
X66418Y-35035D01*
X66440Y-35024D01*
X66632Y-35249D02*
X66665Y-35260D01*
X66722Y-35260D01*
X66744Y-35249D01*
X66755Y-35237D01*
X66767Y-35215D01*
X66767Y-35192D01*
X66755Y-35170D01*
X66744Y-35159D01*
X66722Y-35147D01*
X66677Y-35136D01*
X66654Y-35125D01*
X66643Y-35114D01*
X66632Y-35091D01*
X66632Y-35069D01*
X66643Y-35046D01*
X66654Y-35035D01*
X66677Y-35024D01*
X66733Y-35024D01*
X66767Y-35035D01*
X66868Y-35260D02*
X66868Y-35024D01*
X67149Y-35012D02*
X66947Y-35316D01*
X67217Y-35192D02*
X67329Y-35192D01*
X67194Y-35260D02*
X67273Y-35024D01*
X67352Y-35260D01*
X67430Y-35260D02*
X67430Y-35024D01*
X67487Y-35024D01*
X67520Y-35035D01*
X67543Y-35057D01*
X67554Y-35080D01*
X67565Y-35125D01*
X67565Y-35159D01*
X67554Y-35204D01*
X67543Y-35226D01*
X67520Y-35249D01*
X67487Y-35260D01*
X67430Y-35260D01*
X67802Y-35237D02*
X67790Y-35249D01*
X67757Y-35260D01*
X67734Y-35260D01*
X67700Y-35249D01*
X67678Y-35226D01*
X67667Y-35204D01*
X67655Y-35159D01*
X67655Y-35125D01*
X67667Y-35080D01*
X67678Y-35057D01*
X67700Y-35035D01*
X67734Y-35024D01*
X67757Y-35024D01*
X67790Y-35035D01*
X67802Y-35046D01*
X67880Y-35024D02*
X68038Y-35024D01*
X67937Y-35260D01*
X68296Y-35012D02*
X68094Y-35316D01*
X68341Y-35024D02*
X68476Y-35024D01*
X68409Y-35260D02*
X68409Y-35024D01*
X68555Y-35260D02*
X68555Y-35024D01*
X68668Y-35260D02*
X68668Y-35024D01*
X68746Y-35192D01*
X68825Y-35024D01*
X68825Y-35260D01*
X68915Y-35024D02*
X69061Y-35024D01*
X68983Y-35114D01*
X69016Y-35114D01*
X69039Y-35125D01*
X69050Y-35136D01*
X69061Y-35159D01*
X69061Y-35215D01*
X69050Y-35237D01*
X69039Y-35249D01*
X69016Y-35260D01*
X68949Y-35260D01*
X68926Y-35249D01*
X68915Y-35237D01*
X69298Y-35237D02*
X69286Y-35249D01*
X69253Y-35260D01*
X69230Y-35260D01*
X69196Y-35249D01*
X69174Y-35226D01*
X69163Y-35204D01*
X69151Y-35159D01*
X69151Y-35125D01*
X69163Y-35080D01*
X69174Y-35057D01*
X69196Y-35035D01*
X69230Y-35024D01*
X69253Y-35024D01*
X69286Y-35035D01*
X69298Y-35046D01*
X69399Y-35260D02*
X69399Y-35024D01*
X69399Y-35136D02*
X69534Y-35136D01*
X69534Y-35260D02*
X69534Y-35024D01*
X69635Y-35046D02*
X69646Y-35035D01*
X69669Y-35024D01*
X69725Y-35024D01*
X69748Y-35035D01*
X69759Y-35046D01*
X69770Y-35069D01*
X69770Y-35091D01*
X69759Y-35125D01*
X69624Y-35260D01*
X69770Y-35260D01*
X77098Y-36335D02*
X76862Y-36335D01*
X76862Y-36245D01*
X76874Y-36223D01*
X76885Y-36211D01*
X76907Y-36200D01*
X76941Y-36200D01*
X76964Y-36211D01*
X76975Y-36223D01*
X76986Y-36245D01*
X76986Y-36335D01*
X77031Y-36110D02*
X77031Y-35998D01*
X77098Y-36133D02*
X76862Y-36054D01*
X77098Y-35975D01*
X77098Y-35773D02*
X77098Y-35908D01*
X77098Y-35840D02*
X76862Y-35840D01*
X76896Y-35863D01*
X76919Y-35885D01*
X76930Y-35908D01*
X76862Y-35559D02*
X76862Y-35671D01*
X76975Y-35683D01*
X76964Y-35671D01*
X76952Y-35649D01*
X76952Y-35593D01*
X76964Y-35570D01*
X76975Y-35559D01*
X76997Y-35548D01*
X77053Y-35548D01*
X77076Y-35559D01*
X77087Y-35570D01*
X77098Y-35593D01*
X77098Y-35649D01*
X77087Y-35671D01*
X77076Y-35683D01*
X76055Y-36325D02*
X75819Y-36325D01*
X75819Y-36235D01*
X75830Y-36213D01*
X75841Y-36201D01*
X75864Y-36190D01*
X75898Y-36190D01*
X75920Y-36201D01*
X75931Y-36213D01*
X75943Y-36235D01*
X75943Y-36325D01*
X75988Y-36100D02*
X75988Y-35988D01*
X76055Y-36123D02*
X75819Y-36044D01*
X76055Y-35965D01*
X76055Y-35763D02*
X76055Y-35898D01*
X76055Y-35830D02*
X75819Y-35830D01*
X75853Y-35853D01*
X75875Y-35875D01*
X75886Y-35898D01*
X75898Y-35560D02*
X76055Y-35560D01*
X75808Y-35616D02*
X75976Y-35673D01*
X75976Y-35526D01*
X75120Y-36325D02*
X74884Y-36325D01*
X74884Y-36235D01*
X74895Y-36213D01*
X74906Y-36201D01*
X74929Y-36190D01*
X74963Y-36190D01*
X74985Y-36201D01*
X74996Y-36213D01*
X75008Y-36235D01*
X75008Y-36325D01*
X75053Y-36100D02*
X75053Y-35988D01*
X75120Y-36123D02*
X74884Y-36044D01*
X75120Y-35965D01*
X75120Y-35763D02*
X75120Y-35898D01*
X75120Y-35830D02*
X74884Y-35830D01*
X74918Y-35853D01*
X74940Y-35875D01*
X74951Y-35898D01*
X74884Y-35684D02*
X74884Y-35538D01*
X74974Y-35616D01*
X74974Y-35583D01*
X74985Y-35560D01*
X74996Y-35549D01*
X75019Y-35538D01*
X75075Y-35538D01*
X75098Y-35549D01*
X75109Y-35560D01*
X75120Y-35583D01*
X75120Y-35650D01*
X75109Y-35673D01*
X75098Y-35684D01*
X74097Y-36335D02*
X73860Y-36335D01*
X73860Y-36245D01*
X73872Y-36223D01*
X73883Y-36211D01*
X73905Y-36200D01*
X73939Y-36200D01*
X73962Y-36211D01*
X73973Y-36223D01*
X73984Y-36245D01*
X73984Y-36335D01*
X74029Y-36110D02*
X74029Y-35998D01*
X74097Y-36133D02*
X73860Y-36054D01*
X74097Y-35975D01*
X74097Y-35773D02*
X74097Y-35908D01*
X74097Y-35840D02*
X73860Y-35840D01*
X73894Y-35863D01*
X73917Y-35885D01*
X73928Y-35908D01*
X73883Y-35683D02*
X73872Y-35671D01*
X73860Y-35649D01*
X73860Y-35593D01*
X73872Y-35570D01*
X73883Y-35559D01*
X73905Y-35548D01*
X73928Y-35548D01*
X73962Y-35559D01*
X74097Y-35694D01*
X74097Y-35548D01*
X73083Y-36345D02*
X72847Y-36345D01*
X72847Y-36255D01*
X72858Y-36232D01*
X72869Y-36221D01*
X72892Y-36210D01*
X72925Y-36210D01*
X72948Y-36221D01*
X72959Y-36232D01*
X72970Y-36255D01*
X72970Y-36345D01*
X73015Y-36120D02*
X73015Y-36007D01*
X73083Y-36142D02*
X72847Y-36064D01*
X73083Y-35985D01*
X73083Y-35782D02*
X73083Y-35917D01*
X73083Y-35850D02*
X72847Y-35850D01*
X72880Y-35872D01*
X72903Y-35895D01*
X72914Y-35917D01*
X73083Y-35557D02*
X73083Y-35692D01*
X73083Y-35625D02*
X72847Y-35625D01*
X72880Y-35647D01*
X72903Y-35670D01*
X72914Y-35692D01*
X72089Y-36335D02*
X71852Y-36335D01*
X71852Y-36245D01*
X71864Y-36223D01*
X71875Y-36211D01*
X71897Y-36200D01*
X71931Y-36200D01*
X71954Y-36211D01*
X71965Y-36223D01*
X71976Y-36245D01*
X71976Y-36335D01*
X72021Y-36110D02*
X72021Y-35998D01*
X72089Y-36133D02*
X71852Y-36054D01*
X72089Y-35975D01*
X72089Y-35773D02*
X72089Y-35908D01*
X72089Y-35840D02*
X71852Y-35840D01*
X71886Y-35863D01*
X71909Y-35885D01*
X71920Y-35908D01*
X71852Y-35626D02*
X71852Y-35604D01*
X71864Y-35581D01*
X71875Y-35570D01*
X71897Y-35559D01*
X71942Y-35548D01*
X71999Y-35548D01*
X72044Y-35559D01*
X72066Y-35570D01*
X72077Y-35581D01*
X72089Y-35604D01*
X72089Y-35626D01*
X72077Y-35649D01*
X72066Y-35660D01*
X72044Y-35671D01*
X71999Y-35683D01*
X71942Y-35683D01*
X71897Y-35671D01*
X71875Y-35660D01*
X71864Y-35649D01*
X71852Y-35626D01*
X71095Y-36345D02*
X70858Y-36345D01*
X70858Y-36255D01*
X70870Y-36232D01*
X70881Y-36221D01*
X70903Y-36210D01*
X70937Y-36210D01*
X70960Y-36221D01*
X70971Y-36232D01*
X70982Y-36255D01*
X70982Y-36345D01*
X71027Y-36120D02*
X71027Y-36007D01*
X71095Y-36142D02*
X70858Y-36064D01*
X71095Y-35985D01*
X71095Y-35895D02*
X71095Y-35850D01*
X71083Y-35827D01*
X71072Y-35816D01*
X71038Y-35794D01*
X70993Y-35782D01*
X70903Y-35782D01*
X70881Y-35794D01*
X70870Y-35805D01*
X70858Y-35827D01*
X70858Y-35872D01*
X70870Y-35895D01*
X70881Y-35906D01*
X70903Y-35917D01*
X70960Y-35917D01*
X70982Y-35906D01*
X70993Y-35895D01*
X71005Y-35872D01*
X71005Y-35827D01*
X70993Y-35805D01*
X70982Y-35794D01*
X70960Y-35782D01*
X70091Y-36335D02*
X69854Y-36335D01*
X69854Y-36245D01*
X69866Y-36223D01*
X69877Y-36211D01*
X69899Y-36200D01*
X69933Y-36200D01*
X69956Y-36211D01*
X69967Y-36223D01*
X69978Y-36245D01*
X69978Y-36335D01*
X70023Y-36110D02*
X70023Y-35998D01*
X70091Y-36133D02*
X69854Y-36054D01*
X70091Y-35975D01*
X69956Y-35863D02*
X69944Y-35885D01*
X69933Y-35896D01*
X69911Y-35908D01*
X69899Y-35908D01*
X69877Y-35896D01*
X69866Y-35885D01*
X69854Y-35863D01*
X69854Y-35818D01*
X69866Y-35795D01*
X69877Y-35784D01*
X69899Y-35773D01*
X69911Y-35773D01*
X69933Y-35784D01*
X69944Y-35795D01*
X69956Y-35818D01*
X69956Y-35863D01*
X69967Y-35885D01*
X69978Y-35896D01*
X70001Y-35908D01*
X70046Y-35908D01*
X70068Y-35896D01*
X70079Y-35885D01*
X70091Y-35863D01*
X70091Y-35818D01*
X70079Y-35795D01*
X70068Y-35784D01*
X70046Y-35773D01*
X70001Y-35773D01*
X69978Y-35784D01*
X69967Y-35795D01*
X69956Y-35818D01*
X69097Y-36335D02*
X68860Y-36335D01*
X68860Y-36245D01*
X68872Y-36223D01*
X68883Y-36211D01*
X68905Y-36200D01*
X68939Y-36200D01*
X68962Y-36211D01*
X68973Y-36223D01*
X68984Y-36245D01*
X68984Y-36335D01*
X69029Y-36110D02*
X69029Y-35998D01*
X69097Y-36133D02*
X68860Y-36054D01*
X69097Y-35975D01*
X68860Y-35919D02*
X68860Y-35761D01*
X69097Y-35863D01*
X68112Y-36325D02*
X67876Y-36325D01*
X67876Y-36235D01*
X67887Y-36213D01*
X67899Y-36201D01*
X67921Y-36190D01*
X67955Y-36190D01*
X67977Y-36201D01*
X67989Y-36213D01*
X68000Y-36235D01*
X68000Y-36325D01*
X68045Y-36100D02*
X68045Y-35988D01*
X68112Y-36123D02*
X67876Y-36044D01*
X68112Y-35965D01*
X67876Y-35785D02*
X67876Y-35830D01*
X67887Y-35853D01*
X67899Y-35864D01*
X67932Y-35886D01*
X67977Y-35898D01*
X68067Y-35898D01*
X68090Y-35886D01*
X68101Y-35875D01*
X68112Y-35853D01*
X68112Y-35808D01*
X68101Y-35785D01*
X68090Y-35774D01*
X68067Y-35763D01*
X68011Y-35763D01*
X67989Y-35774D01*
X67977Y-35785D01*
X67966Y-35808D01*
X67966Y-35853D01*
X67977Y-35875D01*
X67989Y-35886D01*
X68011Y-35898D01*
X67118Y-36325D02*
X66882Y-36325D01*
X66882Y-36235D01*
X66893Y-36213D01*
X66904Y-36201D01*
X66927Y-36190D01*
X66961Y-36190D01*
X66983Y-36201D01*
X66994Y-36213D01*
X67006Y-36235D01*
X67006Y-36325D01*
X67051Y-36100D02*
X67051Y-35988D01*
X67118Y-36123D02*
X66882Y-36044D01*
X67118Y-35965D01*
X66882Y-35774D02*
X66882Y-35886D01*
X66994Y-35898D01*
X66983Y-35886D01*
X66972Y-35864D01*
X66972Y-35808D01*
X66983Y-35785D01*
X66994Y-35774D01*
X67017Y-35763D01*
X67073Y-35763D01*
X67096Y-35774D01*
X67107Y-35785D01*
X67118Y-35808D01*
X67118Y-35864D01*
X67107Y-35886D01*
X67096Y-35898D01*
X66114Y-36335D02*
X65878Y-36335D01*
X65878Y-36245D01*
X65889Y-36223D01*
X65901Y-36211D01*
X65923Y-36200D01*
X65957Y-36200D01*
X65979Y-36211D01*
X65991Y-36223D01*
X66002Y-36245D01*
X66002Y-36335D01*
X66047Y-36110D02*
X66047Y-35998D01*
X66114Y-36133D02*
X65878Y-36054D01*
X66114Y-35975D01*
X65957Y-35795D02*
X66114Y-35795D01*
X65867Y-35851D02*
X66035Y-35908D01*
X66035Y-35761D01*
X65130Y-36345D02*
X64894Y-36345D01*
X64894Y-36255D01*
X64905Y-36232D01*
X64916Y-36221D01*
X64939Y-36210D01*
X64973Y-36210D01*
X64995Y-36221D01*
X65006Y-36232D01*
X65017Y-36255D01*
X65017Y-36345D01*
X65062Y-36120D02*
X65062Y-36007D01*
X65130Y-36142D02*
X64894Y-36064D01*
X65130Y-35985D01*
X64894Y-35929D02*
X64894Y-35782D01*
X64984Y-35861D01*
X64984Y-35827D01*
X64995Y-35805D01*
X65006Y-35794D01*
X65029Y-35782D01*
X65085Y-35782D01*
X65107Y-35794D01*
X65119Y-35805D01*
X65130Y-35827D01*
X65130Y-35895D01*
X65119Y-35917D01*
X65107Y-35929D01*
X64116Y-36355D02*
X63880Y-36355D01*
X63880Y-36265D01*
X63891Y-36242D01*
X63902Y-36231D01*
X63925Y-36220D01*
X63959Y-36220D01*
X63981Y-36231D01*
X63992Y-36242D01*
X64004Y-36265D01*
X64004Y-36355D01*
X64049Y-36130D02*
X64049Y-36017D01*
X64116Y-36152D02*
X63880Y-36073D01*
X64116Y-35995D01*
X63902Y-35927D02*
X63891Y-35916D01*
X63880Y-35893D01*
X63880Y-35837D01*
X63891Y-35815D01*
X63902Y-35803D01*
X63925Y-35792D01*
X63947Y-35792D01*
X63981Y-35803D01*
X64116Y-35938D01*
X64116Y-35792D01*
X63112Y-36355D02*
X62876Y-36355D01*
X62876Y-36265D01*
X62887Y-36242D01*
X62899Y-36231D01*
X62921Y-36220D01*
X62955Y-36220D01*
X62977Y-36231D01*
X62989Y-36242D01*
X63000Y-36265D01*
X63000Y-36355D01*
X63045Y-36130D02*
X63045Y-36017D01*
X63112Y-36152D02*
X62876Y-36073D01*
X63112Y-35995D01*
X63112Y-35792D02*
X63112Y-35927D01*
X63112Y-35860D02*
X62876Y-35860D01*
X62910Y-35882D01*
X62932Y-35905D01*
X62944Y-35927D01*
X62128Y-36355D02*
X61892Y-36355D01*
X61892Y-36265D01*
X61903Y-36242D01*
X61914Y-36231D01*
X61937Y-36220D01*
X61971Y-36220D01*
X61993Y-36231D01*
X62004Y-36242D01*
X62016Y-36265D01*
X62016Y-36355D01*
X62061Y-36130D02*
X62061Y-36017D01*
X62128Y-36152D02*
X61892Y-36073D01*
X62128Y-35995D01*
X61892Y-35871D02*
X61892Y-35848D01*
X61903Y-35826D01*
X61914Y-35815D01*
X61937Y-35803D01*
X61982Y-35792D01*
X62038Y-35792D01*
X62083Y-35803D01*
X62106Y-35815D01*
X62117Y-35826D01*
X62128Y-35848D01*
X62128Y-35871D01*
X62117Y-35893D01*
X62106Y-35905D01*
X62083Y-35916D01*
X62038Y-35927D01*
X61982Y-35927D01*
X61937Y-35916D01*
X61914Y-35905D01*
X61903Y-35893D01*
X61892Y-35871D01*
X61114Y-36355D02*
X60878Y-36355D01*
X60878Y-36265D01*
X60889Y-36242D01*
X60901Y-36231D01*
X60923Y-36220D01*
X60957Y-36220D01*
X60979Y-36231D01*
X60991Y-36242D01*
X61002Y-36265D01*
X61002Y-36355D01*
X61114Y-36118D02*
X60878Y-36118D01*
X60878Y-36062D01*
X60889Y-36028D01*
X60912Y-36006D01*
X60934Y-35995D01*
X60979Y-35983D01*
X61013Y-35983D01*
X61058Y-35995D01*
X61080Y-36006D01*
X61103Y-36028D01*
X61114Y-36062D01*
X61114Y-36118D01*
X61114Y-35758D02*
X61114Y-35893D01*
X61114Y-35826D02*
X60878Y-35826D01*
X60912Y-35848D01*
X60934Y-35871D01*
X60946Y-35893D01*
X60081Y-36355D02*
X59845Y-36355D01*
X59845Y-36265D01*
X59856Y-36242D01*
X59867Y-36231D01*
X59890Y-36220D01*
X59923Y-36220D01*
X59946Y-36231D01*
X59957Y-36242D01*
X59968Y-36265D01*
X59968Y-36355D01*
X60081Y-36118D02*
X59845Y-36118D01*
X59845Y-36062D01*
X59856Y-36028D01*
X59878Y-36006D01*
X59901Y-35995D01*
X59946Y-35983D01*
X59980Y-35983D01*
X60025Y-35995D01*
X60047Y-36006D01*
X60070Y-36028D01*
X60081Y-36062D01*
X60081Y-36118D01*
X59845Y-35837D02*
X59845Y-35815D01*
X59856Y-35792D01*
X59867Y-35781D01*
X59890Y-35770D01*
X59935Y-35758D01*
X59991Y-35758D01*
X60036Y-35770D01*
X60058Y-35781D01*
X60070Y-35792D01*
X60081Y-35815D01*
X60081Y-35837D01*
X60070Y-35860D01*
X60058Y-35871D01*
X60036Y-35882D01*
X59991Y-35893D01*
X59935Y-35893D01*
X59890Y-35882D01*
X59867Y-35871D01*
X59856Y-35860D01*
X59845Y-35837D01*
X58939Y-36355D02*
X59097Y-36355D01*
X58962Y-36355D02*
X58950Y-36343D01*
X58939Y-36321D01*
X58939Y-36287D01*
X58950Y-36265D01*
X58973Y-36253D01*
X59097Y-36253D01*
X59097Y-36006D02*
X58984Y-36085D01*
X59097Y-36141D02*
X58860Y-36141D01*
X58860Y-36051D01*
X58872Y-36028D01*
X58883Y-36017D01*
X58905Y-36006D01*
X58939Y-36006D01*
X58962Y-36017D01*
X58973Y-36028D01*
X58984Y-36051D01*
X58984Y-36141D01*
X59085Y-35916D02*
X59097Y-35882D01*
X59097Y-35826D01*
X59085Y-35803D01*
X59074Y-35792D01*
X59052Y-35781D01*
X59029Y-35781D01*
X59007Y-35792D01*
X58995Y-35803D01*
X58984Y-35826D01*
X58973Y-35871D01*
X58962Y-35893D01*
X58950Y-35905D01*
X58928Y-35916D01*
X58905Y-35916D01*
X58883Y-35905D01*
X58872Y-35893D01*
X58860Y-35871D01*
X58860Y-35815D01*
X58872Y-35781D01*
X58860Y-35714D02*
X58860Y-35579D01*
X59097Y-35646D02*
X58860Y-35646D01*
X57886Y-36345D02*
X58077Y-36345D01*
X58100Y-36334D01*
X58111Y-36322D01*
X58122Y-36300D01*
X58122Y-36255D01*
X58111Y-36232D01*
X58100Y-36221D01*
X58077Y-36210D01*
X57886Y-36210D01*
X58111Y-36109D02*
X58122Y-36075D01*
X58122Y-36019D01*
X58111Y-35996D01*
X58100Y-35985D01*
X58077Y-35974D01*
X58055Y-35974D01*
X58032Y-35985D01*
X58021Y-35996D01*
X58010Y-36019D01*
X57998Y-36064D01*
X57987Y-36086D01*
X57976Y-36097D01*
X57953Y-36109D01*
X57931Y-36109D01*
X57908Y-36097D01*
X57897Y-36086D01*
X57886Y-36064D01*
X57886Y-36007D01*
X57897Y-35974D01*
X57998Y-35794D02*
X58010Y-35760D01*
X58021Y-35749D01*
X58043Y-35737D01*
X58077Y-35737D01*
X58100Y-35749D01*
X58111Y-35760D01*
X58122Y-35782D01*
X58122Y-35872D01*
X57886Y-35872D01*
X57886Y-35794D01*
X57897Y-35771D01*
X57908Y-35760D01*
X57931Y-35749D01*
X57953Y-35749D01*
X57976Y-35760D01*
X57987Y-35771D01*
X57998Y-35794D01*
X57998Y-35872D01*
X58122Y-35636D02*
X57886Y-35636D01*
X57886Y-35580D01*
X57897Y-35546D01*
X57920Y-35524D01*
X57942Y-35512D01*
X57987Y-35501D01*
X58021Y-35501D01*
X58066Y-35512D01*
X58088Y-35524D01*
X58111Y-35546D01*
X58122Y-35580D01*
X58122Y-35636D01*
X57014Y-36266D02*
X57025Y-36232D01*
X57037Y-36221D01*
X57059Y-36210D01*
X57093Y-36210D01*
X57115Y-36221D01*
X57127Y-36232D01*
X57138Y-36255D01*
X57138Y-36345D01*
X56902Y-36345D01*
X56902Y-36266D01*
X56913Y-36244D01*
X56924Y-36232D01*
X56947Y-36221D01*
X56969Y-36221D01*
X56992Y-36232D01*
X57003Y-36244D01*
X57014Y-36266D01*
X57014Y-36345D01*
X56902Y-36064D02*
X56902Y-36019D01*
X56913Y-35996D01*
X56935Y-35974D01*
X56980Y-35962D01*
X57059Y-35962D01*
X57104Y-35974D01*
X57127Y-35996D01*
X57138Y-36019D01*
X57138Y-36064D01*
X57127Y-36086D01*
X57104Y-36109D01*
X57059Y-36120D01*
X56980Y-36120D01*
X56935Y-36109D01*
X56913Y-36086D01*
X56902Y-36064D01*
X56902Y-35816D02*
X56902Y-35771D01*
X56913Y-35749D01*
X56935Y-35726D01*
X56980Y-35715D01*
X57059Y-35715D01*
X57104Y-35726D01*
X57127Y-35749D01*
X57138Y-35771D01*
X57138Y-35816D01*
X57127Y-35839D01*
X57104Y-35861D01*
X57059Y-35872D01*
X56980Y-35872D01*
X56935Y-35861D01*
X56913Y-35839D01*
X56902Y-35816D01*
X56902Y-35647D02*
X56902Y-35512D01*
X57138Y-35580D02*
X56902Y-35580D01*
X56902Y-35389D02*
X56902Y-35366D01*
X56913Y-35344D01*
X56924Y-35332D01*
X56947Y-35321D01*
X56992Y-35310D01*
X57048Y-35310D01*
X57093Y-35321D01*
X57115Y-35332D01*
X57127Y-35344D01*
X57138Y-35366D01*
X57138Y-35389D01*
X57127Y-35411D01*
X57115Y-35422D01*
X57093Y-35434D01*
X57048Y-35445D01*
X56992Y-35445D01*
X56947Y-35434D01*
X56924Y-35422D01*
X56913Y-35411D01*
X56902Y-35389D01*
X55850Y-36221D02*
X55839Y-36244D01*
X55839Y-36277D01*
X55850Y-36311D01*
X55872Y-36334D01*
X55895Y-36345D01*
X55940Y-36356D01*
X55974Y-36356D01*
X56019Y-36345D01*
X56041Y-36334D01*
X56064Y-36311D01*
X56075Y-36277D01*
X56075Y-36255D01*
X56064Y-36221D01*
X56052Y-36210D01*
X55974Y-36210D01*
X55974Y-36255D01*
X56075Y-36109D02*
X55839Y-36109D01*
X56075Y-35974D01*
X55839Y-35974D01*
X56075Y-35861D02*
X55839Y-35861D01*
X55839Y-35805D01*
X55850Y-35771D01*
X55872Y-35749D01*
X55895Y-35737D01*
X55940Y-35726D01*
X55974Y-35726D01*
X56019Y-35737D01*
X56041Y-35749D01*
X56064Y-35771D01*
X56075Y-35805D01*
X56075Y-35861D01*
X55001Y-36345D02*
X55001Y-36165D01*
X55091Y-36255D02*
X54911Y-36255D01*
X54854Y-36075D02*
X54854Y-35929D01*
X54944Y-36007D01*
X54944Y-35974D01*
X54956Y-35951D01*
X54967Y-35940D01*
X54989Y-35929D01*
X55046Y-35929D01*
X55068Y-35940D01*
X55079Y-35951D01*
X55091Y-35974D01*
X55091Y-36041D01*
X55079Y-36064D01*
X55068Y-36075D01*
X55068Y-35827D02*
X55079Y-35816D01*
X55091Y-35827D01*
X55079Y-35839D01*
X55068Y-35827D01*
X55091Y-35827D01*
X54854Y-35737D02*
X54854Y-35591D01*
X54944Y-35670D01*
X54944Y-35636D01*
X54956Y-35614D01*
X54967Y-35602D01*
X54989Y-35591D01*
X55046Y-35591D01*
X55068Y-35602D01*
X55079Y-35614D01*
X55091Y-35636D01*
X55091Y-35704D01*
X55079Y-35726D01*
X55068Y-35737D01*
X54854Y-35524D02*
X55091Y-35445D01*
X54854Y-35366D01*
X54016Y-36345D02*
X54016Y-36165D01*
X54106Y-36255D02*
X53926Y-36255D01*
X53870Y-35940D02*
X53870Y-36052D01*
X53983Y-36064D01*
X53971Y-36052D01*
X53960Y-36030D01*
X53960Y-35974D01*
X53971Y-35951D01*
X53983Y-35940D01*
X54005Y-35929D01*
X54061Y-35929D01*
X54084Y-35940D01*
X54095Y-35951D01*
X54106Y-35974D01*
X54106Y-36030D01*
X54095Y-36052D01*
X54084Y-36064D01*
X53870Y-35861D02*
X54106Y-35782D01*
X53870Y-35704D01*
X77335Y-26997D02*
X77503Y-26997D01*
X77537Y-27008D01*
X77560Y-27031D01*
X77571Y-27065D01*
X77571Y-27087D01*
X77335Y-26919D02*
X77335Y-26784D01*
X77571Y-26851D02*
X77335Y-26851D01*
X77503Y-26716D02*
X77503Y-26604D01*
X77571Y-26739D02*
X77335Y-26660D01*
X77571Y-26581D01*
X77346Y-26379D02*
X77335Y-26401D01*
X77335Y-26435D01*
X77346Y-26469D01*
X77368Y-26491D01*
X77391Y-26502D01*
X77436Y-26514D01*
X77470Y-26514D01*
X77515Y-26502D01*
X77537Y-26491D01*
X77560Y-26469D01*
X77571Y-26435D01*
X77571Y-26412D01*
X77560Y-26379D01*
X77548Y-26367D01*
X77470Y-26367D01*
X77470Y-26412D01*
X78083Y-22728D02*
X78004Y-22616D01*
X77948Y-22728D02*
X77948Y-22492D01*
X78038Y-22492D01*
X78060Y-22503D01*
X78071Y-22515D01*
X78083Y-22537D01*
X78083Y-22571D01*
X78071Y-22593D01*
X78060Y-22605D01*
X78038Y-22616D01*
X77948Y-22616D01*
X78184Y-22605D02*
X78263Y-22605D01*
X78296Y-22728D02*
X78184Y-22728D01*
X78184Y-22492D01*
X78296Y-22492D01*
X78386Y-22717D02*
X78420Y-22728D01*
X78476Y-22728D01*
X78499Y-22717D01*
X78510Y-22706D01*
X78521Y-22683D01*
X78521Y-22661D01*
X78510Y-22638D01*
X78499Y-22627D01*
X78476Y-22616D01*
X78431Y-22605D01*
X78409Y-22593D01*
X78398Y-22582D01*
X78386Y-22560D01*
X78386Y-22537D01*
X78398Y-22515D01*
X78409Y-22503D01*
X78431Y-22492D01*
X78488Y-22492D01*
X78521Y-22503D01*
X78623Y-22605D02*
X78701Y-22605D01*
X78735Y-22728D02*
X78623Y-22728D01*
X78623Y-22492D01*
X78735Y-22492D01*
X78803Y-22492D02*
X78938Y-22492D01*
X78870Y-22728D02*
X78870Y-22492D01*
X77128Y-21460D02*
X76892Y-21460D01*
X76892Y-21370D01*
X76903Y-21348D01*
X76914Y-21336D01*
X76937Y-21325D01*
X76971Y-21325D01*
X76993Y-21336D01*
X77004Y-21348D01*
X77016Y-21370D01*
X77016Y-21460D01*
X77004Y-21145D02*
X77016Y-21111D01*
X77027Y-21100D01*
X77049Y-21089D01*
X77083Y-21089D01*
X77106Y-21100D01*
X77117Y-21111D01*
X77128Y-21134D01*
X77128Y-21224D01*
X76892Y-21224D01*
X76892Y-21145D01*
X76903Y-21123D01*
X76914Y-21111D01*
X76937Y-21100D01*
X76959Y-21100D01*
X76982Y-21111D01*
X76993Y-21123D01*
X77004Y-21145D01*
X77004Y-21224D01*
X77128Y-20864D02*
X77128Y-20999D01*
X77128Y-20931D02*
X76892Y-20931D01*
X76926Y-20954D01*
X76948Y-20976D01*
X76959Y-20999D01*
X76892Y-20650D02*
X76892Y-20763D01*
X77004Y-20774D01*
X76993Y-20763D01*
X76982Y-20740D01*
X76982Y-20684D01*
X76993Y-20661D01*
X77004Y-20650D01*
X77027Y-20639D01*
X77083Y-20639D01*
X77106Y-20650D01*
X77117Y-20661D01*
X77128Y-20684D01*
X77128Y-20740D01*
X77117Y-20763D01*
X77106Y-20774D01*
X76104Y-21460D02*
X75868Y-21460D01*
X75868Y-21370D01*
X75879Y-21348D01*
X75891Y-21336D01*
X75913Y-21325D01*
X75947Y-21325D01*
X75969Y-21336D01*
X75981Y-21348D01*
X75992Y-21370D01*
X75992Y-21460D01*
X75981Y-21145D02*
X75992Y-21111D01*
X76003Y-21100D01*
X76026Y-21089D01*
X76059Y-21089D01*
X76082Y-21100D01*
X76093Y-21111D01*
X76104Y-21134D01*
X76104Y-21224D01*
X75868Y-21224D01*
X75868Y-21145D01*
X75879Y-21123D01*
X75891Y-21111D01*
X75913Y-21100D01*
X75936Y-21100D01*
X75958Y-21111D01*
X75969Y-21123D01*
X75981Y-21145D01*
X75981Y-21224D01*
X76104Y-20864D02*
X76104Y-20999D01*
X76104Y-20931D02*
X75868Y-20931D01*
X75902Y-20954D01*
X75924Y-20976D01*
X75936Y-20999D01*
X75947Y-20661D02*
X76104Y-20661D01*
X75857Y-20718D02*
X76026Y-20774D01*
X76026Y-20628D01*
X75100Y-21450D02*
X74864Y-21450D01*
X74864Y-21360D01*
X74875Y-21338D01*
X74887Y-21327D01*
X74909Y-21315D01*
X74943Y-21315D01*
X74965Y-21327D01*
X74977Y-21338D01*
X74988Y-21360D01*
X74988Y-21450D01*
X74977Y-21135D02*
X74988Y-21102D01*
X74999Y-21090D01*
X75022Y-21079D01*
X75055Y-21079D01*
X75078Y-21090D01*
X75089Y-21102D01*
X75100Y-21124D01*
X75100Y-21214D01*
X74864Y-21214D01*
X74864Y-21135D01*
X74875Y-21113D01*
X74887Y-21102D01*
X74909Y-21090D01*
X74932Y-21090D01*
X74954Y-21102D01*
X74965Y-21113D01*
X74977Y-21135D01*
X74977Y-21214D01*
X75100Y-20854D02*
X75100Y-20989D01*
X75100Y-20922D02*
X74864Y-20922D01*
X74898Y-20944D01*
X74920Y-20967D01*
X74932Y-20989D01*
X74864Y-20775D02*
X74864Y-20629D01*
X74954Y-20708D01*
X74954Y-20674D01*
X74965Y-20652D01*
X74977Y-20640D01*
X74999Y-20629D01*
X75055Y-20629D01*
X75078Y-20640D01*
X75089Y-20652D01*
X75100Y-20674D01*
X75100Y-20742D01*
X75089Y-20764D01*
X75078Y-20775D01*
X74097Y-21450D02*
X73860Y-21450D01*
X73860Y-21360D01*
X73872Y-21338D01*
X73883Y-21327D01*
X73905Y-21315D01*
X73939Y-21315D01*
X73962Y-21327D01*
X73973Y-21338D01*
X73984Y-21360D01*
X73984Y-21450D01*
X73973Y-21135D02*
X73984Y-21102D01*
X73995Y-21090D01*
X74018Y-21079D01*
X74052Y-21079D01*
X74074Y-21090D01*
X74085Y-21102D01*
X74097Y-21124D01*
X74097Y-21214D01*
X73860Y-21214D01*
X73860Y-21135D01*
X73872Y-21113D01*
X73883Y-21102D01*
X73905Y-21090D01*
X73928Y-21090D01*
X73950Y-21102D01*
X73962Y-21113D01*
X73973Y-21135D01*
X73973Y-21214D01*
X74097Y-20854D02*
X74097Y-20989D01*
X74097Y-20922D02*
X73860Y-20922D01*
X73894Y-20944D01*
X73917Y-20967D01*
X73928Y-20989D01*
X73883Y-20764D02*
X73872Y-20753D01*
X73860Y-20730D01*
X73860Y-20674D01*
X73872Y-20652D01*
X73883Y-20640D01*
X73905Y-20629D01*
X73928Y-20629D01*
X73962Y-20640D01*
X74097Y-20775D01*
X74097Y-20629D01*
X73102Y-21470D02*
X72866Y-21470D01*
X72866Y-21380D01*
X72877Y-21357D01*
X72889Y-21346D01*
X72911Y-21335D01*
X72945Y-21335D01*
X72967Y-21346D01*
X72979Y-21357D01*
X72990Y-21380D01*
X72990Y-21470D01*
X72979Y-21155D02*
X72990Y-21121D01*
X73001Y-21110D01*
X73024Y-21099D01*
X73057Y-21099D01*
X73080Y-21110D01*
X73091Y-21121D01*
X73102Y-21144D01*
X73102Y-21234D01*
X72866Y-21234D01*
X72866Y-21155D01*
X72877Y-21133D01*
X72889Y-21121D01*
X72911Y-21110D01*
X72934Y-21110D01*
X72956Y-21121D01*
X72967Y-21133D01*
X72979Y-21155D01*
X72979Y-21234D01*
X73102Y-20874D02*
X73102Y-21009D01*
X73102Y-20941D02*
X72866Y-20941D01*
X72900Y-20964D01*
X72922Y-20986D01*
X72934Y-21009D01*
X73102Y-20649D02*
X73102Y-20784D01*
X73102Y-20716D02*
X72866Y-20716D01*
X72900Y-20739D01*
X72922Y-20761D01*
X72934Y-20784D01*
X72098Y-21470D02*
X71862Y-21470D01*
X71862Y-21380D01*
X71874Y-21357D01*
X71885Y-21346D01*
X71907Y-21335D01*
X71941Y-21335D01*
X71964Y-21346D01*
X71975Y-21357D01*
X71986Y-21380D01*
X71986Y-21470D01*
X71975Y-21155D02*
X71986Y-21121D01*
X71997Y-21110D01*
X72020Y-21099D01*
X72053Y-21099D01*
X72076Y-21110D01*
X72087Y-21121D01*
X72098Y-21144D01*
X72098Y-21234D01*
X71862Y-21234D01*
X71862Y-21155D01*
X71874Y-21133D01*
X71885Y-21121D01*
X71907Y-21110D01*
X71930Y-21110D01*
X71952Y-21121D01*
X71964Y-21133D01*
X71975Y-21155D01*
X71975Y-21234D01*
X72098Y-20874D02*
X72098Y-21009D01*
X72098Y-20941D02*
X71862Y-20941D01*
X71896Y-20964D01*
X71919Y-20986D01*
X71930Y-21009D01*
X71862Y-20728D02*
X71862Y-20705D01*
X71874Y-20683D01*
X71885Y-20671D01*
X71907Y-20660D01*
X71952Y-20649D01*
X72008Y-20649D01*
X72053Y-20660D01*
X72076Y-20671D01*
X72087Y-20683D01*
X72098Y-20705D01*
X72098Y-20728D01*
X72087Y-20750D01*
X72076Y-20761D01*
X72053Y-20773D01*
X72008Y-20784D01*
X71952Y-20784D01*
X71907Y-20773D01*
X71885Y-20761D01*
X71874Y-20750D01*
X71862Y-20728D01*
X71134Y-21235D02*
X70898Y-21235D01*
X70898Y-21145D01*
X70909Y-21123D01*
X70920Y-21111D01*
X70943Y-21100D01*
X70976Y-21100D01*
X70999Y-21111D01*
X71010Y-21123D01*
X71021Y-21145D01*
X71021Y-21235D01*
X71010Y-20920D02*
X71021Y-20886D01*
X71033Y-20875D01*
X71055Y-20864D01*
X71089Y-20864D01*
X71111Y-20875D01*
X71123Y-20886D01*
X71134Y-20909D01*
X71134Y-20999D01*
X70898Y-20999D01*
X70898Y-20920D01*
X70909Y-20898D01*
X70920Y-20886D01*
X70943Y-20875D01*
X70965Y-20875D01*
X70988Y-20886D01*
X70999Y-20898D01*
X71010Y-20920D01*
X71010Y-20999D01*
X71134Y-20751D02*
X71134Y-20706D01*
X71123Y-20684D01*
X71111Y-20673D01*
X71078Y-20650D01*
X71033Y-20639D01*
X70943Y-20639D01*
X70920Y-20650D01*
X70909Y-20661D01*
X70898Y-20684D01*
X70898Y-20729D01*
X70909Y-20751D01*
X70920Y-20763D01*
X70943Y-20774D01*
X70999Y-20774D01*
X71021Y-20763D01*
X71033Y-20751D01*
X71044Y-20729D01*
X71044Y-20684D01*
X71033Y-20661D01*
X71021Y-20650D01*
X70999Y-20639D01*
X70110Y-21235D02*
X69874Y-21235D01*
X69874Y-21145D01*
X69885Y-21123D01*
X69897Y-21111D01*
X69919Y-21100D01*
X69953Y-21100D01*
X69975Y-21111D01*
X69987Y-21123D01*
X69998Y-21145D01*
X69998Y-21235D01*
X69987Y-20920D02*
X69998Y-20886D01*
X70009Y-20875D01*
X70032Y-20864D01*
X70065Y-20864D01*
X70088Y-20875D01*
X70099Y-20886D01*
X70110Y-20909D01*
X70110Y-20999D01*
X69874Y-20999D01*
X69874Y-20920D01*
X69885Y-20898D01*
X69897Y-20886D01*
X69919Y-20875D01*
X69942Y-20875D01*
X69964Y-20886D01*
X69975Y-20898D01*
X69987Y-20920D01*
X69987Y-20999D01*
X69975Y-20729D02*
X69964Y-20751D01*
X69953Y-20763D01*
X69930Y-20774D01*
X69919Y-20774D01*
X69897Y-20763D01*
X69885Y-20751D01*
X69874Y-20729D01*
X69874Y-20684D01*
X69885Y-20661D01*
X69897Y-20650D01*
X69919Y-20639D01*
X69930Y-20639D01*
X69953Y-20650D01*
X69964Y-20661D01*
X69975Y-20684D01*
X69975Y-20729D01*
X69987Y-20751D01*
X69998Y-20763D01*
X70020Y-20774D01*
X70065Y-20774D01*
X70088Y-20763D01*
X70099Y-20751D01*
X70110Y-20729D01*
X70110Y-20684D01*
X70099Y-20661D01*
X70088Y-20650D01*
X70065Y-20639D01*
X70020Y-20639D01*
X69998Y-20650D01*
X69987Y-20661D01*
X69975Y-20684D01*
X69106Y-21235D02*
X68870Y-21235D01*
X68870Y-21145D01*
X68881Y-21123D01*
X68893Y-21111D01*
X68915Y-21100D01*
X68949Y-21100D01*
X68971Y-21111D01*
X68983Y-21123D01*
X68994Y-21145D01*
X68994Y-21235D01*
X68983Y-20920D02*
X68994Y-20886D01*
X69005Y-20875D01*
X69028Y-20864D01*
X69061Y-20864D01*
X69084Y-20875D01*
X69095Y-20886D01*
X69106Y-20909D01*
X69106Y-20999D01*
X68870Y-20999D01*
X68870Y-20920D01*
X68881Y-20898D01*
X68893Y-20886D01*
X68915Y-20875D01*
X68938Y-20875D01*
X68960Y-20886D01*
X68971Y-20898D01*
X68983Y-20920D01*
X68983Y-20999D01*
X68870Y-20785D02*
X68870Y-20628D01*
X69106Y-20729D01*
X68102Y-21235D02*
X67866Y-21235D01*
X67866Y-21145D01*
X67877Y-21123D01*
X67889Y-21111D01*
X67911Y-21100D01*
X67945Y-21100D01*
X67967Y-21111D01*
X67979Y-21123D01*
X67990Y-21145D01*
X67990Y-21235D01*
X67979Y-20920D02*
X67990Y-20886D01*
X68001Y-20875D01*
X68024Y-20864D01*
X68057Y-20864D01*
X68080Y-20875D01*
X68091Y-20886D01*
X68102Y-20909D01*
X68102Y-20999D01*
X67866Y-20999D01*
X67866Y-20920D01*
X67877Y-20898D01*
X67889Y-20886D01*
X67911Y-20875D01*
X67934Y-20875D01*
X67956Y-20886D01*
X67967Y-20898D01*
X67979Y-20920D01*
X67979Y-20999D01*
X67866Y-20661D02*
X67866Y-20706D01*
X67877Y-20729D01*
X67889Y-20740D01*
X67922Y-20763D01*
X67967Y-20774D01*
X68057Y-20774D01*
X68080Y-20763D01*
X68091Y-20751D01*
X68102Y-20729D01*
X68102Y-20684D01*
X68091Y-20661D01*
X68080Y-20650D01*
X68057Y-20639D01*
X68001Y-20639D01*
X67979Y-20650D01*
X67967Y-20661D01*
X67956Y-20684D01*
X67956Y-20729D01*
X67967Y-20751D01*
X67979Y-20763D01*
X68001Y-20774D01*
X67108Y-21225D02*
X66872Y-21225D01*
X66872Y-21135D01*
X66883Y-21113D01*
X66895Y-21102D01*
X66917Y-21090D01*
X66951Y-21090D01*
X66973Y-21102D01*
X66985Y-21113D01*
X66996Y-21135D01*
X66996Y-21225D01*
X66985Y-20910D02*
X66996Y-20877D01*
X67007Y-20865D01*
X67030Y-20854D01*
X67063Y-20854D01*
X67086Y-20865D01*
X67097Y-20877D01*
X67108Y-20899D01*
X67108Y-20989D01*
X66872Y-20989D01*
X66872Y-20910D01*
X66883Y-20888D01*
X66895Y-20877D01*
X66917Y-20865D01*
X66940Y-20865D01*
X66962Y-20877D01*
X66973Y-20888D01*
X66985Y-20910D01*
X66985Y-20989D01*
X66872Y-20640D02*
X66872Y-20753D01*
X66985Y-20764D01*
X66973Y-20753D01*
X66962Y-20730D01*
X66962Y-20674D01*
X66973Y-20652D01*
X66985Y-20640D01*
X67007Y-20629D01*
X67063Y-20629D01*
X67086Y-20640D01*
X67097Y-20652D01*
X67108Y-20674D01*
X67108Y-20730D01*
X67097Y-20753D01*
X67086Y-20764D01*
X66114Y-21225D02*
X65878Y-21225D01*
X65878Y-21135D01*
X65889Y-21113D01*
X65901Y-21102D01*
X65923Y-21090D01*
X65957Y-21090D01*
X65979Y-21102D01*
X65991Y-21113D01*
X66002Y-21135D01*
X66002Y-21225D01*
X65991Y-20910D02*
X66002Y-20877D01*
X66013Y-20865D01*
X66035Y-20854D01*
X66069Y-20854D01*
X66092Y-20865D01*
X66103Y-20877D01*
X66114Y-20899D01*
X66114Y-20989D01*
X65878Y-20989D01*
X65878Y-20910D01*
X65889Y-20888D01*
X65901Y-20877D01*
X65923Y-20865D01*
X65946Y-20865D01*
X65968Y-20877D01*
X65979Y-20888D01*
X65991Y-20910D01*
X65991Y-20989D01*
X65957Y-20652D02*
X66114Y-20652D01*
X65867Y-20708D02*
X66035Y-20764D01*
X66035Y-20618D01*
X65110Y-21225D02*
X64874Y-21225D01*
X64874Y-21135D01*
X64885Y-21113D01*
X64897Y-21102D01*
X64919Y-21090D01*
X64953Y-21090D01*
X64975Y-21102D01*
X64987Y-21113D01*
X64998Y-21135D01*
X64998Y-21225D01*
X64987Y-20910D02*
X64998Y-20877D01*
X65009Y-20865D01*
X65032Y-20854D01*
X65065Y-20854D01*
X65088Y-20865D01*
X65099Y-20877D01*
X65110Y-20899D01*
X65110Y-20989D01*
X64874Y-20989D01*
X64874Y-20910D01*
X64885Y-20888D01*
X64897Y-20877D01*
X64919Y-20865D01*
X64942Y-20865D01*
X64964Y-20877D01*
X64975Y-20888D01*
X64987Y-20910D01*
X64987Y-20989D01*
X64874Y-20775D02*
X64874Y-20629D01*
X64964Y-20708D01*
X64964Y-20674D01*
X64975Y-20652D01*
X64987Y-20640D01*
X65009Y-20629D01*
X65065Y-20629D01*
X65088Y-20640D01*
X65099Y-20652D01*
X65110Y-20674D01*
X65110Y-20742D01*
X65099Y-20764D01*
X65088Y-20775D01*
X64116Y-21235D02*
X63880Y-21235D01*
X63880Y-21145D01*
X63891Y-21123D01*
X63902Y-21111D01*
X63925Y-21100D01*
X63959Y-21100D01*
X63981Y-21111D01*
X63992Y-21123D01*
X64004Y-21145D01*
X64004Y-21235D01*
X63992Y-20920D02*
X64004Y-20886D01*
X64015Y-20875D01*
X64037Y-20864D01*
X64071Y-20864D01*
X64094Y-20875D01*
X64105Y-20886D01*
X64116Y-20909D01*
X64116Y-20999D01*
X63880Y-20999D01*
X63880Y-20920D01*
X63891Y-20898D01*
X63902Y-20886D01*
X63925Y-20875D01*
X63947Y-20875D01*
X63970Y-20886D01*
X63981Y-20898D01*
X63992Y-20920D01*
X63992Y-20999D01*
X63902Y-20774D02*
X63891Y-20763D01*
X63880Y-20740D01*
X63880Y-20684D01*
X63891Y-20661D01*
X63902Y-20650D01*
X63925Y-20639D01*
X63947Y-20639D01*
X63981Y-20650D01*
X64116Y-20785D01*
X64116Y-20639D01*
X63122Y-21245D02*
X62886Y-21245D01*
X62886Y-21155D01*
X62897Y-21133D01*
X62908Y-21121D01*
X62931Y-21110D01*
X62965Y-21110D01*
X62987Y-21121D01*
X62998Y-21133D01*
X63010Y-21155D01*
X63010Y-21245D01*
X62998Y-20930D02*
X63010Y-20896D01*
X63021Y-20885D01*
X63043Y-20874D01*
X63077Y-20874D01*
X63100Y-20885D01*
X63111Y-20896D01*
X63122Y-20919D01*
X63122Y-21009D01*
X62886Y-21009D01*
X62886Y-20930D01*
X62897Y-20908D01*
X62908Y-20896D01*
X62931Y-20885D01*
X62953Y-20885D01*
X62976Y-20896D01*
X62987Y-20908D01*
X62998Y-20930D01*
X62998Y-21009D01*
X63122Y-20649D02*
X63122Y-20784D01*
X63122Y-20716D02*
X62886Y-20716D01*
X62920Y-20739D01*
X62942Y-20761D01*
X62953Y-20784D01*
X62128Y-21245D02*
X61892Y-21245D01*
X61892Y-21155D01*
X61903Y-21133D01*
X61914Y-21121D01*
X61937Y-21110D01*
X61971Y-21110D01*
X61993Y-21121D01*
X62004Y-21133D01*
X62016Y-21155D01*
X62016Y-21245D01*
X62004Y-20930D02*
X62016Y-20896D01*
X62027Y-20885D01*
X62049Y-20874D01*
X62083Y-20874D01*
X62106Y-20885D01*
X62117Y-20896D01*
X62128Y-20919D01*
X62128Y-21009D01*
X61892Y-21009D01*
X61892Y-20930D01*
X61903Y-20908D01*
X61914Y-20896D01*
X61937Y-20885D01*
X61959Y-20885D01*
X61982Y-20896D01*
X61993Y-20908D01*
X62004Y-20930D01*
X62004Y-21009D01*
X61892Y-20728D02*
X61892Y-20705D01*
X61903Y-20683D01*
X61914Y-20671D01*
X61937Y-20660D01*
X61982Y-20649D01*
X62038Y-20649D01*
X62083Y-20660D01*
X62106Y-20671D01*
X62117Y-20683D01*
X62128Y-20705D01*
X62128Y-20728D01*
X62117Y-20750D01*
X62106Y-20761D01*
X62083Y-20773D01*
X62038Y-20784D01*
X61982Y-20784D01*
X61937Y-20773D01*
X61914Y-20761D01*
X61903Y-20750D01*
X61892Y-20728D01*
X61144Y-21470D02*
X60908Y-21470D01*
X60908Y-21380D01*
X60919Y-21357D01*
X60930Y-21346D01*
X60953Y-21335D01*
X60986Y-21335D01*
X61009Y-21346D01*
X61020Y-21357D01*
X61031Y-21380D01*
X61031Y-21470D01*
X61121Y-21099D02*
X61133Y-21110D01*
X61144Y-21144D01*
X61144Y-21166D01*
X61133Y-21200D01*
X61110Y-21223D01*
X61088Y-21234D01*
X61043Y-21245D01*
X61009Y-21245D01*
X60964Y-21234D01*
X60941Y-21223D01*
X60919Y-21200D01*
X60908Y-21166D01*
X60908Y-21144D01*
X60919Y-21110D01*
X60930Y-21099D01*
X61144Y-20874D02*
X61144Y-21009D01*
X61144Y-20941D02*
X60908Y-20941D01*
X60941Y-20964D01*
X60964Y-20986D01*
X60975Y-21009D01*
X60908Y-20660D02*
X60908Y-20773D01*
X61020Y-20784D01*
X61009Y-20773D01*
X60998Y-20750D01*
X60998Y-20694D01*
X61009Y-20671D01*
X61020Y-20660D01*
X61043Y-20649D01*
X61099Y-20649D01*
X61121Y-20660D01*
X61133Y-20671D01*
X61144Y-20694D01*
X61144Y-20750D01*
X61133Y-20773D01*
X61121Y-20784D01*
X60140Y-21470D02*
X59904Y-21470D01*
X59904Y-21380D01*
X59915Y-21357D01*
X59926Y-21346D01*
X59949Y-21335D01*
X59982Y-21335D01*
X60005Y-21346D01*
X60016Y-21357D01*
X60027Y-21380D01*
X60027Y-21470D01*
X60117Y-21099D02*
X60129Y-21110D01*
X60140Y-21144D01*
X60140Y-21166D01*
X60129Y-21200D01*
X60106Y-21223D01*
X60084Y-21234D01*
X60039Y-21245D01*
X60005Y-21245D01*
X59960Y-21234D01*
X59937Y-21223D01*
X59915Y-21200D01*
X59904Y-21166D01*
X59904Y-21144D01*
X59915Y-21110D01*
X59926Y-21099D01*
X60140Y-20874D02*
X60140Y-21009D01*
X60140Y-20941D02*
X59904Y-20941D01*
X59937Y-20964D01*
X59960Y-20986D01*
X59971Y-21009D01*
X59982Y-20671D02*
X60140Y-20671D01*
X59892Y-20728D02*
X60061Y-20784D01*
X60061Y-20638D01*
X59106Y-21470D02*
X58870Y-21470D01*
X58870Y-21380D01*
X58881Y-21357D01*
X58893Y-21346D01*
X58915Y-21335D01*
X58949Y-21335D01*
X58971Y-21346D01*
X58983Y-21357D01*
X58994Y-21380D01*
X58994Y-21470D01*
X59084Y-21099D02*
X59095Y-21110D01*
X59106Y-21144D01*
X59106Y-21166D01*
X59095Y-21200D01*
X59073Y-21223D01*
X59050Y-21234D01*
X59005Y-21245D01*
X58971Y-21245D01*
X58926Y-21234D01*
X58904Y-21223D01*
X58881Y-21200D01*
X58870Y-21166D01*
X58870Y-21144D01*
X58881Y-21110D01*
X58893Y-21099D01*
X59106Y-20874D02*
X59106Y-21009D01*
X59106Y-20941D02*
X58870Y-20941D01*
X58904Y-20964D01*
X58926Y-20986D01*
X58938Y-21009D01*
X58870Y-20795D02*
X58870Y-20649D01*
X58960Y-20728D01*
X58960Y-20694D01*
X58971Y-20671D01*
X58983Y-20660D01*
X59005Y-20649D01*
X59061Y-20649D01*
X59084Y-20660D01*
X59095Y-20671D01*
X59106Y-20694D01*
X59106Y-20761D01*
X59095Y-20784D01*
X59084Y-20795D01*
X57896Y-21402D02*
X58132Y-21324D01*
X57896Y-21245D01*
X58008Y-21088D02*
X58019Y-21054D01*
X58031Y-21043D01*
X58053Y-21031D01*
X58087Y-21031D01*
X58109Y-21043D01*
X58121Y-21054D01*
X58132Y-21076D01*
X58132Y-21166D01*
X57896Y-21166D01*
X57896Y-21088D01*
X57907Y-21065D01*
X57918Y-21054D01*
X57941Y-21043D01*
X57963Y-21043D01*
X57986Y-21054D01*
X57997Y-21065D01*
X58008Y-21088D01*
X58008Y-21166D01*
X58064Y-20941D02*
X58064Y-20829D01*
X58132Y-20964D02*
X57896Y-20885D01*
X58132Y-20806D01*
X57896Y-20761D02*
X57896Y-20626D01*
X58132Y-20694D02*
X57896Y-20694D01*
X54007Y-21267D02*
X54007Y-21088D01*
X54097Y-21178D02*
X53917Y-21178D01*
X53860Y-20863D02*
X53860Y-20975D01*
X53973Y-20986D01*
X53962Y-20975D01*
X53950Y-20953D01*
X53950Y-20896D01*
X53962Y-20874D01*
X53973Y-20863D01*
X53995Y-20851D01*
X54052Y-20851D01*
X54074Y-20863D01*
X54085Y-20874D01*
X54097Y-20896D01*
X54097Y-20953D01*
X54085Y-20975D01*
X54074Y-20986D01*
X53860Y-20784D02*
X54097Y-20705D01*
X53860Y-20626D01*
X55040Y-21605D02*
X55040Y-21425D01*
X55130Y-21515D02*
X54950Y-21515D01*
X54894Y-21335D02*
X54894Y-21189D01*
X54984Y-21267D01*
X54984Y-21234D01*
X54995Y-21211D01*
X55006Y-21200D01*
X55029Y-21189D01*
X55085Y-21189D01*
X55107Y-21200D01*
X55119Y-21211D01*
X55130Y-21234D01*
X55130Y-21301D01*
X55119Y-21324D01*
X55107Y-21335D01*
X55107Y-21088D02*
X55119Y-21076D01*
X55130Y-21088D01*
X55119Y-21099D01*
X55107Y-21088D01*
X55130Y-21088D01*
X54894Y-20998D02*
X54894Y-20851D01*
X54984Y-20930D01*
X54984Y-20896D01*
X54995Y-20874D01*
X55006Y-20863D01*
X55029Y-20851D01*
X55085Y-20851D01*
X55107Y-20863D01*
X55119Y-20874D01*
X55130Y-20896D01*
X55130Y-20964D01*
X55119Y-20986D01*
X55107Y-20998D01*
X54894Y-20784D02*
X55130Y-20705D01*
X54894Y-20626D01*
X55899Y-21144D02*
X55888Y-21166D01*
X55888Y-21200D01*
X55899Y-21234D01*
X55922Y-21256D01*
X55944Y-21267D01*
X55989Y-21279D01*
X56023Y-21279D01*
X56068Y-21267D01*
X56090Y-21256D01*
X56113Y-21234D01*
X56124Y-21200D01*
X56124Y-21178D01*
X56113Y-21144D01*
X56102Y-21133D01*
X56023Y-21133D01*
X56023Y-21178D01*
X56124Y-21031D02*
X55888Y-21031D01*
X56124Y-20896D01*
X55888Y-20896D01*
X56124Y-20784D02*
X55888Y-20784D01*
X55888Y-20728D01*
X55899Y-20694D01*
X55922Y-20671D01*
X55944Y-20660D01*
X55989Y-20649D01*
X56023Y-20649D01*
X56068Y-20660D01*
X56090Y-20671D01*
X56113Y-20694D01*
X56124Y-20728D01*
X56124Y-20784D01*
X56902Y-21492D02*
X57138Y-21414D01*
X56902Y-21335D01*
X56902Y-21256D02*
X57093Y-21256D01*
X57115Y-21245D01*
X57127Y-21234D01*
X57138Y-21211D01*
X57138Y-21166D01*
X57127Y-21144D01*
X57115Y-21133D01*
X57093Y-21121D01*
X56902Y-21121D01*
X57127Y-21020D02*
X57138Y-20986D01*
X57138Y-20930D01*
X57127Y-20908D01*
X57115Y-20896D01*
X57093Y-20885D01*
X57070Y-20885D01*
X57048Y-20896D01*
X57037Y-20908D01*
X57025Y-20930D01*
X57014Y-20975D01*
X57003Y-20998D01*
X56992Y-21009D01*
X56969Y-21020D01*
X56947Y-21020D01*
X56924Y-21009D01*
X56913Y-20998D01*
X56902Y-20975D01*
X56902Y-20919D01*
X56913Y-20885D01*
X57014Y-20705D02*
X57025Y-20671D01*
X57037Y-20660D01*
X57059Y-20649D01*
X57093Y-20649D01*
X57115Y-20660D01*
X57127Y-20671D01*
X57138Y-20694D01*
X57138Y-20784D01*
X56902Y-20784D01*
X56902Y-20705D01*
X56913Y-20683D01*
X56924Y-20671D01*
X56947Y-20660D01*
X56969Y-20660D01*
X56992Y-20671D01*
X57003Y-20683D01*
X57014Y-20705D01*
X57014Y-20784D01*
X57588Y-22138D02*
X57667Y-22374D01*
X57745Y-22138D01*
X57903Y-22250D02*
X57937Y-22262D01*
X57948Y-22273D01*
X57959Y-22295D01*
X57959Y-22329D01*
X57948Y-22352D01*
X57937Y-22363D01*
X57914Y-22374D01*
X57824Y-22374D01*
X57824Y-22138D01*
X57903Y-22138D01*
X57925Y-22149D01*
X57937Y-22160D01*
X57948Y-22183D01*
X57948Y-22205D01*
X57937Y-22228D01*
X57925Y-22239D01*
X57903Y-22250D01*
X57824Y-22250D01*
X58049Y-22307D02*
X58161Y-22307D01*
X58026Y-22374D02*
X58105Y-22138D01*
X58184Y-22374D01*
X58229Y-22138D02*
X58364Y-22138D01*
X58296Y-22374D02*
X58296Y-22138D01*
X56440Y-22284D02*
X56620Y-22284D01*
X56530Y-22374D02*
X56530Y-22194D01*
X56710Y-22138D02*
X56857Y-22138D01*
X56778Y-22228D01*
X56812Y-22228D01*
X56834Y-22239D01*
X56845Y-22250D01*
X56857Y-22273D01*
X56857Y-22329D01*
X56845Y-22352D01*
X56834Y-22363D01*
X56812Y-22374D01*
X56744Y-22374D01*
X56722Y-22363D01*
X56710Y-22352D01*
X56958Y-22352D02*
X56969Y-22363D01*
X56958Y-22374D01*
X56947Y-22363D01*
X56958Y-22352D01*
X56958Y-22374D01*
X57048Y-22138D02*
X57194Y-22138D01*
X57115Y-22228D01*
X57149Y-22228D01*
X57172Y-22239D01*
X57183Y-22250D01*
X57194Y-22273D01*
X57194Y-22329D01*
X57183Y-22352D01*
X57172Y-22363D01*
X57149Y-22374D01*
X57082Y-22374D01*
X57059Y-22363D01*
X57048Y-22352D01*
X57262Y-22138D02*
X57340Y-22374D01*
X57419Y-22138D01*
G54D12*
X51913Y-27525D02*
X51904Y-27544D01*
X51904Y-27572D01*
X51913Y-27600D01*
X51932Y-27619D01*
X51950Y-27629D01*
X51988Y-27638D01*
X52016Y-27638D01*
X52053Y-27629D01*
X52072Y-27619D01*
X52091Y-27600D01*
X52100Y-27572D01*
X52100Y-27554D01*
X52091Y-27525D01*
X52082Y-27516D01*
X52016Y-27516D01*
X52016Y-27554D01*
X52100Y-27432D02*
X51904Y-27432D01*
X52100Y-27319D01*
X51904Y-27319D01*
X52100Y-27226D02*
X51904Y-27226D01*
X51904Y-27179D01*
X51913Y-27151D01*
X51932Y-27132D01*
X51950Y-27122D01*
X51988Y-27113D01*
X52016Y-27113D01*
X52053Y-27122D01*
X52072Y-27132D01*
X52091Y-27151D01*
X52100Y-27179D01*
X52100Y-27226D01*
X51923Y-29400D02*
X52083Y-29400D01*
X52101Y-29391D01*
X52111Y-29381D01*
X52120Y-29363D01*
X52120Y-29325D01*
X52111Y-29306D01*
X52101Y-29297D01*
X52083Y-29288D01*
X51923Y-29288D01*
X52120Y-29194D02*
X51923Y-29194D01*
X51923Y-29147D01*
X51933Y-29119D01*
X51951Y-29100D01*
X51970Y-29091D01*
X52008Y-29082D01*
X52036Y-29082D01*
X52073Y-29091D01*
X52092Y-29100D01*
X52111Y-29119D01*
X52120Y-29147D01*
X52120Y-29194D01*
X52120Y-28997D02*
X51923Y-28997D01*
X51923Y-28922D01*
X51933Y-28903D01*
X51942Y-28894D01*
X51961Y-28885D01*
X51989Y-28885D01*
X52008Y-28894D01*
X52017Y-28903D01*
X52026Y-28922D01*
X52026Y-28997D01*
X51913Y-28479D02*
X52073Y-28479D01*
X52091Y-28470D01*
X52101Y-28461D01*
X52110Y-28442D01*
X52110Y-28404D01*
X52101Y-28386D01*
X52091Y-28376D01*
X52073Y-28367D01*
X51913Y-28367D01*
X52110Y-28273D02*
X51913Y-28273D01*
X51913Y-28226D01*
X51923Y-28198D01*
X51941Y-28179D01*
X51960Y-28170D01*
X51998Y-28161D01*
X52026Y-28161D01*
X52063Y-28170D01*
X52082Y-28179D01*
X52101Y-28198D01*
X52110Y-28226D01*
X52110Y-28273D01*
X52110Y-28076D02*
X51913Y-28076D01*
X52054Y-28011D01*
X51913Y-27945D01*
X52110Y-27945D01*
G54D11*
X50659Y-32886D02*
X50659Y-33077D01*
X50670Y-33100D01*
X50681Y-33111D01*
X50704Y-33122D01*
X50749Y-33122D01*
X50771Y-33111D01*
X50782Y-33100D01*
X50794Y-33077D01*
X50794Y-32886D01*
X50895Y-33111D02*
X50929Y-33122D01*
X50985Y-33122D01*
X51007Y-33111D01*
X51019Y-33100D01*
X51030Y-33077D01*
X51030Y-33055D01*
X51019Y-33032D01*
X51007Y-33021D01*
X50985Y-33010D01*
X50940Y-32998D01*
X50917Y-32987D01*
X50906Y-32976D01*
X50895Y-32953D01*
X50895Y-32931D01*
X50906Y-32908D01*
X50917Y-32897D01*
X50940Y-32886D01*
X50996Y-32886D01*
X51030Y-32897D01*
X51210Y-32998D02*
X51244Y-33010D01*
X51255Y-33021D01*
X51266Y-33043D01*
X51266Y-33077D01*
X51255Y-33100D01*
X51244Y-33111D01*
X51221Y-33122D01*
X51131Y-33122D01*
X51131Y-32886D01*
X51210Y-32886D01*
X51232Y-32897D01*
X51244Y-32908D01*
X51255Y-32931D01*
X51255Y-32953D01*
X51244Y-32976D01*
X51232Y-32987D01*
X51210Y-32998D01*
X51131Y-32998D01*
X51367Y-33122D02*
X51367Y-32886D01*
X51424Y-32886D01*
X51457Y-32897D01*
X51480Y-32920D01*
X51491Y-32942D01*
X51502Y-32987D01*
X51502Y-33021D01*
X51491Y-33066D01*
X51480Y-33088D01*
X51457Y-33111D01*
X51424Y-33122D01*
X51367Y-33122D01*
X51604Y-33122D02*
X51604Y-32886D01*
X51705Y-33111D02*
X51739Y-33122D01*
X51795Y-33122D01*
X51817Y-33111D01*
X51829Y-33100D01*
X51840Y-33077D01*
X51840Y-33055D01*
X51829Y-33032D01*
X51817Y-33021D01*
X51795Y-33010D01*
X51750Y-32998D01*
X51727Y-32987D01*
X51716Y-32976D01*
X51705Y-32953D01*
X51705Y-32931D01*
X51716Y-32908D01*
X51727Y-32897D01*
X51750Y-32886D01*
X51806Y-32886D01*
X51840Y-32897D01*
X50692Y-32138D02*
X50692Y-31902D01*
X50782Y-31902D01*
X50805Y-31913D01*
X50816Y-31924D01*
X50827Y-31947D01*
X50827Y-31980D01*
X50816Y-32003D01*
X50805Y-32014D01*
X50782Y-32025D01*
X50692Y-32025D01*
X50917Y-32070D02*
X51030Y-32070D01*
X50895Y-32138D02*
X50974Y-31902D01*
X51052Y-32138D01*
X51165Y-32003D02*
X51142Y-31992D01*
X51131Y-31980D01*
X51120Y-31958D01*
X51120Y-31947D01*
X51131Y-31924D01*
X51142Y-31913D01*
X51165Y-31902D01*
X51210Y-31902D01*
X51232Y-31913D01*
X51244Y-31924D01*
X51255Y-31947D01*
X51255Y-31958D01*
X51244Y-31980D01*
X51232Y-31992D01*
X51210Y-32003D01*
X51165Y-32003D01*
X51142Y-32014D01*
X51131Y-32025D01*
X51120Y-32048D01*
X51120Y-32093D01*
X51131Y-32115D01*
X51142Y-32127D01*
X51165Y-32138D01*
X51210Y-32138D01*
X51232Y-32127D01*
X51244Y-32115D01*
X51255Y-32093D01*
X51255Y-32048D01*
X51244Y-32025D01*
X51232Y-32014D01*
X51210Y-32003D01*
X50692Y-24854D02*
X50771Y-25091D01*
X50850Y-24854D01*
X50929Y-24854D02*
X50929Y-25046D01*
X50940Y-25068D01*
X50951Y-25079D01*
X50974Y-25091D01*
X51019Y-25091D01*
X51041Y-25079D01*
X51052Y-25068D01*
X51064Y-25046D01*
X51064Y-24854D01*
X51165Y-25079D02*
X51199Y-25091D01*
X51255Y-25091D01*
X51277Y-25079D01*
X51289Y-25068D01*
X51300Y-25046D01*
X51300Y-25023D01*
X51289Y-25001D01*
X51277Y-24989D01*
X51255Y-24978D01*
X51210Y-24967D01*
X51187Y-24956D01*
X51176Y-24944D01*
X51165Y-24922D01*
X51165Y-24899D01*
X51176Y-24877D01*
X51187Y-24866D01*
X51210Y-24854D01*
X51266Y-24854D01*
X51300Y-24866D01*
X51480Y-24967D02*
X51514Y-24978D01*
X51525Y-24989D01*
X51536Y-25012D01*
X51536Y-25046D01*
X51525Y-25068D01*
X51514Y-25079D01*
X51491Y-25091D01*
X51401Y-25091D01*
X51401Y-24854D01*
X51480Y-24854D01*
X51502Y-24866D01*
X51514Y-24877D01*
X51525Y-24899D01*
X51525Y-24922D01*
X51514Y-24944D01*
X51502Y-24956D01*
X51480Y-24967D01*
X51401Y-24967D01*
X50704Y-24056D02*
X50884Y-24056D01*
X50794Y-24146D02*
X50794Y-23966D01*
X51109Y-23910D02*
X50996Y-23910D01*
X50985Y-24022D01*
X50996Y-24011D01*
X51019Y-24000D01*
X51075Y-24000D01*
X51097Y-24011D01*
X51109Y-24022D01*
X51120Y-24044D01*
X51120Y-24101D01*
X51109Y-24123D01*
X51097Y-24134D01*
X51075Y-24146D01*
X51019Y-24146D01*
X50996Y-24134D01*
X50985Y-24123D01*
X51187Y-23910D02*
X51266Y-24146D01*
X51345Y-23910D01*
X82000Y-19000D02*
X49000Y-19000D01*
X82000Y-38000D02*
X82000Y-19000D01*
X49000Y-38000D02*
X82000Y-38000D01*
X49000Y-19000D02*
X49000Y-38000D01*
X76145Y-24019D02*
X76578Y-24019D01*
X52854Y-30236D02*
X52854Y-29803D01*
X52854Y-27578D02*
X52854Y-27145D01*
X63586Y-31657D02*
X63153Y-31657D01*
X65933Y-24968D02*
X66239Y-25275D01*
X61681Y-27637D02*
X61987Y-27331D01*
X56007Y-34885D02*
X56007Y-35318D01*
X60574Y-34885D02*
X60574Y-35318D01*
X69251Y-29772D02*
X68945Y-30078D01*
X61849Y-30078D02*
X61543Y-29772D01*
X58527Y-35318D02*
X58527Y-34885D01*
X63094Y-35318D02*
X63094Y-34885D01*
X56952Y-25102D02*
X57385Y-25102D01*
X55968Y-25102D02*
X56401Y-25102D01*
X54984Y-23094D02*
X54984Y-22779D01*
X54787Y-22779D02*
X54787Y-23094D01*
X54787Y-23094D02*
X54984Y-22937D01*
X54984Y-22937D02*
X54787Y-22779D01*
X54590Y-23173D02*
X55220Y-23173D01*
X54590Y-22700D02*
X55220Y-22700D01*
X49500Y-33500D02*
X49500Y-31492D01*
X49500Y-31492D02*
X50500Y-31492D01*
X50500Y-31492D02*
X50500Y-33500D01*
X50500Y-33500D02*
X49500Y-33500D01*
X56500Y-22500D02*
X58507Y-22500D01*
X58507Y-22500D02*
X58507Y-23500D01*
X58507Y-23500D02*
X56500Y-23500D01*
X56500Y-23500D02*
X56500Y-22500D01*
X49500Y-25500D02*
X49500Y-23492D01*
X49500Y-23492D02*
X50500Y-23492D01*
X50500Y-23492D02*
X50500Y-25500D01*
X50500Y-25500D02*
X49500Y-25500D01*
X62500Y-23500D02*
X60492Y-23500D01*
X60492Y-23500D02*
X60492Y-22500D01*
X60492Y-22500D02*
X62500Y-22500D01*
X62500Y-22500D02*
X62500Y-23500D01*
X78220Y-30846D02*
X77787Y-30846D01*
X78220Y-29153D02*
X77787Y-29153D01*
X78220Y-26427D02*
X80779Y-26427D01*
X80779Y-26427D02*
X80779Y-33572D01*
X80779Y-33572D02*
X78220Y-33572D01*
X78220Y-26427D02*
X78220Y-33572D01*
X81212Y-25994D02*
X81212Y-34005D01*
X81212Y-34005D02*
X77787Y-34005D01*
X77787Y-34005D02*
X77787Y-25994D01*
X77787Y-25994D02*
X81212Y-25994D01*
X53500Y-19500D02*
X77507Y-19500D01*
X77507Y-19500D02*
X77507Y-20500D01*
X77507Y-20500D02*
X53500Y-20500D01*
X53500Y-20500D02*
X53500Y-19500D01*
X53500Y-36500D02*
X77507Y-36500D01*
X77507Y-36500D02*
X77507Y-37500D01*
X77507Y-37500D02*
X53500Y-37500D01*
X53500Y-37500D02*
X53500Y-36500D01*
X52854Y-28917D02*
X52854Y-29350D01*
X52854Y-28031D02*
X52854Y-28464D01*
X52838Y-31578D02*
X52838Y-32011D01*
X52838Y-31125D02*
X52838Y-30692D01*
X68582Y-30402D02*
X68276Y-30708D01*
X76755Y-29610D02*
X76755Y-30043D01*
X76755Y-27799D02*
X76755Y-28232D01*
X76755Y-31421D02*
X76755Y-31854D01*
X76755Y-28704D02*
X76755Y-29137D01*
X76755Y-30515D02*
X76755Y-30948D01*
X52937Y-23153D02*
X52937Y-22720D01*
X79393Y-24000D02*
G75*
G03X79393Y-24000I-393J0D01*
G74*
G01*
X77976Y-22976D02*
X80023Y-22976D01*
X80023Y-22976D02*
X80023Y-25023D01*
X80023Y-25023D02*
X77976Y-25023D01*
X77976Y-25023D02*
X77976Y-22976D01*
X52582Y-32602D02*
X53094Y-32602D01*
X53094Y-32602D02*
X53094Y-33744D01*
X52582Y-33744D02*
X53094Y-33744D01*
X52582Y-33744D02*
X52582Y-32602D01*
G54D13*
X52405Y-23803D02*
G75*
G03X52405Y-23803I-39J0D01*
G74*
G01*
G54D14*
X53507Y-24157D02*
G75*
G03X53507Y-24157I-78J0D01*
G74*
G01*
G54D11*
X53124Y-23822D02*
X54521Y-23822D01*
X54521Y-23822D02*
X54521Y-26381D01*
X54521Y-26381D02*
X53124Y-26381D01*
X53124Y-26381D02*
X53124Y-23822D01*
G54D15*
X62870Y-28810D02*
G75*
G03X62870Y-28810I-39J0D01*
G74*
G01*
G54D14*
X63828Y-28448D02*
G75*
G03X63828Y-28448I-78J0D01*
G74*
G01*
G54D11*
X63360Y-28448D02*
X65141Y-26667D01*
X65141Y-26667D02*
X66923Y-28448D01*
X66923Y-28448D02*
X65141Y-30230D01*
X65141Y-30230D02*
X63360Y-28448D01*
X55692Y-32838D02*
X55692Y-32582D01*
X58842Y-32582D02*
X55692Y-32582D01*
X58842Y-32582D02*
X58842Y-32838D01*
X58842Y-34098D02*
X58842Y-34354D01*
X58842Y-34354D02*
X55692Y-34354D01*
X55692Y-34354D02*
X55692Y-34098D01*
X60259Y-32858D02*
X60259Y-32602D01*
X63409Y-32602D02*
X60259Y-32602D01*
X63409Y-32602D02*
X63409Y-32858D01*
X63409Y-34118D02*
X63409Y-34374D01*
X63409Y-34374D02*
X60259Y-34374D01*
X60259Y-34374D02*
X60259Y-34118D01*
X76322Y-23204D02*
X76311Y-23215D01*
X76277Y-23226D01*
X76255Y-23226D01*
X76221Y-23215D01*
X76199Y-23192D01*
X76187Y-23170D01*
X76176Y-23125D01*
X76176Y-23091D01*
X76187Y-23046D01*
X76199Y-23024D01*
X76221Y-23001D01*
X76255Y-22990D01*
X76277Y-22990D01*
X76311Y-23001D01*
X76322Y-23012D01*
X76547Y-23226D02*
X76412Y-23226D01*
X76480Y-23226D02*
X76480Y-22990D01*
X76457Y-23024D01*
X76435Y-23046D01*
X76412Y-23057D01*
X53808Y-30023D02*
X53820Y-30034D01*
X53831Y-30068D01*
X53831Y-30091D01*
X53820Y-30124D01*
X53797Y-30147D01*
X53775Y-30158D01*
X53730Y-30169D01*
X53696Y-30169D01*
X53651Y-30158D01*
X53628Y-30147D01*
X53606Y-30124D01*
X53595Y-30091D01*
X53595Y-30068D01*
X53606Y-30034D01*
X53617Y-30023D01*
X53617Y-29933D02*
X53606Y-29922D01*
X53595Y-29899D01*
X53595Y-29843D01*
X53606Y-29821D01*
X53617Y-29809D01*
X53640Y-29798D01*
X53662Y-29798D01*
X53696Y-29809D01*
X53831Y-29944D01*
X53831Y-29798D01*
X53808Y-27385D02*
X53820Y-27397D01*
X53831Y-27430D01*
X53831Y-27453D01*
X53820Y-27487D01*
X53797Y-27509D01*
X53775Y-27520D01*
X53730Y-27532D01*
X53696Y-27532D01*
X53651Y-27520D01*
X53628Y-27509D01*
X53606Y-27487D01*
X53595Y-27453D01*
X53595Y-27430D01*
X53606Y-27397D01*
X53617Y-27385D01*
X53595Y-27307D02*
X53595Y-27160D01*
X53685Y-27239D01*
X53685Y-27205D01*
X53696Y-27183D01*
X53707Y-27172D01*
X53730Y-27160D01*
X53786Y-27160D01*
X53808Y-27172D01*
X53820Y-27183D01*
X53831Y-27205D01*
X53831Y-27273D01*
X53820Y-27295D01*
X53808Y-27307D01*
X62863Y-31234D02*
X62875Y-31245D01*
X62886Y-31279D01*
X62886Y-31301D01*
X62875Y-31335D01*
X62852Y-31357D01*
X62830Y-31369D01*
X62785Y-31380D01*
X62751Y-31380D01*
X62706Y-31369D01*
X62683Y-31357D01*
X62661Y-31335D01*
X62650Y-31301D01*
X62650Y-31279D01*
X62661Y-31245D01*
X62672Y-31234D01*
X62728Y-31031D02*
X62886Y-31031D01*
X62638Y-31088D02*
X62807Y-31144D01*
X62807Y-30998D01*
X65960Y-24481D02*
X65960Y-24497D01*
X65945Y-24528D01*
X65929Y-24544D01*
X65897Y-24560D01*
X65865Y-24560D01*
X65841Y-24552D01*
X65801Y-24528D01*
X65778Y-24505D01*
X65754Y-24465D01*
X65746Y-24441D01*
X65746Y-24409D01*
X65762Y-24377D01*
X65778Y-24361D01*
X65809Y-24345D01*
X65825Y-24345D01*
X65960Y-24178D02*
X65881Y-24258D01*
X65952Y-24345D01*
X65952Y-24330D01*
X65960Y-24306D01*
X66000Y-24266D01*
X66024Y-24258D01*
X66040Y-24258D01*
X66064Y-24266D01*
X66104Y-24306D01*
X66112Y-24330D01*
X66112Y-24345D01*
X66104Y-24369D01*
X66064Y-24409D01*
X66040Y-24417D01*
X66024Y-24417D01*
X61038Y-27653D02*
X61022Y-27653D01*
X60990Y-27637D01*
X60974Y-27622D01*
X60958Y-27590D01*
X60958Y-27558D01*
X60966Y-27534D01*
X60990Y-27494D01*
X61014Y-27470D01*
X61054Y-27447D01*
X61078Y-27439D01*
X61110Y-27439D01*
X61141Y-27455D01*
X61157Y-27470D01*
X61173Y-27502D01*
X61173Y-27518D01*
X61332Y-27645D02*
X61300Y-27614D01*
X61277Y-27606D01*
X61261Y-27606D01*
X61221Y-27614D01*
X61181Y-27637D01*
X61118Y-27701D01*
X61110Y-27725D01*
X61110Y-27741D01*
X61118Y-27765D01*
X61149Y-27797D01*
X61173Y-27804D01*
X61189Y-27804D01*
X61213Y-27797D01*
X61253Y-27757D01*
X61261Y-27733D01*
X61261Y-27717D01*
X61253Y-27693D01*
X61221Y-27661D01*
X61197Y-27653D01*
X61181Y-27653D01*
X61157Y-27661D01*
X55515Y-34665D02*
X55504Y-34676D01*
X55470Y-34687D01*
X55448Y-34687D01*
X55414Y-34676D01*
X55392Y-34653D01*
X55380Y-34631D01*
X55369Y-34586D01*
X55369Y-34552D01*
X55380Y-34507D01*
X55392Y-34485D01*
X55414Y-34462D01*
X55448Y-34451D01*
X55470Y-34451D01*
X55504Y-34462D01*
X55515Y-34473D01*
X55594Y-34451D02*
X55751Y-34451D01*
X55650Y-34687D01*
X60072Y-34674D02*
X60061Y-34686D01*
X60027Y-34697D01*
X60005Y-34697D01*
X59971Y-34686D01*
X59949Y-34663D01*
X59937Y-34641D01*
X59926Y-34596D01*
X59926Y-34562D01*
X59937Y-34517D01*
X59949Y-34494D01*
X59971Y-34472D01*
X60005Y-34461D01*
X60027Y-34461D01*
X60061Y-34472D01*
X60072Y-34483D01*
X60207Y-34562D02*
X60185Y-34551D01*
X60174Y-34539D01*
X60162Y-34517D01*
X60162Y-34506D01*
X60174Y-34483D01*
X60185Y-34472D01*
X60207Y-34461D01*
X60252Y-34461D01*
X60275Y-34472D01*
X60286Y-34483D01*
X60297Y-34506D01*
X60297Y-34517D01*
X60286Y-34539D01*
X60275Y-34551D01*
X60252Y-34562D01*
X60207Y-34562D01*
X60185Y-34573D01*
X60174Y-34584D01*
X60162Y-34607D01*
X60162Y-34652D01*
X60174Y-34674D01*
X60185Y-34686D01*
X60207Y-34697D01*
X60252Y-34697D01*
X60275Y-34686D01*
X60286Y-34674D01*
X60297Y-34652D01*
X60297Y-34607D01*
X60286Y-34584D01*
X60275Y-34573D01*
X60252Y-34562D01*
X69119Y-29218D02*
X69103Y-29218D01*
X69071Y-29202D01*
X69055Y-29187D01*
X69039Y-29155D01*
X69039Y-29123D01*
X69047Y-29099D01*
X69071Y-29059D01*
X69095Y-29035D01*
X69135Y-29012D01*
X69158Y-29004D01*
X69190Y-29004D01*
X69222Y-29019D01*
X69238Y-29035D01*
X69254Y-29067D01*
X69254Y-29083D01*
X69182Y-29314D02*
X69214Y-29346D01*
X69238Y-29354D01*
X69254Y-29354D01*
X69294Y-29346D01*
X69333Y-29322D01*
X69397Y-29258D01*
X69405Y-29234D01*
X69405Y-29218D01*
X69397Y-29194D01*
X69365Y-29163D01*
X69341Y-29155D01*
X69326Y-29155D01*
X69302Y-29163D01*
X69262Y-29202D01*
X69254Y-29226D01*
X69254Y-29242D01*
X69262Y-29266D01*
X69294Y-29298D01*
X69318Y-29306D01*
X69333Y-29306D01*
X69357Y-29298D01*
X60893Y-30513D02*
X60877Y-30513D01*
X60845Y-30497D01*
X60829Y-30482D01*
X60813Y-30450D01*
X60813Y-30418D01*
X60821Y-30394D01*
X60845Y-30354D01*
X60869Y-30330D01*
X60909Y-30307D01*
X60933Y-30299D01*
X60965Y-30299D01*
X60996Y-30315D01*
X61012Y-30330D01*
X61028Y-30362D01*
X61028Y-30378D01*
X61036Y-30688D02*
X60941Y-30593D01*
X60988Y-30641D02*
X61155Y-30474D01*
X61116Y-30482D01*
X61084Y-30482D01*
X61060Y-30474D01*
X61307Y-30625D02*
X61322Y-30641D01*
X61330Y-30664D01*
X61330Y-30680D01*
X61322Y-30704D01*
X61299Y-30744D01*
X61259Y-30784D01*
X61219Y-30808D01*
X61195Y-30816D01*
X61179Y-30816D01*
X61155Y-30808D01*
X61139Y-30792D01*
X61132Y-30768D01*
X61132Y-30752D01*
X61139Y-30728D01*
X61163Y-30688D01*
X61203Y-30649D01*
X61243Y-30625D01*
X61267Y-30617D01*
X61283Y-30617D01*
X61307Y-30625D01*
X58031Y-34665D02*
X58019Y-34676D01*
X57986Y-34687D01*
X57963Y-34687D01*
X57929Y-34676D01*
X57907Y-34653D01*
X57896Y-34631D01*
X57884Y-34586D01*
X57884Y-34552D01*
X57896Y-34507D01*
X57907Y-34485D01*
X57929Y-34462D01*
X57963Y-34451D01*
X57986Y-34451D01*
X58019Y-34462D01*
X58031Y-34473D01*
X58256Y-34687D02*
X58121Y-34687D01*
X58188Y-34687D02*
X58188Y-34451D01*
X58166Y-34485D01*
X58143Y-34507D01*
X58121Y-34518D01*
X58481Y-34687D02*
X58346Y-34687D01*
X58413Y-34687D02*
X58413Y-34451D01*
X58391Y-34485D01*
X58368Y-34507D01*
X58346Y-34518D01*
X62598Y-34665D02*
X62586Y-34676D01*
X62553Y-34687D01*
X62530Y-34687D01*
X62496Y-34676D01*
X62474Y-34653D01*
X62463Y-34631D01*
X62451Y-34586D01*
X62451Y-34552D01*
X62463Y-34507D01*
X62474Y-34485D01*
X62496Y-34462D01*
X62530Y-34451D01*
X62553Y-34451D01*
X62586Y-34462D01*
X62598Y-34473D01*
X62823Y-34687D02*
X62688Y-34687D01*
X62755Y-34687D02*
X62755Y-34451D01*
X62733Y-34485D01*
X62710Y-34507D01*
X62688Y-34518D01*
X62913Y-34473D02*
X62924Y-34462D01*
X62946Y-34451D01*
X63003Y-34451D01*
X63025Y-34462D01*
X63036Y-34473D01*
X63048Y-34496D01*
X63048Y-34518D01*
X63036Y-34552D01*
X62901Y-34687D01*
X63048Y-34687D01*
X56919Y-24320D02*
X56907Y-24331D01*
X56874Y-24343D01*
X56851Y-24343D01*
X56817Y-24331D01*
X56795Y-24309D01*
X56784Y-24286D01*
X56772Y-24241D01*
X56772Y-24208D01*
X56784Y-24163D01*
X56795Y-24140D01*
X56817Y-24118D01*
X56851Y-24106D01*
X56874Y-24106D01*
X56907Y-24118D01*
X56919Y-24129D01*
X57143Y-24343D02*
X57008Y-24343D01*
X57076Y-24343D02*
X57076Y-24106D01*
X57053Y-24140D01*
X57031Y-24163D01*
X57008Y-24174D01*
X57222Y-24106D02*
X57368Y-24106D01*
X57290Y-24196D01*
X57323Y-24196D01*
X57346Y-24208D01*
X57357Y-24219D01*
X57368Y-24241D01*
X57368Y-24298D01*
X57357Y-24320D01*
X57346Y-24331D01*
X57323Y-24343D01*
X57256Y-24343D01*
X57233Y-24331D01*
X57222Y-24320D01*
X55974Y-24320D02*
X55962Y-24331D01*
X55929Y-24343D01*
X55906Y-24343D01*
X55872Y-24331D01*
X55850Y-24309D01*
X55839Y-24286D01*
X55827Y-24241D01*
X55827Y-24208D01*
X55839Y-24163D01*
X55850Y-24140D01*
X55872Y-24118D01*
X55906Y-24106D01*
X55929Y-24106D01*
X55962Y-24118D01*
X55974Y-24129D01*
X56199Y-24343D02*
X56064Y-24343D01*
X56131Y-24343D02*
X56131Y-24106D01*
X56109Y-24140D01*
X56086Y-24163D01*
X56064Y-24174D01*
X56401Y-24185D02*
X56401Y-24343D01*
X56345Y-24095D02*
X56289Y-24264D01*
X56435Y-24264D01*
X54061Y-22413D02*
X54061Y-22177D01*
X54118Y-22177D01*
X54151Y-22188D01*
X54174Y-22211D01*
X54185Y-22233D01*
X54196Y-22278D01*
X54196Y-22312D01*
X54185Y-22357D01*
X54174Y-22380D01*
X54151Y-22402D01*
X54118Y-22413D01*
X54061Y-22413D01*
X54421Y-22413D02*
X54286Y-22413D01*
X54354Y-22413D02*
X54354Y-22177D01*
X54331Y-22211D01*
X54309Y-22233D01*
X54286Y-22245D01*
X49770Y-31350D02*
X49770Y-31114D01*
X49860Y-31114D01*
X49883Y-31125D01*
X49894Y-31137D01*
X49905Y-31159D01*
X49905Y-31193D01*
X49894Y-31215D01*
X49883Y-31227D01*
X49860Y-31238D01*
X49770Y-31238D01*
X50130Y-31350D02*
X49995Y-31350D01*
X50062Y-31350D02*
X50062Y-31114D01*
X50040Y-31148D01*
X50017Y-31170D01*
X49995Y-31182D01*
X56350Y-23229D02*
X56114Y-23229D01*
X56114Y-23139D01*
X56125Y-23116D01*
X56137Y-23105D01*
X56159Y-23094D01*
X56193Y-23094D01*
X56215Y-23105D01*
X56227Y-23116D01*
X56238Y-23139D01*
X56238Y-23229D01*
X56137Y-23004D02*
X56125Y-22993D01*
X56114Y-22970D01*
X56114Y-22914D01*
X56125Y-22892D01*
X56137Y-22880D01*
X56159Y-22869D01*
X56182Y-22869D01*
X56215Y-22880D01*
X56350Y-23015D01*
X56350Y-22869D01*
X49809Y-23358D02*
X49809Y-23122D01*
X49899Y-23122D01*
X49922Y-23133D01*
X49933Y-23145D01*
X49944Y-23167D01*
X49944Y-23201D01*
X49933Y-23223D01*
X49922Y-23235D01*
X49899Y-23246D01*
X49809Y-23246D01*
X50023Y-23122D02*
X50169Y-23122D01*
X50091Y-23212D01*
X50124Y-23212D01*
X50147Y-23223D01*
X50158Y-23235D01*
X50169Y-23257D01*
X50169Y-23313D01*
X50158Y-23336D01*
X50147Y-23347D01*
X50124Y-23358D01*
X50057Y-23358D01*
X50034Y-23347D01*
X50023Y-23336D01*
X60327Y-23190D02*
X60091Y-23190D01*
X60091Y-23100D01*
X60102Y-23077D01*
X60113Y-23066D01*
X60136Y-23055D01*
X60169Y-23055D01*
X60192Y-23066D01*
X60203Y-23077D01*
X60214Y-23100D01*
X60214Y-23190D01*
X60169Y-22852D02*
X60327Y-22852D01*
X60079Y-22908D02*
X60248Y-22965D01*
X60248Y-22818D01*
X80770Y-25831D02*
X80770Y-25595D01*
X80860Y-25595D01*
X80883Y-25606D01*
X80894Y-25617D01*
X80905Y-25640D01*
X80905Y-25673D01*
X80894Y-25696D01*
X80883Y-25707D01*
X80860Y-25718D01*
X80770Y-25718D01*
X81119Y-25595D02*
X81006Y-25595D01*
X80995Y-25707D01*
X81006Y-25696D01*
X81029Y-25685D01*
X81085Y-25685D01*
X81107Y-25696D01*
X81119Y-25707D01*
X81130Y-25730D01*
X81130Y-25786D01*
X81119Y-25808D01*
X81107Y-25820D01*
X81085Y-25831D01*
X81029Y-25831D01*
X81006Y-25820D01*
X80995Y-25808D01*
X53358Y-20158D02*
X53122Y-20158D01*
X53122Y-20068D01*
X53133Y-20046D01*
X53145Y-20034D01*
X53167Y-20023D01*
X53201Y-20023D01*
X53223Y-20034D01*
X53235Y-20046D01*
X53246Y-20068D01*
X53246Y-20158D01*
X53122Y-19821D02*
X53122Y-19866D01*
X53133Y-19888D01*
X53145Y-19899D01*
X53178Y-19922D01*
X53223Y-19933D01*
X53313Y-19933D01*
X53336Y-19922D01*
X53347Y-19911D01*
X53358Y-19888D01*
X53358Y-19843D01*
X53347Y-19821D01*
X53336Y-19809D01*
X53313Y-19798D01*
X53257Y-19798D01*
X53235Y-19809D01*
X53223Y-19821D01*
X53212Y-19843D01*
X53212Y-19888D01*
X53223Y-19911D01*
X53235Y-19922D01*
X53257Y-19933D01*
X53280Y-37166D02*
X53043Y-37166D01*
X53043Y-37076D01*
X53055Y-37053D01*
X53066Y-37042D01*
X53088Y-37031D01*
X53122Y-37031D01*
X53145Y-37042D01*
X53156Y-37053D01*
X53167Y-37076D01*
X53167Y-37166D01*
X53043Y-36952D02*
X53043Y-36795D01*
X53280Y-36896D01*
X53831Y-29157D02*
X53718Y-29236D01*
X53831Y-29292D02*
X53595Y-29292D01*
X53595Y-29202D01*
X53606Y-29179D01*
X53617Y-29168D01*
X53640Y-29157D01*
X53673Y-29157D01*
X53696Y-29168D01*
X53707Y-29179D01*
X53718Y-29202D01*
X53718Y-29292D01*
X53831Y-28932D02*
X53831Y-29067D01*
X53831Y-29000D02*
X53595Y-29000D01*
X53628Y-29022D01*
X53651Y-29044D01*
X53662Y-29067D01*
X53831Y-28251D02*
X53718Y-28330D01*
X53831Y-28386D02*
X53595Y-28386D01*
X53595Y-28296D01*
X53606Y-28274D01*
X53617Y-28263D01*
X53640Y-28251D01*
X53673Y-28251D01*
X53696Y-28263D01*
X53707Y-28274D01*
X53718Y-28296D01*
X53718Y-28386D01*
X53617Y-28161D02*
X53606Y-28150D01*
X53595Y-28128D01*
X53595Y-28071D01*
X53606Y-28049D01*
X53617Y-28038D01*
X53640Y-28026D01*
X53662Y-28026D01*
X53696Y-28038D01*
X53831Y-28173D01*
X53831Y-28026D01*
X53831Y-31834D02*
X53718Y-31913D01*
X53831Y-31969D02*
X53595Y-31969D01*
X53595Y-31879D01*
X53606Y-31857D01*
X53617Y-31845D01*
X53640Y-31834D01*
X53673Y-31834D01*
X53696Y-31845D01*
X53707Y-31857D01*
X53718Y-31879D01*
X53718Y-31969D01*
X53595Y-31755D02*
X53595Y-31609D01*
X53685Y-31688D01*
X53685Y-31654D01*
X53696Y-31632D01*
X53707Y-31620D01*
X53730Y-31609D01*
X53786Y-31609D01*
X53808Y-31620D01*
X53820Y-31632D01*
X53831Y-31654D01*
X53831Y-31722D01*
X53820Y-31744D01*
X53808Y-31755D01*
X53831Y-30929D02*
X53718Y-31007D01*
X53831Y-31064D02*
X53595Y-31064D01*
X53595Y-30974D01*
X53606Y-30951D01*
X53617Y-30940D01*
X53640Y-30929D01*
X53673Y-30929D01*
X53696Y-30940D01*
X53707Y-30951D01*
X53718Y-30974D01*
X53718Y-31064D01*
X53673Y-30726D02*
X53831Y-30726D01*
X53583Y-30782D02*
X53752Y-30839D01*
X53752Y-30692D01*
X67676Y-30780D02*
X67699Y-30644D01*
X67580Y-30684D02*
X67747Y-30517D01*
X67811Y-30581D01*
X67819Y-30605D01*
X67819Y-30620D01*
X67811Y-30644D01*
X67787Y-30668D01*
X67763Y-30676D01*
X67747Y-30676D01*
X67723Y-30668D01*
X67660Y-30605D01*
X67994Y-30764D02*
X67914Y-30684D01*
X67827Y-30756D01*
X67843Y-30756D01*
X67867Y-30764D01*
X67906Y-30803D01*
X67914Y-30827D01*
X67914Y-30843D01*
X67906Y-30867D01*
X67867Y-30907D01*
X67843Y-30915D01*
X67827Y-30915D01*
X67803Y-30907D01*
X67763Y-30867D01*
X67755Y-30843D01*
X67755Y-30827D01*
X77712Y-29866D02*
X77600Y-29944D01*
X77712Y-30001D02*
X77476Y-30001D01*
X77476Y-29911D01*
X77487Y-29888D01*
X77499Y-29877D01*
X77521Y-29866D01*
X77555Y-29866D01*
X77577Y-29877D01*
X77589Y-29888D01*
X77600Y-29911D01*
X77600Y-30001D01*
X77476Y-29663D02*
X77476Y-29708D01*
X77487Y-29731D01*
X77499Y-29742D01*
X77532Y-29764D01*
X77577Y-29776D01*
X77667Y-29776D01*
X77690Y-29764D01*
X77701Y-29753D01*
X77712Y-29731D01*
X77712Y-29686D01*
X77701Y-29663D01*
X77690Y-29652D01*
X77667Y-29641D01*
X77611Y-29641D01*
X77589Y-29652D01*
X77577Y-29663D01*
X77566Y-29686D01*
X77566Y-29731D01*
X77577Y-29753D01*
X77589Y-29764D01*
X77611Y-29776D01*
X77712Y-28055D02*
X77600Y-28133D01*
X77712Y-28190D02*
X77476Y-28190D01*
X77476Y-28100D01*
X77487Y-28077D01*
X77499Y-28066D01*
X77521Y-28055D01*
X77555Y-28055D01*
X77577Y-28066D01*
X77589Y-28077D01*
X77600Y-28100D01*
X77600Y-28190D01*
X77476Y-27976D02*
X77476Y-27818D01*
X77712Y-27920D01*
X77712Y-31677D02*
X77600Y-31755D01*
X77712Y-31812D02*
X77476Y-31812D01*
X77476Y-31722D01*
X77487Y-31699D01*
X77499Y-31688D01*
X77521Y-31677D01*
X77555Y-31677D01*
X77577Y-31688D01*
X77589Y-31699D01*
X77600Y-31722D01*
X77600Y-31812D01*
X77577Y-31542D02*
X77566Y-31564D01*
X77555Y-31575D01*
X77532Y-31587D01*
X77521Y-31587D01*
X77499Y-31575D01*
X77487Y-31564D01*
X77476Y-31542D01*
X77476Y-31497D01*
X77487Y-31474D01*
X77499Y-31463D01*
X77521Y-31452D01*
X77532Y-31452D01*
X77555Y-31463D01*
X77566Y-31474D01*
X77577Y-31497D01*
X77577Y-31542D01*
X77589Y-31564D01*
X77600Y-31575D01*
X77622Y-31587D01*
X77667Y-31587D01*
X77690Y-31575D01*
X77701Y-31564D01*
X77712Y-31542D01*
X77712Y-31497D01*
X77701Y-31474D01*
X77690Y-31463D01*
X77667Y-31452D01*
X77622Y-31452D01*
X77600Y-31463D01*
X77589Y-31474D01*
X77577Y-31497D01*
X77712Y-28960D02*
X77600Y-29039D01*
X77712Y-29095D02*
X77476Y-29095D01*
X77476Y-29005D01*
X77487Y-28983D01*
X77499Y-28971D01*
X77521Y-28960D01*
X77555Y-28960D01*
X77577Y-28971D01*
X77589Y-28983D01*
X77600Y-29005D01*
X77600Y-29095D01*
X77712Y-28848D02*
X77712Y-28803D01*
X77701Y-28780D01*
X77690Y-28769D01*
X77656Y-28746D01*
X77611Y-28735D01*
X77521Y-28735D01*
X77499Y-28746D01*
X77487Y-28758D01*
X77476Y-28780D01*
X77476Y-28825D01*
X77487Y-28848D01*
X77499Y-28859D01*
X77521Y-28870D01*
X77577Y-28870D01*
X77600Y-28859D01*
X77611Y-28848D01*
X77622Y-28825D01*
X77622Y-28780D01*
X77611Y-28758D01*
X77600Y-28746D01*
X77577Y-28735D01*
X77712Y-30884D02*
X77600Y-30962D01*
X77712Y-31019D02*
X77476Y-31019D01*
X77476Y-30929D01*
X77487Y-30906D01*
X77499Y-30895D01*
X77521Y-30884D01*
X77555Y-30884D01*
X77577Y-30895D01*
X77589Y-30906D01*
X77600Y-30929D01*
X77600Y-31019D01*
X77712Y-30659D02*
X77712Y-30794D01*
X77712Y-30726D02*
X77476Y-30726D01*
X77510Y-30749D01*
X77532Y-30771D01*
X77544Y-30794D01*
X77476Y-30512D02*
X77476Y-30490D01*
X77487Y-30467D01*
X77499Y-30456D01*
X77521Y-30445D01*
X77566Y-30434D01*
X77622Y-30434D01*
X77667Y-30445D01*
X77690Y-30456D01*
X77701Y-30467D01*
X77712Y-30490D01*
X77712Y-30512D01*
X77701Y-30535D01*
X77690Y-30546D01*
X77667Y-30557D01*
X77622Y-30569D01*
X77566Y-30569D01*
X77521Y-30557D01*
X77499Y-30546D01*
X77487Y-30535D01*
X77476Y-30512D01*
X52470Y-22453D02*
X52391Y-22340D01*
X52335Y-22453D02*
X52335Y-22217D01*
X52425Y-22217D01*
X52447Y-22228D01*
X52458Y-22239D01*
X52470Y-22262D01*
X52470Y-22295D01*
X52458Y-22318D01*
X52447Y-22329D01*
X52425Y-22340D01*
X52335Y-22340D01*
X52695Y-22453D02*
X52560Y-22453D01*
X52627Y-22453D02*
X52627Y-22217D01*
X52605Y-22250D01*
X52582Y-22273D01*
X52560Y-22284D01*
X52920Y-22453D02*
X52785Y-22453D01*
X52852Y-22453D02*
X52852Y-22217D01*
X52830Y-22250D01*
X52807Y-22273D01*
X52785Y-22284D01*
X77127Y-24101D02*
X77138Y-24067D01*
X77138Y-24011D01*
X77127Y-23988D01*
X77115Y-23977D01*
X77093Y-23966D01*
X77070Y-23966D01*
X77048Y-23977D01*
X77037Y-23988D01*
X77025Y-24011D01*
X77014Y-24056D01*
X77003Y-24078D01*
X76992Y-24089D01*
X76969Y-24101D01*
X76947Y-24101D01*
X76924Y-24089D01*
X76913Y-24078D01*
X76902Y-24056D01*
X76902Y-24000D01*
X76913Y-23966D01*
X77138Y-23741D02*
X77138Y-23876D01*
X77138Y-23808D02*
X76902Y-23808D01*
X76935Y-23831D01*
X76958Y-23853D01*
X76969Y-23876D01*
X53229Y-33516D02*
X53229Y-33707D01*
X53240Y-33730D01*
X53251Y-33741D01*
X53274Y-33752D01*
X53319Y-33752D01*
X53341Y-33741D01*
X53353Y-33730D01*
X53364Y-33707D01*
X53364Y-33516D01*
X53600Y-33752D02*
X53465Y-33752D01*
X53533Y-33752D02*
X53533Y-33516D01*
X53510Y-33550D01*
X53488Y-33572D01*
X53465Y-33583D01*
X54764Y-23870D02*
X54764Y-24061D01*
X54776Y-24084D01*
X54787Y-24095D01*
X54809Y-24106D01*
X54854Y-24106D01*
X54877Y-24095D01*
X54888Y-24084D01*
X54899Y-24061D01*
X54899Y-23870D01*
X55001Y-23893D02*
X55012Y-23881D01*
X55034Y-23870D01*
X55091Y-23870D01*
X55113Y-23881D01*
X55124Y-23893D01*
X55136Y-23915D01*
X55136Y-23938D01*
X55124Y-23971D01*
X54989Y-24106D01*
X55136Y-24106D01*
X66513Y-30075D02*
X66649Y-30210D01*
X66673Y-30218D01*
X66688Y-30218D01*
X66712Y-30210D01*
X66744Y-30179D01*
X66752Y-30155D01*
X66752Y-30139D01*
X66744Y-30115D01*
X66609Y-29980D01*
X66673Y-29916D02*
X66776Y-29813D01*
X66784Y-29932D01*
X66808Y-29908D01*
X66832Y-29900D01*
X66848Y-29900D01*
X66871Y-29908D01*
X66911Y-29948D01*
X66919Y-29972D01*
X66919Y-29988D01*
X66911Y-30011D01*
X66863Y-30059D01*
X66840Y-30067D01*
X66824Y-30067D01*
X55718Y-32217D02*
X55875Y-32453D01*
X55875Y-32217D02*
X55718Y-32453D01*
X56089Y-32453D02*
X55954Y-32453D01*
X56021Y-32453D02*
X56021Y-32217D01*
X55999Y-32250D01*
X55976Y-32273D01*
X55954Y-32284D01*
X60294Y-32226D02*
X60452Y-32463D01*
X60452Y-32226D02*
X60294Y-32463D01*
X60531Y-32249D02*
X60542Y-32238D01*
X60564Y-32226D01*
X60621Y-32226D01*
X60643Y-32238D01*
X60654Y-32249D01*
X60666Y-32271D01*
X60666Y-32294D01*
X60654Y-32328D01*
X60519Y-32463D01*
X60666Y-32463D01*
X50525Y-30209D02*
X50525Y-30377D01*
X50514Y-30411D01*
X50491Y-30434D01*
X50458Y-30445D01*
X50435Y-30445D01*
X50761Y-30445D02*
X50626Y-30445D01*
X50694Y-30445D02*
X50694Y-30209D01*
X50671Y-30242D01*
X50649Y-30265D01*
X50626Y-30276D01*
M02*
