M48
INCH,TZ
T1C0.025
T2C0.039
T3C0.129
%
G90
G05
T1
X5.148Y-2.9157
X5.1795Y-3.2445
X5.1795Y-3.3193
X5.1874Y-3.0024
X5.2031Y-2.6677
X5.2701Y-3.5969
X5.2799Y-3.465
X5.2839Y-3.5181
X5.3803Y-2.9138
X5.3823Y-2.8232
X5.4906Y-3.465
X5.6146Y-2.9138
X5.6165Y-2.8252
X5.6205Y-2.3764
X5.6638Y-2.6874
X5.7307Y-3.5102
X5.8331Y-2.7012
X5.9039Y-2.6323
X5.9059Y-2.8488
X5.9157Y-2.7602
X5.9433Y-2.5969
X5.9492Y-2.8921
X5.9551Y-3.3114
X5.9551Y-3.5181
X5.9807Y-2.5575
X5.9866Y-3.0516
X6.0142Y-2.522
X6.0476Y-2.4886
X6.0909Y-2.3783
X6.0929Y-2.9728
X6.1264Y-2.5516
X6.1283Y-2.6618
X6.1402Y-2.398
X6.1677Y-2.522
X6.1736Y-3.5102
X6.2071Y-2.4906
X6.2563Y-2.4886
X6.2622Y-3.211
X6.3016Y-3.2661
X6.3055Y-2.4906
X6.3331Y-2.3055
X6.3547Y-2.4925
X6.3685Y-2.274
X6.4059Y-2.2366
X6.4197Y-2.8173
X6.465Y-2.9354
X6.4945Y-3.1047
X6.4945Y-3.6146
X6.5161Y-2.9807
X6.6008Y-2.8823
X6.6205Y-2.5929
X6.6618Y-2.4197
X6.6677Y-2.2681
X6.6953Y-2.1638
X6.7071Y-2.3665
X6.7169Y-2.272
X6.7189Y-2.3193
X6.7346Y-3.1756
X6.774Y-2.9315
X6.776Y-3.1441
X6.7996Y-2.1441
X6.8154Y-2.9551
X6.8252Y-3.1303
X6.8291Y-2.2996
X6.8311Y-2.3488
X6.8331Y-2.398
X6.8331Y-2.4472
X6.8331Y-2.4965
X6.8331Y-2.5476
X6.898Y-2.1185
X6.902Y-2.7543
X6.9197Y-3.1323
X6.9354Y-2.7091
X6.9394Y-2.6559
X6.9591Y-2.9039
X6.965Y-2.8488
X6.9945Y-2.6539
X6.9965Y-2.5969
X6.9984Y-2.0988
X7.0083Y-2.2898
X7.0398Y-2.3272
X7.0535Y-2.5398
X7.0535Y-2.5969
X7.1106Y-2.5398
X7.2543Y-2.335
X7.2898Y-2.3016
X7.3272Y-2.272
X7.3606Y-2.2366
X7.3764Y-2.1795
X7.4354Y-2.8016
X7.4354Y-2.9669
X7.4354Y-3.0339
X7.4571Y-2.1402
X7.4709Y-2.6638
X7.5063Y-2.8724
X7.5378Y-3.0732
X7.5378Y-3.2543
X7.5496Y-3.5102
X7.5634Y-2.1028
X7.5732Y-2.9827
X7.5732Y-3.1205
X7.5811Y-2.8961
X7.6362Y-3.6047
X7.6756Y-2.7228
X7.6756Y-3.2268
X7.7543Y-3.4276
X7.8961Y-2.7071
T2
X5.Y-2.4
X5.Y-2.5
X5.Y-3.2
X5.Y-3.3
X5.4Y-2.
X5.4Y-3.7
X5.5Y-2.
X5.5Y-3.7
X5.6Y-2.
X5.6Y-3.7
X5.7Y-2.
X5.7Y-2.3
X5.7Y-3.7
X5.8Y-2.
X5.8Y-2.3
X5.8Y-3.7
X5.9Y-2.
X5.9Y-3.7
X6.Y-2.
X6.Y-3.7
X6.1Y-2.
X6.1Y-2.3
X6.1Y-3.7
X6.2Y-2.
X6.2Y-2.3
X6.2Y-3.7
X6.3Y-2.
X6.3Y-3.7
X6.4Y-2.
X6.4Y-3.7
X6.5Y-2.
X6.5Y-3.7
X6.6Y-2.
X6.6Y-3.7
X6.7Y-2.
X6.7Y-3.7
X6.8Y-2.
X6.8Y-3.7
X6.9Y-2.
X6.9Y-3.7
X7.Y-2.
X7.Y-3.7
X7.1Y-2.
X7.1Y-3.7
X7.2Y-2.
X7.2Y-3.7
X7.3Y-2.
X7.3Y-3.7
X7.4Y-2.
X7.4Y-3.7
X7.5Y-2.
X7.5Y-3.7
X7.6Y-2.
X7.6Y-3.7
X7.7Y-2.
X7.7Y-3.7
X7.9Y-2.8
X7.9Y-2.9
X7.9Y-3.
X7.9Y-3.1
X7.9Y-3.2
X8.Y-2.8
X8.Y-2.9
X8.Y-3.
X8.Y-3.1
X8.Y-3.2
T3
X5.1Y-2.1
X5.1Y-3.6
X8.Y-2.1
X8.Y-3.6
T0
M30
