%FSLAX34Y34*%
G04 Gerber Fmt 3.4, Leading zero omitted, Abs format*
G04 (created by PCBNEW (2013-10-23 BZR 4410)-product) date Thu 24 Oct 2013 09:27:40 PM EDT*
%MOIN*%
G01*
G70*
G90*
G04 APERTURE LIST*
%ADD10C,0.005906*%
%ADD11C,0.003937*%
%ADD12C,0.222441*%
%ADD13R,0.064961X0.064961*%
%ADD14C,0.064961*%
%ADD15C,0.035000*%
%ADD16C,0.010000*%
%ADD17C,0.018000*%
G04 APERTURE END LIST*
G54D10*
G54D11*
X82000Y-19000D02*
X49000Y-19000D01*
X82000Y-38000D02*
X82000Y-19000D01*
X49000Y-38000D02*
X82000Y-38000D01*
X49000Y-19000D02*
X49000Y-38000D01*
G54D12*
X80000Y-21000D03*
X80000Y-36000D03*
X51000Y-36000D03*
X51000Y-21000D03*
G54D13*
X50000Y-33000D03*
G54D14*
X50000Y-32000D03*
G54D13*
X57000Y-23000D03*
G54D14*
X58000Y-23000D03*
G54D13*
X50000Y-25000D03*
G54D14*
X50000Y-24000D03*
G54D13*
X62000Y-23000D03*
G54D14*
X61000Y-23000D03*
G54D13*
X79000Y-28000D03*
G54D14*
X80000Y-28000D03*
X79000Y-29000D03*
X80000Y-29000D03*
X79000Y-30000D03*
X80000Y-30000D03*
X79000Y-31000D03*
X80000Y-31000D03*
X79000Y-32000D03*
X80000Y-32000D03*
G54D13*
X54000Y-20000D03*
G54D14*
X55000Y-20000D03*
X56000Y-20000D03*
X57000Y-20000D03*
X58000Y-20000D03*
X59000Y-20000D03*
X60000Y-20000D03*
X61000Y-20000D03*
X62000Y-20000D03*
X63000Y-20000D03*
X64000Y-20000D03*
X65000Y-20000D03*
X66000Y-20000D03*
X67000Y-20000D03*
X68000Y-20000D03*
X69000Y-20000D03*
X70000Y-20000D03*
X71000Y-20000D03*
X72000Y-20000D03*
X73000Y-20000D03*
X74000Y-20000D03*
X75000Y-20000D03*
X76000Y-20000D03*
X77000Y-20000D03*
G54D13*
X54000Y-37000D03*
G54D14*
X55000Y-37000D03*
X56000Y-37000D03*
X57000Y-37000D03*
X58000Y-37000D03*
X59000Y-37000D03*
X60000Y-37000D03*
X61000Y-37000D03*
X62000Y-37000D03*
X63000Y-37000D03*
X64000Y-37000D03*
X65000Y-37000D03*
X66000Y-37000D03*
X67000Y-37000D03*
X68000Y-37000D03*
X69000Y-37000D03*
X70000Y-37000D03*
X71000Y-37000D03*
X72000Y-37000D03*
X73000Y-37000D03*
X74000Y-37000D03*
X75000Y-37000D03*
X76000Y-37000D03*
X77000Y-37000D03*
G54D15*
X64944Y-36145D03*
X64944Y-31047D03*
X62070Y-24905D03*
X66677Y-22681D03*
X73606Y-22366D03*
X78960Y-27070D03*
X67070Y-23665D03*
X72543Y-23350D03*
X74708Y-26637D03*
X67188Y-23192D03*
X72897Y-23015D03*
X75377Y-32543D03*
X67169Y-22720D03*
X73271Y-22720D03*
X71106Y-25397D03*
X68291Y-22996D03*
X74354Y-28015D03*
X75062Y-28724D03*
X68330Y-24472D03*
X69964Y-25968D03*
X68330Y-23980D03*
X70535Y-25968D03*
X56165Y-28251D03*
X53822Y-28232D03*
X68311Y-23488D03*
X70535Y-25397D03*
X56145Y-29137D03*
X53803Y-29137D03*
X75732Y-29826D03*
X75732Y-31204D03*
X76755Y-27228D03*
X76755Y-32267D03*
X75496Y-35102D03*
X76362Y-36047D03*
X52838Y-35181D03*
X68330Y-25476D03*
X69393Y-26559D03*
X68330Y-24964D03*
X69944Y-26539D03*
X60141Y-25220D03*
X67346Y-31755D03*
X67759Y-31440D03*
X60476Y-24885D03*
X68153Y-29551D03*
X70082Y-22897D03*
X70397Y-23271D03*
X67740Y-29314D03*
X73763Y-21795D03*
X74570Y-21401D03*
X75633Y-21027D03*
X68251Y-31303D03*
X69590Y-29039D03*
X69019Y-27543D03*
X75811Y-28960D03*
X74354Y-29669D03*
X69354Y-27090D03*
X69649Y-28488D03*
X74354Y-30338D03*
X75377Y-30732D03*
X66952Y-21637D03*
X64059Y-22366D03*
X63547Y-24925D03*
X67996Y-21440D03*
X63685Y-22740D03*
X63055Y-24905D03*
X68980Y-21185D03*
X63330Y-23055D03*
X62562Y-24885D03*
X69984Y-20988D03*
X61401Y-23980D03*
X61677Y-25220D03*
X60909Y-23783D03*
X61263Y-25515D03*
X59492Y-28921D03*
X59039Y-26322D03*
X59866Y-30515D03*
X59433Y-25968D03*
X59551Y-33114D03*
X59807Y-25574D03*
X52799Y-34649D03*
X54905Y-34649D03*
X58330Y-27011D03*
X59059Y-28488D03*
X77543Y-34275D03*
X59551Y-35181D03*
X62622Y-32110D03*
X56637Y-26874D03*
X56204Y-23763D03*
X52700Y-35968D03*
X51480Y-29157D03*
X51874Y-30023D03*
X52031Y-26677D03*
X59157Y-27602D03*
X64649Y-29354D03*
X65161Y-29807D03*
X66204Y-25929D03*
X66618Y-24196D03*
X61283Y-26618D03*
X69196Y-31322D03*
X63015Y-32661D03*
X57307Y-35102D03*
X61736Y-35102D03*
X64196Y-28173D03*
X66007Y-28822D03*
X60929Y-29728D03*
X51795Y-33192D03*
X51795Y-32444D03*
G54D16*
X62070Y-24905D02*
X62070Y-28173D01*
X57834Y-36165D02*
X57000Y-37000D01*
X64925Y-36165D02*
X57834Y-36165D01*
X64944Y-36145D02*
X64925Y-36165D01*
X62070Y-28173D02*
X64944Y-31047D01*
X62000Y-24834D02*
X62000Y-23000D01*
X62070Y-24905D02*
X62000Y-24834D01*
X66677Y-22681D02*
X67523Y-21834D01*
X67523Y-21834D02*
X73074Y-21834D01*
X73074Y-21834D02*
X73606Y-22366D01*
X79511Y-30511D02*
X80000Y-31000D01*
X79511Y-27622D02*
X79511Y-30511D01*
X79472Y-27582D02*
X79511Y-27622D01*
X78960Y-27070D02*
X79472Y-27582D01*
X67070Y-23665D02*
X67208Y-23665D01*
X67208Y-23665D02*
X67858Y-23015D01*
X67858Y-23015D02*
X67858Y-22937D01*
X67858Y-22937D02*
X68232Y-22562D01*
X68232Y-22562D02*
X71755Y-22562D01*
X71755Y-22562D02*
X72543Y-23350D01*
X78196Y-28000D02*
X79000Y-28000D01*
X76834Y-26637D02*
X78196Y-28000D01*
X74708Y-26637D02*
X76834Y-26637D01*
X67188Y-23192D02*
X68055Y-22326D01*
X68055Y-22326D02*
X72208Y-22326D01*
X72208Y-22326D02*
X72897Y-23015D01*
X79000Y-33055D02*
X79000Y-32000D01*
X78330Y-33724D02*
X79000Y-33055D01*
X76559Y-33724D02*
X78330Y-33724D01*
X75377Y-32543D02*
X76559Y-33724D01*
X67169Y-22720D02*
X67799Y-22090D01*
X67799Y-22090D02*
X72641Y-22090D01*
X72641Y-22090D02*
X73271Y-22720D01*
X68704Y-22996D02*
X71106Y-25397D01*
X68291Y-22996D02*
X68704Y-22996D01*
X75062Y-28724D02*
X74354Y-28015D01*
X68330Y-24472D02*
X68468Y-24472D01*
X68468Y-24472D02*
X69964Y-25968D01*
X68330Y-23980D02*
X68547Y-23980D01*
X68547Y-23980D02*
X70535Y-25968D01*
X53842Y-28251D02*
X56165Y-28251D01*
X53822Y-28232D02*
X53842Y-28251D01*
X68311Y-23488D02*
X68625Y-23488D01*
X68625Y-23488D02*
X70535Y-25397D01*
X53803Y-29137D02*
X56145Y-29137D01*
X75732Y-31204D02*
X75732Y-29826D01*
X76755Y-32267D02*
X76755Y-27228D01*
X75496Y-35181D02*
X75496Y-35102D01*
X76362Y-36047D02*
X75496Y-35181D01*
X68692Y-35692D02*
X70000Y-37000D01*
X53350Y-35692D02*
X68692Y-35692D01*
X52838Y-35181D02*
X53350Y-35692D01*
X68330Y-25476D02*
X68330Y-25496D01*
X68330Y-25496D02*
X69393Y-26559D01*
X68330Y-24964D02*
X68370Y-24964D01*
X68370Y-24964D02*
X69944Y-26539D01*
X60515Y-25594D02*
X60141Y-25220D01*
X60515Y-28724D02*
X60515Y-25594D01*
X63566Y-31775D02*
X60515Y-28724D01*
X67326Y-31775D02*
X63566Y-31775D01*
X67346Y-31755D02*
X67326Y-31775D01*
X63606Y-31440D02*
X67759Y-31440D01*
X60830Y-28665D02*
X63606Y-31440D01*
X60830Y-25240D02*
X60830Y-28665D01*
X60476Y-24885D02*
X60830Y-25240D01*
X70811Y-22917D02*
X70102Y-22917D01*
X68153Y-29551D02*
X72169Y-25535D01*
X72169Y-25535D02*
X72169Y-24275D01*
X72169Y-24275D02*
X70811Y-22917D01*
X70102Y-22917D02*
X70082Y-22897D01*
X67740Y-29314D02*
X67976Y-29078D01*
X67976Y-29078D02*
X68311Y-29078D01*
X68311Y-29078D02*
X71933Y-25456D01*
X71933Y-25456D02*
X71933Y-24807D01*
X71933Y-24807D02*
X70397Y-23271D01*
X74000Y-21559D02*
X74000Y-20000D01*
X73763Y-21795D02*
X74000Y-21559D01*
X75000Y-20972D02*
X75000Y-20000D01*
X74570Y-21401D02*
X75000Y-20972D01*
X76000Y-20661D02*
X76000Y-20000D01*
X75633Y-21027D02*
X76000Y-20661D01*
X64000Y-20000D02*
X64000Y-21519D01*
X68035Y-31086D02*
X68251Y-31303D01*
X67326Y-31086D02*
X68035Y-31086D01*
X65318Y-29078D02*
X67326Y-31086D01*
X65318Y-28625D02*
X65318Y-29078D01*
X64492Y-27799D02*
X65318Y-28625D01*
X64492Y-22011D02*
X64492Y-27799D01*
X64000Y-21519D02*
X64492Y-22011D01*
X65000Y-23622D02*
X65000Y-20000D01*
X70574Y-30023D02*
X74374Y-30023D01*
X69590Y-29039D02*
X70574Y-30023D01*
X68921Y-27543D02*
X69019Y-27543D01*
X65000Y-23622D02*
X68921Y-27543D01*
X74374Y-30023D02*
X74452Y-30023D01*
X74748Y-30023D02*
X74452Y-30023D01*
X75811Y-28960D02*
X74748Y-30023D01*
X74196Y-28566D02*
X74354Y-28724D01*
X74354Y-28724D02*
X74354Y-29669D01*
X66000Y-24228D02*
X68862Y-27090D01*
X68862Y-27090D02*
X69354Y-27090D01*
X69649Y-28488D02*
X69728Y-28409D01*
X69728Y-28409D02*
X74039Y-28409D01*
X66000Y-24228D02*
X66000Y-20000D01*
X74039Y-28409D02*
X74196Y-28566D01*
X74748Y-30732D02*
X74354Y-30338D01*
X75377Y-30732D02*
X74748Y-30732D01*
X67000Y-21590D02*
X67000Y-20000D01*
X66952Y-21637D02*
X67000Y-21590D01*
X64059Y-23901D02*
X64059Y-22366D01*
X63547Y-24413D02*
X64059Y-23901D01*
X63547Y-24925D02*
X63547Y-24413D01*
X68000Y-21437D02*
X68000Y-20000D01*
X67996Y-21440D02*
X68000Y-21437D01*
X63685Y-23842D02*
X63685Y-22740D01*
X63055Y-24472D02*
X63685Y-23842D01*
X63055Y-24905D02*
X63055Y-24472D01*
X69000Y-21165D02*
X69000Y-20000D01*
X68980Y-21185D02*
X69000Y-21165D01*
X63330Y-23645D02*
X63330Y-23055D01*
X62562Y-24413D02*
X63330Y-23645D01*
X62562Y-24885D02*
X62562Y-24413D01*
X70000Y-20972D02*
X70000Y-20000D01*
X69984Y-20988D02*
X70000Y-20972D01*
X61578Y-24157D02*
X61401Y-23980D01*
X61578Y-25122D02*
X61578Y-24157D01*
X61677Y-25220D02*
X61578Y-25122D01*
X60909Y-24216D02*
X60909Y-23783D01*
X61263Y-24570D02*
X60909Y-24216D01*
X61263Y-25515D02*
X61263Y-24570D01*
X59492Y-26775D02*
X59492Y-28921D01*
X59039Y-26322D02*
X59492Y-26775D01*
X59885Y-30496D02*
X59866Y-30515D01*
X59885Y-26421D02*
X59885Y-30496D01*
X59433Y-25968D02*
X59885Y-26421D01*
X60259Y-32405D02*
X59551Y-33114D01*
X60259Y-26027D02*
X60259Y-32405D01*
X59807Y-25574D02*
X60259Y-26027D01*
X52799Y-34649D02*
X54905Y-34649D01*
G54D17*
X58330Y-27759D02*
X58330Y-27011D01*
X59059Y-28488D02*
X58330Y-27759D01*
X50000Y-25000D02*
X50204Y-25000D01*
X56228Y-20771D02*
X57000Y-20000D01*
X53803Y-20771D02*
X56228Y-20771D01*
X50948Y-23625D02*
X53803Y-20771D01*
X50948Y-24255D02*
X50948Y-23625D01*
X50204Y-25000D02*
X50948Y-24255D01*
G54D16*
X74433Y-32110D02*
X75889Y-33566D01*
X74433Y-32110D02*
X74374Y-32110D01*
X62622Y-32110D02*
X74374Y-32110D01*
X76598Y-34275D02*
X77543Y-34275D01*
X75889Y-33566D02*
X76598Y-34275D01*
X62622Y-32110D02*
X59551Y-35181D01*
X56637Y-24196D02*
X56637Y-26874D01*
X56204Y-23763D02*
X56637Y-24196D01*
X56000Y-37000D02*
X56000Y-37078D01*
X52700Y-37110D02*
X52700Y-35968D01*
X53173Y-37582D02*
X52700Y-37110D01*
X55496Y-37582D02*
X53173Y-37582D01*
X56000Y-37078D02*
X55496Y-37582D01*
X64649Y-29354D02*
X64708Y-29354D01*
X64708Y-29354D02*
X65161Y-29807D01*
X51795Y-32444D02*
X51795Y-33192D01*
G54D10*
G36*
X64679Y-31240D02*
X63689Y-31240D01*
X61030Y-28582D01*
X61030Y-25742D01*
X61079Y-25791D01*
X61198Y-25840D01*
X61328Y-25840D01*
X61447Y-25791D01*
X61539Y-25700D01*
X61588Y-25580D01*
X61588Y-25535D01*
X61612Y-25545D01*
X61741Y-25545D01*
X61861Y-25496D01*
X61870Y-25486D01*
X61870Y-28173D01*
X61886Y-28249D01*
X61929Y-28314D01*
X64619Y-31005D01*
X64619Y-31111D01*
X64669Y-31231D01*
X64679Y-31240D01*
X64679Y-31240D01*
G37*
G54D16*
X64679Y-31240D02*
X63689Y-31240D01*
X61030Y-28582D01*
X61030Y-25742D01*
X61079Y-25791D01*
X61198Y-25840D01*
X61328Y-25840D01*
X61447Y-25791D01*
X61539Y-25700D01*
X61588Y-25580D01*
X61588Y-25535D01*
X61612Y-25545D01*
X61741Y-25545D01*
X61861Y-25496D01*
X61870Y-25486D01*
X61870Y-28173D01*
X61886Y-28249D01*
X61929Y-28314D01*
X64619Y-31005D01*
X64619Y-31111D01*
X64669Y-31231D01*
X64679Y-31240D01*
G54D10*
G36*
X67204Y-31240D02*
X65210Y-31240D01*
X65220Y-31231D01*
X65269Y-31112D01*
X65269Y-30982D01*
X65220Y-30863D01*
X65129Y-30771D01*
X65009Y-30722D01*
X64902Y-30722D01*
X62270Y-28090D01*
X62270Y-25165D01*
X62326Y-25109D01*
X62378Y-25161D01*
X62498Y-25210D01*
X62627Y-25210D01*
X62746Y-25161D01*
X62799Y-25109D01*
X62870Y-25180D01*
X62990Y-25230D01*
X63119Y-25230D01*
X63238Y-25181D01*
X63291Y-25128D01*
X63362Y-25200D01*
X63482Y-25250D01*
X63611Y-25250D01*
X63731Y-25200D01*
X63822Y-25109D01*
X63872Y-24990D01*
X63872Y-24860D01*
X63822Y-24741D01*
X63747Y-24665D01*
X63747Y-24496D01*
X64200Y-24042D01*
X64200Y-24042D01*
X64243Y-23978D01*
X64259Y-23901D01*
X64259Y-22625D01*
X64292Y-22592D01*
X64292Y-27799D01*
X64307Y-27875D01*
X64350Y-27940D01*
X65118Y-28708D01*
X65118Y-29078D01*
X65134Y-29155D01*
X65177Y-29220D01*
X67185Y-31228D01*
X67204Y-31240D01*
X67204Y-31240D01*
G37*
G54D16*
X67204Y-31240D02*
X65210Y-31240D01*
X65220Y-31231D01*
X65269Y-31112D01*
X65269Y-30982D01*
X65220Y-30863D01*
X65129Y-30771D01*
X65009Y-30722D01*
X64902Y-30722D01*
X62270Y-28090D01*
X62270Y-25165D01*
X62326Y-25109D01*
X62378Y-25161D01*
X62498Y-25210D01*
X62627Y-25210D01*
X62746Y-25161D01*
X62799Y-25109D01*
X62870Y-25180D01*
X62990Y-25230D01*
X63119Y-25230D01*
X63238Y-25181D01*
X63291Y-25128D01*
X63362Y-25200D01*
X63482Y-25250D01*
X63611Y-25250D01*
X63731Y-25200D01*
X63822Y-25109D01*
X63872Y-24990D01*
X63872Y-24860D01*
X63822Y-24741D01*
X63747Y-24665D01*
X63747Y-24496D01*
X64200Y-24042D01*
X64200Y-24042D01*
X64243Y-23978D01*
X64259Y-23901D01*
X64259Y-22625D01*
X64292Y-22592D01*
X64292Y-27799D01*
X64307Y-27875D01*
X64350Y-27940D01*
X65118Y-28708D01*
X65118Y-29078D01*
X65134Y-29155D01*
X65177Y-29220D01*
X67185Y-31228D01*
X67204Y-31240D01*
G54D10*
G36*
X81627Y-37453D02*
X81262Y-37453D01*
X81262Y-35750D01*
X81262Y-20750D01*
X81070Y-20285D01*
X80715Y-19930D01*
X80252Y-19738D01*
X79750Y-19737D01*
X79285Y-19929D01*
X78930Y-20284D01*
X78738Y-20747D01*
X78737Y-21249D01*
X78929Y-21714D01*
X79284Y-22069D01*
X79747Y-22261D01*
X80249Y-22262D01*
X80714Y-22070D01*
X81069Y-21715D01*
X81261Y-21252D01*
X81262Y-20750D01*
X81262Y-35750D01*
X81070Y-35285D01*
X80715Y-34930D01*
X80477Y-34831D01*
X80477Y-27919D01*
X80410Y-27742D01*
X80394Y-27719D01*
X80319Y-27687D01*
X80007Y-28000D01*
X80319Y-28312D01*
X80394Y-28280D01*
X80471Y-28108D01*
X80477Y-27919D01*
X80477Y-34831D01*
X80474Y-34830D01*
X80474Y-31905D01*
X80474Y-30905D01*
X80402Y-30731D01*
X80269Y-30597D01*
X80094Y-30525D01*
X79905Y-30525D01*
X79836Y-30553D01*
X79711Y-30428D01*
X79711Y-30383D01*
X79730Y-30402D01*
X79905Y-30474D01*
X80094Y-30474D01*
X80268Y-30402D01*
X80402Y-30269D01*
X80474Y-30094D01*
X80474Y-29905D01*
X80402Y-29731D01*
X80269Y-29597D01*
X80094Y-29525D01*
X79905Y-29525D01*
X79731Y-29597D01*
X79711Y-29616D01*
X79711Y-29383D01*
X79730Y-29402D01*
X79905Y-29474D01*
X80094Y-29474D01*
X80268Y-29402D01*
X80402Y-29269D01*
X80474Y-29094D01*
X80474Y-28905D01*
X80402Y-28731D01*
X80269Y-28597D01*
X80094Y-28525D01*
X79905Y-28525D01*
X79731Y-28597D01*
X79711Y-28616D01*
X79711Y-28376D01*
X79719Y-28394D01*
X79891Y-28471D01*
X80080Y-28477D01*
X80257Y-28410D01*
X80280Y-28394D01*
X80312Y-28319D01*
X80000Y-28007D01*
X79994Y-28012D01*
X79987Y-28005D01*
X79992Y-28000D01*
X79987Y-27994D01*
X79994Y-27987D01*
X80000Y-27992D01*
X80312Y-27680D01*
X80280Y-27605D01*
X80108Y-27528D01*
X79919Y-27522D01*
X79742Y-27589D01*
X79719Y-27605D01*
X79711Y-27623D01*
X79711Y-27622D01*
X79699Y-27558D01*
X79696Y-27545D01*
X79696Y-27545D01*
X79653Y-27480D01*
X79613Y-27441D01*
X79613Y-27441D01*
X79285Y-27112D01*
X79285Y-27006D01*
X79236Y-26887D01*
X79144Y-26795D01*
X79025Y-26745D01*
X78896Y-26745D01*
X78776Y-26795D01*
X78685Y-26886D01*
X78635Y-27005D01*
X78635Y-27135D01*
X78684Y-27254D01*
X78776Y-27346D01*
X78895Y-27395D01*
X79002Y-27395D01*
X79132Y-27525D01*
X78645Y-27525D01*
X78590Y-27548D01*
X78548Y-27590D01*
X78525Y-27645D01*
X78525Y-27705D01*
X78525Y-27800D01*
X78279Y-27800D01*
X77474Y-26995D01*
X77474Y-19905D01*
X77402Y-19731D01*
X77269Y-19597D01*
X77094Y-19525D01*
X76905Y-19525D01*
X76731Y-19597D01*
X76597Y-19730D01*
X76525Y-19905D01*
X76525Y-20094D01*
X76597Y-20268D01*
X76730Y-20402D01*
X76905Y-20474D01*
X77094Y-20474D01*
X77268Y-20402D01*
X77402Y-20269D01*
X77474Y-20094D01*
X77474Y-19905D01*
X77474Y-26995D01*
X76976Y-26496D01*
X76911Y-26453D01*
X76834Y-26437D01*
X76474Y-26437D01*
X76474Y-19905D01*
X76402Y-19731D01*
X76269Y-19597D01*
X76094Y-19525D01*
X75905Y-19525D01*
X75731Y-19597D01*
X75597Y-19730D01*
X75525Y-19905D01*
X75525Y-20094D01*
X75597Y-20268D01*
X75730Y-20402D01*
X75800Y-20431D01*
X75800Y-20578D01*
X75675Y-20702D01*
X75569Y-20702D01*
X75474Y-20741D01*
X75474Y-19905D01*
X75402Y-19731D01*
X75269Y-19597D01*
X75094Y-19525D01*
X74905Y-19525D01*
X74731Y-19597D01*
X74597Y-19730D01*
X74525Y-19905D01*
X74525Y-20094D01*
X74597Y-20268D01*
X74730Y-20402D01*
X74800Y-20431D01*
X74800Y-20889D01*
X74612Y-21076D01*
X74506Y-21076D01*
X74387Y-21125D01*
X74295Y-21217D01*
X74245Y-21336D01*
X74245Y-21465D01*
X74295Y-21585D01*
X74386Y-21676D01*
X74505Y-21726D01*
X74635Y-21726D01*
X74754Y-21677D01*
X74846Y-21585D01*
X74895Y-21466D01*
X74895Y-21359D01*
X75141Y-21113D01*
X75184Y-21048D01*
X75200Y-20972D01*
X75200Y-20431D01*
X75268Y-20402D01*
X75402Y-20269D01*
X75474Y-20094D01*
X75474Y-19905D01*
X75474Y-20741D01*
X75450Y-20751D01*
X75358Y-20843D01*
X75308Y-20962D01*
X75308Y-21091D01*
X75358Y-21211D01*
X75449Y-21302D01*
X75568Y-21352D01*
X75698Y-21352D01*
X75817Y-21303D01*
X75909Y-21211D01*
X75958Y-21092D01*
X75958Y-20985D01*
X76141Y-20802D01*
X76141Y-20802D01*
X76184Y-20737D01*
X76200Y-20661D01*
X76200Y-20431D01*
X76268Y-20402D01*
X76402Y-20269D01*
X76474Y-20094D01*
X76474Y-19905D01*
X76474Y-26437D01*
X74968Y-26437D01*
X74892Y-26362D01*
X74773Y-26312D01*
X74644Y-26312D01*
X74524Y-26362D01*
X74433Y-26453D01*
X74383Y-26572D01*
X74383Y-26702D01*
X74432Y-26821D01*
X74524Y-26913D01*
X74643Y-26962D01*
X74773Y-26962D01*
X74892Y-26913D01*
X74968Y-26837D01*
X76751Y-26837D01*
X76817Y-26903D01*
X76691Y-26903D01*
X76572Y-26952D01*
X76480Y-27044D01*
X76430Y-27163D01*
X76430Y-27292D01*
X76480Y-27412D01*
X76555Y-27488D01*
X76555Y-32008D01*
X76480Y-32083D01*
X76430Y-32202D01*
X76430Y-32332D01*
X76480Y-32451D01*
X76571Y-32543D01*
X76690Y-32592D01*
X76820Y-32592D01*
X76939Y-32543D01*
X77031Y-32452D01*
X77080Y-32332D01*
X77080Y-32203D01*
X77031Y-32083D01*
X76955Y-32008D01*
X76955Y-27487D01*
X77031Y-27412D01*
X77080Y-27293D01*
X77080Y-27166D01*
X78055Y-28141D01*
X78120Y-28184D01*
X78196Y-28200D01*
X78525Y-28200D01*
X78525Y-28354D01*
X78548Y-28409D01*
X78590Y-28451D01*
X78645Y-28474D01*
X78705Y-28474D01*
X79311Y-28474D01*
X79311Y-28640D01*
X79269Y-28597D01*
X79094Y-28525D01*
X78905Y-28525D01*
X78731Y-28597D01*
X78597Y-28730D01*
X78525Y-28905D01*
X78525Y-29094D01*
X78597Y-29268D01*
X78730Y-29402D01*
X78905Y-29474D01*
X79094Y-29474D01*
X79268Y-29402D01*
X79311Y-29359D01*
X79311Y-29640D01*
X79269Y-29597D01*
X79094Y-29525D01*
X78905Y-29525D01*
X78731Y-29597D01*
X78597Y-29730D01*
X78525Y-29905D01*
X78525Y-30094D01*
X78597Y-30268D01*
X78730Y-30402D01*
X78905Y-30474D01*
X79094Y-30474D01*
X79268Y-30402D01*
X79311Y-30359D01*
X79311Y-30511D01*
X79327Y-30588D01*
X79370Y-30653D01*
X79553Y-30836D01*
X79525Y-30905D01*
X79525Y-31094D01*
X79597Y-31268D01*
X79730Y-31402D01*
X79905Y-31474D01*
X80094Y-31474D01*
X80268Y-31402D01*
X80402Y-31269D01*
X80474Y-31094D01*
X80474Y-30905D01*
X80474Y-31905D01*
X80402Y-31731D01*
X80269Y-31597D01*
X80094Y-31525D01*
X79905Y-31525D01*
X79731Y-31597D01*
X79597Y-31730D01*
X79525Y-31905D01*
X79525Y-32094D01*
X79597Y-32268D01*
X79730Y-32402D01*
X79905Y-32474D01*
X80094Y-32474D01*
X80268Y-32402D01*
X80402Y-32269D01*
X80474Y-32094D01*
X80474Y-31905D01*
X80474Y-34830D01*
X80252Y-34738D01*
X79750Y-34737D01*
X79285Y-34929D01*
X78930Y-35284D01*
X78738Y-35747D01*
X78737Y-36249D01*
X78929Y-36714D01*
X79284Y-37069D01*
X79747Y-37261D01*
X80249Y-37262D01*
X80714Y-37070D01*
X81069Y-36715D01*
X81261Y-36252D01*
X81262Y-35750D01*
X81262Y-37453D01*
X77144Y-37453D01*
X77268Y-37402D01*
X77402Y-37269D01*
X77474Y-37094D01*
X77474Y-36905D01*
X77402Y-36731D01*
X77269Y-36597D01*
X77094Y-36525D01*
X76905Y-36525D01*
X76731Y-36597D01*
X76687Y-36641D01*
X76687Y-35982D01*
X76637Y-35863D01*
X76546Y-35771D01*
X76427Y-35722D01*
X76320Y-35722D01*
X75804Y-35206D01*
X75821Y-35167D01*
X75821Y-35037D01*
X75771Y-34918D01*
X75680Y-34827D01*
X75560Y-34777D01*
X75431Y-34777D01*
X75312Y-34826D01*
X75220Y-34918D01*
X75171Y-35037D01*
X75171Y-35166D01*
X75220Y-35286D01*
X75311Y-35377D01*
X75431Y-35427D01*
X75459Y-35427D01*
X76037Y-36005D01*
X76037Y-36111D01*
X76086Y-36231D01*
X76177Y-36322D01*
X76297Y-36372D01*
X76426Y-36372D01*
X76546Y-36322D01*
X76637Y-36231D01*
X76687Y-36112D01*
X76687Y-35982D01*
X76687Y-36641D01*
X76597Y-36730D01*
X76525Y-36905D01*
X76525Y-37094D01*
X76597Y-37268D01*
X76730Y-37402D01*
X76855Y-37453D01*
X76144Y-37453D01*
X76268Y-37402D01*
X76402Y-37269D01*
X76474Y-37094D01*
X76474Y-36905D01*
X76402Y-36731D01*
X76269Y-36597D01*
X76094Y-36525D01*
X75905Y-36525D01*
X75731Y-36597D01*
X75597Y-36730D01*
X75525Y-36905D01*
X75525Y-37094D01*
X75597Y-37268D01*
X75730Y-37402D01*
X75855Y-37453D01*
X75144Y-37453D01*
X75268Y-37402D01*
X75402Y-37269D01*
X75474Y-37094D01*
X75474Y-36905D01*
X75402Y-36731D01*
X75269Y-36597D01*
X75094Y-36525D01*
X74905Y-36525D01*
X74731Y-36597D01*
X74597Y-36730D01*
X74525Y-36905D01*
X74525Y-37094D01*
X74597Y-37268D01*
X74730Y-37402D01*
X74855Y-37453D01*
X74144Y-37453D01*
X74268Y-37402D01*
X74402Y-37269D01*
X74474Y-37094D01*
X74474Y-36905D01*
X74402Y-36731D01*
X74269Y-36597D01*
X74094Y-36525D01*
X73905Y-36525D01*
X73731Y-36597D01*
X73597Y-36730D01*
X73525Y-36905D01*
X73525Y-37094D01*
X73597Y-37268D01*
X73730Y-37402D01*
X73855Y-37453D01*
X73144Y-37453D01*
X73268Y-37402D01*
X73402Y-37269D01*
X73474Y-37094D01*
X73474Y-36905D01*
X73402Y-36731D01*
X73269Y-36597D01*
X73094Y-36525D01*
X72905Y-36525D01*
X72731Y-36597D01*
X72597Y-36730D01*
X72525Y-36905D01*
X72525Y-37094D01*
X72597Y-37268D01*
X72730Y-37402D01*
X72855Y-37453D01*
X72144Y-37453D01*
X72268Y-37402D01*
X72402Y-37269D01*
X72474Y-37094D01*
X72474Y-36905D01*
X72402Y-36731D01*
X72269Y-36597D01*
X72094Y-36525D01*
X71905Y-36525D01*
X71731Y-36597D01*
X71597Y-36730D01*
X71525Y-36905D01*
X71525Y-37094D01*
X71597Y-37268D01*
X71730Y-37402D01*
X71855Y-37453D01*
X71144Y-37453D01*
X71268Y-37402D01*
X71402Y-37269D01*
X71474Y-37094D01*
X71474Y-36905D01*
X71402Y-36731D01*
X71269Y-36597D01*
X71094Y-36525D01*
X70905Y-36525D01*
X70731Y-36597D01*
X70597Y-36730D01*
X70525Y-36905D01*
X70525Y-37094D01*
X70597Y-37268D01*
X70730Y-37402D01*
X70855Y-37453D01*
X70144Y-37453D01*
X70268Y-37402D01*
X70402Y-37269D01*
X70474Y-37094D01*
X70474Y-36905D01*
X70402Y-36731D01*
X70269Y-36597D01*
X70094Y-36525D01*
X69905Y-36525D01*
X69836Y-36553D01*
X68834Y-35551D01*
X68769Y-35508D01*
X68692Y-35492D01*
X59647Y-35492D01*
X59735Y-35456D01*
X59826Y-35365D01*
X59876Y-35246D01*
X59876Y-35138D01*
X62579Y-32435D01*
X62686Y-32435D01*
X62805Y-32385D01*
X62881Y-32310D01*
X74350Y-32310D01*
X75748Y-33708D01*
X76457Y-34417D01*
X76457Y-34417D01*
X76521Y-34460D01*
X76521Y-34460D01*
X76534Y-34462D01*
X76598Y-34475D01*
X77283Y-34475D01*
X77358Y-34550D01*
X77478Y-34600D01*
X77607Y-34600D01*
X77727Y-34551D01*
X77818Y-34459D01*
X77868Y-34340D01*
X77868Y-34211D01*
X77818Y-34091D01*
X77727Y-34000D01*
X77608Y-33950D01*
X77478Y-33950D01*
X77359Y-33999D01*
X77283Y-34075D01*
X76681Y-34075D01*
X76522Y-33917D01*
X76559Y-33924D01*
X78330Y-33924D01*
X78407Y-33909D01*
X78472Y-33865D01*
X79141Y-33196D01*
X79184Y-33131D01*
X79200Y-33055D01*
X79200Y-32431D01*
X79268Y-32402D01*
X79402Y-32269D01*
X79474Y-32094D01*
X79474Y-31905D01*
X79474Y-30905D01*
X79402Y-30731D01*
X79269Y-30597D01*
X79094Y-30525D01*
X78905Y-30525D01*
X78731Y-30597D01*
X78597Y-30730D01*
X78525Y-30905D01*
X78525Y-31094D01*
X78597Y-31268D01*
X78730Y-31402D01*
X78905Y-31474D01*
X79094Y-31474D01*
X79268Y-31402D01*
X79402Y-31269D01*
X79474Y-31094D01*
X79474Y-30905D01*
X79474Y-31905D01*
X79402Y-31731D01*
X79269Y-31597D01*
X79094Y-31525D01*
X78905Y-31525D01*
X78731Y-31597D01*
X78597Y-31730D01*
X78525Y-31905D01*
X78525Y-32094D01*
X78597Y-32268D01*
X78730Y-32402D01*
X78800Y-32431D01*
X78800Y-32972D01*
X78247Y-33524D01*
X76641Y-33524D01*
X76136Y-33018D01*
X76136Y-28896D01*
X76086Y-28776D01*
X75995Y-28685D01*
X75875Y-28635D01*
X75746Y-28635D01*
X75627Y-28684D01*
X75535Y-28776D01*
X75486Y-28895D01*
X75485Y-29002D01*
X74665Y-29823D01*
X74642Y-29823D01*
X74679Y-29734D01*
X74679Y-29604D01*
X74630Y-29485D01*
X74554Y-29409D01*
X74554Y-28724D01*
X74541Y-28660D01*
X74539Y-28647D01*
X74539Y-28647D01*
X74495Y-28582D01*
X74495Y-28582D01*
X74338Y-28425D01*
X74338Y-28425D01*
X74338Y-28425D01*
X74227Y-28315D01*
X74289Y-28340D01*
X74396Y-28340D01*
X74738Y-28682D01*
X74737Y-28788D01*
X74787Y-28908D01*
X74878Y-28999D01*
X74998Y-29049D01*
X75127Y-29049D01*
X75246Y-29000D01*
X75338Y-28908D01*
X75387Y-28789D01*
X75388Y-28660D01*
X75338Y-28540D01*
X75247Y-28449D01*
X75127Y-28399D01*
X75020Y-28399D01*
X74679Y-28057D01*
X74679Y-27951D01*
X74630Y-27831D01*
X74538Y-27740D01*
X74419Y-27690D01*
X74289Y-27690D01*
X74170Y-27740D01*
X74078Y-27831D01*
X74029Y-27950D01*
X74029Y-28080D01*
X74078Y-28199D01*
X74100Y-28221D01*
X74039Y-28209D01*
X69825Y-28209D01*
X69792Y-28195D01*
X72310Y-25676D01*
X72354Y-25611D01*
X72354Y-25611D01*
X72356Y-25599D01*
X72369Y-25535D01*
X72369Y-25535D01*
X72369Y-24275D01*
X72354Y-24199D01*
X72310Y-24134D01*
X70952Y-22775D01*
X70933Y-22762D01*
X71673Y-22762D01*
X72218Y-23308D01*
X72218Y-23414D01*
X72267Y-23534D01*
X72358Y-23625D01*
X72478Y-23675D01*
X72607Y-23675D01*
X72727Y-23626D01*
X72818Y-23534D01*
X72868Y-23415D01*
X72868Y-23340D01*
X72962Y-23340D01*
X73081Y-23291D01*
X73172Y-23200D01*
X73222Y-23080D01*
X73222Y-23045D01*
X73336Y-23045D01*
X73455Y-22996D01*
X73547Y-22904D01*
X73596Y-22785D01*
X73596Y-22691D01*
X73670Y-22691D01*
X73790Y-22641D01*
X73881Y-22550D01*
X73931Y-22431D01*
X73931Y-22301D01*
X73881Y-22182D01*
X73820Y-22120D01*
X73828Y-22120D01*
X73947Y-22070D01*
X74039Y-21979D01*
X74088Y-21860D01*
X74088Y-21753D01*
X74141Y-21700D01*
X74184Y-21635D01*
X74184Y-21635D01*
X74200Y-21559D01*
X74200Y-20431D01*
X74268Y-20402D01*
X74402Y-20269D01*
X74474Y-20094D01*
X74474Y-19905D01*
X74402Y-19731D01*
X74269Y-19597D01*
X74094Y-19525D01*
X73905Y-19525D01*
X73731Y-19597D01*
X73597Y-19730D01*
X73525Y-19905D01*
X73525Y-20094D01*
X73597Y-20268D01*
X73730Y-20402D01*
X73800Y-20431D01*
X73800Y-21470D01*
X73699Y-21470D01*
X73579Y-21519D01*
X73488Y-21610D01*
X73474Y-21643D01*
X73474Y-19905D01*
X73402Y-19731D01*
X73269Y-19597D01*
X73094Y-19525D01*
X72905Y-19525D01*
X72731Y-19597D01*
X72597Y-19730D01*
X72525Y-19905D01*
X72525Y-20094D01*
X72597Y-20268D01*
X72730Y-20402D01*
X72905Y-20474D01*
X73094Y-20474D01*
X73268Y-20402D01*
X73402Y-20269D01*
X73474Y-20094D01*
X73474Y-19905D01*
X73474Y-21643D01*
X73438Y-21730D01*
X73438Y-21859D01*
X73478Y-21955D01*
X73216Y-21693D01*
X73151Y-21649D01*
X73074Y-21634D01*
X72474Y-21634D01*
X72474Y-19905D01*
X72402Y-19731D01*
X72269Y-19597D01*
X72094Y-19525D01*
X71905Y-19525D01*
X71731Y-19597D01*
X71597Y-19730D01*
X71525Y-19905D01*
X71525Y-20094D01*
X71597Y-20268D01*
X71730Y-20402D01*
X71905Y-20474D01*
X72094Y-20474D01*
X72268Y-20402D01*
X72402Y-20269D01*
X72474Y-20094D01*
X72474Y-19905D01*
X72474Y-21634D01*
X71474Y-21634D01*
X71474Y-19905D01*
X71402Y-19731D01*
X71269Y-19597D01*
X71094Y-19525D01*
X70905Y-19525D01*
X70731Y-19597D01*
X70597Y-19730D01*
X70525Y-19905D01*
X70525Y-20094D01*
X70597Y-20268D01*
X70730Y-20402D01*
X70905Y-20474D01*
X71094Y-20474D01*
X71268Y-20402D01*
X71402Y-20269D01*
X71474Y-20094D01*
X71474Y-19905D01*
X71474Y-21634D01*
X70474Y-21634D01*
X70474Y-19905D01*
X70402Y-19731D01*
X70269Y-19597D01*
X70094Y-19525D01*
X69905Y-19525D01*
X69731Y-19597D01*
X69597Y-19730D01*
X69525Y-19905D01*
X69525Y-20094D01*
X69597Y-20268D01*
X69730Y-20402D01*
X69800Y-20431D01*
X69800Y-20712D01*
X69708Y-20803D01*
X69659Y-20923D01*
X69659Y-21052D01*
X69708Y-21172D01*
X69799Y-21263D01*
X69919Y-21313D01*
X70048Y-21313D01*
X70168Y-21263D01*
X70259Y-21172D01*
X70309Y-21053D01*
X70309Y-20923D01*
X70259Y-20804D01*
X70200Y-20744D01*
X70200Y-20431D01*
X70268Y-20402D01*
X70402Y-20269D01*
X70474Y-20094D01*
X70474Y-19905D01*
X70474Y-21634D01*
X69474Y-21634D01*
X69474Y-19905D01*
X69402Y-19731D01*
X69269Y-19597D01*
X69094Y-19525D01*
X68905Y-19525D01*
X68731Y-19597D01*
X68597Y-19730D01*
X68525Y-19905D01*
X68525Y-20094D01*
X68597Y-20268D01*
X68730Y-20402D01*
X68800Y-20431D01*
X68800Y-20907D01*
X68796Y-20909D01*
X68704Y-21000D01*
X68655Y-21120D01*
X68655Y-21249D01*
X68704Y-21368D01*
X68795Y-21460D01*
X68915Y-21509D01*
X69044Y-21510D01*
X69164Y-21460D01*
X69255Y-21369D01*
X69305Y-21249D01*
X69305Y-21120D01*
X69255Y-21001D01*
X69200Y-20945D01*
X69200Y-20431D01*
X69268Y-20402D01*
X69402Y-20269D01*
X69474Y-20094D01*
X69474Y-19905D01*
X69474Y-21634D01*
X68262Y-21634D01*
X68271Y-21625D01*
X68321Y-21505D01*
X68321Y-21376D01*
X68271Y-21257D01*
X68200Y-21185D01*
X68200Y-20431D01*
X68268Y-20402D01*
X68402Y-20269D01*
X68474Y-20094D01*
X68474Y-19905D01*
X68402Y-19731D01*
X68269Y-19597D01*
X68094Y-19525D01*
X67905Y-19525D01*
X67731Y-19597D01*
X67597Y-19730D01*
X67525Y-19905D01*
X67525Y-20094D01*
X67597Y-20268D01*
X67730Y-20402D01*
X67800Y-20431D01*
X67800Y-21177D01*
X67720Y-21256D01*
X67671Y-21376D01*
X67671Y-21505D01*
X67720Y-21624D01*
X67730Y-21634D01*
X67523Y-21634D01*
X67474Y-21644D01*
X67474Y-19905D01*
X67402Y-19731D01*
X67269Y-19597D01*
X67094Y-19525D01*
X66905Y-19525D01*
X66731Y-19597D01*
X66597Y-19730D01*
X66525Y-19905D01*
X66525Y-20094D01*
X66597Y-20268D01*
X66730Y-20402D01*
X66800Y-20431D01*
X66800Y-21349D01*
X66768Y-21362D01*
X66677Y-21453D01*
X66627Y-21572D01*
X66627Y-21702D01*
X66677Y-21821D01*
X66768Y-21913D01*
X66887Y-21962D01*
X67017Y-21962D01*
X67136Y-21913D01*
X67228Y-21822D01*
X67277Y-21702D01*
X67277Y-21573D01*
X67228Y-21453D01*
X67200Y-21425D01*
X67200Y-20431D01*
X67268Y-20402D01*
X67402Y-20269D01*
X67474Y-20094D01*
X67474Y-19905D01*
X67474Y-21644D01*
X67447Y-21649D01*
X67382Y-21693D01*
X66719Y-22356D01*
X66612Y-22356D01*
X66493Y-22405D01*
X66401Y-22496D01*
X66352Y-22616D01*
X66352Y-22745D01*
X66401Y-22864D01*
X66492Y-22956D01*
X66612Y-23006D01*
X66741Y-23006D01*
X66861Y-22956D01*
X66903Y-22914D01*
X66955Y-22966D01*
X66913Y-23008D01*
X66864Y-23127D01*
X66863Y-23257D01*
X66913Y-23376D01*
X66914Y-23378D01*
X66887Y-23389D01*
X66795Y-23481D01*
X66745Y-23600D01*
X66745Y-23729D01*
X66795Y-23849D01*
X66886Y-23940D01*
X67005Y-23990D01*
X67135Y-23990D01*
X67254Y-23941D01*
X67346Y-23849D01*
X67373Y-23782D01*
X67999Y-23157D01*
X67999Y-23157D01*
X68003Y-23151D01*
X68015Y-23179D01*
X68087Y-23251D01*
X68035Y-23303D01*
X67986Y-23423D01*
X67985Y-23552D01*
X68035Y-23672D01*
X68107Y-23744D01*
X68055Y-23795D01*
X68005Y-23915D01*
X68005Y-24044D01*
X68055Y-24164D01*
X68117Y-24226D01*
X68055Y-24288D01*
X68005Y-24407D01*
X68005Y-24536D01*
X68055Y-24656D01*
X68117Y-24718D01*
X68055Y-24780D01*
X68005Y-24899D01*
X68005Y-25028D01*
X68055Y-25148D01*
X68126Y-25220D01*
X68055Y-25292D01*
X68005Y-25411D01*
X68005Y-25540D01*
X68055Y-25660D01*
X68146Y-25751D01*
X68265Y-25801D01*
X68353Y-25801D01*
X69068Y-26516D01*
X69068Y-26623D01*
X69118Y-26742D01*
X69184Y-26809D01*
X69170Y-26814D01*
X69094Y-26890D01*
X68945Y-26890D01*
X66200Y-24145D01*
X66200Y-20431D01*
X66268Y-20402D01*
X66402Y-20269D01*
X66474Y-20094D01*
X66474Y-19905D01*
X66402Y-19731D01*
X66269Y-19597D01*
X66094Y-19525D01*
X65905Y-19525D01*
X65731Y-19597D01*
X65597Y-19730D01*
X65525Y-19905D01*
X65525Y-20094D01*
X65597Y-20268D01*
X65730Y-20402D01*
X65800Y-20431D01*
X65800Y-24139D01*
X65200Y-23539D01*
X65200Y-20431D01*
X65268Y-20402D01*
X65402Y-20269D01*
X65474Y-20094D01*
X65474Y-19905D01*
X65402Y-19731D01*
X65269Y-19597D01*
X65094Y-19525D01*
X64905Y-19525D01*
X64731Y-19597D01*
X64597Y-19730D01*
X64525Y-19905D01*
X64525Y-20094D01*
X64597Y-20268D01*
X64730Y-20402D01*
X64800Y-20431D01*
X64800Y-23622D01*
X64815Y-23698D01*
X64858Y-23763D01*
X68694Y-27599D01*
X68694Y-27607D01*
X68744Y-27727D01*
X68835Y-27818D01*
X68954Y-27868D01*
X69084Y-27868D01*
X69203Y-27818D01*
X69295Y-27727D01*
X69344Y-27608D01*
X69344Y-27478D01*
X69318Y-27415D01*
X69418Y-27415D01*
X69538Y-27366D01*
X69629Y-27274D01*
X69679Y-27155D01*
X69679Y-27026D01*
X69630Y-26906D01*
X69563Y-26840D01*
X69577Y-26834D01*
X69669Y-26743D01*
X69675Y-26729D01*
X69760Y-26814D01*
X69879Y-26864D01*
X70009Y-26864D01*
X70128Y-26815D01*
X70220Y-26723D01*
X70269Y-26604D01*
X70269Y-26475D01*
X70220Y-26355D01*
X70129Y-26264D01*
X70114Y-26258D01*
X70148Y-26244D01*
X70239Y-26152D01*
X70249Y-26128D01*
X70259Y-26152D01*
X70351Y-26243D01*
X70470Y-26293D01*
X70599Y-26293D01*
X70719Y-26244D01*
X70810Y-26152D01*
X70860Y-26033D01*
X70860Y-25904D01*
X70811Y-25784D01*
X70719Y-25693D01*
X70695Y-25683D01*
X70719Y-25673D01*
X70810Y-25581D01*
X70820Y-25557D01*
X70830Y-25581D01*
X70921Y-25672D01*
X71041Y-25722D01*
X71170Y-25722D01*
X71290Y-25673D01*
X71381Y-25581D01*
X71431Y-25462D01*
X71431Y-25333D01*
X71381Y-25213D01*
X71290Y-25122D01*
X71171Y-25072D01*
X71064Y-25072D01*
X68846Y-22854D01*
X68781Y-22811D01*
X68704Y-22796D01*
X68550Y-22796D01*
X68517Y-22762D01*
X69786Y-22762D01*
X69757Y-22832D01*
X69757Y-22962D01*
X69806Y-23081D01*
X69898Y-23172D01*
X70017Y-23222D01*
X70072Y-23222D01*
X70072Y-23336D01*
X70121Y-23455D01*
X70213Y-23547D01*
X70332Y-23596D01*
X70439Y-23596D01*
X71733Y-24889D01*
X71733Y-25373D01*
X68228Y-28878D01*
X67976Y-28878D01*
X67899Y-28893D01*
X67834Y-28937D01*
X67782Y-28989D01*
X67675Y-28989D01*
X67556Y-29039D01*
X67464Y-29130D01*
X67415Y-29250D01*
X67415Y-29379D01*
X67464Y-29498D01*
X67555Y-29590D01*
X67675Y-29639D01*
X67804Y-29640D01*
X67833Y-29627D01*
X67877Y-29735D01*
X67969Y-29826D01*
X68088Y-29876D01*
X68217Y-29876D01*
X68337Y-29826D01*
X68428Y-29735D01*
X68478Y-29616D01*
X68478Y-29508D01*
X69356Y-28630D01*
X69373Y-28672D01*
X69448Y-28746D01*
X69406Y-28763D01*
X69315Y-28855D01*
X69265Y-28974D01*
X69265Y-29103D01*
X69314Y-29223D01*
X69406Y-29314D01*
X69525Y-29364D01*
X69632Y-29364D01*
X70433Y-30165D01*
X70498Y-30208D01*
X70574Y-30223D01*
X74050Y-30223D01*
X74029Y-30273D01*
X74029Y-30402D01*
X74078Y-30522D01*
X74169Y-30613D01*
X74289Y-30663D01*
X74396Y-30663D01*
X74606Y-30873D01*
X74671Y-30917D01*
X74748Y-30932D01*
X75118Y-30932D01*
X75193Y-31007D01*
X75313Y-31057D01*
X75441Y-31057D01*
X75407Y-31139D01*
X75407Y-31269D01*
X75456Y-31388D01*
X75547Y-31480D01*
X75667Y-31529D01*
X75796Y-31529D01*
X75916Y-31480D01*
X76007Y-31389D01*
X76057Y-31269D01*
X76057Y-31140D01*
X76007Y-31020D01*
X75932Y-30945D01*
X75932Y-30086D01*
X76007Y-30011D01*
X76057Y-29891D01*
X76057Y-29762D01*
X76007Y-29642D01*
X75916Y-29551D01*
X75797Y-29501D01*
X75667Y-29501D01*
X75548Y-29551D01*
X75456Y-29642D01*
X75407Y-29761D01*
X75407Y-29891D01*
X75456Y-30010D01*
X75532Y-30086D01*
X75532Y-30444D01*
X75442Y-30407D01*
X75313Y-30407D01*
X75194Y-30456D01*
X75118Y-30532D01*
X74830Y-30532D01*
X74679Y-30380D01*
X74679Y-30274D01*
X74658Y-30223D01*
X74748Y-30223D01*
X74824Y-30208D01*
X74889Y-30165D01*
X75768Y-29285D01*
X75875Y-29285D01*
X75994Y-29236D01*
X76086Y-29144D01*
X76135Y-29025D01*
X76136Y-28896D01*
X76136Y-33018D01*
X75702Y-32585D01*
X75703Y-32478D01*
X75653Y-32359D01*
X75562Y-32267D01*
X75442Y-32218D01*
X75313Y-32218D01*
X75194Y-32267D01*
X75102Y-32358D01*
X75062Y-32456D01*
X74574Y-31968D01*
X74509Y-31925D01*
X74433Y-31910D01*
X74374Y-31910D01*
X67634Y-31910D01*
X67671Y-31820D01*
X67671Y-31756D01*
X67694Y-31765D01*
X67824Y-31766D01*
X67943Y-31716D01*
X68035Y-31625D01*
X68058Y-31569D01*
X68067Y-31578D01*
X68187Y-31628D01*
X68316Y-31628D01*
X68435Y-31578D01*
X68527Y-31487D01*
X68576Y-31368D01*
X68577Y-31238D01*
X68527Y-31119D01*
X68436Y-31027D01*
X68316Y-30978D01*
X68209Y-30978D01*
X68176Y-30945D01*
X68111Y-30901D01*
X68035Y-30886D01*
X67409Y-30886D01*
X65518Y-28995D01*
X65518Y-28625D01*
X65503Y-28549D01*
X65503Y-28549D01*
X65489Y-28527D01*
X65460Y-28484D01*
X65460Y-28484D01*
X64692Y-27716D01*
X64692Y-22011D01*
X64676Y-21935D01*
X64633Y-21870D01*
X64200Y-21436D01*
X64200Y-20431D01*
X64268Y-20402D01*
X64402Y-20269D01*
X64474Y-20094D01*
X64474Y-19905D01*
X64402Y-19731D01*
X64269Y-19597D01*
X64094Y-19525D01*
X63905Y-19525D01*
X63731Y-19597D01*
X63597Y-19730D01*
X63525Y-19905D01*
X63525Y-20094D01*
X63597Y-20268D01*
X63730Y-20402D01*
X63800Y-20431D01*
X63800Y-21519D01*
X63815Y-21596D01*
X63858Y-21661D01*
X64292Y-22094D01*
X64292Y-22139D01*
X64243Y-22090D01*
X64123Y-22041D01*
X63994Y-22041D01*
X63875Y-22090D01*
X63783Y-22181D01*
X63734Y-22301D01*
X63734Y-22415D01*
X63620Y-22415D01*
X63501Y-22464D01*
X63474Y-22490D01*
X63474Y-19905D01*
X63402Y-19731D01*
X63269Y-19597D01*
X63094Y-19525D01*
X62905Y-19525D01*
X62731Y-19597D01*
X62597Y-19730D01*
X62525Y-19905D01*
X62525Y-20094D01*
X62597Y-20268D01*
X62730Y-20402D01*
X62905Y-20474D01*
X63094Y-20474D01*
X63268Y-20402D01*
X63402Y-20269D01*
X63474Y-20094D01*
X63474Y-19905D01*
X63474Y-22490D01*
X63409Y-22555D01*
X63360Y-22675D01*
X63360Y-22730D01*
X63266Y-22730D01*
X63146Y-22779D01*
X63055Y-22870D01*
X63005Y-22990D01*
X63005Y-23119D01*
X63055Y-23238D01*
X63130Y-23314D01*
X63130Y-23562D01*
X62474Y-24218D01*
X62474Y-19905D01*
X62402Y-19731D01*
X62269Y-19597D01*
X62094Y-19525D01*
X61905Y-19525D01*
X61731Y-19597D01*
X61597Y-19730D01*
X61525Y-19905D01*
X61525Y-20094D01*
X61597Y-20268D01*
X61730Y-20402D01*
X61905Y-20474D01*
X62094Y-20474D01*
X62268Y-20402D01*
X62402Y-20269D01*
X62474Y-20094D01*
X62474Y-19905D01*
X62474Y-24218D01*
X62421Y-24271D01*
X62378Y-24336D01*
X62362Y-24413D01*
X62362Y-24626D01*
X62307Y-24682D01*
X62255Y-24630D01*
X62200Y-24607D01*
X62200Y-23474D01*
X62354Y-23474D01*
X62409Y-23451D01*
X62451Y-23409D01*
X62474Y-23354D01*
X62474Y-23294D01*
X62474Y-22645D01*
X62451Y-22590D01*
X62409Y-22548D01*
X62354Y-22525D01*
X62294Y-22525D01*
X61645Y-22525D01*
X61590Y-22548D01*
X61548Y-22590D01*
X61525Y-22645D01*
X61525Y-22705D01*
X61525Y-23354D01*
X61548Y-23409D01*
X61590Y-23451D01*
X61645Y-23474D01*
X61705Y-23474D01*
X61800Y-23474D01*
X61800Y-24716D01*
X61795Y-24721D01*
X61778Y-24761D01*
X61778Y-24157D01*
X61763Y-24080D01*
X61763Y-24080D01*
X61726Y-24025D01*
X61726Y-23915D01*
X61677Y-23796D01*
X61585Y-23704D01*
X61477Y-23659D01*
X61477Y-22919D01*
X61474Y-22912D01*
X61474Y-19905D01*
X61402Y-19731D01*
X61269Y-19597D01*
X61094Y-19525D01*
X60905Y-19525D01*
X60731Y-19597D01*
X60597Y-19730D01*
X60525Y-19905D01*
X60525Y-20094D01*
X60597Y-20268D01*
X60730Y-20402D01*
X60905Y-20474D01*
X61094Y-20474D01*
X61268Y-20402D01*
X61402Y-20269D01*
X61474Y-20094D01*
X61474Y-19905D01*
X61474Y-22912D01*
X61410Y-22742D01*
X61394Y-22719D01*
X61319Y-22687D01*
X61312Y-22694D01*
X61312Y-22680D01*
X61280Y-22605D01*
X61108Y-22528D01*
X60919Y-22522D01*
X60742Y-22589D01*
X60719Y-22605D01*
X60687Y-22680D01*
X61000Y-22992D01*
X61312Y-22680D01*
X61312Y-22694D01*
X61007Y-23000D01*
X61319Y-23312D01*
X61394Y-23280D01*
X61471Y-23108D01*
X61477Y-22919D01*
X61477Y-23659D01*
X61466Y-23655D01*
X61337Y-23655D01*
X61226Y-23700D01*
X61185Y-23599D01*
X61093Y-23508D01*
X61015Y-23475D01*
X61080Y-23477D01*
X61257Y-23410D01*
X61280Y-23394D01*
X61312Y-23319D01*
X61000Y-23007D01*
X60992Y-23014D01*
X60992Y-23000D01*
X60680Y-22687D01*
X60605Y-22719D01*
X60528Y-22891D01*
X60522Y-23080D01*
X60589Y-23257D01*
X60605Y-23280D01*
X60680Y-23312D01*
X60992Y-23000D01*
X60992Y-23014D01*
X60687Y-23319D01*
X60719Y-23394D01*
X60861Y-23458D01*
X60845Y-23458D01*
X60725Y-23507D01*
X60634Y-23599D01*
X60584Y-23718D01*
X60584Y-23847D01*
X60633Y-23967D01*
X60709Y-24043D01*
X60709Y-24216D01*
X60724Y-24293D01*
X60768Y-24357D01*
X61063Y-24653D01*
X61063Y-25256D01*
X61030Y-25289D01*
X61030Y-25240D01*
X61015Y-25163D01*
X61015Y-25163D01*
X60972Y-25098D01*
X60801Y-24927D01*
X60801Y-24821D01*
X60752Y-24701D01*
X60660Y-24610D01*
X60541Y-24560D01*
X60474Y-24560D01*
X60474Y-19905D01*
X60402Y-19731D01*
X60269Y-19597D01*
X60094Y-19525D01*
X59905Y-19525D01*
X59731Y-19597D01*
X59597Y-19730D01*
X59525Y-19905D01*
X59525Y-20094D01*
X59597Y-20268D01*
X59730Y-20402D01*
X59905Y-20474D01*
X60094Y-20474D01*
X60268Y-20402D01*
X60402Y-20269D01*
X60474Y-20094D01*
X60474Y-19905D01*
X60474Y-24560D01*
X60412Y-24560D01*
X60292Y-24610D01*
X60201Y-24701D01*
X60151Y-24820D01*
X60151Y-24895D01*
X60077Y-24895D01*
X59957Y-24944D01*
X59866Y-25036D01*
X59816Y-25155D01*
X59816Y-25249D01*
X59742Y-25249D01*
X59623Y-25299D01*
X59531Y-25390D01*
X59482Y-25509D01*
X59482Y-25639D01*
X59483Y-25643D01*
X59474Y-25643D01*
X59474Y-19905D01*
X59402Y-19731D01*
X59269Y-19597D01*
X59094Y-19525D01*
X58905Y-19525D01*
X58731Y-19597D01*
X58597Y-19730D01*
X58525Y-19905D01*
X58525Y-20094D01*
X58597Y-20268D01*
X58730Y-20402D01*
X58905Y-20474D01*
X59094Y-20474D01*
X59268Y-20402D01*
X59402Y-20269D01*
X59474Y-20094D01*
X59474Y-19905D01*
X59474Y-25643D01*
X59368Y-25643D01*
X59249Y-25692D01*
X59157Y-25784D01*
X59108Y-25903D01*
X59108Y-25999D01*
X59104Y-25997D01*
X58975Y-25997D01*
X58855Y-26047D01*
X58764Y-26138D01*
X58714Y-26257D01*
X58714Y-26387D01*
X58763Y-26506D01*
X58855Y-26598D01*
X58974Y-26647D01*
X59081Y-26647D01*
X59292Y-26858D01*
X59292Y-28261D01*
X59243Y-28212D01*
X59123Y-28163D01*
X59073Y-28163D01*
X58570Y-27660D01*
X58570Y-27231D01*
X58606Y-27196D01*
X58655Y-27076D01*
X58655Y-26947D01*
X58606Y-26827D01*
X58515Y-26736D01*
X58474Y-26719D01*
X58474Y-22905D01*
X58474Y-19905D01*
X58402Y-19731D01*
X58269Y-19597D01*
X58094Y-19525D01*
X57905Y-19525D01*
X57731Y-19597D01*
X57597Y-19730D01*
X57525Y-19905D01*
X57525Y-20094D01*
X57597Y-20268D01*
X57730Y-20402D01*
X57905Y-20474D01*
X58094Y-20474D01*
X58268Y-20402D01*
X58402Y-20269D01*
X58474Y-20094D01*
X58474Y-19905D01*
X58474Y-22905D01*
X58402Y-22731D01*
X58269Y-22597D01*
X58094Y-22525D01*
X57905Y-22525D01*
X57731Y-22597D01*
X57597Y-22730D01*
X57525Y-22905D01*
X57525Y-23094D01*
X57597Y-23268D01*
X57730Y-23402D01*
X57905Y-23474D01*
X58094Y-23474D01*
X58268Y-23402D01*
X58402Y-23269D01*
X58474Y-23094D01*
X58474Y-22905D01*
X58474Y-26719D01*
X58395Y-26686D01*
X58266Y-26686D01*
X58146Y-26736D01*
X58055Y-26827D01*
X58005Y-26946D01*
X58005Y-27076D01*
X58055Y-27195D01*
X58090Y-27231D01*
X58090Y-27759D01*
X58108Y-27851D01*
X58161Y-27929D01*
X58734Y-28502D01*
X58733Y-28552D01*
X58783Y-28672D01*
X58874Y-28763D01*
X58994Y-28813D01*
X59123Y-28813D01*
X59197Y-28782D01*
X59167Y-28856D01*
X59167Y-28985D01*
X59216Y-29105D01*
X59307Y-29196D01*
X59427Y-29246D01*
X59556Y-29246D01*
X59675Y-29196D01*
X59685Y-29187D01*
X59685Y-30238D01*
X59682Y-30240D01*
X59590Y-30331D01*
X59541Y-30450D01*
X59541Y-30580D01*
X59590Y-30699D01*
X59681Y-30791D01*
X59801Y-30840D01*
X59930Y-30840D01*
X60049Y-30791D01*
X60059Y-30781D01*
X60059Y-32322D01*
X59593Y-32789D01*
X59486Y-32789D01*
X59367Y-32838D01*
X59275Y-32929D01*
X59226Y-33049D01*
X59226Y-33178D01*
X59275Y-33298D01*
X59366Y-33389D01*
X59486Y-33439D01*
X59615Y-33439D01*
X59735Y-33389D01*
X59826Y-33298D01*
X59876Y-33179D01*
X59876Y-33071D01*
X60401Y-32546D01*
X60401Y-32546D01*
X60444Y-32482D01*
X60444Y-32482D01*
X60447Y-32469D01*
X60459Y-32405D01*
X60459Y-32405D01*
X60459Y-28951D01*
X63418Y-31910D01*
X62881Y-31910D01*
X62806Y-31834D01*
X62686Y-31785D01*
X62557Y-31785D01*
X62438Y-31834D01*
X62346Y-31925D01*
X62297Y-32045D01*
X62297Y-32152D01*
X59593Y-34856D01*
X59486Y-34856D01*
X59367Y-34905D01*
X59275Y-34996D01*
X59226Y-35116D01*
X59226Y-35245D01*
X59275Y-35364D01*
X59366Y-35456D01*
X59454Y-35492D01*
X57474Y-35492D01*
X57474Y-19905D01*
X57402Y-19731D01*
X57269Y-19597D01*
X57094Y-19525D01*
X56905Y-19525D01*
X56731Y-19597D01*
X56597Y-19730D01*
X56525Y-19905D01*
X56525Y-20094D01*
X56537Y-20123D01*
X56406Y-20254D01*
X56471Y-20108D01*
X56477Y-19919D01*
X56410Y-19742D01*
X56394Y-19719D01*
X56319Y-19687D01*
X56312Y-19694D01*
X56312Y-19680D01*
X56280Y-19605D01*
X56108Y-19528D01*
X55919Y-19522D01*
X55742Y-19589D01*
X55719Y-19605D01*
X55687Y-19680D01*
X56000Y-19992D01*
X56312Y-19680D01*
X56312Y-19694D01*
X56007Y-20000D01*
X56012Y-20005D01*
X56005Y-20012D01*
X56000Y-20007D01*
X55992Y-20014D01*
X55992Y-20000D01*
X55680Y-19687D01*
X55605Y-19719D01*
X55528Y-19891D01*
X55522Y-20080D01*
X55589Y-20257D01*
X55605Y-20280D01*
X55680Y-20312D01*
X55992Y-20000D01*
X55992Y-20014D01*
X55687Y-20319D01*
X55719Y-20394D01*
X55891Y-20471D01*
X56080Y-20477D01*
X56246Y-20414D01*
X56128Y-20531D01*
X55474Y-20531D01*
X55474Y-19905D01*
X55402Y-19731D01*
X55269Y-19597D01*
X55094Y-19525D01*
X54905Y-19525D01*
X54731Y-19597D01*
X54597Y-19730D01*
X54525Y-19905D01*
X54525Y-20094D01*
X54597Y-20268D01*
X54730Y-20402D01*
X54905Y-20474D01*
X55094Y-20474D01*
X55268Y-20402D01*
X55402Y-20269D01*
X55474Y-20094D01*
X55474Y-19905D01*
X55474Y-20531D01*
X54474Y-20531D01*
X54474Y-20354D01*
X54474Y-20294D01*
X54474Y-19645D01*
X54451Y-19590D01*
X54409Y-19548D01*
X54354Y-19525D01*
X54294Y-19525D01*
X53645Y-19525D01*
X53590Y-19548D01*
X53548Y-19590D01*
X53525Y-19645D01*
X53525Y-19705D01*
X53525Y-20354D01*
X53548Y-20409D01*
X53590Y-20451D01*
X53645Y-20474D01*
X53705Y-20474D01*
X54354Y-20474D01*
X54409Y-20451D01*
X54451Y-20409D01*
X54474Y-20354D01*
X54474Y-20531D01*
X53803Y-20531D01*
X53711Y-20549D01*
X53633Y-20601D01*
X52262Y-21972D01*
X52262Y-20750D01*
X52070Y-20285D01*
X51715Y-19930D01*
X51252Y-19738D01*
X50750Y-19737D01*
X50285Y-19929D01*
X49930Y-20284D01*
X49738Y-20747D01*
X49737Y-21249D01*
X49929Y-21714D01*
X50284Y-22069D01*
X50747Y-22261D01*
X51249Y-22262D01*
X51714Y-22070D01*
X52069Y-21715D01*
X52261Y-21252D01*
X52262Y-20750D01*
X52262Y-21972D01*
X50779Y-23456D01*
X50727Y-23534D01*
X50708Y-23625D01*
X50708Y-24156D01*
X50474Y-24390D01*
X50474Y-23905D01*
X50402Y-23731D01*
X50269Y-23597D01*
X50094Y-23525D01*
X49905Y-23525D01*
X49731Y-23597D01*
X49597Y-23730D01*
X49525Y-23905D01*
X49525Y-24094D01*
X49597Y-24268D01*
X49730Y-24402D01*
X49905Y-24474D01*
X50094Y-24474D01*
X50268Y-24402D01*
X50402Y-24269D01*
X50474Y-24094D01*
X50474Y-23905D01*
X50474Y-24390D01*
X50340Y-24525D01*
X50294Y-24525D01*
X49645Y-24525D01*
X49590Y-24548D01*
X49548Y-24590D01*
X49525Y-24645D01*
X49525Y-24705D01*
X49525Y-25354D01*
X49548Y-25409D01*
X49590Y-25451D01*
X49645Y-25474D01*
X49705Y-25474D01*
X50354Y-25474D01*
X50409Y-25451D01*
X50451Y-25409D01*
X50474Y-25354D01*
X50474Y-25294D01*
X50474Y-25069D01*
X51118Y-24425D01*
X51118Y-24425D01*
X51149Y-24378D01*
X51170Y-24347D01*
X51170Y-24347D01*
X51188Y-24255D01*
X51188Y-23725D01*
X53902Y-21011D01*
X56228Y-21011D01*
X56320Y-20993D01*
X56398Y-20941D01*
X56876Y-20462D01*
X56905Y-20474D01*
X57094Y-20474D01*
X57268Y-20402D01*
X57402Y-20269D01*
X57474Y-20094D01*
X57474Y-19905D01*
X57474Y-35492D01*
X57474Y-35492D01*
X57474Y-23354D01*
X57474Y-23294D01*
X57474Y-22645D01*
X57451Y-22590D01*
X57409Y-22548D01*
X57354Y-22525D01*
X57294Y-22525D01*
X56645Y-22525D01*
X56590Y-22548D01*
X56548Y-22590D01*
X56525Y-22645D01*
X56525Y-22705D01*
X56525Y-23354D01*
X56548Y-23409D01*
X56590Y-23451D01*
X56645Y-23474D01*
X56705Y-23474D01*
X57354Y-23474D01*
X57409Y-23451D01*
X57451Y-23409D01*
X57474Y-23354D01*
X57474Y-35492D01*
X56490Y-35492D01*
X56490Y-28187D01*
X56441Y-28068D01*
X56349Y-27976D01*
X56230Y-27927D01*
X56100Y-27926D01*
X55981Y-27976D01*
X55905Y-28051D01*
X54099Y-28051D01*
X54098Y-28048D01*
X54007Y-27956D01*
X53887Y-27907D01*
X53758Y-27907D01*
X53638Y-27956D01*
X53547Y-28047D01*
X53497Y-28167D01*
X53497Y-28296D01*
X53547Y-28416D01*
X53638Y-28507D01*
X53757Y-28557D01*
X53887Y-28557D01*
X54006Y-28507D01*
X54062Y-28451D01*
X55905Y-28451D01*
X55981Y-28527D01*
X56100Y-28576D01*
X56229Y-28577D01*
X56349Y-28527D01*
X56440Y-28436D01*
X56490Y-28316D01*
X56490Y-28187D01*
X56490Y-35492D01*
X56470Y-35492D01*
X56470Y-29073D01*
X56421Y-28953D01*
X56330Y-28862D01*
X56210Y-28812D01*
X56081Y-28812D01*
X55961Y-28862D01*
X55885Y-28937D01*
X54062Y-28937D01*
X53987Y-28862D01*
X53868Y-28812D01*
X53738Y-28812D01*
X53619Y-28862D01*
X53527Y-28953D01*
X53478Y-29072D01*
X53478Y-29202D01*
X53527Y-29321D01*
X53618Y-29413D01*
X53738Y-29462D01*
X53867Y-29462D01*
X53987Y-29413D01*
X54062Y-29337D01*
X55886Y-29337D01*
X55961Y-29413D01*
X56080Y-29462D01*
X56210Y-29462D01*
X56329Y-29413D01*
X56421Y-29322D01*
X56470Y-29202D01*
X56470Y-29073D01*
X56470Y-35492D01*
X53433Y-35492D01*
X53163Y-35223D01*
X53163Y-35116D01*
X53114Y-34997D01*
X53022Y-34905D01*
X53008Y-34899D01*
X53058Y-34849D01*
X54645Y-34849D01*
X54721Y-34924D01*
X54840Y-34974D01*
X54969Y-34974D01*
X55089Y-34925D01*
X55180Y-34833D01*
X55230Y-34714D01*
X55230Y-34585D01*
X55181Y-34465D01*
X55089Y-34374D01*
X54970Y-34324D01*
X54841Y-34324D01*
X54721Y-34373D01*
X54645Y-34449D01*
X53058Y-34449D01*
X52983Y-34374D01*
X52864Y-34324D01*
X52734Y-34324D01*
X52615Y-34373D01*
X52523Y-34465D01*
X52474Y-34584D01*
X52474Y-34713D01*
X52523Y-34833D01*
X52614Y-34924D01*
X52629Y-34930D01*
X52563Y-34996D01*
X52513Y-35116D01*
X52513Y-35245D01*
X52562Y-35364D01*
X52654Y-35456D01*
X52773Y-35506D01*
X52880Y-35506D01*
X53208Y-35834D01*
X53273Y-35877D01*
X53350Y-35892D01*
X64738Y-35892D01*
X64669Y-35961D01*
X64667Y-35965D01*
X57834Y-35965D01*
X57758Y-35980D01*
X57693Y-36023D01*
X57163Y-36553D01*
X57094Y-36525D01*
X56905Y-36525D01*
X56731Y-36597D01*
X56597Y-36730D01*
X56525Y-36905D01*
X56525Y-37094D01*
X56597Y-37268D01*
X56730Y-37402D01*
X56855Y-37453D01*
X56477Y-37453D01*
X56477Y-36919D01*
X56410Y-36742D01*
X56394Y-36719D01*
X56319Y-36687D01*
X56312Y-36694D01*
X56312Y-36680D01*
X56280Y-36605D01*
X56108Y-36528D01*
X55919Y-36522D01*
X55742Y-36589D01*
X55719Y-36605D01*
X55687Y-36680D01*
X56000Y-36992D01*
X56312Y-36680D01*
X56312Y-36694D01*
X56007Y-37000D01*
X56319Y-37312D01*
X56394Y-37280D01*
X56471Y-37108D01*
X56477Y-36919D01*
X56477Y-37453D01*
X56142Y-37453D01*
X56257Y-37410D01*
X56280Y-37394D01*
X56312Y-37319D01*
X56000Y-37007D01*
X55992Y-37014D01*
X55992Y-37000D01*
X55680Y-36687D01*
X55605Y-36719D01*
X55528Y-36891D01*
X55522Y-37080D01*
X55589Y-37257D01*
X55605Y-37280D01*
X55680Y-37312D01*
X55992Y-37000D01*
X55992Y-37014D01*
X55687Y-37319D01*
X55719Y-37394D01*
X55851Y-37453D01*
X55144Y-37453D01*
X55268Y-37402D01*
X55402Y-37269D01*
X55474Y-37094D01*
X55474Y-36905D01*
X55402Y-36731D01*
X55269Y-36597D01*
X55094Y-36525D01*
X54905Y-36525D01*
X54731Y-36597D01*
X54597Y-36730D01*
X54525Y-36905D01*
X54525Y-37094D01*
X54597Y-37268D01*
X54730Y-37402D01*
X54855Y-37453D01*
X54405Y-37453D01*
X54409Y-37451D01*
X54451Y-37409D01*
X54474Y-37354D01*
X54474Y-37294D01*
X54474Y-36645D01*
X54451Y-36590D01*
X54409Y-36548D01*
X54354Y-36525D01*
X54294Y-36525D01*
X53645Y-36525D01*
X53590Y-36548D01*
X53548Y-36590D01*
X53525Y-36645D01*
X53525Y-36705D01*
X53525Y-37354D01*
X53548Y-37409D01*
X53590Y-37451D01*
X53594Y-37453D01*
X52262Y-37453D01*
X52262Y-35750D01*
X52120Y-35406D01*
X52120Y-33128D01*
X52070Y-33009D01*
X51995Y-32933D01*
X51995Y-32704D01*
X52070Y-32629D01*
X52120Y-32509D01*
X52120Y-32380D01*
X52070Y-32261D01*
X51979Y-32169D01*
X51860Y-32119D01*
X51730Y-32119D01*
X51611Y-32169D01*
X51519Y-32260D01*
X51470Y-32379D01*
X51470Y-32509D01*
X51519Y-32628D01*
X51595Y-32704D01*
X51595Y-32933D01*
X51519Y-33008D01*
X51470Y-33127D01*
X51470Y-33257D01*
X51519Y-33376D01*
X51610Y-33468D01*
X51730Y-33517D01*
X51859Y-33517D01*
X51979Y-33468D01*
X52070Y-33377D01*
X52120Y-33257D01*
X52120Y-33128D01*
X52120Y-35406D01*
X52070Y-35285D01*
X51715Y-34930D01*
X51252Y-34738D01*
X50750Y-34737D01*
X50474Y-34851D01*
X50474Y-31905D01*
X50402Y-31731D01*
X50269Y-31597D01*
X50094Y-31525D01*
X49905Y-31525D01*
X49731Y-31597D01*
X49597Y-31730D01*
X49525Y-31905D01*
X49525Y-32094D01*
X49597Y-32268D01*
X49730Y-32402D01*
X49905Y-32474D01*
X50094Y-32474D01*
X50268Y-32402D01*
X50402Y-32269D01*
X50474Y-32094D01*
X50474Y-31905D01*
X50474Y-34851D01*
X50474Y-34851D01*
X50474Y-33354D01*
X50474Y-33294D01*
X50474Y-32645D01*
X50451Y-32590D01*
X50409Y-32548D01*
X50354Y-32525D01*
X50294Y-32525D01*
X49645Y-32525D01*
X49590Y-32548D01*
X49548Y-32590D01*
X49525Y-32645D01*
X49525Y-32705D01*
X49525Y-33354D01*
X49548Y-33409D01*
X49590Y-33451D01*
X49645Y-33474D01*
X49705Y-33474D01*
X50354Y-33474D01*
X50409Y-33451D01*
X50451Y-33409D01*
X50474Y-33354D01*
X50474Y-34851D01*
X50285Y-34929D01*
X49930Y-35284D01*
X49738Y-35747D01*
X49737Y-36249D01*
X49929Y-36714D01*
X50284Y-37069D01*
X50747Y-37261D01*
X51249Y-37262D01*
X51714Y-37070D01*
X52069Y-36715D01*
X52261Y-36252D01*
X52262Y-35750D01*
X52262Y-37453D01*
X49443Y-37453D01*
X49443Y-19443D01*
X81627Y-19443D01*
X81627Y-37453D01*
X81627Y-37453D01*
G37*
G54D16*
X81627Y-37453D02*
X81262Y-37453D01*
X81262Y-35750D01*
X81262Y-20750D01*
X81070Y-20285D01*
X80715Y-19930D01*
X80252Y-19738D01*
X79750Y-19737D01*
X79285Y-19929D01*
X78930Y-20284D01*
X78738Y-20747D01*
X78737Y-21249D01*
X78929Y-21714D01*
X79284Y-22069D01*
X79747Y-22261D01*
X80249Y-22262D01*
X80714Y-22070D01*
X81069Y-21715D01*
X81261Y-21252D01*
X81262Y-20750D01*
X81262Y-35750D01*
X81070Y-35285D01*
X80715Y-34930D01*
X80477Y-34831D01*
X80477Y-27919D01*
X80410Y-27742D01*
X80394Y-27719D01*
X80319Y-27687D01*
X80007Y-28000D01*
X80319Y-28312D01*
X80394Y-28280D01*
X80471Y-28108D01*
X80477Y-27919D01*
X80477Y-34831D01*
X80474Y-34830D01*
X80474Y-31905D01*
X80474Y-30905D01*
X80402Y-30731D01*
X80269Y-30597D01*
X80094Y-30525D01*
X79905Y-30525D01*
X79836Y-30553D01*
X79711Y-30428D01*
X79711Y-30383D01*
X79730Y-30402D01*
X79905Y-30474D01*
X80094Y-30474D01*
X80268Y-30402D01*
X80402Y-30269D01*
X80474Y-30094D01*
X80474Y-29905D01*
X80402Y-29731D01*
X80269Y-29597D01*
X80094Y-29525D01*
X79905Y-29525D01*
X79731Y-29597D01*
X79711Y-29616D01*
X79711Y-29383D01*
X79730Y-29402D01*
X79905Y-29474D01*
X80094Y-29474D01*
X80268Y-29402D01*
X80402Y-29269D01*
X80474Y-29094D01*
X80474Y-28905D01*
X80402Y-28731D01*
X80269Y-28597D01*
X80094Y-28525D01*
X79905Y-28525D01*
X79731Y-28597D01*
X79711Y-28616D01*
X79711Y-28376D01*
X79719Y-28394D01*
X79891Y-28471D01*
X80080Y-28477D01*
X80257Y-28410D01*
X80280Y-28394D01*
X80312Y-28319D01*
X80000Y-28007D01*
X79994Y-28012D01*
X79987Y-28005D01*
X79992Y-28000D01*
X79987Y-27994D01*
X79994Y-27987D01*
X80000Y-27992D01*
X80312Y-27680D01*
X80280Y-27605D01*
X80108Y-27528D01*
X79919Y-27522D01*
X79742Y-27589D01*
X79719Y-27605D01*
X79711Y-27623D01*
X79711Y-27622D01*
X79699Y-27558D01*
X79696Y-27545D01*
X79696Y-27545D01*
X79653Y-27480D01*
X79613Y-27441D01*
X79613Y-27441D01*
X79285Y-27112D01*
X79285Y-27006D01*
X79236Y-26887D01*
X79144Y-26795D01*
X79025Y-26745D01*
X78896Y-26745D01*
X78776Y-26795D01*
X78685Y-26886D01*
X78635Y-27005D01*
X78635Y-27135D01*
X78684Y-27254D01*
X78776Y-27346D01*
X78895Y-27395D01*
X79002Y-27395D01*
X79132Y-27525D01*
X78645Y-27525D01*
X78590Y-27548D01*
X78548Y-27590D01*
X78525Y-27645D01*
X78525Y-27705D01*
X78525Y-27800D01*
X78279Y-27800D01*
X77474Y-26995D01*
X77474Y-19905D01*
X77402Y-19731D01*
X77269Y-19597D01*
X77094Y-19525D01*
X76905Y-19525D01*
X76731Y-19597D01*
X76597Y-19730D01*
X76525Y-19905D01*
X76525Y-20094D01*
X76597Y-20268D01*
X76730Y-20402D01*
X76905Y-20474D01*
X77094Y-20474D01*
X77268Y-20402D01*
X77402Y-20269D01*
X77474Y-20094D01*
X77474Y-19905D01*
X77474Y-26995D01*
X76976Y-26496D01*
X76911Y-26453D01*
X76834Y-26437D01*
X76474Y-26437D01*
X76474Y-19905D01*
X76402Y-19731D01*
X76269Y-19597D01*
X76094Y-19525D01*
X75905Y-19525D01*
X75731Y-19597D01*
X75597Y-19730D01*
X75525Y-19905D01*
X75525Y-20094D01*
X75597Y-20268D01*
X75730Y-20402D01*
X75800Y-20431D01*
X75800Y-20578D01*
X75675Y-20702D01*
X75569Y-20702D01*
X75474Y-20741D01*
X75474Y-19905D01*
X75402Y-19731D01*
X75269Y-19597D01*
X75094Y-19525D01*
X74905Y-19525D01*
X74731Y-19597D01*
X74597Y-19730D01*
X74525Y-19905D01*
X74525Y-20094D01*
X74597Y-20268D01*
X74730Y-20402D01*
X74800Y-20431D01*
X74800Y-20889D01*
X74612Y-21076D01*
X74506Y-21076D01*
X74387Y-21125D01*
X74295Y-21217D01*
X74245Y-21336D01*
X74245Y-21465D01*
X74295Y-21585D01*
X74386Y-21676D01*
X74505Y-21726D01*
X74635Y-21726D01*
X74754Y-21677D01*
X74846Y-21585D01*
X74895Y-21466D01*
X74895Y-21359D01*
X75141Y-21113D01*
X75184Y-21048D01*
X75200Y-20972D01*
X75200Y-20431D01*
X75268Y-20402D01*
X75402Y-20269D01*
X75474Y-20094D01*
X75474Y-19905D01*
X75474Y-20741D01*
X75450Y-20751D01*
X75358Y-20843D01*
X75308Y-20962D01*
X75308Y-21091D01*
X75358Y-21211D01*
X75449Y-21302D01*
X75568Y-21352D01*
X75698Y-21352D01*
X75817Y-21303D01*
X75909Y-21211D01*
X75958Y-21092D01*
X75958Y-20985D01*
X76141Y-20802D01*
X76141Y-20802D01*
X76184Y-20737D01*
X76200Y-20661D01*
X76200Y-20431D01*
X76268Y-20402D01*
X76402Y-20269D01*
X76474Y-20094D01*
X76474Y-19905D01*
X76474Y-26437D01*
X74968Y-26437D01*
X74892Y-26362D01*
X74773Y-26312D01*
X74644Y-26312D01*
X74524Y-26362D01*
X74433Y-26453D01*
X74383Y-26572D01*
X74383Y-26702D01*
X74432Y-26821D01*
X74524Y-26913D01*
X74643Y-26962D01*
X74773Y-26962D01*
X74892Y-26913D01*
X74968Y-26837D01*
X76751Y-26837D01*
X76817Y-26903D01*
X76691Y-26903D01*
X76572Y-26952D01*
X76480Y-27044D01*
X76430Y-27163D01*
X76430Y-27292D01*
X76480Y-27412D01*
X76555Y-27488D01*
X76555Y-32008D01*
X76480Y-32083D01*
X76430Y-32202D01*
X76430Y-32332D01*
X76480Y-32451D01*
X76571Y-32543D01*
X76690Y-32592D01*
X76820Y-32592D01*
X76939Y-32543D01*
X77031Y-32452D01*
X77080Y-32332D01*
X77080Y-32203D01*
X77031Y-32083D01*
X76955Y-32008D01*
X76955Y-27487D01*
X77031Y-27412D01*
X77080Y-27293D01*
X77080Y-27166D01*
X78055Y-28141D01*
X78120Y-28184D01*
X78196Y-28200D01*
X78525Y-28200D01*
X78525Y-28354D01*
X78548Y-28409D01*
X78590Y-28451D01*
X78645Y-28474D01*
X78705Y-28474D01*
X79311Y-28474D01*
X79311Y-28640D01*
X79269Y-28597D01*
X79094Y-28525D01*
X78905Y-28525D01*
X78731Y-28597D01*
X78597Y-28730D01*
X78525Y-28905D01*
X78525Y-29094D01*
X78597Y-29268D01*
X78730Y-29402D01*
X78905Y-29474D01*
X79094Y-29474D01*
X79268Y-29402D01*
X79311Y-29359D01*
X79311Y-29640D01*
X79269Y-29597D01*
X79094Y-29525D01*
X78905Y-29525D01*
X78731Y-29597D01*
X78597Y-29730D01*
X78525Y-29905D01*
X78525Y-30094D01*
X78597Y-30268D01*
X78730Y-30402D01*
X78905Y-30474D01*
X79094Y-30474D01*
X79268Y-30402D01*
X79311Y-30359D01*
X79311Y-30511D01*
X79327Y-30588D01*
X79370Y-30653D01*
X79553Y-30836D01*
X79525Y-30905D01*
X79525Y-31094D01*
X79597Y-31268D01*
X79730Y-31402D01*
X79905Y-31474D01*
X80094Y-31474D01*
X80268Y-31402D01*
X80402Y-31269D01*
X80474Y-31094D01*
X80474Y-30905D01*
X80474Y-31905D01*
X80402Y-31731D01*
X80269Y-31597D01*
X80094Y-31525D01*
X79905Y-31525D01*
X79731Y-31597D01*
X79597Y-31730D01*
X79525Y-31905D01*
X79525Y-32094D01*
X79597Y-32268D01*
X79730Y-32402D01*
X79905Y-32474D01*
X80094Y-32474D01*
X80268Y-32402D01*
X80402Y-32269D01*
X80474Y-32094D01*
X80474Y-31905D01*
X80474Y-34830D01*
X80252Y-34738D01*
X79750Y-34737D01*
X79285Y-34929D01*
X78930Y-35284D01*
X78738Y-35747D01*
X78737Y-36249D01*
X78929Y-36714D01*
X79284Y-37069D01*
X79747Y-37261D01*
X80249Y-37262D01*
X80714Y-37070D01*
X81069Y-36715D01*
X81261Y-36252D01*
X81262Y-35750D01*
X81262Y-37453D01*
X77144Y-37453D01*
X77268Y-37402D01*
X77402Y-37269D01*
X77474Y-37094D01*
X77474Y-36905D01*
X77402Y-36731D01*
X77269Y-36597D01*
X77094Y-36525D01*
X76905Y-36525D01*
X76731Y-36597D01*
X76687Y-36641D01*
X76687Y-35982D01*
X76637Y-35863D01*
X76546Y-35771D01*
X76427Y-35722D01*
X76320Y-35722D01*
X75804Y-35206D01*
X75821Y-35167D01*
X75821Y-35037D01*
X75771Y-34918D01*
X75680Y-34827D01*
X75560Y-34777D01*
X75431Y-34777D01*
X75312Y-34826D01*
X75220Y-34918D01*
X75171Y-35037D01*
X75171Y-35166D01*
X75220Y-35286D01*
X75311Y-35377D01*
X75431Y-35427D01*
X75459Y-35427D01*
X76037Y-36005D01*
X76037Y-36111D01*
X76086Y-36231D01*
X76177Y-36322D01*
X76297Y-36372D01*
X76426Y-36372D01*
X76546Y-36322D01*
X76637Y-36231D01*
X76687Y-36112D01*
X76687Y-35982D01*
X76687Y-36641D01*
X76597Y-36730D01*
X76525Y-36905D01*
X76525Y-37094D01*
X76597Y-37268D01*
X76730Y-37402D01*
X76855Y-37453D01*
X76144Y-37453D01*
X76268Y-37402D01*
X76402Y-37269D01*
X76474Y-37094D01*
X76474Y-36905D01*
X76402Y-36731D01*
X76269Y-36597D01*
X76094Y-36525D01*
X75905Y-36525D01*
X75731Y-36597D01*
X75597Y-36730D01*
X75525Y-36905D01*
X75525Y-37094D01*
X75597Y-37268D01*
X75730Y-37402D01*
X75855Y-37453D01*
X75144Y-37453D01*
X75268Y-37402D01*
X75402Y-37269D01*
X75474Y-37094D01*
X75474Y-36905D01*
X75402Y-36731D01*
X75269Y-36597D01*
X75094Y-36525D01*
X74905Y-36525D01*
X74731Y-36597D01*
X74597Y-36730D01*
X74525Y-36905D01*
X74525Y-37094D01*
X74597Y-37268D01*
X74730Y-37402D01*
X74855Y-37453D01*
X74144Y-37453D01*
X74268Y-37402D01*
X74402Y-37269D01*
X74474Y-37094D01*
X74474Y-36905D01*
X74402Y-36731D01*
X74269Y-36597D01*
X74094Y-36525D01*
X73905Y-36525D01*
X73731Y-36597D01*
X73597Y-36730D01*
X73525Y-36905D01*
X73525Y-37094D01*
X73597Y-37268D01*
X73730Y-37402D01*
X73855Y-37453D01*
X73144Y-37453D01*
X73268Y-37402D01*
X73402Y-37269D01*
X73474Y-37094D01*
X73474Y-36905D01*
X73402Y-36731D01*
X73269Y-36597D01*
X73094Y-36525D01*
X72905Y-36525D01*
X72731Y-36597D01*
X72597Y-36730D01*
X72525Y-36905D01*
X72525Y-37094D01*
X72597Y-37268D01*
X72730Y-37402D01*
X72855Y-37453D01*
X72144Y-37453D01*
X72268Y-37402D01*
X72402Y-37269D01*
X72474Y-37094D01*
X72474Y-36905D01*
X72402Y-36731D01*
X72269Y-36597D01*
X72094Y-36525D01*
X71905Y-36525D01*
X71731Y-36597D01*
X71597Y-36730D01*
X71525Y-36905D01*
X71525Y-37094D01*
X71597Y-37268D01*
X71730Y-37402D01*
X71855Y-37453D01*
X71144Y-37453D01*
X71268Y-37402D01*
X71402Y-37269D01*
X71474Y-37094D01*
X71474Y-36905D01*
X71402Y-36731D01*
X71269Y-36597D01*
X71094Y-36525D01*
X70905Y-36525D01*
X70731Y-36597D01*
X70597Y-36730D01*
X70525Y-36905D01*
X70525Y-37094D01*
X70597Y-37268D01*
X70730Y-37402D01*
X70855Y-37453D01*
X70144Y-37453D01*
X70268Y-37402D01*
X70402Y-37269D01*
X70474Y-37094D01*
X70474Y-36905D01*
X70402Y-36731D01*
X70269Y-36597D01*
X70094Y-36525D01*
X69905Y-36525D01*
X69836Y-36553D01*
X68834Y-35551D01*
X68769Y-35508D01*
X68692Y-35492D01*
X59647Y-35492D01*
X59735Y-35456D01*
X59826Y-35365D01*
X59876Y-35246D01*
X59876Y-35138D01*
X62579Y-32435D01*
X62686Y-32435D01*
X62805Y-32385D01*
X62881Y-32310D01*
X74350Y-32310D01*
X75748Y-33708D01*
X76457Y-34417D01*
X76457Y-34417D01*
X76521Y-34460D01*
X76521Y-34460D01*
X76534Y-34462D01*
X76598Y-34475D01*
X77283Y-34475D01*
X77358Y-34550D01*
X77478Y-34600D01*
X77607Y-34600D01*
X77727Y-34551D01*
X77818Y-34459D01*
X77868Y-34340D01*
X77868Y-34211D01*
X77818Y-34091D01*
X77727Y-34000D01*
X77608Y-33950D01*
X77478Y-33950D01*
X77359Y-33999D01*
X77283Y-34075D01*
X76681Y-34075D01*
X76522Y-33917D01*
X76559Y-33924D01*
X78330Y-33924D01*
X78407Y-33909D01*
X78472Y-33865D01*
X79141Y-33196D01*
X79184Y-33131D01*
X79200Y-33055D01*
X79200Y-32431D01*
X79268Y-32402D01*
X79402Y-32269D01*
X79474Y-32094D01*
X79474Y-31905D01*
X79474Y-30905D01*
X79402Y-30731D01*
X79269Y-30597D01*
X79094Y-30525D01*
X78905Y-30525D01*
X78731Y-30597D01*
X78597Y-30730D01*
X78525Y-30905D01*
X78525Y-31094D01*
X78597Y-31268D01*
X78730Y-31402D01*
X78905Y-31474D01*
X79094Y-31474D01*
X79268Y-31402D01*
X79402Y-31269D01*
X79474Y-31094D01*
X79474Y-30905D01*
X79474Y-31905D01*
X79402Y-31731D01*
X79269Y-31597D01*
X79094Y-31525D01*
X78905Y-31525D01*
X78731Y-31597D01*
X78597Y-31730D01*
X78525Y-31905D01*
X78525Y-32094D01*
X78597Y-32268D01*
X78730Y-32402D01*
X78800Y-32431D01*
X78800Y-32972D01*
X78247Y-33524D01*
X76641Y-33524D01*
X76136Y-33018D01*
X76136Y-28896D01*
X76086Y-28776D01*
X75995Y-28685D01*
X75875Y-28635D01*
X75746Y-28635D01*
X75627Y-28684D01*
X75535Y-28776D01*
X75486Y-28895D01*
X75485Y-29002D01*
X74665Y-29823D01*
X74642Y-29823D01*
X74679Y-29734D01*
X74679Y-29604D01*
X74630Y-29485D01*
X74554Y-29409D01*
X74554Y-28724D01*
X74541Y-28660D01*
X74539Y-28647D01*
X74539Y-28647D01*
X74495Y-28582D01*
X74495Y-28582D01*
X74338Y-28425D01*
X74338Y-28425D01*
X74338Y-28425D01*
X74227Y-28315D01*
X74289Y-28340D01*
X74396Y-28340D01*
X74738Y-28682D01*
X74737Y-28788D01*
X74787Y-28908D01*
X74878Y-28999D01*
X74998Y-29049D01*
X75127Y-29049D01*
X75246Y-29000D01*
X75338Y-28908D01*
X75387Y-28789D01*
X75388Y-28660D01*
X75338Y-28540D01*
X75247Y-28449D01*
X75127Y-28399D01*
X75020Y-28399D01*
X74679Y-28057D01*
X74679Y-27951D01*
X74630Y-27831D01*
X74538Y-27740D01*
X74419Y-27690D01*
X74289Y-27690D01*
X74170Y-27740D01*
X74078Y-27831D01*
X74029Y-27950D01*
X74029Y-28080D01*
X74078Y-28199D01*
X74100Y-28221D01*
X74039Y-28209D01*
X69825Y-28209D01*
X69792Y-28195D01*
X72310Y-25676D01*
X72354Y-25611D01*
X72354Y-25611D01*
X72356Y-25599D01*
X72369Y-25535D01*
X72369Y-25535D01*
X72369Y-24275D01*
X72354Y-24199D01*
X72310Y-24134D01*
X70952Y-22775D01*
X70933Y-22762D01*
X71673Y-22762D01*
X72218Y-23308D01*
X72218Y-23414D01*
X72267Y-23534D01*
X72358Y-23625D01*
X72478Y-23675D01*
X72607Y-23675D01*
X72727Y-23626D01*
X72818Y-23534D01*
X72868Y-23415D01*
X72868Y-23340D01*
X72962Y-23340D01*
X73081Y-23291D01*
X73172Y-23200D01*
X73222Y-23080D01*
X73222Y-23045D01*
X73336Y-23045D01*
X73455Y-22996D01*
X73547Y-22904D01*
X73596Y-22785D01*
X73596Y-22691D01*
X73670Y-22691D01*
X73790Y-22641D01*
X73881Y-22550D01*
X73931Y-22431D01*
X73931Y-22301D01*
X73881Y-22182D01*
X73820Y-22120D01*
X73828Y-22120D01*
X73947Y-22070D01*
X74039Y-21979D01*
X74088Y-21860D01*
X74088Y-21753D01*
X74141Y-21700D01*
X74184Y-21635D01*
X74184Y-21635D01*
X74200Y-21559D01*
X74200Y-20431D01*
X74268Y-20402D01*
X74402Y-20269D01*
X74474Y-20094D01*
X74474Y-19905D01*
X74402Y-19731D01*
X74269Y-19597D01*
X74094Y-19525D01*
X73905Y-19525D01*
X73731Y-19597D01*
X73597Y-19730D01*
X73525Y-19905D01*
X73525Y-20094D01*
X73597Y-20268D01*
X73730Y-20402D01*
X73800Y-20431D01*
X73800Y-21470D01*
X73699Y-21470D01*
X73579Y-21519D01*
X73488Y-21610D01*
X73474Y-21643D01*
X73474Y-19905D01*
X73402Y-19731D01*
X73269Y-19597D01*
X73094Y-19525D01*
X72905Y-19525D01*
X72731Y-19597D01*
X72597Y-19730D01*
X72525Y-19905D01*
X72525Y-20094D01*
X72597Y-20268D01*
X72730Y-20402D01*
X72905Y-20474D01*
X73094Y-20474D01*
X73268Y-20402D01*
X73402Y-20269D01*
X73474Y-20094D01*
X73474Y-19905D01*
X73474Y-21643D01*
X73438Y-21730D01*
X73438Y-21859D01*
X73478Y-21955D01*
X73216Y-21693D01*
X73151Y-21649D01*
X73074Y-21634D01*
X72474Y-21634D01*
X72474Y-19905D01*
X72402Y-19731D01*
X72269Y-19597D01*
X72094Y-19525D01*
X71905Y-19525D01*
X71731Y-19597D01*
X71597Y-19730D01*
X71525Y-19905D01*
X71525Y-20094D01*
X71597Y-20268D01*
X71730Y-20402D01*
X71905Y-20474D01*
X72094Y-20474D01*
X72268Y-20402D01*
X72402Y-20269D01*
X72474Y-20094D01*
X72474Y-19905D01*
X72474Y-21634D01*
X71474Y-21634D01*
X71474Y-19905D01*
X71402Y-19731D01*
X71269Y-19597D01*
X71094Y-19525D01*
X70905Y-19525D01*
X70731Y-19597D01*
X70597Y-19730D01*
X70525Y-19905D01*
X70525Y-20094D01*
X70597Y-20268D01*
X70730Y-20402D01*
X70905Y-20474D01*
X71094Y-20474D01*
X71268Y-20402D01*
X71402Y-20269D01*
X71474Y-20094D01*
X71474Y-19905D01*
X71474Y-21634D01*
X70474Y-21634D01*
X70474Y-19905D01*
X70402Y-19731D01*
X70269Y-19597D01*
X70094Y-19525D01*
X69905Y-19525D01*
X69731Y-19597D01*
X69597Y-19730D01*
X69525Y-19905D01*
X69525Y-20094D01*
X69597Y-20268D01*
X69730Y-20402D01*
X69800Y-20431D01*
X69800Y-20712D01*
X69708Y-20803D01*
X69659Y-20923D01*
X69659Y-21052D01*
X69708Y-21172D01*
X69799Y-21263D01*
X69919Y-21313D01*
X70048Y-21313D01*
X70168Y-21263D01*
X70259Y-21172D01*
X70309Y-21053D01*
X70309Y-20923D01*
X70259Y-20804D01*
X70200Y-20744D01*
X70200Y-20431D01*
X70268Y-20402D01*
X70402Y-20269D01*
X70474Y-20094D01*
X70474Y-19905D01*
X70474Y-21634D01*
X69474Y-21634D01*
X69474Y-19905D01*
X69402Y-19731D01*
X69269Y-19597D01*
X69094Y-19525D01*
X68905Y-19525D01*
X68731Y-19597D01*
X68597Y-19730D01*
X68525Y-19905D01*
X68525Y-20094D01*
X68597Y-20268D01*
X68730Y-20402D01*
X68800Y-20431D01*
X68800Y-20907D01*
X68796Y-20909D01*
X68704Y-21000D01*
X68655Y-21120D01*
X68655Y-21249D01*
X68704Y-21368D01*
X68795Y-21460D01*
X68915Y-21509D01*
X69044Y-21510D01*
X69164Y-21460D01*
X69255Y-21369D01*
X69305Y-21249D01*
X69305Y-21120D01*
X69255Y-21001D01*
X69200Y-20945D01*
X69200Y-20431D01*
X69268Y-20402D01*
X69402Y-20269D01*
X69474Y-20094D01*
X69474Y-19905D01*
X69474Y-21634D01*
X68262Y-21634D01*
X68271Y-21625D01*
X68321Y-21505D01*
X68321Y-21376D01*
X68271Y-21257D01*
X68200Y-21185D01*
X68200Y-20431D01*
X68268Y-20402D01*
X68402Y-20269D01*
X68474Y-20094D01*
X68474Y-19905D01*
X68402Y-19731D01*
X68269Y-19597D01*
X68094Y-19525D01*
X67905Y-19525D01*
X67731Y-19597D01*
X67597Y-19730D01*
X67525Y-19905D01*
X67525Y-20094D01*
X67597Y-20268D01*
X67730Y-20402D01*
X67800Y-20431D01*
X67800Y-21177D01*
X67720Y-21256D01*
X67671Y-21376D01*
X67671Y-21505D01*
X67720Y-21624D01*
X67730Y-21634D01*
X67523Y-21634D01*
X67474Y-21644D01*
X67474Y-19905D01*
X67402Y-19731D01*
X67269Y-19597D01*
X67094Y-19525D01*
X66905Y-19525D01*
X66731Y-19597D01*
X66597Y-19730D01*
X66525Y-19905D01*
X66525Y-20094D01*
X66597Y-20268D01*
X66730Y-20402D01*
X66800Y-20431D01*
X66800Y-21349D01*
X66768Y-21362D01*
X66677Y-21453D01*
X66627Y-21572D01*
X66627Y-21702D01*
X66677Y-21821D01*
X66768Y-21913D01*
X66887Y-21962D01*
X67017Y-21962D01*
X67136Y-21913D01*
X67228Y-21822D01*
X67277Y-21702D01*
X67277Y-21573D01*
X67228Y-21453D01*
X67200Y-21425D01*
X67200Y-20431D01*
X67268Y-20402D01*
X67402Y-20269D01*
X67474Y-20094D01*
X67474Y-19905D01*
X67474Y-21644D01*
X67447Y-21649D01*
X67382Y-21693D01*
X66719Y-22356D01*
X66612Y-22356D01*
X66493Y-22405D01*
X66401Y-22496D01*
X66352Y-22616D01*
X66352Y-22745D01*
X66401Y-22864D01*
X66492Y-22956D01*
X66612Y-23006D01*
X66741Y-23006D01*
X66861Y-22956D01*
X66903Y-22914D01*
X66955Y-22966D01*
X66913Y-23008D01*
X66864Y-23127D01*
X66863Y-23257D01*
X66913Y-23376D01*
X66914Y-23378D01*
X66887Y-23389D01*
X66795Y-23481D01*
X66745Y-23600D01*
X66745Y-23729D01*
X66795Y-23849D01*
X66886Y-23940D01*
X67005Y-23990D01*
X67135Y-23990D01*
X67254Y-23941D01*
X67346Y-23849D01*
X67373Y-23782D01*
X67999Y-23157D01*
X67999Y-23157D01*
X68003Y-23151D01*
X68015Y-23179D01*
X68087Y-23251D01*
X68035Y-23303D01*
X67986Y-23423D01*
X67985Y-23552D01*
X68035Y-23672D01*
X68107Y-23744D01*
X68055Y-23795D01*
X68005Y-23915D01*
X68005Y-24044D01*
X68055Y-24164D01*
X68117Y-24226D01*
X68055Y-24288D01*
X68005Y-24407D01*
X68005Y-24536D01*
X68055Y-24656D01*
X68117Y-24718D01*
X68055Y-24780D01*
X68005Y-24899D01*
X68005Y-25028D01*
X68055Y-25148D01*
X68126Y-25220D01*
X68055Y-25292D01*
X68005Y-25411D01*
X68005Y-25540D01*
X68055Y-25660D01*
X68146Y-25751D01*
X68265Y-25801D01*
X68353Y-25801D01*
X69068Y-26516D01*
X69068Y-26623D01*
X69118Y-26742D01*
X69184Y-26809D01*
X69170Y-26814D01*
X69094Y-26890D01*
X68945Y-26890D01*
X66200Y-24145D01*
X66200Y-20431D01*
X66268Y-20402D01*
X66402Y-20269D01*
X66474Y-20094D01*
X66474Y-19905D01*
X66402Y-19731D01*
X66269Y-19597D01*
X66094Y-19525D01*
X65905Y-19525D01*
X65731Y-19597D01*
X65597Y-19730D01*
X65525Y-19905D01*
X65525Y-20094D01*
X65597Y-20268D01*
X65730Y-20402D01*
X65800Y-20431D01*
X65800Y-24139D01*
X65200Y-23539D01*
X65200Y-20431D01*
X65268Y-20402D01*
X65402Y-20269D01*
X65474Y-20094D01*
X65474Y-19905D01*
X65402Y-19731D01*
X65269Y-19597D01*
X65094Y-19525D01*
X64905Y-19525D01*
X64731Y-19597D01*
X64597Y-19730D01*
X64525Y-19905D01*
X64525Y-20094D01*
X64597Y-20268D01*
X64730Y-20402D01*
X64800Y-20431D01*
X64800Y-23622D01*
X64815Y-23698D01*
X64858Y-23763D01*
X68694Y-27599D01*
X68694Y-27607D01*
X68744Y-27727D01*
X68835Y-27818D01*
X68954Y-27868D01*
X69084Y-27868D01*
X69203Y-27818D01*
X69295Y-27727D01*
X69344Y-27608D01*
X69344Y-27478D01*
X69318Y-27415D01*
X69418Y-27415D01*
X69538Y-27366D01*
X69629Y-27274D01*
X69679Y-27155D01*
X69679Y-27026D01*
X69630Y-26906D01*
X69563Y-26840D01*
X69577Y-26834D01*
X69669Y-26743D01*
X69675Y-26729D01*
X69760Y-26814D01*
X69879Y-26864D01*
X70009Y-26864D01*
X70128Y-26815D01*
X70220Y-26723D01*
X70269Y-26604D01*
X70269Y-26475D01*
X70220Y-26355D01*
X70129Y-26264D01*
X70114Y-26258D01*
X70148Y-26244D01*
X70239Y-26152D01*
X70249Y-26128D01*
X70259Y-26152D01*
X70351Y-26243D01*
X70470Y-26293D01*
X70599Y-26293D01*
X70719Y-26244D01*
X70810Y-26152D01*
X70860Y-26033D01*
X70860Y-25904D01*
X70811Y-25784D01*
X70719Y-25693D01*
X70695Y-25683D01*
X70719Y-25673D01*
X70810Y-25581D01*
X70820Y-25557D01*
X70830Y-25581D01*
X70921Y-25672D01*
X71041Y-25722D01*
X71170Y-25722D01*
X71290Y-25673D01*
X71381Y-25581D01*
X71431Y-25462D01*
X71431Y-25333D01*
X71381Y-25213D01*
X71290Y-25122D01*
X71171Y-25072D01*
X71064Y-25072D01*
X68846Y-22854D01*
X68781Y-22811D01*
X68704Y-22796D01*
X68550Y-22796D01*
X68517Y-22762D01*
X69786Y-22762D01*
X69757Y-22832D01*
X69757Y-22962D01*
X69806Y-23081D01*
X69898Y-23172D01*
X70017Y-23222D01*
X70072Y-23222D01*
X70072Y-23336D01*
X70121Y-23455D01*
X70213Y-23547D01*
X70332Y-23596D01*
X70439Y-23596D01*
X71733Y-24889D01*
X71733Y-25373D01*
X68228Y-28878D01*
X67976Y-28878D01*
X67899Y-28893D01*
X67834Y-28937D01*
X67782Y-28989D01*
X67675Y-28989D01*
X67556Y-29039D01*
X67464Y-29130D01*
X67415Y-29250D01*
X67415Y-29379D01*
X67464Y-29498D01*
X67555Y-29590D01*
X67675Y-29639D01*
X67804Y-29640D01*
X67833Y-29627D01*
X67877Y-29735D01*
X67969Y-29826D01*
X68088Y-29876D01*
X68217Y-29876D01*
X68337Y-29826D01*
X68428Y-29735D01*
X68478Y-29616D01*
X68478Y-29508D01*
X69356Y-28630D01*
X69373Y-28672D01*
X69448Y-28746D01*
X69406Y-28763D01*
X69315Y-28855D01*
X69265Y-28974D01*
X69265Y-29103D01*
X69314Y-29223D01*
X69406Y-29314D01*
X69525Y-29364D01*
X69632Y-29364D01*
X70433Y-30165D01*
X70498Y-30208D01*
X70574Y-30223D01*
X74050Y-30223D01*
X74029Y-30273D01*
X74029Y-30402D01*
X74078Y-30522D01*
X74169Y-30613D01*
X74289Y-30663D01*
X74396Y-30663D01*
X74606Y-30873D01*
X74671Y-30917D01*
X74748Y-30932D01*
X75118Y-30932D01*
X75193Y-31007D01*
X75313Y-31057D01*
X75441Y-31057D01*
X75407Y-31139D01*
X75407Y-31269D01*
X75456Y-31388D01*
X75547Y-31480D01*
X75667Y-31529D01*
X75796Y-31529D01*
X75916Y-31480D01*
X76007Y-31389D01*
X76057Y-31269D01*
X76057Y-31140D01*
X76007Y-31020D01*
X75932Y-30945D01*
X75932Y-30086D01*
X76007Y-30011D01*
X76057Y-29891D01*
X76057Y-29762D01*
X76007Y-29642D01*
X75916Y-29551D01*
X75797Y-29501D01*
X75667Y-29501D01*
X75548Y-29551D01*
X75456Y-29642D01*
X75407Y-29761D01*
X75407Y-29891D01*
X75456Y-30010D01*
X75532Y-30086D01*
X75532Y-30444D01*
X75442Y-30407D01*
X75313Y-30407D01*
X75194Y-30456D01*
X75118Y-30532D01*
X74830Y-30532D01*
X74679Y-30380D01*
X74679Y-30274D01*
X74658Y-30223D01*
X74748Y-30223D01*
X74824Y-30208D01*
X74889Y-30165D01*
X75768Y-29285D01*
X75875Y-29285D01*
X75994Y-29236D01*
X76086Y-29144D01*
X76135Y-29025D01*
X76136Y-28896D01*
X76136Y-33018D01*
X75702Y-32585D01*
X75703Y-32478D01*
X75653Y-32359D01*
X75562Y-32267D01*
X75442Y-32218D01*
X75313Y-32218D01*
X75194Y-32267D01*
X75102Y-32358D01*
X75062Y-32456D01*
X74574Y-31968D01*
X74509Y-31925D01*
X74433Y-31910D01*
X74374Y-31910D01*
X67634Y-31910D01*
X67671Y-31820D01*
X67671Y-31756D01*
X67694Y-31765D01*
X67824Y-31766D01*
X67943Y-31716D01*
X68035Y-31625D01*
X68058Y-31569D01*
X68067Y-31578D01*
X68187Y-31628D01*
X68316Y-31628D01*
X68435Y-31578D01*
X68527Y-31487D01*
X68576Y-31368D01*
X68577Y-31238D01*
X68527Y-31119D01*
X68436Y-31027D01*
X68316Y-30978D01*
X68209Y-30978D01*
X68176Y-30945D01*
X68111Y-30901D01*
X68035Y-30886D01*
X67409Y-30886D01*
X65518Y-28995D01*
X65518Y-28625D01*
X65503Y-28549D01*
X65503Y-28549D01*
X65489Y-28527D01*
X65460Y-28484D01*
X65460Y-28484D01*
X64692Y-27716D01*
X64692Y-22011D01*
X64676Y-21935D01*
X64633Y-21870D01*
X64200Y-21436D01*
X64200Y-20431D01*
X64268Y-20402D01*
X64402Y-20269D01*
X64474Y-20094D01*
X64474Y-19905D01*
X64402Y-19731D01*
X64269Y-19597D01*
X64094Y-19525D01*
X63905Y-19525D01*
X63731Y-19597D01*
X63597Y-19730D01*
X63525Y-19905D01*
X63525Y-20094D01*
X63597Y-20268D01*
X63730Y-20402D01*
X63800Y-20431D01*
X63800Y-21519D01*
X63815Y-21596D01*
X63858Y-21661D01*
X64292Y-22094D01*
X64292Y-22139D01*
X64243Y-22090D01*
X64123Y-22041D01*
X63994Y-22041D01*
X63875Y-22090D01*
X63783Y-22181D01*
X63734Y-22301D01*
X63734Y-22415D01*
X63620Y-22415D01*
X63501Y-22464D01*
X63474Y-22490D01*
X63474Y-19905D01*
X63402Y-19731D01*
X63269Y-19597D01*
X63094Y-19525D01*
X62905Y-19525D01*
X62731Y-19597D01*
X62597Y-19730D01*
X62525Y-19905D01*
X62525Y-20094D01*
X62597Y-20268D01*
X62730Y-20402D01*
X62905Y-20474D01*
X63094Y-20474D01*
X63268Y-20402D01*
X63402Y-20269D01*
X63474Y-20094D01*
X63474Y-19905D01*
X63474Y-22490D01*
X63409Y-22555D01*
X63360Y-22675D01*
X63360Y-22730D01*
X63266Y-22730D01*
X63146Y-22779D01*
X63055Y-22870D01*
X63005Y-22990D01*
X63005Y-23119D01*
X63055Y-23238D01*
X63130Y-23314D01*
X63130Y-23562D01*
X62474Y-24218D01*
X62474Y-19905D01*
X62402Y-19731D01*
X62269Y-19597D01*
X62094Y-19525D01*
X61905Y-19525D01*
X61731Y-19597D01*
X61597Y-19730D01*
X61525Y-19905D01*
X61525Y-20094D01*
X61597Y-20268D01*
X61730Y-20402D01*
X61905Y-20474D01*
X62094Y-20474D01*
X62268Y-20402D01*
X62402Y-20269D01*
X62474Y-20094D01*
X62474Y-19905D01*
X62474Y-24218D01*
X62421Y-24271D01*
X62378Y-24336D01*
X62362Y-24413D01*
X62362Y-24626D01*
X62307Y-24682D01*
X62255Y-24630D01*
X62200Y-24607D01*
X62200Y-23474D01*
X62354Y-23474D01*
X62409Y-23451D01*
X62451Y-23409D01*
X62474Y-23354D01*
X62474Y-23294D01*
X62474Y-22645D01*
X62451Y-22590D01*
X62409Y-22548D01*
X62354Y-22525D01*
X62294Y-22525D01*
X61645Y-22525D01*
X61590Y-22548D01*
X61548Y-22590D01*
X61525Y-22645D01*
X61525Y-22705D01*
X61525Y-23354D01*
X61548Y-23409D01*
X61590Y-23451D01*
X61645Y-23474D01*
X61705Y-23474D01*
X61800Y-23474D01*
X61800Y-24716D01*
X61795Y-24721D01*
X61778Y-24761D01*
X61778Y-24157D01*
X61763Y-24080D01*
X61763Y-24080D01*
X61726Y-24025D01*
X61726Y-23915D01*
X61677Y-23796D01*
X61585Y-23704D01*
X61477Y-23659D01*
X61477Y-22919D01*
X61474Y-22912D01*
X61474Y-19905D01*
X61402Y-19731D01*
X61269Y-19597D01*
X61094Y-19525D01*
X60905Y-19525D01*
X60731Y-19597D01*
X60597Y-19730D01*
X60525Y-19905D01*
X60525Y-20094D01*
X60597Y-20268D01*
X60730Y-20402D01*
X60905Y-20474D01*
X61094Y-20474D01*
X61268Y-20402D01*
X61402Y-20269D01*
X61474Y-20094D01*
X61474Y-19905D01*
X61474Y-22912D01*
X61410Y-22742D01*
X61394Y-22719D01*
X61319Y-22687D01*
X61312Y-22694D01*
X61312Y-22680D01*
X61280Y-22605D01*
X61108Y-22528D01*
X60919Y-22522D01*
X60742Y-22589D01*
X60719Y-22605D01*
X60687Y-22680D01*
X61000Y-22992D01*
X61312Y-22680D01*
X61312Y-22694D01*
X61007Y-23000D01*
X61319Y-23312D01*
X61394Y-23280D01*
X61471Y-23108D01*
X61477Y-22919D01*
X61477Y-23659D01*
X61466Y-23655D01*
X61337Y-23655D01*
X61226Y-23700D01*
X61185Y-23599D01*
X61093Y-23508D01*
X61015Y-23475D01*
X61080Y-23477D01*
X61257Y-23410D01*
X61280Y-23394D01*
X61312Y-23319D01*
X61000Y-23007D01*
X60992Y-23014D01*
X60992Y-23000D01*
X60680Y-22687D01*
X60605Y-22719D01*
X60528Y-22891D01*
X60522Y-23080D01*
X60589Y-23257D01*
X60605Y-23280D01*
X60680Y-23312D01*
X60992Y-23000D01*
X60992Y-23014D01*
X60687Y-23319D01*
X60719Y-23394D01*
X60861Y-23458D01*
X60845Y-23458D01*
X60725Y-23507D01*
X60634Y-23599D01*
X60584Y-23718D01*
X60584Y-23847D01*
X60633Y-23967D01*
X60709Y-24043D01*
X60709Y-24216D01*
X60724Y-24293D01*
X60768Y-24357D01*
X61063Y-24653D01*
X61063Y-25256D01*
X61030Y-25289D01*
X61030Y-25240D01*
X61015Y-25163D01*
X61015Y-25163D01*
X60972Y-25098D01*
X60801Y-24927D01*
X60801Y-24821D01*
X60752Y-24701D01*
X60660Y-24610D01*
X60541Y-24560D01*
X60474Y-24560D01*
X60474Y-19905D01*
X60402Y-19731D01*
X60269Y-19597D01*
X60094Y-19525D01*
X59905Y-19525D01*
X59731Y-19597D01*
X59597Y-19730D01*
X59525Y-19905D01*
X59525Y-20094D01*
X59597Y-20268D01*
X59730Y-20402D01*
X59905Y-20474D01*
X60094Y-20474D01*
X60268Y-20402D01*
X60402Y-20269D01*
X60474Y-20094D01*
X60474Y-19905D01*
X60474Y-24560D01*
X60412Y-24560D01*
X60292Y-24610D01*
X60201Y-24701D01*
X60151Y-24820D01*
X60151Y-24895D01*
X60077Y-24895D01*
X59957Y-24944D01*
X59866Y-25036D01*
X59816Y-25155D01*
X59816Y-25249D01*
X59742Y-25249D01*
X59623Y-25299D01*
X59531Y-25390D01*
X59482Y-25509D01*
X59482Y-25639D01*
X59483Y-25643D01*
X59474Y-25643D01*
X59474Y-19905D01*
X59402Y-19731D01*
X59269Y-19597D01*
X59094Y-19525D01*
X58905Y-19525D01*
X58731Y-19597D01*
X58597Y-19730D01*
X58525Y-19905D01*
X58525Y-20094D01*
X58597Y-20268D01*
X58730Y-20402D01*
X58905Y-20474D01*
X59094Y-20474D01*
X59268Y-20402D01*
X59402Y-20269D01*
X59474Y-20094D01*
X59474Y-19905D01*
X59474Y-25643D01*
X59368Y-25643D01*
X59249Y-25692D01*
X59157Y-25784D01*
X59108Y-25903D01*
X59108Y-25999D01*
X59104Y-25997D01*
X58975Y-25997D01*
X58855Y-26047D01*
X58764Y-26138D01*
X58714Y-26257D01*
X58714Y-26387D01*
X58763Y-26506D01*
X58855Y-26598D01*
X58974Y-26647D01*
X59081Y-26647D01*
X59292Y-26858D01*
X59292Y-28261D01*
X59243Y-28212D01*
X59123Y-28163D01*
X59073Y-28163D01*
X58570Y-27660D01*
X58570Y-27231D01*
X58606Y-27196D01*
X58655Y-27076D01*
X58655Y-26947D01*
X58606Y-26827D01*
X58515Y-26736D01*
X58474Y-26719D01*
X58474Y-22905D01*
X58474Y-19905D01*
X58402Y-19731D01*
X58269Y-19597D01*
X58094Y-19525D01*
X57905Y-19525D01*
X57731Y-19597D01*
X57597Y-19730D01*
X57525Y-19905D01*
X57525Y-20094D01*
X57597Y-20268D01*
X57730Y-20402D01*
X57905Y-20474D01*
X58094Y-20474D01*
X58268Y-20402D01*
X58402Y-20269D01*
X58474Y-20094D01*
X58474Y-19905D01*
X58474Y-22905D01*
X58402Y-22731D01*
X58269Y-22597D01*
X58094Y-22525D01*
X57905Y-22525D01*
X57731Y-22597D01*
X57597Y-22730D01*
X57525Y-22905D01*
X57525Y-23094D01*
X57597Y-23268D01*
X57730Y-23402D01*
X57905Y-23474D01*
X58094Y-23474D01*
X58268Y-23402D01*
X58402Y-23269D01*
X58474Y-23094D01*
X58474Y-22905D01*
X58474Y-26719D01*
X58395Y-26686D01*
X58266Y-26686D01*
X58146Y-26736D01*
X58055Y-26827D01*
X58005Y-26946D01*
X58005Y-27076D01*
X58055Y-27195D01*
X58090Y-27231D01*
X58090Y-27759D01*
X58108Y-27851D01*
X58161Y-27929D01*
X58734Y-28502D01*
X58733Y-28552D01*
X58783Y-28672D01*
X58874Y-28763D01*
X58994Y-28813D01*
X59123Y-28813D01*
X59197Y-28782D01*
X59167Y-28856D01*
X59167Y-28985D01*
X59216Y-29105D01*
X59307Y-29196D01*
X59427Y-29246D01*
X59556Y-29246D01*
X59675Y-29196D01*
X59685Y-29187D01*
X59685Y-30238D01*
X59682Y-30240D01*
X59590Y-30331D01*
X59541Y-30450D01*
X59541Y-30580D01*
X59590Y-30699D01*
X59681Y-30791D01*
X59801Y-30840D01*
X59930Y-30840D01*
X60049Y-30791D01*
X60059Y-30781D01*
X60059Y-32322D01*
X59593Y-32789D01*
X59486Y-32789D01*
X59367Y-32838D01*
X59275Y-32929D01*
X59226Y-33049D01*
X59226Y-33178D01*
X59275Y-33298D01*
X59366Y-33389D01*
X59486Y-33439D01*
X59615Y-33439D01*
X59735Y-33389D01*
X59826Y-33298D01*
X59876Y-33179D01*
X59876Y-33071D01*
X60401Y-32546D01*
X60401Y-32546D01*
X60444Y-32482D01*
X60444Y-32482D01*
X60447Y-32469D01*
X60459Y-32405D01*
X60459Y-32405D01*
X60459Y-28951D01*
X63418Y-31910D01*
X62881Y-31910D01*
X62806Y-31834D01*
X62686Y-31785D01*
X62557Y-31785D01*
X62438Y-31834D01*
X62346Y-31925D01*
X62297Y-32045D01*
X62297Y-32152D01*
X59593Y-34856D01*
X59486Y-34856D01*
X59367Y-34905D01*
X59275Y-34996D01*
X59226Y-35116D01*
X59226Y-35245D01*
X59275Y-35364D01*
X59366Y-35456D01*
X59454Y-35492D01*
X57474Y-35492D01*
X57474Y-19905D01*
X57402Y-19731D01*
X57269Y-19597D01*
X57094Y-19525D01*
X56905Y-19525D01*
X56731Y-19597D01*
X56597Y-19730D01*
X56525Y-19905D01*
X56525Y-20094D01*
X56537Y-20123D01*
X56406Y-20254D01*
X56471Y-20108D01*
X56477Y-19919D01*
X56410Y-19742D01*
X56394Y-19719D01*
X56319Y-19687D01*
X56312Y-19694D01*
X56312Y-19680D01*
X56280Y-19605D01*
X56108Y-19528D01*
X55919Y-19522D01*
X55742Y-19589D01*
X55719Y-19605D01*
X55687Y-19680D01*
X56000Y-19992D01*
X56312Y-19680D01*
X56312Y-19694D01*
X56007Y-20000D01*
X56012Y-20005D01*
X56005Y-20012D01*
X56000Y-20007D01*
X55992Y-20014D01*
X55992Y-20000D01*
X55680Y-19687D01*
X55605Y-19719D01*
X55528Y-19891D01*
X55522Y-20080D01*
X55589Y-20257D01*
X55605Y-20280D01*
X55680Y-20312D01*
X55992Y-20000D01*
X55992Y-20014D01*
X55687Y-20319D01*
X55719Y-20394D01*
X55891Y-20471D01*
X56080Y-20477D01*
X56246Y-20414D01*
X56128Y-20531D01*
X55474Y-20531D01*
X55474Y-19905D01*
X55402Y-19731D01*
X55269Y-19597D01*
X55094Y-19525D01*
X54905Y-19525D01*
X54731Y-19597D01*
X54597Y-19730D01*
X54525Y-19905D01*
X54525Y-20094D01*
X54597Y-20268D01*
X54730Y-20402D01*
X54905Y-20474D01*
X55094Y-20474D01*
X55268Y-20402D01*
X55402Y-20269D01*
X55474Y-20094D01*
X55474Y-19905D01*
X55474Y-20531D01*
X54474Y-20531D01*
X54474Y-20354D01*
X54474Y-20294D01*
X54474Y-19645D01*
X54451Y-19590D01*
X54409Y-19548D01*
X54354Y-19525D01*
X54294Y-19525D01*
X53645Y-19525D01*
X53590Y-19548D01*
X53548Y-19590D01*
X53525Y-19645D01*
X53525Y-19705D01*
X53525Y-20354D01*
X53548Y-20409D01*
X53590Y-20451D01*
X53645Y-20474D01*
X53705Y-20474D01*
X54354Y-20474D01*
X54409Y-20451D01*
X54451Y-20409D01*
X54474Y-20354D01*
X54474Y-20531D01*
X53803Y-20531D01*
X53711Y-20549D01*
X53633Y-20601D01*
X52262Y-21972D01*
X52262Y-20750D01*
X52070Y-20285D01*
X51715Y-19930D01*
X51252Y-19738D01*
X50750Y-19737D01*
X50285Y-19929D01*
X49930Y-20284D01*
X49738Y-20747D01*
X49737Y-21249D01*
X49929Y-21714D01*
X50284Y-22069D01*
X50747Y-22261D01*
X51249Y-22262D01*
X51714Y-22070D01*
X52069Y-21715D01*
X52261Y-21252D01*
X52262Y-20750D01*
X52262Y-21972D01*
X50779Y-23456D01*
X50727Y-23534D01*
X50708Y-23625D01*
X50708Y-24156D01*
X50474Y-24390D01*
X50474Y-23905D01*
X50402Y-23731D01*
X50269Y-23597D01*
X50094Y-23525D01*
X49905Y-23525D01*
X49731Y-23597D01*
X49597Y-23730D01*
X49525Y-23905D01*
X49525Y-24094D01*
X49597Y-24268D01*
X49730Y-24402D01*
X49905Y-24474D01*
X50094Y-24474D01*
X50268Y-24402D01*
X50402Y-24269D01*
X50474Y-24094D01*
X50474Y-23905D01*
X50474Y-24390D01*
X50340Y-24525D01*
X50294Y-24525D01*
X49645Y-24525D01*
X49590Y-24548D01*
X49548Y-24590D01*
X49525Y-24645D01*
X49525Y-24705D01*
X49525Y-25354D01*
X49548Y-25409D01*
X49590Y-25451D01*
X49645Y-25474D01*
X49705Y-25474D01*
X50354Y-25474D01*
X50409Y-25451D01*
X50451Y-25409D01*
X50474Y-25354D01*
X50474Y-25294D01*
X50474Y-25069D01*
X51118Y-24425D01*
X51118Y-24425D01*
X51149Y-24378D01*
X51170Y-24347D01*
X51170Y-24347D01*
X51188Y-24255D01*
X51188Y-23725D01*
X53902Y-21011D01*
X56228Y-21011D01*
X56320Y-20993D01*
X56398Y-20941D01*
X56876Y-20462D01*
X56905Y-20474D01*
X57094Y-20474D01*
X57268Y-20402D01*
X57402Y-20269D01*
X57474Y-20094D01*
X57474Y-19905D01*
X57474Y-35492D01*
X57474Y-35492D01*
X57474Y-23354D01*
X57474Y-23294D01*
X57474Y-22645D01*
X57451Y-22590D01*
X57409Y-22548D01*
X57354Y-22525D01*
X57294Y-22525D01*
X56645Y-22525D01*
X56590Y-22548D01*
X56548Y-22590D01*
X56525Y-22645D01*
X56525Y-22705D01*
X56525Y-23354D01*
X56548Y-23409D01*
X56590Y-23451D01*
X56645Y-23474D01*
X56705Y-23474D01*
X57354Y-23474D01*
X57409Y-23451D01*
X57451Y-23409D01*
X57474Y-23354D01*
X57474Y-35492D01*
X56490Y-35492D01*
X56490Y-28187D01*
X56441Y-28068D01*
X56349Y-27976D01*
X56230Y-27927D01*
X56100Y-27926D01*
X55981Y-27976D01*
X55905Y-28051D01*
X54099Y-28051D01*
X54098Y-28048D01*
X54007Y-27956D01*
X53887Y-27907D01*
X53758Y-27907D01*
X53638Y-27956D01*
X53547Y-28047D01*
X53497Y-28167D01*
X53497Y-28296D01*
X53547Y-28416D01*
X53638Y-28507D01*
X53757Y-28557D01*
X53887Y-28557D01*
X54006Y-28507D01*
X54062Y-28451D01*
X55905Y-28451D01*
X55981Y-28527D01*
X56100Y-28576D01*
X56229Y-28577D01*
X56349Y-28527D01*
X56440Y-28436D01*
X56490Y-28316D01*
X56490Y-28187D01*
X56490Y-35492D01*
X56470Y-35492D01*
X56470Y-29073D01*
X56421Y-28953D01*
X56330Y-28862D01*
X56210Y-28812D01*
X56081Y-28812D01*
X55961Y-28862D01*
X55885Y-28937D01*
X54062Y-28937D01*
X53987Y-28862D01*
X53868Y-28812D01*
X53738Y-28812D01*
X53619Y-28862D01*
X53527Y-28953D01*
X53478Y-29072D01*
X53478Y-29202D01*
X53527Y-29321D01*
X53618Y-29413D01*
X53738Y-29462D01*
X53867Y-29462D01*
X53987Y-29413D01*
X54062Y-29337D01*
X55886Y-29337D01*
X55961Y-29413D01*
X56080Y-29462D01*
X56210Y-29462D01*
X56329Y-29413D01*
X56421Y-29322D01*
X56470Y-29202D01*
X56470Y-29073D01*
X56470Y-35492D01*
X53433Y-35492D01*
X53163Y-35223D01*
X53163Y-35116D01*
X53114Y-34997D01*
X53022Y-34905D01*
X53008Y-34899D01*
X53058Y-34849D01*
X54645Y-34849D01*
X54721Y-34924D01*
X54840Y-34974D01*
X54969Y-34974D01*
X55089Y-34925D01*
X55180Y-34833D01*
X55230Y-34714D01*
X55230Y-34585D01*
X55181Y-34465D01*
X55089Y-34374D01*
X54970Y-34324D01*
X54841Y-34324D01*
X54721Y-34373D01*
X54645Y-34449D01*
X53058Y-34449D01*
X52983Y-34374D01*
X52864Y-34324D01*
X52734Y-34324D01*
X52615Y-34373D01*
X52523Y-34465D01*
X52474Y-34584D01*
X52474Y-34713D01*
X52523Y-34833D01*
X52614Y-34924D01*
X52629Y-34930D01*
X52563Y-34996D01*
X52513Y-35116D01*
X52513Y-35245D01*
X52562Y-35364D01*
X52654Y-35456D01*
X52773Y-35506D01*
X52880Y-35506D01*
X53208Y-35834D01*
X53273Y-35877D01*
X53350Y-35892D01*
X64738Y-35892D01*
X64669Y-35961D01*
X64667Y-35965D01*
X57834Y-35965D01*
X57758Y-35980D01*
X57693Y-36023D01*
X57163Y-36553D01*
X57094Y-36525D01*
X56905Y-36525D01*
X56731Y-36597D01*
X56597Y-36730D01*
X56525Y-36905D01*
X56525Y-37094D01*
X56597Y-37268D01*
X56730Y-37402D01*
X56855Y-37453D01*
X56477Y-37453D01*
X56477Y-36919D01*
X56410Y-36742D01*
X56394Y-36719D01*
X56319Y-36687D01*
X56312Y-36694D01*
X56312Y-36680D01*
X56280Y-36605D01*
X56108Y-36528D01*
X55919Y-36522D01*
X55742Y-36589D01*
X55719Y-36605D01*
X55687Y-36680D01*
X56000Y-36992D01*
X56312Y-36680D01*
X56312Y-36694D01*
X56007Y-37000D01*
X56319Y-37312D01*
X56394Y-37280D01*
X56471Y-37108D01*
X56477Y-36919D01*
X56477Y-37453D01*
X56142Y-37453D01*
X56257Y-37410D01*
X56280Y-37394D01*
X56312Y-37319D01*
X56000Y-37007D01*
X55992Y-37014D01*
X55992Y-37000D01*
X55680Y-36687D01*
X55605Y-36719D01*
X55528Y-36891D01*
X55522Y-37080D01*
X55589Y-37257D01*
X55605Y-37280D01*
X55680Y-37312D01*
X55992Y-37000D01*
X55992Y-37014D01*
X55687Y-37319D01*
X55719Y-37394D01*
X55851Y-37453D01*
X55144Y-37453D01*
X55268Y-37402D01*
X55402Y-37269D01*
X55474Y-37094D01*
X55474Y-36905D01*
X55402Y-36731D01*
X55269Y-36597D01*
X55094Y-36525D01*
X54905Y-36525D01*
X54731Y-36597D01*
X54597Y-36730D01*
X54525Y-36905D01*
X54525Y-37094D01*
X54597Y-37268D01*
X54730Y-37402D01*
X54855Y-37453D01*
X54405Y-37453D01*
X54409Y-37451D01*
X54451Y-37409D01*
X54474Y-37354D01*
X54474Y-37294D01*
X54474Y-36645D01*
X54451Y-36590D01*
X54409Y-36548D01*
X54354Y-36525D01*
X54294Y-36525D01*
X53645Y-36525D01*
X53590Y-36548D01*
X53548Y-36590D01*
X53525Y-36645D01*
X53525Y-36705D01*
X53525Y-37354D01*
X53548Y-37409D01*
X53590Y-37451D01*
X53594Y-37453D01*
X52262Y-37453D01*
X52262Y-35750D01*
X52120Y-35406D01*
X52120Y-33128D01*
X52070Y-33009D01*
X51995Y-32933D01*
X51995Y-32704D01*
X52070Y-32629D01*
X52120Y-32509D01*
X52120Y-32380D01*
X52070Y-32261D01*
X51979Y-32169D01*
X51860Y-32119D01*
X51730Y-32119D01*
X51611Y-32169D01*
X51519Y-32260D01*
X51470Y-32379D01*
X51470Y-32509D01*
X51519Y-32628D01*
X51595Y-32704D01*
X51595Y-32933D01*
X51519Y-33008D01*
X51470Y-33127D01*
X51470Y-33257D01*
X51519Y-33376D01*
X51610Y-33468D01*
X51730Y-33517D01*
X51859Y-33517D01*
X51979Y-33468D01*
X52070Y-33377D01*
X52120Y-33257D01*
X52120Y-33128D01*
X52120Y-35406D01*
X52070Y-35285D01*
X51715Y-34930D01*
X51252Y-34738D01*
X50750Y-34737D01*
X50474Y-34851D01*
X50474Y-31905D01*
X50402Y-31731D01*
X50269Y-31597D01*
X50094Y-31525D01*
X49905Y-31525D01*
X49731Y-31597D01*
X49597Y-31730D01*
X49525Y-31905D01*
X49525Y-32094D01*
X49597Y-32268D01*
X49730Y-32402D01*
X49905Y-32474D01*
X50094Y-32474D01*
X50268Y-32402D01*
X50402Y-32269D01*
X50474Y-32094D01*
X50474Y-31905D01*
X50474Y-34851D01*
X50474Y-34851D01*
X50474Y-33354D01*
X50474Y-33294D01*
X50474Y-32645D01*
X50451Y-32590D01*
X50409Y-32548D01*
X50354Y-32525D01*
X50294Y-32525D01*
X49645Y-32525D01*
X49590Y-32548D01*
X49548Y-32590D01*
X49525Y-32645D01*
X49525Y-32705D01*
X49525Y-33354D01*
X49548Y-33409D01*
X49590Y-33451D01*
X49645Y-33474D01*
X49705Y-33474D01*
X50354Y-33474D01*
X50409Y-33451D01*
X50451Y-33409D01*
X50474Y-33354D01*
X50474Y-34851D01*
X50285Y-34929D01*
X49930Y-35284D01*
X49738Y-35747D01*
X49737Y-36249D01*
X49929Y-36714D01*
X50284Y-37069D01*
X50747Y-37261D01*
X51249Y-37262D01*
X51714Y-37070D01*
X52069Y-36715D01*
X52261Y-36252D01*
X52262Y-35750D01*
X52262Y-37453D01*
X49443Y-37453D01*
X49443Y-19443D01*
X81627Y-19443D01*
X81627Y-37453D01*
M02*
