%FSLAX34Y34*%
G04 Gerber Fmt 3.4, Leading zero omitted, Abs format*
G04 (created by PCBNEW (2013-10-23 BZR 4410)-product) date Thu 24 Oct 2013 09:27:40 PM EDT*
%MOIN*%
G01*
G70*
G90*
G04 APERTURE LIST*
%ADD10C,0.005906*%
%ADD11C,0.003937*%
%ADD12R,0.057087X0.039370*%
%ADD13R,0.039370X0.057087*%
%ADD14R,0.041339X0.068898*%
%ADD15C,0.222441*%
%ADD16R,0.064961X0.064961*%
%ADD17C,0.064961*%
%ADD18R,0.070866X0.043307*%
%ADD19R,0.051181X0.023622*%
%ADD20R,0.070866X0.035433*%
%ADD21R,0.070866X0.125984*%
%ADD22R,0.096457X0.082677*%
%ADD23R,0.074803X0.015748*%
%ADD24R,0.055118X0.062992*%
%ADD25R,0.074803X0.070866*%
%ADD26R,0.074803X0.074803*%
%ADD27C,0.035000*%
%ADD28C,0.010000*%
%ADD29C,0.018000*%
G04 APERTURE END LIST*
G54D10*
G54D11*
X82000Y-19000D02*
X49000Y-19000D01*
X82000Y-38000D02*
X82000Y-19000D01*
X49000Y-38000D02*
X82000Y-38000D01*
X49000Y-19000D02*
X49000Y-38000D01*
G54D12*
X76362Y-24393D03*
X76362Y-23645D03*
G54D13*
X53228Y-30019D03*
X52480Y-30019D03*
X53228Y-27362D03*
X52480Y-27362D03*
G54D12*
X63370Y-31283D03*
X63370Y-32031D03*
G54D10*
G36*
X65884Y-25727D02*
X65481Y-25323D01*
X65759Y-25045D01*
X66163Y-25449D01*
X65884Y-25727D01*
X65884Y-25727D01*
G37*
G36*
X66413Y-25198D02*
X66010Y-24794D01*
X66288Y-24516D01*
X66692Y-24920D01*
X66413Y-25198D01*
X66413Y-25198D01*
G37*
G36*
X62440Y-27686D02*
X62036Y-28089D01*
X61758Y-27811D01*
X62161Y-27407D01*
X62440Y-27686D01*
X62440Y-27686D01*
G37*
G36*
X61911Y-27157D02*
X61507Y-27560D01*
X61229Y-27282D01*
X61632Y-26878D01*
X61911Y-27157D01*
X61911Y-27157D01*
G37*
G54D13*
X55633Y-35102D03*
X56381Y-35102D03*
X60200Y-35102D03*
X60948Y-35102D03*
G54D10*
G36*
X68492Y-29723D02*
X68896Y-29319D01*
X69174Y-29598D01*
X68771Y-30001D01*
X68492Y-29723D01*
X68492Y-29723D01*
G37*
G36*
X69021Y-30252D02*
X69425Y-29848D01*
X69703Y-30127D01*
X69300Y-30530D01*
X69021Y-30252D01*
X69021Y-30252D01*
G37*
G36*
X61898Y-29319D02*
X62302Y-29723D01*
X62023Y-30001D01*
X61620Y-29598D01*
X61898Y-29319D01*
X61898Y-29319D01*
G37*
G36*
X61369Y-29848D02*
X61773Y-30252D01*
X61495Y-30530D01*
X61091Y-30127D01*
X61369Y-29848D01*
X61369Y-29848D01*
G37*
G54D13*
X58901Y-35102D03*
X58153Y-35102D03*
X63468Y-35102D03*
X62720Y-35102D03*
G54D12*
X57169Y-25476D03*
X57169Y-24728D03*
X56185Y-25476D03*
X56185Y-24728D03*
G54D14*
X54314Y-22937D03*
X55496Y-22937D03*
G54D15*
X80000Y-21000D03*
X80000Y-36000D03*
X51000Y-36000D03*
X51000Y-21000D03*
G54D16*
X50000Y-33000D03*
G54D17*
X50000Y-32000D03*
G54D16*
X57000Y-23000D03*
G54D17*
X58000Y-23000D03*
G54D16*
X50000Y-25000D03*
G54D17*
X50000Y-24000D03*
G54D16*
X62000Y-23000D03*
G54D17*
X61000Y-23000D03*
G54D16*
X79000Y-28000D03*
G54D17*
X80000Y-28000D03*
X79000Y-29000D03*
X80000Y-29000D03*
X79000Y-30000D03*
X80000Y-30000D03*
X79000Y-31000D03*
X80000Y-31000D03*
X79000Y-32000D03*
X80000Y-32000D03*
G54D16*
X54000Y-20000D03*
G54D17*
X55000Y-20000D03*
X56000Y-20000D03*
X57000Y-20000D03*
X58000Y-20000D03*
X59000Y-20000D03*
X60000Y-20000D03*
X61000Y-20000D03*
X62000Y-20000D03*
X63000Y-20000D03*
X64000Y-20000D03*
X65000Y-20000D03*
X66000Y-20000D03*
X67000Y-20000D03*
X68000Y-20000D03*
X69000Y-20000D03*
X70000Y-20000D03*
X71000Y-20000D03*
X72000Y-20000D03*
X73000Y-20000D03*
X74000Y-20000D03*
X75000Y-20000D03*
X76000Y-20000D03*
X77000Y-20000D03*
G54D16*
X54000Y-37000D03*
G54D17*
X55000Y-37000D03*
X56000Y-37000D03*
X57000Y-37000D03*
X58000Y-37000D03*
X59000Y-37000D03*
X60000Y-37000D03*
X61000Y-37000D03*
X62000Y-37000D03*
X63000Y-37000D03*
X64000Y-37000D03*
X65000Y-37000D03*
X66000Y-37000D03*
X67000Y-37000D03*
X68000Y-37000D03*
X69000Y-37000D03*
X70000Y-37000D03*
X71000Y-37000D03*
X72000Y-37000D03*
X73000Y-37000D03*
X74000Y-37000D03*
X75000Y-37000D03*
X76000Y-37000D03*
X77000Y-37000D03*
G54D13*
X52480Y-29133D03*
X53228Y-29133D03*
X52480Y-28248D03*
X53228Y-28248D03*
X52464Y-31795D03*
X53212Y-31795D03*
X53212Y-30909D03*
X52464Y-30909D03*
G54D10*
G36*
X67823Y-30353D02*
X68227Y-29949D01*
X68505Y-30228D01*
X68102Y-30631D01*
X67823Y-30353D01*
X67823Y-30353D01*
G37*
G36*
X68352Y-30882D02*
X68756Y-30478D01*
X69034Y-30756D01*
X68630Y-31160D01*
X68352Y-30882D01*
X68352Y-30882D01*
G37*
G54D13*
X76381Y-29826D03*
X77129Y-29826D03*
X76381Y-28015D03*
X77129Y-28015D03*
X76381Y-31637D03*
X77129Y-31637D03*
X76381Y-28921D03*
X77129Y-28921D03*
X76381Y-30732D03*
X77129Y-30732D03*
X53311Y-22937D03*
X52562Y-22937D03*
G54D18*
X77779Y-23271D03*
X80220Y-23271D03*
X77779Y-24728D03*
X80220Y-24728D03*
G54D19*
X52425Y-32799D03*
X52425Y-33547D03*
X53251Y-33173D03*
G54D20*
X52641Y-24196D03*
X52641Y-25102D03*
X52641Y-26007D03*
G54D21*
X55003Y-25102D03*
G54D10*
G36*
X63032Y-29109D02*
X62949Y-29026D01*
X63353Y-28622D01*
X63436Y-28706D01*
X63032Y-29109D01*
X63032Y-29109D01*
G37*
G36*
X63172Y-29249D02*
X63088Y-29165D01*
X63492Y-28762D01*
X63575Y-28845D01*
X63172Y-29249D01*
X63172Y-29249D01*
G37*
G36*
X63311Y-29388D02*
X63227Y-29304D01*
X63631Y-28901D01*
X63714Y-28984D01*
X63311Y-29388D01*
X63311Y-29388D01*
G37*
G36*
X63450Y-29527D02*
X63367Y-29444D01*
X63770Y-29040D01*
X63854Y-29123D01*
X63450Y-29527D01*
X63450Y-29527D01*
G37*
G36*
X63589Y-29666D02*
X63506Y-29583D01*
X63909Y-29179D01*
X63993Y-29263D01*
X63589Y-29666D01*
X63589Y-29666D01*
G37*
G36*
X63728Y-29805D02*
X63645Y-29722D01*
X64049Y-29318D01*
X64132Y-29402D01*
X63728Y-29805D01*
X63728Y-29805D01*
G37*
G36*
X63868Y-29945D02*
X63784Y-29861D01*
X64188Y-29457D01*
X64271Y-29541D01*
X63868Y-29945D01*
X63868Y-29945D01*
G37*
G36*
X64007Y-30084D02*
X63923Y-30000D01*
X64327Y-29597D01*
X64410Y-29680D01*
X64007Y-30084D01*
X64007Y-30084D01*
G37*
G36*
X64146Y-30223D02*
X64062Y-30140D01*
X64466Y-29736D01*
X64550Y-29819D01*
X64146Y-30223D01*
X64146Y-30223D01*
G37*
G36*
X64285Y-30362D02*
X64202Y-30279D01*
X64605Y-29875D01*
X64689Y-29959D01*
X64285Y-30362D01*
X64285Y-30362D01*
G37*
G36*
X64424Y-30501D02*
X64341Y-30418D01*
X64745Y-30014D01*
X64828Y-30098D01*
X64424Y-30501D01*
X64424Y-30501D01*
G37*
G36*
X64564Y-30641D02*
X64480Y-30557D01*
X64884Y-30153D01*
X64967Y-30237D01*
X64564Y-30641D01*
X64564Y-30641D01*
G37*
G36*
X65719Y-30641D02*
X65315Y-30237D01*
X65399Y-30153D01*
X65802Y-30557D01*
X65719Y-30641D01*
X65719Y-30641D01*
G37*
G36*
X65858Y-30501D02*
X65454Y-30098D01*
X65538Y-30014D01*
X65942Y-30418D01*
X65858Y-30501D01*
X65858Y-30501D01*
G37*
G36*
X65997Y-30362D02*
X65594Y-29959D01*
X65677Y-29875D01*
X66081Y-30279D01*
X65997Y-30362D01*
X65997Y-30362D01*
G37*
G36*
X66136Y-30223D02*
X65733Y-29819D01*
X65816Y-29736D01*
X66220Y-30140D01*
X66136Y-30223D01*
X66136Y-30223D01*
G37*
G36*
X66276Y-30084D02*
X65872Y-29680D01*
X65956Y-29597D01*
X66359Y-30000D01*
X66276Y-30084D01*
X66276Y-30084D01*
G37*
G36*
X66415Y-29945D02*
X66011Y-29541D01*
X66095Y-29457D01*
X66498Y-29861D01*
X66415Y-29945D01*
X66415Y-29945D01*
G37*
G36*
X66554Y-29805D02*
X66150Y-29402D01*
X66234Y-29318D01*
X66638Y-29722D01*
X66554Y-29805D01*
X66554Y-29805D01*
G37*
G36*
X66693Y-29666D02*
X66290Y-29263D01*
X66373Y-29179D01*
X66777Y-29583D01*
X66693Y-29666D01*
X66693Y-29666D01*
G37*
G36*
X66832Y-29527D02*
X66429Y-29123D01*
X66512Y-29040D01*
X66916Y-29444D01*
X66832Y-29527D01*
X66832Y-29527D01*
G37*
G36*
X66972Y-29388D02*
X66568Y-28984D01*
X66651Y-28901D01*
X67055Y-29304D01*
X66972Y-29388D01*
X66972Y-29388D01*
G37*
G36*
X67111Y-29249D02*
X66707Y-28845D01*
X66791Y-28762D01*
X67194Y-29165D01*
X67111Y-29249D01*
X67111Y-29249D01*
G37*
G36*
X67250Y-29109D02*
X66846Y-28706D01*
X66930Y-28622D01*
X67334Y-29026D01*
X67250Y-29109D01*
X67250Y-29109D01*
G37*
G36*
X66930Y-28274D02*
X66846Y-28191D01*
X67250Y-27787D01*
X67334Y-27871D01*
X66930Y-28274D01*
X66930Y-28274D01*
G37*
G36*
X66791Y-28135D02*
X66707Y-28052D01*
X67111Y-27648D01*
X67194Y-27731D01*
X66791Y-28135D01*
X66791Y-28135D01*
G37*
G36*
X66651Y-27996D02*
X66568Y-27912D01*
X66972Y-27509D01*
X67055Y-27592D01*
X66651Y-27996D01*
X66651Y-27996D01*
G37*
G36*
X66512Y-27857D02*
X66429Y-27773D01*
X66832Y-27370D01*
X66916Y-27453D01*
X66512Y-27857D01*
X66512Y-27857D01*
G37*
G36*
X66373Y-27718D02*
X66290Y-27634D01*
X66693Y-27230D01*
X66777Y-27314D01*
X66373Y-27718D01*
X66373Y-27718D01*
G37*
G36*
X66234Y-27578D02*
X66150Y-27495D01*
X66554Y-27091D01*
X66638Y-27175D01*
X66234Y-27578D01*
X66234Y-27578D01*
G37*
G36*
X66095Y-27439D02*
X66011Y-27356D01*
X66415Y-26952D01*
X66498Y-27035D01*
X66095Y-27439D01*
X66095Y-27439D01*
G37*
G36*
X65956Y-27300D02*
X65872Y-27216D01*
X66276Y-26813D01*
X66359Y-26896D01*
X65956Y-27300D01*
X65956Y-27300D01*
G37*
G36*
X65816Y-27161D02*
X65733Y-27077D01*
X66136Y-26674D01*
X66220Y-26757D01*
X65816Y-27161D01*
X65816Y-27161D01*
G37*
G36*
X65677Y-27022D02*
X65594Y-26938D01*
X65997Y-26534D01*
X66081Y-26618D01*
X65677Y-27022D01*
X65677Y-27022D01*
G37*
G36*
X65538Y-26882D02*
X65454Y-26799D01*
X65858Y-26395D01*
X65942Y-26479D01*
X65538Y-26882D01*
X65538Y-26882D01*
G37*
G36*
X65399Y-26743D02*
X65315Y-26660D01*
X65719Y-26256D01*
X65802Y-26340D01*
X65399Y-26743D01*
X65399Y-26743D01*
G37*
G36*
X64884Y-26743D02*
X64480Y-26340D01*
X64564Y-26256D01*
X64967Y-26660D01*
X64884Y-26743D01*
X64884Y-26743D01*
G37*
G36*
X64745Y-26882D02*
X64341Y-26479D01*
X64424Y-26395D01*
X64828Y-26799D01*
X64745Y-26882D01*
X64745Y-26882D01*
G37*
G36*
X64605Y-27022D02*
X64202Y-26618D01*
X64285Y-26534D01*
X64689Y-26938D01*
X64605Y-27022D01*
X64605Y-27022D01*
G37*
G36*
X64466Y-27161D02*
X64062Y-26757D01*
X64146Y-26674D01*
X64550Y-27077D01*
X64466Y-27161D01*
X64466Y-27161D01*
G37*
G36*
X64327Y-27300D02*
X63923Y-26896D01*
X64007Y-26813D01*
X64410Y-27216D01*
X64327Y-27300D01*
X64327Y-27300D01*
G37*
G36*
X64188Y-27439D02*
X63784Y-27035D01*
X63868Y-26952D01*
X64271Y-27356D01*
X64188Y-27439D01*
X64188Y-27439D01*
G37*
G36*
X64049Y-27578D02*
X63645Y-27175D01*
X63728Y-27091D01*
X64132Y-27495D01*
X64049Y-27578D01*
X64049Y-27578D01*
G37*
G36*
X63909Y-27718D02*
X63506Y-27314D01*
X63589Y-27230D01*
X63993Y-27634D01*
X63909Y-27718D01*
X63909Y-27718D01*
G37*
G36*
X63770Y-27857D02*
X63367Y-27453D01*
X63450Y-27370D01*
X63854Y-27773D01*
X63770Y-27857D01*
X63770Y-27857D01*
G37*
G36*
X63631Y-27996D02*
X63227Y-27592D01*
X63311Y-27509D01*
X63714Y-27912D01*
X63631Y-27996D01*
X63631Y-27996D01*
G37*
G36*
X63492Y-28135D02*
X63088Y-27731D01*
X63172Y-27648D01*
X63575Y-28052D01*
X63492Y-28135D01*
X63492Y-28135D01*
G37*
G36*
X63353Y-28274D02*
X62949Y-27871D01*
X63032Y-27787D01*
X63436Y-28191D01*
X63353Y-28274D01*
X63353Y-28274D01*
G37*
G54D22*
X58606Y-33468D03*
X55929Y-33468D03*
X63173Y-33488D03*
X60496Y-33488D03*
G54D23*
X50751Y-27937D03*
X50751Y-28192D03*
X50751Y-28448D03*
X50751Y-28704D03*
X50751Y-28960D03*
G54D24*
X50515Y-27188D03*
X50515Y-29708D03*
G54D25*
X49590Y-26874D03*
X49590Y-30023D03*
G54D26*
X49590Y-27976D03*
X49590Y-28921D03*
G54D27*
X64944Y-36145D03*
X64944Y-31047D03*
X62070Y-24905D03*
X66677Y-22681D03*
X73606Y-22366D03*
X78960Y-27070D03*
X67070Y-23665D03*
X72543Y-23350D03*
X74708Y-26637D03*
X67188Y-23192D03*
X72897Y-23015D03*
X75377Y-32543D03*
X67169Y-22720D03*
X73271Y-22720D03*
X71106Y-25397D03*
X68291Y-22996D03*
X74354Y-28015D03*
X75062Y-28724D03*
X68330Y-24472D03*
X69964Y-25968D03*
X68330Y-23980D03*
X70535Y-25968D03*
X56165Y-28251D03*
X53822Y-28232D03*
X68311Y-23488D03*
X70535Y-25397D03*
X56145Y-29137D03*
X53803Y-29137D03*
X75732Y-29826D03*
X75732Y-31204D03*
X76755Y-27228D03*
X76755Y-32267D03*
X75496Y-35102D03*
X76362Y-36047D03*
X52838Y-35181D03*
X68330Y-25476D03*
X69393Y-26559D03*
X68330Y-24964D03*
X69944Y-26539D03*
X60141Y-25220D03*
X67346Y-31755D03*
X67759Y-31440D03*
X60476Y-24885D03*
X68153Y-29551D03*
X70082Y-22897D03*
X70397Y-23271D03*
X67740Y-29314D03*
X73763Y-21795D03*
X74570Y-21401D03*
X75633Y-21027D03*
X68251Y-31303D03*
X69590Y-29039D03*
X69019Y-27543D03*
X75811Y-28960D03*
X74354Y-29669D03*
X69354Y-27090D03*
X69649Y-28488D03*
X74354Y-30338D03*
X75377Y-30732D03*
X66952Y-21637D03*
X64059Y-22366D03*
X63547Y-24925D03*
X67996Y-21440D03*
X63685Y-22740D03*
X63055Y-24905D03*
X68980Y-21185D03*
X63330Y-23055D03*
X62562Y-24885D03*
X69984Y-20988D03*
X61401Y-23980D03*
X61677Y-25220D03*
X60909Y-23783D03*
X61263Y-25515D03*
X59492Y-28921D03*
X59039Y-26322D03*
X59866Y-30515D03*
X59433Y-25968D03*
X59551Y-33114D03*
X59807Y-25574D03*
X52799Y-34649D03*
X54905Y-34649D03*
X58330Y-27011D03*
X59059Y-28488D03*
X77543Y-34275D03*
X59551Y-35181D03*
X62622Y-32110D03*
X56637Y-26874D03*
X56204Y-23763D03*
X52700Y-35968D03*
X51480Y-29157D03*
X51874Y-30023D03*
X52031Y-26677D03*
X59157Y-27602D03*
X64649Y-29354D03*
X65161Y-29807D03*
X66204Y-25929D03*
X66618Y-24196D03*
X61283Y-26618D03*
X69196Y-31322D03*
X63015Y-32661D03*
X57307Y-35102D03*
X61736Y-35102D03*
X64196Y-28173D03*
X66007Y-28822D03*
X60929Y-29728D03*
X51795Y-33192D03*
X51795Y-32444D03*
G54D28*
X80000Y-29000D02*
X80299Y-29000D01*
X55543Y-37543D02*
X55000Y-37000D01*
X77346Y-37543D02*
X55543Y-37543D01*
X78133Y-36755D02*
X77346Y-37543D01*
X78133Y-35259D02*
X78133Y-36755D01*
X80771Y-32622D02*
X78133Y-35259D01*
X80771Y-29472D02*
X80771Y-32622D01*
X80299Y-29000D02*
X80771Y-29472D01*
X68833Y-29660D02*
X68094Y-28921D01*
X67145Y-28921D02*
X67090Y-28866D01*
X68094Y-28921D02*
X67145Y-28921D01*
X64306Y-29979D02*
X64299Y-29979D01*
X63370Y-30909D02*
X63370Y-31283D01*
X64299Y-29979D02*
X63370Y-30909D01*
X64306Y-29979D02*
X64306Y-29972D01*
X65161Y-29334D02*
X65161Y-28488D01*
X64807Y-29688D02*
X65161Y-29334D01*
X64590Y-29688D02*
X64807Y-29688D01*
X64306Y-29972D02*
X64590Y-29688D01*
G54D29*
X62099Y-27748D02*
X62022Y-27748D01*
X54885Y-29688D02*
X54787Y-29787D01*
X57090Y-29688D02*
X54885Y-29688D01*
X58803Y-27976D02*
X57090Y-29688D01*
X61795Y-27976D02*
X58803Y-27976D01*
X62022Y-27748D02*
X61795Y-27976D01*
G54D28*
X65559Y-26500D02*
X65555Y-26500D01*
X65555Y-26500D02*
X65161Y-26893D01*
X65161Y-26893D02*
X65161Y-28488D01*
X63193Y-28031D02*
X63193Y-28035D01*
X63645Y-28488D02*
X65161Y-28488D01*
X63193Y-28035D02*
X63645Y-28488D01*
X66712Y-28488D02*
X67090Y-28866D01*
X65161Y-28488D02*
X66712Y-28488D01*
X63193Y-28031D02*
X63188Y-28031D01*
X62906Y-27748D02*
X62099Y-27748D01*
X63188Y-28031D02*
X62906Y-27748D01*
X53251Y-33173D02*
X53251Y-37346D01*
X54417Y-37582D02*
X55000Y-37000D01*
X53488Y-37582D02*
X54417Y-37582D01*
X53251Y-37346D02*
X53488Y-37582D01*
X53251Y-33173D02*
X53251Y-31834D01*
X53251Y-31834D02*
X53212Y-31795D01*
G54D29*
X55000Y-37000D02*
X55000Y-36377D01*
X54452Y-30122D02*
X54787Y-29787D01*
X54452Y-35830D02*
X54452Y-30122D01*
X55000Y-36377D02*
X54452Y-35830D01*
X54787Y-29787D02*
X54787Y-26834D01*
X54787Y-26834D02*
X54098Y-26145D01*
G54D28*
X52641Y-25102D02*
X52267Y-25102D01*
X51834Y-23665D02*
X52562Y-22937D01*
X51834Y-24669D02*
X51834Y-23665D01*
X52267Y-25102D02*
X51834Y-24669D01*
G54D29*
X57000Y-23000D02*
X56877Y-23000D01*
X55000Y-21122D02*
X55000Y-20000D01*
X56877Y-23000D02*
X55000Y-21122D01*
X57169Y-25476D02*
X57582Y-25476D01*
X57838Y-23838D02*
X57000Y-23000D01*
X57838Y-25220D02*
X57838Y-23838D01*
X57582Y-25476D02*
X57838Y-25220D01*
X56185Y-25476D02*
X57169Y-25476D01*
X52641Y-25102D02*
X53055Y-25102D01*
X55515Y-26145D02*
X56185Y-25476D01*
X54098Y-26145D02*
X55515Y-26145D01*
X53055Y-25102D02*
X54098Y-26145D01*
G54D28*
X65559Y-26500D02*
X65559Y-26495D01*
X65822Y-26232D02*
X65822Y-25386D01*
X65559Y-26495D02*
X65822Y-26232D01*
G54D29*
X54000Y-37000D02*
X54000Y-30003D01*
X53094Y-26007D02*
X52641Y-26007D01*
X54374Y-27287D02*
X53094Y-26007D01*
X54374Y-29629D02*
X54374Y-27287D01*
X54000Y-30003D02*
X54374Y-29629D01*
X50000Y-24000D02*
X50000Y-23531D01*
X54000Y-20240D02*
X54000Y-20000D01*
X51716Y-22523D02*
X54000Y-20240D01*
X51007Y-22523D02*
X51716Y-22523D01*
X50000Y-23531D02*
X51007Y-22523D01*
X52641Y-26007D02*
X52228Y-26007D01*
X50220Y-24000D02*
X50000Y-24000D01*
X52228Y-26007D02*
X50220Y-24000D01*
G54D28*
X64944Y-32425D02*
X64944Y-36145D01*
X64944Y-31047D02*
X64944Y-32425D01*
X63749Y-27474D02*
X63749Y-27470D01*
X62070Y-25791D02*
X62070Y-24905D01*
X63749Y-27470D02*
X62070Y-25791D01*
X73606Y-22366D02*
X73625Y-22366D01*
X64255Y-24728D02*
X63409Y-25574D01*
X63409Y-25574D02*
X63409Y-26027D01*
X64299Y-26917D02*
X63409Y-26027D01*
X64354Y-24728D02*
X66401Y-22681D01*
X66401Y-22681D02*
X66677Y-22681D01*
X64306Y-26917D02*
X64299Y-26917D01*
X64354Y-24728D02*
X64255Y-24728D01*
X78094Y-27070D02*
X78960Y-27070D01*
X75692Y-24669D02*
X78094Y-27070D01*
X75692Y-24433D02*
X75692Y-24669D01*
X73625Y-22366D02*
X75692Y-24433D01*
X77129Y-30732D02*
X77622Y-30732D01*
X79818Y-31000D02*
X80000Y-31000D01*
X79314Y-30496D02*
X79818Y-31000D01*
X77858Y-30496D02*
X79314Y-30496D01*
X77622Y-30732D02*
X77858Y-30496D01*
X72543Y-23350D02*
X72543Y-23370D01*
X64724Y-26476D02*
X64334Y-26086D01*
X64334Y-26086D02*
X64334Y-25692D01*
X64334Y-25692D02*
X66362Y-23665D01*
X66362Y-23665D02*
X67070Y-23665D01*
X64724Y-26500D02*
X64724Y-26476D01*
X74708Y-25535D02*
X74708Y-26637D01*
X72543Y-23370D02*
X74708Y-25535D01*
X77129Y-28015D02*
X78984Y-28015D01*
X78984Y-28015D02*
X79000Y-28000D01*
X72897Y-23015D02*
X74944Y-25062D01*
X64584Y-26632D02*
X63881Y-25928D01*
X63881Y-25928D02*
X63881Y-25713D01*
X63881Y-25713D02*
X64452Y-25141D01*
X64452Y-25141D02*
X64570Y-25141D01*
X64570Y-25141D02*
X66460Y-23251D01*
X66460Y-23251D02*
X67129Y-23251D01*
X67129Y-23251D02*
X67188Y-23192D01*
X64584Y-26639D02*
X64584Y-26632D01*
X74708Y-31874D02*
X75377Y-32543D01*
X74708Y-27149D02*
X74708Y-31874D01*
X75062Y-26795D02*
X74708Y-27149D01*
X75062Y-25181D02*
X75062Y-26795D01*
X74944Y-25062D02*
X75062Y-25181D01*
X77129Y-31637D02*
X78637Y-31637D01*
X78637Y-31637D02*
X79000Y-32000D01*
X73271Y-22720D02*
X73311Y-22720D01*
X64435Y-26778D02*
X63625Y-25968D01*
X63625Y-25968D02*
X63625Y-25673D01*
X63625Y-25673D02*
X64374Y-24925D01*
X64374Y-24925D02*
X64472Y-24925D01*
X64472Y-24925D02*
X66362Y-23035D01*
X66362Y-23035D02*
X66854Y-23035D01*
X66854Y-23035D02*
X67169Y-22720D01*
X64445Y-26778D02*
X64435Y-26778D01*
X77129Y-28704D02*
X77129Y-28921D01*
X76913Y-28488D02*
X77129Y-28704D01*
X75692Y-28488D02*
X76913Y-28488D01*
X75338Y-28133D02*
X75692Y-28488D01*
X75338Y-24748D02*
X75338Y-28133D01*
X73311Y-22720D02*
X75338Y-24748D01*
X77129Y-28921D02*
X78921Y-28921D01*
X78921Y-28921D02*
X79000Y-29000D01*
X77129Y-29826D02*
X77129Y-29649D01*
X65837Y-26768D02*
X67011Y-25594D01*
X67011Y-25594D02*
X67011Y-24275D01*
X67011Y-24275D02*
X68291Y-22996D01*
X65837Y-26768D02*
X65837Y-26778D01*
X73724Y-28015D02*
X71106Y-25397D01*
X73763Y-28015D02*
X73724Y-28015D01*
X73842Y-28015D02*
X73763Y-28015D01*
X74354Y-28015D02*
X73842Y-28015D01*
X75732Y-29393D02*
X75062Y-28724D01*
X76874Y-29393D02*
X75732Y-29393D01*
X77129Y-29649D02*
X76874Y-29393D01*
X77129Y-29826D02*
X78826Y-29826D01*
X78826Y-29826D02*
X79000Y-30000D01*
X64445Y-30119D02*
X64445Y-30129D01*
X62657Y-36342D02*
X62000Y-37000D01*
X63330Y-36342D02*
X62657Y-36342D01*
X63921Y-35751D02*
X63330Y-36342D01*
X63921Y-30653D02*
X63921Y-35751D01*
X64445Y-30129D02*
X63921Y-30653D01*
X64584Y-30258D02*
X64584Y-30265D01*
X64157Y-35842D02*
X63000Y-37000D01*
X64157Y-30692D02*
X64157Y-35842D01*
X64584Y-30265D02*
X64157Y-30692D01*
X66256Y-27196D02*
X67740Y-25712D01*
X67740Y-25712D02*
X67740Y-25062D01*
X67740Y-25062D02*
X68330Y-24472D01*
X66255Y-27196D02*
X66256Y-27196D01*
X72000Y-28003D02*
X72000Y-37000D01*
X69964Y-25968D02*
X72000Y-28003D01*
X73000Y-28433D02*
X73000Y-37000D01*
X70535Y-25968D02*
X73000Y-28433D01*
X53228Y-28248D02*
X53807Y-28248D01*
X57685Y-28248D02*
X61657Y-24275D01*
X61657Y-24275D02*
X64157Y-24275D01*
X64157Y-24275D02*
X66362Y-22070D01*
X66362Y-22070D02*
X68704Y-22070D01*
X68704Y-22070D02*
X69098Y-22464D01*
X69098Y-22464D02*
X69098Y-23212D01*
X69098Y-23212D02*
X68330Y-23980D01*
X56169Y-28248D02*
X57685Y-28248D01*
X56165Y-28251D02*
X56169Y-28248D01*
X53807Y-28248D02*
X53822Y-28232D01*
X53228Y-28248D02*
X53228Y-27362D01*
X66116Y-27056D02*
X66120Y-27056D01*
X67523Y-24787D02*
X68330Y-23980D01*
X67523Y-25653D02*
X67523Y-24787D01*
X66120Y-27056D02*
X67523Y-25653D01*
X74000Y-28862D02*
X74000Y-37000D01*
X70535Y-25397D02*
X74000Y-28862D01*
X53228Y-29133D02*
X53799Y-29133D01*
X57153Y-29133D02*
X61755Y-24531D01*
X61755Y-24531D02*
X64255Y-24531D01*
X64255Y-24531D02*
X66460Y-22326D01*
X66460Y-22326D02*
X68625Y-22326D01*
X68625Y-22326D02*
X68881Y-22582D01*
X68881Y-22582D02*
X68881Y-22917D01*
X68881Y-22917D02*
X68311Y-23488D01*
X56149Y-29133D02*
X57153Y-29133D01*
X56145Y-29137D02*
X56149Y-29133D01*
X53799Y-29133D02*
X53803Y-29137D01*
X53212Y-30909D02*
X53212Y-30035D01*
X53212Y-30035D02*
X53228Y-30019D01*
X53228Y-29133D02*
X53228Y-30019D01*
X65976Y-26917D02*
X65983Y-26917D01*
X67287Y-24511D02*
X68311Y-23488D01*
X67287Y-25614D02*
X67287Y-24511D01*
X65983Y-26917D02*
X67287Y-25614D01*
X75000Y-37000D02*
X75000Y-33551D01*
X75732Y-29826D02*
X76381Y-29826D01*
X75732Y-32818D02*
X75732Y-31204D01*
X75000Y-33551D02*
X75732Y-32818D01*
X76000Y-37000D02*
X76000Y-33692D01*
X76381Y-27602D02*
X76381Y-28015D01*
X76755Y-27228D02*
X76381Y-27602D01*
X76755Y-32937D02*
X76755Y-32267D01*
X76000Y-33692D02*
X76755Y-32937D01*
X77000Y-37000D02*
X77000Y-36685D01*
X76381Y-32838D02*
X76381Y-31637D01*
X75496Y-33724D02*
X76381Y-32838D01*
X75496Y-35102D02*
X75496Y-33724D01*
X77000Y-36685D02*
X76362Y-36047D01*
X64724Y-30397D02*
X64724Y-30401D01*
X64393Y-36606D02*
X64000Y-37000D01*
X64393Y-30732D02*
X64393Y-36606D01*
X64724Y-30401D02*
X64393Y-30732D01*
X65559Y-30397D02*
X65559Y-30401D01*
X65929Y-36070D02*
X65000Y-37000D01*
X65929Y-30771D02*
X65929Y-36070D01*
X65559Y-30401D02*
X65929Y-30771D01*
X65698Y-30258D02*
X65698Y-30265D01*
X66204Y-36795D02*
X66000Y-37000D01*
X66204Y-30771D02*
X66204Y-36795D01*
X65698Y-30265D02*
X66204Y-30771D01*
X65837Y-30119D02*
X65837Y-30129D01*
X66519Y-36519D02*
X67000Y-37000D01*
X66519Y-30811D02*
X66519Y-36519D01*
X65837Y-30129D02*
X66519Y-30811D01*
X65976Y-29979D02*
X65983Y-29979D01*
X66755Y-35755D02*
X68000Y-37000D01*
X66755Y-30751D02*
X66755Y-35755D01*
X65983Y-29979D02*
X66755Y-30751D01*
X66116Y-29840D02*
X66120Y-29840D01*
X67011Y-35011D02*
X69000Y-37000D01*
X67011Y-30732D02*
X67011Y-35011D01*
X66120Y-29840D02*
X67011Y-30732D01*
X50000Y-32000D02*
X49917Y-32000D01*
X52720Y-35181D02*
X52838Y-35181D01*
X51322Y-33783D02*
X52720Y-35181D01*
X49807Y-33783D02*
X51322Y-33783D01*
X49433Y-33409D02*
X49807Y-33783D01*
X49433Y-32484D02*
X49433Y-33409D01*
X49917Y-32000D02*
X49433Y-32484D01*
X66533Y-27470D02*
X68330Y-25673D01*
X68330Y-25673D02*
X68330Y-25476D01*
X66533Y-27474D02*
X66533Y-27470D01*
X70003Y-36996D02*
X70000Y-37000D01*
X70003Y-27169D02*
X70003Y-36996D01*
X69393Y-26559D02*
X70003Y-27169D01*
X66394Y-27333D02*
X67956Y-25771D01*
X67956Y-25771D02*
X67956Y-25338D01*
X67956Y-25338D02*
X68330Y-24964D01*
X66394Y-27335D02*
X66394Y-27333D01*
X71000Y-27594D02*
X71000Y-37000D01*
X69944Y-26539D02*
X71000Y-27594D01*
X66255Y-29701D02*
X66256Y-29701D01*
X59885Y-22114D02*
X62000Y-20000D01*
X59885Y-24964D02*
X59885Y-22114D01*
X60141Y-25220D02*
X59885Y-24964D01*
X67346Y-30791D02*
X67346Y-31755D01*
X66256Y-29701D02*
X67346Y-30791D01*
X67740Y-30909D02*
X67740Y-31421D01*
X63000Y-20000D02*
X63000Y-20019D01*
X60181Y-24590D02*
X60476Y-24885D01*
X60181Y-22838D02*
X60181Y-24590D01*
X63000Y-20019D02*
X60181Y-22838D01*
X67740Y-30909D02*
X66394Y-29563D01*
X67740Y-31421D02*
X67759Y-31440D01*
X66394Y-29562D02*
X66394Y-29563D01*
X66394Y-29562D02*
X66394Y-29563D01*
X66672Y-29290D02*
X67051Y-29669D01*
X67051Y-29669D02*
X68035Y-29669D01*
X68035Y-29669D02*
X68153Y-29551D01*
X66672Y-29283D02*
X66672Y-29290D01*
X72000Y-20980D02*
X72000Y-20000D01*
X70082Y-22897D02*
X72000Y-20980D01*
X66812Y-29154D02*
X67070Y-29413D01*
X67070Y-29413D02*
X67641Y-29413D01*
X67641Y-29413D02*
X67740Y-29314D01*
X66812Y-29144D02*
X66812Y-29154D01*
X73000Y-20669D02*
X73000Y-20000D01*
X70397Y-23271D02*
X73000Y-20669D01*
X67090Y-28031D02*
X67094Y-28031D01*
X73566Y-21795D02*
X73763Y-21795D01*
X67956Y-27405D02*
X73566Y-21795D01*
X67720Y-27405D02*
X67956Y-27405D01*
X67094Y-28031D02*
X67720Y-27405D01*
X66951Y-27892D02*
X66958Y-27892D01*
X73586Y-21401D02*
X74570Y-21401D01*
X67838Y-27149D02*
X73586Y-21401D01*
X67700Y-27149D02*
X67838Y-27149D01*
X66958Y-27892D02*
X67700Y-27149D01*
X66812Y-27752D02*
X66812Y-27743D01*
X73625Y-21027D02*
X75633Y-21027D01*
X67700Y-26952D02*
X73625Y-21027D01*
X67602Y-26952D02*
X67700Y-26952D01*
X66812Y-27743D02*
X67602Y-26952D01*
X66672Y-27613D02*
X66672Y-27606D01*
X76307Y-20692D02*
X77000Y-20000D01*
X73586Y-20692D02*
X76307Y-20692D01*
X66672Y-27606D02*
X73586Y-20692D01*
X68035Y-30419D02*
X68164Y-30290D01*
X68035Y-31086D02*
X68035Y-30419D01*
X68251Y-31303D02*
X68035Y-31086D01*
X66533Y-29423D02*
X66533Y-29427D01*
X67740Y-29866D02*
X68164Y-30290D01*
X66972Y-29866D02*
X67740Y-29866D01*
X66533Y-29427D02*
X66972Y-29866D01*
X76381Y-28921D02*
X75850Y-28921D01*
X69295Y-29039D02*
X69590Y-29039D01*
X69019Y-28763D02*
X69295Y-29039D01*
X69019Y-27543D02*
X69019Y-28763D01*
X75850Y-28921D02*
X75811Y-28960D01*
X76381Y-30732D02*
X75377Y-30732D01*
X69354Y-27090D02*
X69649Y-27385D01*
X69649Y-27385D02*
X69649Y-28488D01*
X74354Y-30338D02*
X74354Y-29669D01*
X64167Y-27056D02*
X64163Y-27056D01*
X66854Y-21539D02*
X66952Y-21637D01*
X64255Y-21539D02*
X66854Y-21539D01*
X64059Y-21736D02*
X64255Y-21539D01*
X64059Y-22366D02*
X64059Y-21736D01*
X63074Y-25397D02*
X63547Y-24925D01*
X63074Y-25968D02*
X63074Y-25397D01*
X64163Y-27056D02*
X63074Y-25968D01*
X64028Y-27196D02*
X64026Y-27196D01*
X67858Y-21303D02*
X67996Y-21440D01*
X64039Y-21303D02*
X67858Y-21303D01*
X63685Y-21657D02*
X64039Y-21303D01*
X63685Y-22740D02*
X63685Y-21657D01*
X62818Y-25141D02*
X63055Y-24905D01*
X62818Y-25988D02*
X62818Y-25141D01*
X64026Y-27196D02*
X62818Y-25988D01*
X63888Y-27335D02*
X63888Y-27333D01*
X68862Y-21066D02*
X68980Y-21185D01*
X63665Y-21066D02*
X68862Y-21066D01*
X63330Y-21401D02*
X63665Y-21066D01*
X63330Y-21775D02*
X63330Y-21401D01*
X63330Y-23055D02*
X63330Y-21775D01*
X62562Y-26007D02*
X62562Y-24885D01*
X63888Y-27333D02*
X62562Y-26007D01*
X63610Y-27613D02*
X63610Y-27606D01*
X69846Y-20850D02*
X69984Y-20988D01*
X63507Y-20850D02*
X69846Y-20850D01*
X62996Y-21362D02*
X63507Y-20850D01*
X62996Y-23566D02*
X62996Y-21362D01*
X62602Y-23960D02*
X62996Y-23566D01*
X61421Y-23960D02*
X62602Y-23960D01*
X61401Y-23980D02*
X61421Y-23960D01*
X61677Y-25850D02*
X61677Y-25220D01*
X62838Y-27011D02*
X61677Y-25850D01*
X63015Y-27011D02*
X62838Y-27011D01*
X63610Y-27606D02*
X63015Y-27011D01*
X63471Y-27752D02*
X63461Y-27752D01*
X70385Y-20614D02*
X71000Y-20000D01*
X63389Y-20614D02*
X70385Y-20614D01*
X62740Y-21263D02*
X63389Y-20614D01*
X62740Y-23448D02*
X62740Y-21263D01*
X62602Y-23586D02*
X62740Y-23448D01*
X61106Y-23586D02*
X62602Y-23586D01*
X60909Y-23783D02*
X61106Y-23586D01*
X61263Y-25948D02*
X61263Y-25515D01*
X62681Y-27366D02*
X61263Y-25948D01*
X63074Y-27366D02*
X62681Y-27366D01*
X63461Y-27752D02*
X63074Y-27366D01*
X59000Y-20000D02*
X59000Y-26283D01*
X63325Y-29005D02*
X61381Y-30948D01*
X61381Y-30948D02*
X60968Y-30948D01*
X63325Y-29005D02*
X63332Y-29005D01*
X60889Y-30948D02*
X60968Y-30948D01*
X59492Y-29551D02*
X60889Y-30948D01*
X59492Y-28921D02*
X59492Y-29551D01*
X59000Y-26283D02*
X59039Y-26322D01*
X60000Y-20000D02*
X60000Y-20125D01*
X61421Y-31225D02*
X61421Y-31204D01*
X61410Y-31215D02*
X61421Y-31225D01*
X60565Y-31215D02*
X61410Y-31215D01*
X59866Y-30515D02*
X60565Y-31215D01*
X59275Y-25811D02*
X59433Y-25968D01*
X59275Y-20850D02*
X59275Y-25811D01*
X60000Y-20125D02*
X59275Y-20850D01*
X55633Y-35102D02*
X55633Y-33763D01*
X55633Y-33763D02*
X55929Y-33468D01*
X63471Y-29144D02*
X63471Y-29154D01*
X57267Y-32129D02*
X55929Y-33468D01*
X60496Y-32129D02*
X57267Y-32129D01*
X63471Y-29154D02*
X61421Y-31204D01*
X61421Y-31204D02*
X60496Y-32129D01*
X61000Y-20000D02*
X60933Y-20000D01*
X59196Y-33468D02*
X58606Y-33468D01*
X59551Y-33114D02*
X59196Y-33468D01*
X59610Y-25377D02*
X59807Y-25574D01*
X59610Y-21322D02*
X59610Y-25377D01*
X60933Y-20000D02*
X59610Y-21322D01*
X58901Y-35102D02*
X58901Y-33763D01*
X58901Y-33763D02*
X58606Y-33468D01*
X63610Y-29283D02*
X63610Y-29290D01*
X59728Y-32346D02*
X58606Y-33468D01*
X60555Y-32346D02*
X59728Y-32346D01*
X63610Y-29290D02*
X60555Y-32346D01*
X60200Y-35102D02*
X60200Y-36799D01*
X60200Y-36799D02*
X60000Y-37000D01*
X60200Y-35102D02*
X60200Y-33783D01*
X60200Y-33783D02*
X60496Y-33488D01*
X63749Y-29423D02*
X63749Y-29427D01*
X60496Y-32681D02*
X60496Y-33488D01*
X63749Y-29427D02*
X60496Y-32681D01*
X63468Y-35102D02*
X63468Y-35633D01*
X61992Y-36007D02*
X61000Y-37000D01*
X63094Y-36007D02*
X61992Y-36007D01*
X63468Y-35633D02*
X63094Y-36007D01*
X63468Y-35102D02*
X63468Y-33783D01*
X63468Y-33783D02*
X63173Y-33488D01*
X63888Y-29562D02*
X63888Y-29563D01*
X62188Y-32503D02*
X63173Y-33488D01*
X62188Y-31263D02*
X62188Y-32503D01*
X63888Y-29563D02*
X62188Y-31263D01*
X52799Y-34649D02*
X52799Y-34590D01*
X54905Y-34649D02*
X54905Y-35437D01*
X54905Y-35437D02*
X55358Y-35889D01*
X55358Y-35889D02*
X56889Y-35889D01*
X58000Y-37000D02*
X56889Y-35889D01*
X50972Y-33000D02*
X50000Y-33000D01*
X51972Y-34000D02*
X50972Y-33000D01*
X52208Y-34000D02*
X51972Y-34000D01*
X52799Y-34590D02*
X52208Y-34000D01*
X50000Y-33000D02*
X50007Y-33000D01*
X52425Y-32799D02*
X52425Y-31834D01*
X52425Y-31834D02*
X52464Y-31795D01*
X52425Y-32799D02*
X50200Y-32799D01*
X50200Y-32799D02*
X50000Y-33000D01*
X50751Y-28192D02*
X52425Y-28192D01*
X52425Y-28192D02*
X52480Y-28248D01*
X50751Y-28448D02*
X51362Y-28448D01*
X52047Y-29133D02*
X52480Y-29133D01*
X51362Y-28448D02*
X52047Y-29133D01*
G54D29*
X61961Y-29660D02*
X61944Y-29660D01*
X58000Y-23118D02*
X58000Y-23000D01*
X58330Y-23448D02*
X58000Y-23118D01*
X58330Y-23901D02*
X58330Y-23448D01*
X58330Y-27011D02*
X58330Y-23901D01*
X60771Y-28488D02*
X59059Y-28488D01*
X61944Y-29660D02*
X60771Y-28488D01*
X58000Y-20000D02*
X58000Y-23000D01*
G54D28*
X63193Y-28866D02*
X63188Y-28866D01*
X63188Y-28866D02*
X62394Y-29660D01*
X62394Y-29660D02*
X61961Y-29660D01*
G54D29*
X50751Y-27937D02*
X51322Y-27937D01*
X51500Y-26500D02*
X50000Y-25000D01*
X51500Y-27759D02*
X51500Y-26500D01*
X51322Y-27937D02*
X51500Y-27759D01*
G54D28*
X80535Y-30535D02*
X80000Y-30000D01*
X80535Y-32425D02*
X80535Y-30535D01*
X78685Y-34275D02*
X80535Y-32425D01*
X78488Y-34275D02*
X78685Y-34275D01*
X78251Y-34275D02*
X78488Y-34275D01*
X77543Y-34275D02*
X78251Y-34275D01*
X80000Y-30000D02*
X79511Y-29511D01*
X79511Y-29511D02*
X79511Y-28685D01*
X79511Y-28685D02*
X79511Y-26165D01*
X79511Y-26165D02*
X79511Y-25141D01*
X79511Y-25141D02*
X79925Y-24728D01*
X79925Y-24728D02*
X80220Y-24728D01*
X59000Y-36559D02*
X59000Y-37000D01*
X59551Y-36007D02*
X59000Y-36559D01*
X59551Y-35181D02*
X59551Y-36007D01*
X64028Y-29701D02*
X64026Y-29701D01*
X62622Y-31106D02*
X62622Y-32110D01*
X64026Y-29701D02*
X62622Y-31106D01*
X77779Y-24728D02*
X80220Y-24728D01*
X76362Y-24393D02*
X77444Y-24393D01*
X77444Y-24393D02*
X77779Y-24728D01*
X56185Y-24728D02*
X56185Y-23783D01*
X56185Y-23783D02*
X56204Y-23763D01*
X50751Y-28960D02*
X51283Y-28960D01*
X51283Y-28960D02*
X51480Y-29157D01*
X52480Y-30019D02*
X51877Y-30019D01*
X51877Y-30019D02*
X51874Y-30023D01*
X52480Y-27362D02*
X52480Y-27125D01*
X52480Y-27125D02*
X52031Y-26677D01*
X61570Y-27219D02*
X59540Y-27219D01*
X59540Y-27219D02*
X59157Y-27602D01*
X64167Y-29836D02*
X64649Y-29354D01*
X64167Y-29840D02*
X64167Y-29836D01*
X65698Y-26639D02*
X65698Y-26632D01*
X66204Y-26125D02*
X66204Y-25929D01*
X65698Y-26632D02*
X66204Y-26125D01*
X66351Y-24857D02*
X66351Y-24463D01*
X66351Y-24463D02*
X66618Y-24196D01*
X61570Y-27219D02*
X61570Y-26904D01*
X61570Y-26904D02*
X61283Y-26618D01*
X68693Y-30819D02*
X69196Y-31322D01*
X63370Y-32031D02*
X63370Y-32307D01*
X63370Y-32307D02*
X63015Y-32661D01*
X58153Y-35102D02*
X57307Y-35102D01*
X60948Y-35102D02*
X61736Y-35102D01*
X63332Y-27892D02*
X63332Y-27899D01*
X64118Y-28251D02*
X64196Y-28173D01*
X63685Y-28251D02*
X64118Y-28251D01*
X63332Y-27899D02*
X63685Y-28251D01*
X66951Y-29005D02*
X66951Y-29001D01*
X66125Y-28704D02*
X66007Y-28822D01*
X66654Y-28704D02*
X66125Y-28704D01*
X66951Y-29001D02*
X66654Y-28704D01*
X61432Y-30189D02*
X61390Y-30189D01*
X61390Y-30189D02*
X60929Y-29728D01*
X53311Y-22937D02*
X54314Y-22937D01*
X52464Y-30909D02*
X52188Y-30909D01*
X52149Y-33547D02*
X52425Y-33547D01*
X51795Y-33192D02*
X52149Y-33547D01*
X51795Y-31303D02*
X51795Y-32444D01*
X52188Y-30909D02*
X51795Y-31303D01*
G54D10*
G36*
X53087Y-37453D02*
X52262Y-37453D01*
X52262Y-35750D01*
X52070Y-35285D01*
X51715Y-34930D01*
X51252Y-34738D01*
X50750Y-34737D01*
X50285Y-34929D01*
X49930Y-35284D01*
X49738Y-35747D01*
X49737Y-36249D01*
X49929Y-36714D01*
X50284Y-37069D01*
X50747Y-37261D01*
X51249Y-37262D01*
X51714Y-37070D01*
X52069Y-36715D01*
X52261Y-36252D01*
X52262Y-35750D01*
X52262Y-37453D01*
X49443Y-37453D01*
X49443Y-33702D01*
X49665Y-33924D01*
X49730Y-33968D01*
X49807Y-33983D01*
X51239Y-33983D01*
X52521Y-35265D01*
X52562Y-35364D01*
X52654Y-35456D01*
X52773Y-35506D01*
X52902Y-35506D01*
X53022Y-35456D01*
X53051Y-35427D01*
X53051Y-37346D01*
X53067Y-37422D01*
X53087Y-37453D01*
X53087Y-37453D01*
G37*
G54D28*
X53087Y-37453D02*
X52262Y-37453D01*
X52262Y-35750D01*
X52070Y-35285D01*
X51715Y-34930D01*
X51252Y-34738D01*
X50750Y-34737D01*
X50285Y-34929D01*
X49930Y-35284D01*
X49738Y-35747D01*
X49737Y-36249D01*
X49929Y-36714D01*
X50284Y-37069D01*
X50747Y-37261D01*
X51249Y-37262D01*
X51714Y-37070D01*
X52069Y-36715D01*
X52261Y-36252D01*
X52262Y-35750D01*
X52262Y-37453D01*
X49443Y-37453D01*
X49443Y-33702D01*
X49665Y-33924D01*
X49730Y-33968D01*
X49807Y-33983D01*
X51239Y-33983D01*
X52521Y-35265D01*
X52562Y-35364D01*
X52654Y-35456D01*
X52773Y-35506D01*
X52902Y-35506D01*
X53022Y-35456D01*
X53051Y-35427D01*
X53051Y-37346D01*
X53067Y-37422D01*
X53087Y-37453D01*
G54D10*
G36*
X57671Y-37343D02*
X57328Y-37343D01*
X57402Y-37269D01*
X57474Y-37094D01*
X57474Y-36905D01*
X57402Y-36731D01*
X57269Y-36597D01*
X57094Y-36525D01*
X56905Y-36525D01*
X56731Y-36597D01*
X56597Y-36730D01*
X56525Y-36905D01*
X56525Y-37094D01*
X56597Y-37268D01*
X56671Y-37343D01*
X56477Y-37343D01*
X56477Y-36919D01*
X56410Y-36742D01*
X56394Y-36719D01*
X56319Y-36687D01*
X56312Y-36694D01*
X56312Y-36680D01*
X56280Y-36605D01*
X56108Y-36528D01*
X55919Y-36522D01*
X55742Y-36589D01*
X55719Y-36605D01*
X55687Y-36680D01*
X56000Y-36992D01*
X56312Y-36680D01*
X56312Y-36694D01*
X56007Y-37000D01*
X56319Y-37312D01*
X56394Y-37280D01*
X56471Y-37108D01*
X56477Y-36919D01*
X56477Y-37343D01*
X56302Y-37343D01*
X56312Y-37319D01*
X56000Y-37007D01*
X55992Y-37014D01*
X55992Y-37000D01*
X55680Y-36687D01*
X55605Y-36719D01*
X55528Y-36891D01*
X55522Y-37080D01*
X55589Y-37257D01*
X55605Y-37280D01*
X55680Y-37312D01*
X55992Y-37000D01*
X55992Y-37014D01*
X55687Y-37319D01*
X55697Y-37343D01*
X55626Y-37343D01*
X55446Y-37163D01*
X55474Y-37094D01*
X55474Y-36905D01*
X55402Y-36731D01*
X55269Y-36597D01*
X55240Y-36585D01*
X55240Y-36377D01*
X55221Y-36286D01*
X55169Y-36208D01*
X54692Y-35731D01*
X54692Y-34896D01*
X54705Y-34909D01*
X54705Y-35437D01*
X54720Y-35513D01*
X54764Y-35578D01*
X55216Y-36031D01*
X55281Y-36074D01*
X55358Y-36089D01*
X56806Y-36089D01*
X57553Y-36836D01*
X57525Y-36905D01*
X57525Y-37094D01*
X57597Y-37268D01*
X57671Y-37343D01*
X57671Y-37343D01*
G37*
G54D28*
X57671Y-37343D02*
X57328Y-37343D01*
X57402Y-37269D01*
X57474Y-37094D01*
X57474Y-36905D01*
X57402Y-36731D01*
X57269Y-36597D01*
X57094Y-36525D01*
X56905Y-36525D01*
X56731Y-36597D01*
X56597Y-36730D01*
X56525Y-36905D01*
X56525Y-37094D01*
X56597Y-37268D01*
X56671Y-37343D01*
X56477Y-37343D01*
X56477Y-36919D01*
X56410Y-36742D01*
X56394Y-36719D01*
X56319Y-36687D01*
X56312Y-36694D01*
X56312Y-36680D01*
X56280Y-36605D01*
X56108Y-36528D01*
X55919Y-36522D01*
X55742Y-36589D01*
X55719Y-36605D01*
X55687Y-36680D01*
X56000Y-36992D01*
X56312Y-36680D01*
X56312Y-36694D01*
X56007Y-37000D01*
X56319Y-37312D01*
X56394Y-37280D01*
X56471Y-37108D01*
X56477Y-36919D01*
X56477Y-37343D01*
X56302Y-37343D01*
X56312Y-37319D01*
X56000Y-37007D01*
X55992Y-37014D01*
X55992Y-37000D01*
X55680Y-36687D01*
X55605Y-36719D01*
X55528Y-36891D01*
X55522Y-37080D01*
X55589Y-37257D01*
X55605Y-37280D01*
X55680Y-37312D01*
X55992Y-37000D01*
X55992Y-37014D01*
X55687Y-37319D01*
X55697Y-37343D01*
X55626Y-37343D01*
X55446Y-37163D01*
X55474Y-37094D01*
X55474Y-36905D01*
X55402Y-36731D01*
X55269Y-36597D01*
X55240Y-36585D01*
X55240Y-36377D01*
X55221Y-36286D01*
X55169Y-36208D01*
X54692Y-35731D01*
X54692Y-34896D01*
X54705Y-34909D01*
X54705Y-35437D01*
X54720Y-35513D01*
X54764Y-35578D01*
X55216Y-36031D01*
X55281Y-36074D01*
X55358Y-36089D01*
X56806Y-36089D01*
X57553Y-36836D01*
X57525Y-36905D01*
X57525Y-37094D01*
X57597Y-37268D01*
X57671Y-37343D01*
G54D10*
G36*
X58313Y-27336D02*
X57602Y-28048D01*
X56420Y-28048D01*
X56349Y-27976D01*
X56230Y-27927D01*
X56100Y-27926D01*
X55981Y-27976D01*
X55889Y-28067D01*
X55840Y-28187D01*
X55840Y-28316D01*
X55889Y-28435D01*
X55981Y-28527D01*
X56100Y-28576D01*
X56229Y-28577D01*
X56349Y-28527D01*
X56428Y-28448D01*
X57556Y-28448D01*
X57070Y-28933D01*
X56401Y-28933D01*
X56330Y-28862D01*
X56210Y-28812D01*
X56081Y-28812D01*
X55961Y-28862D01*
X55870Y-28953D01*
X55820Y-29072D01*
X55820Y-29202D01*
X55869Y-29321D01*
X55961Y-29413D01*
X56047Y-29448D01*
X55027Y-29448D01*
X55027Y-26834D01*
X55009Y-26742D01*
X54957Y-26664D01*
X54677Y-26385D01*
X55515Y-26385D01*
X55607Y-26367D01*
X55685Y-26315D01*
X56177Y-25823D01*
X56500Y-25823D01*
X56555Y-25800D01*
X56597Y-25758D01*
X56614Y-25716D01*
X56739Y-25716D01*
X56756Y-25758D01*
X56798Y-25800D01*
X56854Y-25823D01*
X56913Y-25823D01*
X57484Y-25823D01*
X57539Y-25800D01*
X57581Y-25758D01*
X57600Y-25712D01*
X57674Y-25698D01*
X57752Y-25646D01*
X58008Y-25390D01*
X58060Y-25312D01*
X58078Y-25220D01*
X58078Y-23838D01*
X58060Y-23746D01*
X58008Y-23668D01*
X57749Y-23410D01*
X57905Y-23474D01*
X58017Y-23474D01*
X58090Y-23548D01*
X58090Y-23901D01*
X58090Y-26792D01*
X58055Y-26827D01*
X58005Y-26946D01*
X58005Y-27076D01*
X58055Y-27195D01*
X58146Y-27287D01*
X58265Y-27336D01*
X58313Y-27336D01*
X58313Y-27336D01*
G37*
G54D28*
X58313Y-27336D02*
X57602Y-28048D01*
X56420Y-28048D01*
X56349Y-27976D01*
X56230Y-27927D01*
X56100Y-27926D01*
X55981Y-27976D01*
X55889Y-28067D01*
X55840Y-28187D01*
X55840Y-28316D01*
X55889Y-28435D01*
X55981Y-28527D01*
X56100Y-28576D01*
X56229Y-28577D01*
X56349Y-28527D01*
X56428Y-28448D01*
X57556Y-28448D01*
X57070Y-28933D01*
X56401Y-28933D01*
X56330Y-28862D01*
X56210Y-28812D01*
X56081Y-28812D01*
X55961Y-28862D01*
X55870Y-28953D01*
X55820Y-29072D01*
X55820Y-29202D01*
X55869Y-29321D01*
X55961Y-29413D01*
X56047Y-29448D01*
X55027Y-29448D01*
X55027Y-26834D01*
X55009Y-26742D01*
X54957Y-26664D01*
X54677Y-26385D01*
X55515Y-26385D01*
X55607Y-26367D01*
X55685Y-26315D01*
X56177Y-25823D01*
X56500Y-25823D01*
X56555Y-25800D01*
X56597Y-25758D01*
X56614Y-25716D01*
X56739Y-25716D01*
X56756Y-25758D01*
X56798Y-25800D01*
X56854Y-25823D01*
X56913Y-25823D01*
X57484Y-25823D01*
X57539Y-25800D01*
X57581Y-25758D01*
X57600Y-25712D01*
X57674Y-25698D01*
X57752Y-25646D01*
X58008Y-25390D01*
X58060Y-25312D01*
X58078Y-25220D01*
X58078Y-23838D01*
X58060Y-23746D01*
X58008Y-23668D01*
X57749Y-23410D01*
X57905Y-23474D01*
X58017Y-23474D01*
X58090Y-23548D01*
X58090Y-23901D01*
X58090Y-26792D01*
X58055Y-26827D01*
X58005Y-26946D01*
X58005Y-27076D01*
X58055Y-27195D01*
X58146Y-27287D01*
X58265Y-27336D01*
X58313Y-27336D01*
G54D10*
G36*
X60927Y-31415D02*
X60413Y-31929D01*
X57267Y-31929D01*
X57191Y-31945D01*
X57126Y-31988D01*
X56209Y-32905D01*
X55417Y-32905D01*
X55361Y-32927D01*
X55319Y-32970D01*
X55296Y-33025D01*
X55296Y-33084D01*
X55296Y-33911D01*
X55319Y-33966D01*
X55361Y-34009D01*
X55417Y-34031D01*
X55433Y-34031D01*
X55433Y-34666D01*
X55407Y-34666D01*
X55352Y-34689D01*
X55309Y-34731D01*
X55287Y-34787D01*
X55287Y-34846D01*
X55287Y-35417D01*
X55309Y-35472D01*
X55352Y-35514D01*
X55407Y-35537D01*
X55466Y-35537D01*
X55860Y-35537D01*
X55915Y-35514D01*
X55957Y-35472D01*
X55980Y-35417D01*
X55980Y-35357D01*
X55980Y-34787D01*
X55957Y-34731D01*
X55915Y-34689D01*
X55860Y-34666D01*
X55833Y-34666D01*
X55833Y-34031D01*
X56441Y-34031D01*
X56496Y-34009D01*
X56538Y-33966D01*
X56561Y-33911D01*
X56561Y-33852D01*
X56561Y-33119D01*
X57350Y-32329D01*
X59462Y-32329D01*
X58886Y-32905D01*
X58094Y-32905D01*
X58039Y-32927D01*
X57996Y-32970D01*
X57974Y-33025D01*
X57974Y-33084D01*
X57974Y-33911D01*
X57996Y-33966D01*
X58039Y-34009D01*
X58094Y-34031D01*
X58153Y-34031D01*
X58701Y-34031D01*
X58701Y-34666D01*
X58674Y-34666D01*
X58619Y-34689D01*
X58577Y-34731D01*
X58554Y-34787D01*
X58554Y-34846D01*
X58554Y-35417D01*
X58577Y-35472D01*
X58619Y-35514D01*
X58674Y-35537D01*
X58734Y-35537D01*
X59128Y-35537D01*
X59183Y-35514D01*
X59225Y-35472D01*
X59248Y-35417D01*
X59248Y-35357D01*
X59248Y-35299D01*
X59275Y-35364D01*
X59351Y-35440D01*
X59351Y-35925D01*
X58858Y-36417D01*
X58815Y-36482D01*
X58800Y-36559D01*
X58800Y-36568D01*
X58731Y-36597D01*
X58597Y-36730D01*
X58525Y-36905D01*
X58525Y-37094D01*
X58597Y-37268D01*
X58671Y-37343D01*
X58500Y-37343D01*
X58500Y-35417D01*
X58500Y-35357D01*
X58500Y-35144D01*
X58500Y-35059D01*
X58500Y-34846D01*
X58500Y-34787D01*
X58477Y-34731D01*
X58435Y-34689D01*
X58380Y-34666D01*
X58196Y-34666D01*
X58158Y-34704D01*
X58158Y-35097D01*
X58462Y-35097D01*
X58500Y-35059D01*
X58500Y-35144D01*
X58462Y-35107D01*
X58158Y-35107D01*
X58158Y-35500D01*
X58196Y-35537D01*
X58380Y-35537D01*
X58435Y-35514D01*
X58477Y-35472D01*
X58500Y-35417D01*
X58500Y-37343D01*
X58328Y-37343D01*
X58402Y-37269D01*
X58474Y-37094D01*
X58474Y-36905D01*
X58402Y-36731D01*
X58269Y-36597D01*
X58148Y-36547D01*
X58148Y-35500D01*
X58148Y-35107D01*
X58148Y-35097D01*
X58148Y-34704D01*
X58111Y-34666D01*
X57926Y-34666D01*
X57871Y-34689D01*
X57829Y-34731D01*
X57806Y-34787D01*
X57806Y-34846D01*
X57806Y-35059D01*
X57844Y-35097D01*
X58148Y-35097D01*
X58148Y-35107D01*
X57844Y-35107D01*
X57806Y-35144D01*
X57806Y-35357D01*
X57806Y-35417D01*
X57829Y-35472D01*
X57871Y-35514D01*
X57926Y-35537D01*
X58111Y-35537D01*
X58148Y-35500D01*
X58148Y-36547D01*
X58094Y-36525D01*
X57905Y-36525D01*
X57836Y-36553D01*
X57031Y-35748D01*
X56966Y-35704D01*
X56889Y-35689D01*
X56728Y-35689D01*
X56728Y-35417D01*
X56728Y-35357D01*
X56728Y-35144D01*
X56728Y-35059D01*
X56728Y-34846D01*
X56728Y-34787D01*
X56705Y-34731D01*
X56663Y-34689D01*
X56608Y-34666D01*
X56424Y-34666D01*
X56386Y-34704D01*
X56386Y-35097D01*
X56691Y-35097D01*
X56728Y-35059D01*
X56728Y-35144D01*
X56691Y-35107D01*
X56386Y-35107D01*
X56386Y-35500D01*
X56424Y-35537D01*
X56608Y-35537D01*
X56663Y-35514D01*
X56705Y-35472D01*
X56728Y-35417D01*
X56728Y-35689D01*
X56376Y-35689D01*
X56376Y-35500D01*
X56376Y-35107D01*
X56376Y-35097D01*
X56376Y-34704D01*
X56339Y-34666D01*
X56155Y-34666D01*
X56100Y-34689D01*
X56057Y-34731D01*
X56035Y-34787D01*
X56035Y-34846D01*
X56035Y-35059D01*
X56072Y-35097D01*
X56376Y-35097D01*
X56376Y-35107D01*
X56072Y-35107D01*
X56035Y-35144D01*
X56035Y-35357D01*
X56035Y-35417D01*
X56057Y-35472D01*
X56100Y-35514D01*
X56155Y-35537D01*
X56339Y-35537D01*
X56376Y-35500D01*
X56376Y-35689D01*
X55441Y-35689D01*
X55105Y-35354D01*
X55105Y-34909D01*
X55180Y-34833D01*
X55230Y-34714D01*
X55230Y-34585D01*
X55181Y-34465D01*
X55089Y-34374D01*
X54970Y-34324D01*
X54841Y-34324D01*
X54721Y-34373D01*
X54692Y-34402D01*
X54692Y-30221D01*
X54957Y-29957D01*
X54957Y-29957D01*
X54957Y-29957D01*
X54985Y-29928D01*
X57090Y-29928D01*
X57182Y-29910D01*
X57260Y-29858D01*
X58761Y-28357D01*
X58734Y-28423D01*
X58733Y-28552D01*
X58783Y-28672D01*
X58874Y-28763D01*
X58994Y-28813D01*
X59123Y-28813D01*
X59197Y-28782D01*
X59167Y-28856D01*
X59167Y-28985D01*
X59216Y-29105D01*
X59292Y-29180D01*
X59292Y-29551D01*
X59307Y-29627D01*
X59350Y-29692D01*
X59848Y-30190D01*
X59801Y-30190D01*
X59682Y-30240D01*
X59590Y-30331D01*
X59541Y-30450D01*
X59541Y-30580D01*
X59590Y-30699D01*
X59681Y-30791D01*
X59801Y-30840D01*
X59908Y-30840D01*
X60424Y-31356D01*
X60489Y-31400D01*
X60565Y-31415D01*
X60927Y-31415D01*
X60927Y-31415D01*
G37*
G54D28*
X60927Y-31415D02*
X60413Y-31929D01*
X57267Y-31929D01*
X57191Y-31945D01*
X57126Y-31988D01*
X56209Y-32905D01*
X55417Y-32905D01*
X55361Y-32927D01*
X55319Y-32970D01*
X55296Y-33025D01*
X55296Y-33084D01*
X55296Y-33911D01*
X55319Y-33966D01*
X55361Y-34009D01*
X55417Y-34031D01*
X55433Y-34031D01*
X55433Y-34666D01*
X55407Y-34666D01*
X55352Y-34689D01*
X55309Y-34731D01*
X55287Y-34787D01*
X55287Y-34846D01*
X55287Y-35417D01*
X55309Y-35472D01*
X55352Y-35514D01*
X55407Y-35537D01*
X55466Y-35537D01*
X55860Y-35537D01*
X55915Y-35514D01*
X55957Y-35472D01*
X55980Y-35417D01*
X55980Y-35357D01*
X55980Y-34787D01*
X55957Y-34731D01*
X55915Y-34689D01*
X55860Y-34666D01*
X55833Y-34666D01*
X55833Y-34031D01*
X56441Y-34031D01*
X56496Y-34009D01*
X56538Y-33966D01*
X56561Y-33911D01*
X56561Y-33852D01*
X56561Y-33119D01*
X57350Y-32329D01*
X59462Y-32329D01*
X58886Y-32905D01*
X58094Y-32905D01*
X58039Y-32927D01*
X57996Y-32970D01*
X57974Y-33025D01*
X57974Y-33084D01*
X57974Y-33911D01*
X57996Y-33966D01*
X58039Y-34009D01*
X58094Y-34031D01*
X58153Y-34031D01*
X58701Y-34031D01*
X58701Y-34666D01*
X58674Y-34666D01*
X58619Y-34689D01*
X58577Y-34731D01*
X58554Y-34787D01*
X58554Y-34846D01*
X58554Y-35417D01*
X58577Y-35472D01*
X58619Y-35514D01*
X58674Y-35537D01*
X58734Y-35537D01*
X59128Y-35537D01*
X59183Y-35514D01*
X59225Y-35472D01*
X59248Y-35417D01*
X59248Y-35357D01*
X59248Y-35299D01*
X59275Y-35364D01*
X59351Y-35440D01*
X59351Y-35925D01*
X58858Y-36417D01*
X58815Y-36482D01*
X58800Y-36559D01*
X58800Y-36568D01*
X58731Y-36597D01*
X58597Y-36730D01*
X58525Y-36905D01*
X58525Y-37094D01*
X58597Y-37268D01*
X58671Y-37343D01*
X58500Y-37343D01*
X58500Y-35417D01*
X58500Y-35357D01*
X58500Y-35144D01*
X58500Y-35059D01*
X58500Y-34846D01*
X58500Y-34787D01*
X58477Y-34731D01*
X58435Y-34689D01*
X58380Y-34666D01*
X58196Y-34666D01*
X58158Y-34704D01*
X58158Y-35097D01*
X58462Y-35097D01*
X58500Y-35059D01*
X58500Y-35144D01*
X58462Y-35107D01*
X58158Y-35107D01*
X58158Y-35500D01*
X58196Y-35537D01*
X58380Y-35537D01*
X58435Y-35514D01*
X58477Y-35472D01*
X58500Y-35417D01*
X58500Y-37343D01*
X58328Y-37343D01*
X58402Y-37269D01*
X58474Y-37094D01*
X58474Y-36905D01*
X58402Y-36731D01*
X58269Y-36597D01*
X58148Y-36547D01*
X58148Y-35500D01*
X58148Y-35107D01*
X58148Y-35097D01*
X58148Y-34704D01*
X58111Y-34666D01*
X57926Y-34666D01*
X57871Y-34689D01*
X57829Y-34731D01*
X57806Y-34787D01*
X57806Y-34846D01*
X57806Y-35059D01*
X57844Y-35097D01*
X58148Y-35097D01*
X58148Y-35107D01*
X57844Y-35107D01*
X57806Y-35144D01*
X57806Y-35357D01*
X57806Y-35417D01*
X57829Y-35472D01*
X57871Y-35514D01*
X57926Y-35537D01*
X58111Y-35537D01*
X58148Y-35500D01*
X58148Y-36547D01*
X58094Y-36525D01*
X57905Y-36525D01*
X57836Y-36553D01*
X57031Y-35748D01*
X56966Y-35704D01*
X56889Y-35689D01*
X56728Y-35689D01*
X56728Y-35417D01*
X56728Y-35357D01*
X56728Y-35144D01*
X56728Y-35059D01*
X56728Y-34846D01*
X56728Y-34787D01*
X56705Y-34731D01*
X56663Y-34689D01*
X56608Y-34666D01*
X56424Y-34666D01*
X56386Y-34704D01*
X56386Y-35097D01*
X56691Y-35097D01*
X56728Y-35059D01*
X56728Y-35144D01*
X56691Y-35107D01*
X56386Y-35107D01*
X56386Y-35500D01*
X56424Y-35537D01*
X56608Y-35537D01*
X56663Y-35514D01*
X56705Y-35472D01*
X56728Y-35417D01*
X56728Y-35689D01*
X56376Y-35689D01*
X56376Y-35500D01*
X56376Y-35107D01*
X56376Y-35097D01*
X56376Y-34704D01*
X56339Y-34666D01*
X56155Y-34666D01*
X56100Y-34689D01*
X56057Y-34731D01*
X56035Y-34787D01*
X56035Y-34846D01*
X56035Y-35059D01*
X56072Y-35097D01*
X56376Y-35097D01*
X56376Y-35107D01*
X56072Y-35107D01*
X56035Y-35144D01*
X56035Y-35357D01*
X56035Y-35417D01*
X56057Y-35472D01*
X56100Y-35514D01*
X56155Y-35537D01*
X56339Y-35537D01*
X56376Y-35500D01*
X56376Y-35689D01*
X55441Y-35689D01*
X55105Y-35354D01*
X55105Y-34909D01*
X55180Y-34833D01*
X55230Y-34714D01*
X55230Y-34585D01*
X55181Y-34465D01*
X55089Y-34374D01*
X54970Y-34324D01*
X54841Y-34324D01*
X54721Y-34373D01*
X54692Y-34402D01*
X54692Y-30221D01*
X54957Y-29957D01*
X54957Y-29957D01*
X54957Y-29957D01*
X54985Y-29928D01*
X57090Y-29928D01*
X57182Y-29910D01*
X57260Y-29858D01*
X58761Y-28357D01*
X58734Y-28423D01*
X58733Y-28552D01*
X58783Y-28672D01*
X58874Y-28763D01*
X58994Y-28813D01*
X59123Y-28813D01*
X59197Y-28782D01*
X59167Y-28856D01*
X59167Y-28985D01*
X59216Y-29105D01*
X59292Y-29180D01*
X59292Y-29551D01*
X59307Y-29627D01*
X59350Y-29692D01*
X59848Y-30190D01*
X59801Y-30190D01*
X59682Y-30240D01*
X59590Y-30331D01*
X59541Y-30450D01*
X59541Y-30580D01*
X59590Y-30699D01*
X59681Y-30791D01*
X59801Y-30840D01*
X59908Y-30840D01*
X60424Y-31356D01*
X60489Y-31400D01*
X60565Y-31415D01*
X60927Y-31415D01*
G54D10*
G36*
X61928Y-30118D02*
X61890Y-30157D01*
X61858Y-30125D01*
X61707Y-29974D01*
X61654Y-29974D01*
X61647Y-29981D01*
X61647Y-29967D01*
X61647Y-29914D01*
X61496Y-29763D01*
X61454Y-29721D01*
X61399Y-29698D01*
X61339Y-29698D01*
X61284Y-29721D01*
X61154Y-29851D01*
X61154Y-29904D01*
X61432Y-30182D01*
X61647Y-29967D01*
X61647Y-29981D01*
X61439Y-30189D01*
X61445Y-30195D01*
X61437Y-30202D01*
X61432Y-30196D01*
X61425Y-30203D01*
X61425Y-30189D01*
X61147Y-29911D01*
X61094Y-29911D01*
X60964Y-30042D01*
X60941Y-30097D01*
X60941Y-30156D01*
X60964Y-30211D01*
X61006Y-30254D01*
X61157Y-30404D01*
X61210Y-30404D01*
X61425Y-30189D01*
X61425Y-30203D01*
X61217Y-30411D01*
X61217Y-30464D01*
X61367Y-30615D01*
X61400Y-30647D01*
X61299Y-30748D01*
X60972Y-30748D01*
X59692Y-29468D01*
X59692Y-29180D01*
X59767Y-29105D01*
X59817Y-28986D01*
X59817Y-28856D01*
X59767Y-28737D01*
X59758Y-28728D01*
X60672Y-28728D01*
X61482Y-29538D01*
X61470Y-29568D01*
X61470Y-29627D01*
X61493Y-29683D01*
X61535Y-29725D01*
X61928Y-30118D01*
X61928Y-30118D01*
G37*
G54D28*
X61928Y-30118D02*
X61890Y-30157D01*
X61858Y-30125D01*
X61707Y-29974D01*
X61654Y-29974D01*
X61647Y-29981D01*
X61647Y-29967D01*
X61647Y-29914D01*
X61496Y-29763D01*
X61454Y-29721D01*
X61399Y-29698D01*
X61339Y-29698D01*
X61284Y-29721D01*
X61154Y-29851D01*
X61154Y-29904D01*
X61432Y-30182D01*
X61647Y-29967D01*
X61647Y-29981D01*
X61439Y-30189D01*
X61445Y-30195D01*
X61437Y-30202D01*
X61432Y-30196D01*
X61425Y-30203D01*
X61425Y-30189D01*
X61147Y-29911D01*
X61094Y-29911D01*
X60964Y-30042D01*
X60941Y-30097D01*
X60941Y-30156D01*
X60964Y-30211D01*
X61006Y-30254D01*
X61157Y-30404D01*
X61210Y-30404D01*
X61425Y-30189D01*
X61425Y-30203D01*
X61217Y-30411D01*
X61217Y-30464D01*
X61367Y-30615D01*
X61400Y-30647D01*
X61299Y-30748D01*
X60972Y-30748D01*
X59692Y-29468D01*
X59692Y-29180D01*
X59767Y-29105D01*
X59817Y-28986D01*
X59817Y-28856D01*
X59767Y-28737D01*
X59758Y-28728D01*
X60672Y-28728D01*
X61482Y-29538D01*
X61470Y-29568D01*
X61470Y-29627D01*
X61493Y-29683D01*
X61535Y-29725D01*
X61928Y-30118D01*
G54D10*
G36*
X62601Y-27548D02*
X62514Y-27548D01*
X62246Y-27280D01*
X62191Y-27257D01*
X62131Y-27257D01*
X62076Y-27280D01*
X62061Y-27296D01*
X62061Y-27186D01*
X62061Y-27127D01*
X62038Y-27072D01*
X61908Y-26941D01*
X61855Y-26941D01*
X61848Y-26949D01*
X61848Y-26934D01*
X61848Y-26881D01*
X61717Y-26751D01*
X61662Y-26728D01*
X61602Y-26728D01*
X61547Y-26751D01*
X61505Y-26793D01*
X61354Y-26944D01*
X61354Y-26997D01*
X61570Y-27212D01*
X61848Y-26934D01*
X61848Y-26949D01*
X61577Y-27219D01*
X61792Y-27434D01*
X61845Y-27434D01*
X61996Y-27284D01*
X62038Y-27242D01*
X62061Y-27186D01*
X62061Y-27296D01*
X62034Y-27322D01*
X61785Y-27571D01*
X61785Y-27495D01*
X61785Y-27442D01*
X61570Y-27226D01*
X61563Y-27233D01*
X61563Y-27219D01*
X61347Y-27004D01*
X61294Y-27004D01*
X61144Y-27155D01*
X61101Y-27197D01*
X61079Y-27252D01*
X61079Y-27312D01*
X61101Y-27367D01*
X61232Y-27497D01*
X61285Y-27497D01*
X61563Y-27219D01*
X61563Y-27233D01*
X61292Y-27504D01*
X61292Y-27557D01*
X61422Y-27687D01*
X61477Y-27710D01*
X61537Y-27710D01*
X61592Y-27687D01*
X61634Y-27645D01*
X61785Y-27495D01*
X61785Y-27571D01*
X61630Y-27726D01*
X61626Y-27736D01*
X58833Y-27736D01*
X60953Y-25616D01*
X60988Y-25699D01*
X61063Y-25775D01*
X61063Y-25948D01*
X61079Y-26025D01*
X61122Y-26090D01*
X62539Y-27507D01*
X62601Y-27548D01*
X62601Y-27548D01*
G37*
G54D28*
X62601Y-27548D02*
X62514Y-27548D01*
X62246Y-27280D01*
X62191Y-27257D01*
X62131Y-27257D01*
X62076Y-27280D01*
X62061Y-27296D01*
X62061Y-27186D01*
X62061Y-27127D01*
X62038Y-27072D01*
X61908Y-26941D01*
X61855Y-26941D01*
X61848Y-26949D01*
X61848Y-26934D01*
X61848Y-26881D01*
X61717Y-26751D01*
X61662Y-26728D01*
X61602Y-26728D01*
X61547Y-26751D01*
X61505Y-26793D01*
X61354Y-26944D01*
X61354Y-26997D01*
X61570Y-27212D01*
X61848Y-26934D01*
X61848Y-26949D01*
X61577Y-27219D01*
X61792Y-27434D01*
X61845Y-27434D01*
X61996Y-27284D01*
X62038Y-27242D01*
X62061Y-27186D01*
X62061Y-27296D01*
X62034Y-27322D01*
X61785Y-27571D01*
X61785Y-27495D01*
X61785Y-27442D01*
X61570Y-27226D01*
X61563Y-27233D01*
X61563Y-27219D01*
X61347Y-27004D01*
X61294Y-27004D01*
X61144Y-27155D01*
X61101Y-27197D01*
X61079Y-27252D01*
X61079Y-27312D01*
X61101Y-27367D01*
X61232Y-27497D01*
X61285Y-27497D01*
X61563Y-27219D01*
X61563Y-27233D01*
X61292Y-27504D01*
X61292Y-27557D01*
X61422Y-27687D01*
X61477Y-27710D01*
X61537Y-27710D01*
X61592Y-27687D01*
X61634Y-27645D01*
X61785Y-27495D01*
X61785Y-27571D01*
X61630Y-27726D01*
X61626Y-27736D01*
X58833Y-27736D01*
X60953Y-25616D01*
X60988Y-25699D01*
X61063Y-25775D01*
X61063Y-25948D01*
X61079Y-26025D01*
X61122Y-26090D01*
X62539Y-27507D01*
X62601Y-27548D01*
G54D10*
G36*
X63268Y-35551D02*
X63067Y-35752D01*
X63067Y-35417D01*
X63067Y-35357D01*
X63067Y-35144D01*
X63067Y-35059D01*
X63067Y-34846D01*
X63067Y-34787D01*
X63044Y-34731D01*
X63002Y-34689D01*
X62947Y-34666D01*
X62762Y-34666D01*
X62725Y-34704D01*
X62725Y-35097D01*
X63029Y-35097D01*
X63067Y-35059D01*
X63067Y-35144D01*
X63029Y-35107D01*
X62725Y-35107D01*
X62725Y-35500D01*
X62762Y-35537D01*
X62947Y-35537D01*
X63002Y-35514D01*
X63044Y-35472D01*
X63067Y-35417D01*
X63067Y-35752D01*
X63011Y-35807D01*
X62715Y-35807D01*
X62715Y-35500D01*
X62715Y-35107D01*
X62715Y-35097D01*
X62715Y-34704D01*
X62677Y-34666D01*
X62493Y-34666D01*
X62438Y-34689D01*
X62396Y-34731D01*
X62373Y-34787D01*
X62373Y-34846D01*
X62373Y-35059D01*
X62411Y-35097D01*
X62715Y-35097D01*
X62715Y-35107D01*
X62411Y-35107D01*
X62373Y-35144D01*
X62373Y-35357D01*
X62373Y-35417D01*
X62396Y-35472D01*
X62438Y-35514D01*
X62493Y-35537D01*
X62677Y-35537D01*
X62715Y-35500D01*
X62715Y-35807D01*
X61992Y-35807D01*
X61915Y-35823D01*
X61850Y-35866D01*
X61295Y-36421D01*
X61295Y-35417D01*
X61295Y-35357D01*
X61295Y-35144D01*
X61295Y-35059D01*
X61295Y-34846D01*
X61295Y-34787D01*
X61272Y-34731D01*
X61230Y-34689D01*
X61175Y-34666D01*
X60991Y-34666D01*
X60953Y-34704D01*
X60953Y-35097D01*
X61258Y-35097D01*
X61295Y-35059D01*
X61295Y-35144D01*
X61258Y-35107D01*
X60953Y-35107D01*
X60953Y-35500D01*
X60991Y-35537D01*
X61175Y-35537D01*
X61230Y-35514D01*
X61272Y-35472D01*
X61295Y-35417D01*
X61295Y-36421D01*
X61163Y-36553D01*
X61094Y-36525D01*
X60943Y-36525D01*
X60943Y-35500D01*
X60943Y-35107D01*
X60943Y-35097D01*
X60943Y-34704D01*
X60906Y-34666D01*
X60722Y-34666D01*
X60667Y-34689D01*
X60624Y-34731D01*
X60601Y-34787D01*
X60601Y-34846D01*
X60601Y-35059D01*
X60639Y-35097D01*
X60943Y-35097D01*
X60943Y-35107D01*
X60639Y-35107D01*
X60601Y-35144D01*
X60601Y-35357D01*
X60601Y-35417D01*
X60624Y-35472D01*
X60667Y-35514D01*
X60722Y-35537D01*
X60906Y-35537D01*
X60943Y-35500D01*
X60943Y-36525D01*
X60905Y-36525D01*
X60731Y-36597D01*
X60597Y-36730D01*
X60525Y-36905D01*
X60525Y-37094D01*
X60597Y-37268D01*
X60671Y-37343D01*
X60328Y-37343D01*
X60402Y-37269D01*
X60474Y-37094D01*
X60474Y-36905D01*
X60402Y-36731D01*
X60400Y-36729D01*
X60400Y-35537D01*
X60427Y-35537D01*
X60482Y-35514D01*
X60524Y-35472D01*
X60547Y-35417D01*
X60547Y-35357D01*
X60547Y-34787D01*
X60524Y-34731D01*
X60482Y-34689D01*
X60427Y-34666D01*
X60400Y-34666D01*
X60400Y-34051D01*
X61008Y-34051D01*
X61063Y-34028D01*
X61105Y-33986D01*
X61128Y-33931D01*
X61128Y-33871D01*
X61128Y-33044D01*
X61105Y-32989D01*
X61063Y-32947D01*
X61008Y-32924D01*
X60948Y-32924D01*
X60696Y-32924D01*
X60696Y-32763D01*
X61988Y-31471D01*
X61988Y-32503D01*
X62004Y-32580D01*
X62047Y-32645D01*
X62540Y-33138D01*
X62540Y-33931D01*
X62563Y-33986D01*
X62605Y-34028D01*
X62661Y-34051D01*
X62720Y-34051D01*
X63268Y-34051D01*
X63268Y-34666D01*
X63241Y-34666D01*
X63186Y-34689D01*
X63144Y-34731D01*
X63121Y-34787D01*
X63121Y-34846D01*
X63121Y-35417D01*
X63144Y-35472D01*
X63186Y-35514D01*
X63241Y-35537D01*
X63268Y-35537D01*
X63268Y-35551D01*
X63268Y-35551D01*
G37*
G54D28*
X63268Y-35551D02*
X63067Y-35752D01*
X63067Y-35417D01*
X63067Y-35357D01*
X63067Y-35144D01*
X63067Y-35059D01*
X63067Y-34846D01*
X63067Y-34787D01*
X63044Y-34731D01*
X63002Y-34689D01*
X62947Y-34666D01*
X62762Y-34666D01*
X62725Y-34704D01*
X62725Y-35097D01*
X63029Y-35097D01*
X63067Y-35059D01*
X63067Y-35144D01*
X63029Y-35107D01*
X62725Y-35107D01*
X62725Y-35500D01*
X62762Y-35537D01*
X62947Y-35537D01*
X63002Y-35514D01*
X63044Y-35472D01*
X63067Y-35417D01*
X63067Y-35752D01*
X63011Y-35807D01*
X62715Y-35807D01*
X62715Y-35500D01*
X62715Y-35107D01*
X62715Y-35097D01*
X62715Y-34704D01*
X62677Y-34666D01*
X62493Y-34666D01*
X62438Y-34689D01*
X62396Y-34731D01*
X62373Y-34787D01*
X62373Y-34846D01*
X62373Y-35059D01*
X62411Y-35097D01*
X62715Y-35097D01*
X62715Y-35107D01*
X62411Y-35107D01*
X62373Y-35144D01*
X62373Y-35357D01*
X62373Y-35417D01*
X62396Y-35472D01*
X62438Y-35514D01*
X62493Y-35537D01*
X62677Y-35537D01*
X62715Y-35500D01*
X62715Y-35807D01*
X61992Y-35807D01*
X61915Y-35823D01*
X61850Y-35866D01*
X61295Y-36421D01*
X61295Y-35417D01*
X61295Y-35357D01*
X61295Y-35144D01*
X61295Y-35059D01*
X61295Y-34846D01*
X61295Y-34787D01*
X61272Y-34731D01*
X61230Y-34689D01*
X61175Y-34666D01*
X60991Y-34666D01*
X60953Y-34704D01*
X60953Y-35097D01*
X61258Y-35097D01*
X61295Y-35059D01*
X61295Y-35144D01*
X61258Y-35107D01*
X60953Y-35107D01*
X60953Y-35500D01*
X60991Y-35537D01*
X61175Y-35537D01*
X61230Y-35514D01*
X61272Y-35472D01*
X61295Y-35417D01*
X61295Y-36421D01*
X61163Y-36553D01*
X61094Y-36525D01*
X60943Y-36525D01*
X60943Y-35500D01*
X60943Y-35107D01*
X60943Y-35097D01*
X60943Y-34704D01*
X60906Y-34666D01*
X60722Y-34666D01*
X60667Y-34689D01*
X60624Y-34731D01*
X60601Y-34787D01*
X60601Y-34846D01*
X60601Y-35059D01*
X60639Y-35097D01*
X60943Y-35097D01*
X60943Y-35107D01*
X60639Y-35107D01*
X60601Y-35144D01*
X60601Y-35357D01*
X60601Y-35417D01*
X60624Y-35472D01*
X60667Y-35514D01*
X60722Y-35537D01*
X60906Y-35537D01*
X60943Y-35500D01*
X60943Y-36525D01*
X60905Y-36525D01*
X60731Y-36597D01*
X60597Y-36730D01*
X60525Y-36905D01*
X60525Y-37094D01*
X60597Y-37268D01*
X60671Y-37343D01*
X60328Y-37343D01*
X60402Y-37269D01*
X60474Y-37094D01*
X60474Y-36905D01*
X60402Y-36731D01*
X60400Y-36729D01*
X60400Y-35537D01*
X60427Y-35537D01*
X60482Y-35514D01*
X60524Y-35472D01*
X60547Y-35417D01*
X60547Y-35357D01*
X60547Y-34787D01*
X60524Y-34731D01*
X60482Y-34689D01*
X60427Y-34666D01*
X60400Y-34666D01*
X60400Y-34051D01*
X61008Y-34051D01*
X61063Y-34028D01*
X61105Y-33986D01*
X61128Y-33931D01*
X61128Y-33871D01*
X61128Y-33044D01*
X61105Y-32989D01*
X61063Y-32947D01*
X61008Y-32924D01*
X60948Y-32924D01*
X60696Y-32924D01*
X60696Y-32763D01*
X61988Y-31471D01*
X61988Y-32503D01*
X62004Y-32580D01*
X62047Y-32645D01*
X62540Y-33138D01*
X62540Y-33931D01*
X62563Y-33986D01*
X62605Y-34028D01*
X62661Y-34051D01*
X62720Y-34051D01*
X63268Y-34051D01*
X63268Y-34666D01*
X63241Y-34666D01*
X63186Y-34689D01*
X63144Y-34731D01*
X63121Y-34787D01*
X63121Y-34846D01*
X63121Y-35417D01*
X63144Y-35472D01*
X63186Y-35514D01*
X63241Y-35537D01*
X63268Y-35537D01*
X63268Y-35551D01*
G54D10*
G36*
X63721Y-32939D02*
X63685Y-32924D01*
X63625Y-32924D01*
X62892Y-32924D01*
X62388Y-32421D01*
X62388Y-32336D01*
X62437Y-32385D01*
X62557Y-32435D01*
X62686Y-32435D01*
X62805Y-32385D01*
X62897Y-32294D01*
X62934Y-32204D01*
X62934Y-32258D01*
X62957Y-32313D01*
X62999Y-32355D01*
X63054Y-32378D01*
X63114Y-32378D01*
X63327Y-32378D01*
X63365Y-32340D01*
X63365Y-32036D01*
X63357Y-32036D01*
X63357Y-32026D01*
X63365Y-32026D01*
X63365Y-31722D01*
X63327Y-31684D01*
X63114Y-31684D01*
X63054Y-31684D01*
X62999Y-31707D01*
X62957Y-31749D01*
X62934Y-31804D01*
X62934Y-31988D01*
X62972Y-32026D01*
X62939Y-32026D01*
X62897Y-31926D01*
X62822Y-31850D01*
X62822Y-31189D01*
X62934Y-31076D01*
X62934Y-31116D01*
X62934Y-31510D01*
X62957Y-31565D01*
X62999Y-31607D01*
X63054Y-31630D01*
X63114Y-31630D01*
X63685Y-31630D01*
X63721Y-31615D01*
X63721Y-31699D01*
X63685Y-31684D01*
X63625Y-31684D01*
X63412Y-31684D01*
X63375Y-31722D01*
X63375Y-32026D01*
X63382Y-32026D01*
X63382Y-32036D01*
X63375Y-32036D01*
X63375Y-32340D01*
X63412Y-32378D01*
X63625Y-32378D01*
X63685Y-32378D01*
X63721Y-32363D01*
X63721Y-32939D01*
X63721Y-32939D01*
G37*
G54D28*
X63721Y-32939D02*
X63685Y-32924D01*
X63625Y-32924D01*
X62892Y-32924D01*
X62388Y-32421D01*
X62388Y-32336D01*
X62437Y-32385D01*
X62557Y-32435D01*
X62686Y-32435D01*
X62805Y-32385D01*
X62897Y-32294D01*
X62934Y-32204D01*
X62934Y-32258D01*
X62957Y-32313D01*
X62999Y-32355D01*
X63054Y-32378D01*
X63114Y-32378D01*
X63327Y-32378D01*
X63365Y-32340D01*
X63365Y-32036D01*
X63357Y-32036D01*
X63357Y-32026D01*
X63365Y-32026D01*
X63365Y-31722D01*
X63327Y-31684D01*
X63114Y-31684D01*
X63054Y-31684D01*
X62999Y-31707D01*
X62957Y-31749D01*
X62934Y-31804D01*
X62934Y-31988D01*
X62972Y-32026D01*
X62939Y-32026D01*
X62897Y-31926D01*
X62822Y-31850D01*
X62822Y-31189D01*
X62934Y-31076D01*
X62934Y-31116D01*
X62934Y-31510D01*
X62957Y-31565D01*
X62999Y-31607D01*
X63054Y-31630D01*
X63114Y-31630D01*
X63685Y-31630D01*
X63721Y-31615D01*
X63721Y-31699D01*
X63685Y-31684D01*
X63625Y-31684D01*
X63412Y-31684D01*
X63375Y-31722D01*
X63375Y-32026D01*
X63382Y-32026D01*
X63382Y-32036D01*
X63375Y-32036D01*
X63375Y-32340D01*
X63412Y-32378D01*
X63625Y-32378D01*
X63685Y-32378D01*
X63721Y-32363D01*
X63721Y-32939D01*
G54D10*
G36*
X64961Y-29251D02*
X64724Y-29488D01*
X64590Y-29488D01*
X64514Y-29504D01*
X64473Y-29531D01*
X64471Y-29529D01*
X64462Y-29538D01*
X64449Y-29547D01*
X64445Y-29551D01*
X64445Y-29502D01*
X64412Y-29470D01*
X64402Y-29466D01*
X64398Y-29456D01*
X64356Y-29414D01*
X64273Y-29330D01*
X64263Y-29326D01*
X64259Y-29317D01*
X64217Y-29275D01*
X64134Y-29191D01*
X64124Y-29187D01*
X64120Y-29178D01*
X64078Y-29135D01*
X63994Y-29052D01*
X63985Y-29048D01*
X63981Y-29038D01*
X63939Y-28996D01*
X63855Y-28913D01*
X63846Y-28909D01*
X63842Y-28899D01*
X63799Y-28857D01*
X63716Y-28774D01*
X63706Y-28770D01*
X63702Y-28760D01*
X63660Y-28718D01*
X63626Y-28684D01*
X63645Y-28688D01*
X64961Y-28688D01*
X64961Y-29251D01*
X64961Y-29251D01*
G37*
G54D28*
X64961Y-29251D02*
X64724Y-29488D01*
X64590Y-29488D01*
X64514Y-29504D01*
X64473Y-29531D01*
X64471Y-29529D01*
X64462Y-29538D01*
X64449Y-29547D01*
X64445Y-29551D01*
X64445Y-29502D01*
X64412Y-29470D01*
X64402Y-29466D01*
X64398Y-29456D01*
X64356Y-29414D01*
X64273Y-29330D01*
X64263Y-29326D01*
X64259Y-29317D01*
X64217Y-29275D01*
X64134Y-29191D01*
X64124Y-29187D01*
X64120Y-29178D01*
X64078Y-29135D01*
X63994Y-29052D01*
X63985Y-29048D01*
X63981Y-29038D01*
X63939Y-28996D01*
X63855Y-28913D01*
X63846Y-28909D01*
X63842Y-28899D01*
X63799Y-28857D01*
X63716Y-28774D01*
X63706Y-28770D01*
X63702Y-28760D01*
X63660Y-28718D01*
X63626Y-28684D01*
X63645Y-28688D01*
X64961Y-28688D01*
X64961Y-29251D01*
G54D10*
G36*
X64965Y-26872D02*
X64961Y-26893D01*
X64961Y-28288D01*
X63728Y-28288D01*
X63640Y-28199D01*
X63643Y-28196D01*
X63617Y-28169D01*
X63670Y-28169D01*
X63702Y-28137D01*
X63706Y-28127D01*
X63716Y-28123D01*
X63758Y-28081D01*
X63842Y-27997D01*
X63846Y-27988D01*
X63855Y-27984D01*
X63897Y-27942D01*
X63981Y-27858D01*
X63985Y-27849D01*
X63994Y-27845D01*
X64037Y-27803D01*
X64120Y-27719D01*
X64124Y-27709D01*
X64134Y-27706D01*
X64176Y-27663D01*
X64259Y-27580D01*
X64263Y-27570D01*
X64273Y-27566D01*
X64315Y-27524D01*
X64398Y-27441D01*
X64402Y-27431D01*
X64412Y-27427D01*
X64454Y-27385D01*
X64538Y-27301D01*
X64542Y-27292D01*
X64551Y-27288D01*
X64593Y-27246D01*
X64677Y-27162D01*
X64681Y-27153D01*
X64690Y-27149D01*
X64732Y-27107D01*
X64816Y-27023D01*
X64820Y-27013D01*
X64829Y-27010D01*
X64872Y-26967D01*
X64955Y-26884D01*
X64959Y-26874D01*
X64965Y-26872D01*
X64965Y-26872D01*
G37*
G54D28*
X64965Y-26872D02*
X64961Y-26893D01*
X64961Y-28288D01*
X63728Y-28288D01*
X63640Y-28199D01*
X63643Y-28196D01*
X63617Y-28169D01*
X63670Y-28169D01*
X63702Y-28137D01*
X63706Y-28127D01*
X63716Y-28123D01*
X63758Y-28081D01*
X63842Y-27997D01*
X63846Y-27988D01*
X63855Y-27984D01*
X63897Y-27942D01*
X63981Y-27858D01*
X63985Y-27849D01*
X63994Y-27845D01*
X64037Y-27803D01*
X64120Y-27719D01*
X64124Y-27709D01*
X64134Y-27706D01*
X64176Y-27663D01*
X64259Y-27580D01*
X64263Y-27570D01*
X64273Y-27566D01*
X64315Y-27524D01*
X64398Y-27441D01*
X64402Y-27431D01*
X64412Y-27427D01*
X64454Y-27385D01*
X64538Y-27301D01*
X64542Y-27292D01*
X64551Y-27288D01*
X64593Y-27246D01*
X64677Y-27162D01*
X64681Y-27153D01*
X64690Y-27149D01*
X64732Y-27107D01*
X64816Y-27023D01*
X64820Y-27013D01*
X64829Y-27010D01*
X64872Y-26967D01*
X64955Y-26884D01*
X64959Y-26874D01*
X64965Y-26872D01*
G54D10*
G36*
X66666Y-28727D02*
X66613Y-28727D01*
X66580Y-28760D01*
X66576Y-28770D01*
X66567Y-28774D01*
X66524Y-28816D01*
X66441Y-28899D01*
X66437Y-28909D01*
X66427Y-28913D01*
X66385Y-28955D01*
X66302Y-29038D01*
X66298Y-29048D01*
X66288Y-29052D01*
X66246Y-29094D01*
X66162Y-29178D01*
X66158Y-29187D01*
X66149Y-29191D01*
X66107Y-29233D01*
X66023Y-29317D01*
X66019Y-29326D01*
X66010Y-29330D01*
X65968Y-29373D01*
X65884Y-29456D01*
X65880Y-29466D01*
X65871Y-29470D01*
X65828Y-29512D01*
X65745Y-29595D01*
X65741Y-29605D01*
X65731Y-29609D01*
X65689Y-29651D01*
X65606Y-29734D01*
X65602Y-29744D01*
X65592Y-29748D01*
X65550Y-29790D01*
X65466Y-29874D01*
X65463Y-29883D01*
X65453Y-29887D01*
X65411Y-29929D01*
X65327Y-30013D01*
X65323Y-30022D01*
X65314Y-30026D01*
X65272Y-30068D01*
X65188Y-30152D01*
X65165Y-30207D01*
X65165Y-30267D01*
X65188Y-30322D01*
X65230Y-30364D01*
X65634Y-30768D01*
X65648Y-30774D01*
X65729Y-30854D01*
X65729Y-35988D01*
X65269Y-36447D01*
X65269Y-36081D01*
X65220Y-35961D01*
X65144Y-35885D01*
X65144Y-32425D01*
X65144Y-31306D01*
X65220Y-31231D01*
X65269Y-31112D01*
X65269Y-30982D01*
X65220Y-30863D01*
X65129Y-30771D01*
X65009Y-30722D01*
X64880Y-30722D01*
X64761Y-30771D01*
X64669Y-30862D01*
X64619Y-30982D01*
X64619Y-31111D01*
X64669Y-31231D01*
X64744Y-31306D01*
X64744Y-32425D01*
X64744Y-35886D01*
X64669Y-35961D01*
X64619Y-36080D01*
X64619Y-36210D01*
X64669Y-36329D01*
X64760Y-36421D01*
X64879Y-36470D01*
X65009Y-36470D01*
X65128Y-36421D01*
X65220Y-36330D01*
X65269Y-36210D01*
X65269Y-36081D01*
X65269Y-36447D01*
X65163Y-36553D01*
X65094Y-36525D01*
X64905Y-36525D01*
X64731Y-36597D01*
X64597Y-36730D01*
X64525Y-36905D01*
X64525Y-37094D01*
X64597Y-37268D01*
X64671Y-37343D01*
X64328Y-37343D01*
X64402Y-37269D01*
X64474Y-37094D01*
X64474Y-36905D01*
X64446Y-36836D01*
X64535Y-36747D01*
X64535Y-36747D01*
X64578Y-36682D01*
X64593Y-36606D01*
X64593Y-30815D01*
X64634Y-30774D01*
X64649Y-30768D01*
X64691Y-30726D01*
X65094Y-30322D01*
X65117Y-30267D01*
X65117Y-30207D01*
X65094Y-30152D01*
X65052Y-30110D01*
X64969Y-30026D01*
X64959Y-30022D01*
X64955Y-30013D01*
X64913Y-29971D01*
X64829Y-29887D01*
X64824Y-29885D01*
X64883Y-29873D01*
X64948Y-29830D01*
X65302Y-29476D01*
X65346Y-29411D01*
X65346Y-29411D01*
X65361Y-29334D01*
X65361Y-28688D01*
X66629Y-28688D01*
X66641Y-28699D01*
X66639Y-28701D01*
X66666Y-28727D01*
X66666Y-28727D01*
G37*
G54D28*
X66666Y-28727D02*
X66613Y-28727D01*
X66580Y-28760D01*
X66576Y-28770D01*
X66567Y-28774D01*
X66524Y-28816D01*
X66441Y-28899D01*
X66437Y-28909D01*
X66427Y-28913D01*
X66385Y-28955D01*
X66302Y-29038D01*
X66298Y-29048D01*
X66288Y-29052D01*
X66246Y-29094D01*
X66162Y-29178D01*
X66158Y-29187D01*
X66149Y-29191D01*
X66107Y-29233D01*
X66023Y-29317D01*
X66019Y-29326D01*
X66010Y-29330D01*
X65968Y-29373D01*
X65884Y-29456D01*
X65880Y-29466D01*
X65871Y-29470D01*
X65828Y-29512D01*
X65745Y-29595D01*
X65741Y-29605D01*
X65731Y-29609D01*
X65689Y-29651D01*
X65606Y-29734D01*
X65602Y-29744D01*
X65592Y-29748D01*
X65550Y-29790D01*
X65466Y-29874D01*
X65463Y-29883D01*
X65453Y-29887D01*
X65411Y-29929D01*
X65327Y-30013D01*
X65323Y-30022D01*
X65314Y-30026D01*
X65272Y-30068D01*
X65188Y-30152D01*
X65165Y-30207D01*
X65165Y-30267D01*
X65188Y-30322D01*
X65230Y-30364D01*
X65634Y-30768D01*
X65648Y-30774D01*
X65729Y-30854D01*
X65729Y-35988D01*
X65269Y-36447D01*
X65269Y-36081D01*
X65220Y-35961D01*
X65144Y-35885D01*
X65144Y-32425D01*
X65144Y-31306D01*
X65220Y-31231D01*
X65269Y-31112D01*
X65269Y-30982D01*
X65220Y-30863D01*
X65129Y-30771D01*
X65009Y-30722D01*
X64880Y-30722D01*
X64761Y-30771D01*
X64669Y-30862D01*
X64619Y-30982D01*
X64619Y-31111D01*
X64669Y-31231D01*
X64744Y-31306D01*
X64744Y-32425D01*
X64744Y-35886D01*
X64669Y-35961D01*
X64619Y-36080D01*
X64619Y-36210D01*
X64669Y-36329D01*
X64760Y-36421D01*
X64879Y-36470D01*
X65009Y-36470D01*
X65128Y-36421D01*
X65220Y-36330D01*
X65269Y-36210D01*
X65269Y-36081D01*
X65269Y-36447D01*
X65163Y-36553D01*
X65094Y-36525D01*
X64905Y-36525D01*
X64731Y-36597D01*
X64597Y-36730D01*
X64525Y-36905D01*
X64525Y-37094D01*
X64597Y-37268D01*
X64671Y-37343D01*
X64328Y-37343D01*
X64402Y-37269D01*
X64474Y-37094D01*
X64474Y-36905D01*
X64446Y-36836D01*
X64535Y-36747D01*
X64535Y-36747D01*
X64578Y-36682D01*
X64593Y-36606D01*
X64593Y-30815D01*
X64634Y-30774D01*
X64649Y-30768D01*
X64691Y-30726D01*
X65094Y-30322D01*
X65117Y-30267D01*
X65117Y-30207D01*
X65094Y-30152D01*
X65052Y-30110D01*
X64969Y-30026D01*
X64959Y-30022D01*
X64955Y-30013D01*
X64913Y-29971D01*
X64829Y-29887D01*
X64824Y-29885D01*
X64883Y-29873D01*
X64948Y-29830D01*
X65302Y-29476D01*
X65346Y-29411D01*
X65346Y-29411D01*
X65361Y-29334D01*
X65361Y-28688D01*
X66629Y-28688D01*
X66641Y-28699D01*
X66639Y-28701D01*
X66666Y-28727D01*
G54D10*
G36*
X67014Y-23990D02*
X66870Y-24134D01*
X66827Y-24199D01*
X66811Y-24275D01*
X66811Y-24827D01*
X66777Y-24793D01*
X66626Y-24642D01*
X66573Y-24642D01*
X66566Y-24649D01*
X66566Y-24635D01*
X66566Y-24582D01*
X66415Y-24431D01*
X66373Y-24389D01*
X66318Y-24366D01*
X66258Y-24366D01*
X66203Y-24389D01*
X66073Y-24519D01*
X66073Y-24572D01*
X66351Y-24850D01*
X66566Y-24635D01*
X66566Y-24649D01*
X66358Y-24857D01*
X66635Y-25135D01*
X66689Y-25135D01*
X66811Y-25012D01*
X66811Y-25511D01*
X66628Y-25694D01*
X66628Y-25195D01*
X66628Y-25142D01*
X66351Y-24864D01*
X66344Y-24871D01*
X66344Y-24857D01*
X66066Y-24579D01*
X66013Y-24579D01*
X65882Y-24709D01*
X65860Y-24765D01*
X65860Y-24824D01*
X65882Y-24879D01*
X65925Y-24922D01*
X66075Y-25072D01*
X66128Y-25072D01*
X66344Y-24857D01*
X66344Y-24871D01*
X66135Y-25079D01*
X66135Y-25132D01*
X66286Y-25283D01*
X66328Y-25325D01*
X66383Y-25348D01*
X66443Y-25348D01*
X66498Y-25325D01*
X66628Y-25195D01*
X66628Y-25694D01*
X65992Y-26330D01*
X66006Y-26309D01*
X66006Y-26309D01*
X66009Y-26296D01*
X66022Y-26232D01*
X66022Y-26232D01*
X66022Y-25802D01*
X66290Y-25534D01*
X66313Y-25478D01*
X66313Y-25419D01*
X66290Y-25364D01*
X66248Y-25321D01*
X65844Y-24918D01*
X65789Y-24895D01*
X65729Y-24895D01*
X65674Y-24918D01*
X65632Y-24960D01*
X65353Y-25238D01*
X65331Y-25294D01*
X65331Y-25353D01*
X65353Y-25408D01*
X65396Y-25451D01*
X65622Y-25677D01*
X65622Y-26141D01*
X65592Y-26171D01*
X65188Y-26575D01*
X65182Y-26589D01*
X65117Y-26654D01*
X65117Y-26630D01*
X65094Y-26575D01*
X65052Y-26533D01*
X64888Y-26368D01*
X64865Y-26334D01*
X64534Y-26003D01*
X64534Y-25775D01*
X66445Y-23865D01*
X66811Y-23865D01*
X66886Y-23940D01*
X67005Y-23990D01*
X67014Y-23990D01*
X67014Y-23990D01*
G37*
G54D28*
X67014Y-23990D02*
X66870Y-24134D01*
X66827Y-24199D01*
X66811Y-24275D01*
X66811Y-24827D01*
X66777Y-24793D01*
X66626Y-24642D01*
X66573Y-24642D01*
X66566Y-24649D01*
X66566Y-24635D01*
X66566Y-24582D01*
X66415Y-24431D01*
X66373Y-24389D01*
X66318Y-24366D01*
X66258Y-24366D01*
X66203Y-24389D01*
X66073Y-24519D01*
X66073Y-24572D01*
X66351Y-24850D01*
X66566Y-24635D01*
X66566Y-24649D01*
X66358Y-24857D01*
X66635Y-25135D01*
X66689Y-25135D01*
X66811Y-25012D01*
X66811Y-25511D01*
X66628Y-25694D01*
X66628Y-25195D01*
X66628Y-25142D01*
X66351Y-24864D01*
X66344Y-24871D01*
X66344Y-24857D01*
X66066Y-24579D01*
X66013Y-24579D01*
X65882Y-24709D01*
X65860Y-24765D01*
X65860Y-24824D01*
X65882Y-24879D01*
X65925Y-24922D01*
X66075Y-25072D01*
X66128Y-25072D01*
X66344Y-24857D01*
X66344Y-24871D01*
X66135Y-25079D01*
X66135Y-25132D01*
X66286Y-25283D01*
X66328Y-25325D01*
X66383Y-25348D01*
X66443Y-25348D01*
X66498Y-25325D01*
X66628Y-25195D01*
X66628Y-25694D01*
X65992Y-26330D01*
X66006Y-26309D01*
X66006Y-26309D01*
X66009Y-26296D01*
X66022Y-26232D01*
X66022Y-26232D01*
X66022Y-25802D01*
X66290Y-25534D01*
X66313Y-25478D01*
X66313Y-25419D01*
X66290Y-25364D01*
X66248Y-25321D01*
X65844Y-24918D01*
X65789Y-24895D01*
X65729Y-24895D01*
X65674Y-24918D01*
X65632Y-24960D01*
X65353Y-25238D01*
X65331Y-25294D01*
X65331Y-25353D01*
X65353Y-25408D01*
X65396Y-25451D01*
X65622Y-25677D01*
X65622Y-26141D01*
X65592Y-26171D01*
X65188Y-26575D01*
X65182Y-26589D01*
X65117Y-26654D01*
X65117Y-26630D01*
X65094Y-26575D01*
X65052Y-26533D01*
X64888Y-26368D01*
X64865Y-26334D01*
X64534Y-26003D01*
X64534Y-25775D01*
X66445Y-23865D01*
X66811Y-23865D01*
X66886Y-23940D01*
X67005Y-23990D01*
X67014Y-23990D01*
G54D10*
G36*
X69803Y-36567D02*
X69731Y-36597D01*
X69597Y-36730D01*
X69578Y-36777D01*
X69578Y-30464D01*
X69578Y-30411D01*
X69362Y-30196D01*
X69355Y-30203D01*
X69355Y-30189D01*
X69140Y-29974D01*
X69087Y-29974D01*
X68936Y-30125D01*
X68894Y-30167D01*
X68871Y-30222D01*
X68871Y-30282D01*
X68894Y-30337D01*
X69024Y-30467D01*
X69077Y-30467D01*
X69355Y-30189D01*
X69355Y-30203D01*
X69085Y-30474D01*
X69085Y-30527D01*
X69215Y-30657D01*
X69270Y-30680D01*
X69330Y-30680D01*
X69385Y-30657D01*
X69427Y-30615D01*
X69578Y-30464D01*
X69578Y-36777D01*
X69525Y-36905D01*
X69525Y-37094D01*
X69597Y-37268D01*
X69671Y-37343D01*
X69328Y-37343D01*
X69402Y-37269D01*
X69474Y-37094D01*
X69474Y-36905D01*
X69402Y-36731D01*
X69269Y-36597D01*
X69184Y-36562D01*
X69184Y-30786D01*
X69184Y-30727D01*
X69161Y-30671D01*
X69031Y-30541D01*
X68978Y-30541D01*
X68971Y-30548D01*
X68971Y-30534D01*
X68971Y-30481D01*
X68841Y-30351D01*
X68786Y-30328D01*
X68726Y-30328D01*
X68671Y-30351D01*
X68629Y-30393D01*
X68478Y-30544D01*
X68478Y-30597D01*
X68693Y-30812D01*
X68971Y-30534D01*
X68971Y-30548D01*
X68700Y-30819D01*
X68915Y-31034D01*
X68968Y-31034D01*
X69119Y-30884D01*
X69161Y-30841D01*
X69184Y-30786D01*
X69184Y-36562D01*
X69094Y-36525D01*
X68905Y-36525D01*
X68836Y-36553D01*
X67211Y-34928D01*
X67211Y-32051D01*
X67281Y-32080D01*
X67410Y-32080D01*
X67530Y-32031D01*
X67621Y-31940D01*
X67671Y-31820D01*
X67671Y-31756D01*
X67694Y-31765D01*
X67824Y-31766D01*
X67943Y-31716D01*
X68035Y-31625D01*
X68058Y-31569D01*
X68067Y-31578D01*
X68187Y-31628D01*
X68316Y-31628D01*
X68435Y-31578D01*
X68527Y-31487D01*
X68576Y-31368D01*
X68576Y-31300D01*
X68601Y-31310D01*
X68660Y-31310D01*
X68715Y-31287D01*
X68758Y-31245D01*
X68908Y-31094D01*
X68908Y-31041D01*
X68693Y-30826D01*
X68688Y-30832D01*
X68680Y-30825D01*
X68686Y-30819D01*
X68471Y-30604D01*
X68418Y-30604D01*
X68267Y-30755D01*
X68235Y-30787D01*
X68235Y-30710D01*
X68632Y-30312D01*
X68655Y-30257D01*
X68655Y-30198D01*
X68632Y-30143D01*
X68590Y-30100D01*
X68322Y-29832D01*
X68337Y-29826D01*
X68362Y-29801D01*
X68365Y-29808D01*
X68407Y-29850D01*
X68686Y-30128D01*
X68741Y-30151D01*
X68801Y-30151D01*
X68856Y-30128D01*
X68898Y-30086D01*
X69302Y-29683D01*
X69324Y-29627D01*
X69324Y-29568D01*
X69302Y-29513D01*
X69259Y-29470D01*
X68981Y-29192D01*
X68926Y-29169D01*
X68866Y-29169D01*
X68811Y-29192D01*
X68769Y-29234D01*
X68730Y-29274D01*
X68235Y-28779D01*
X68171Y-28736D01*
X68094Y-28721D01*
X67240Y-28721D01*
X67015Y-28495D01*
X66993Y-28486D01*
X66931Y-28424D01*
X66960Y-28424D01*
X67015Y-28401D01*
X67057Y-28359D01*
X67461Y-27956D01*
X67467Y-27941D01*
X67803Y-27605D01*
X67956Y-27605D01*
X68033Y-27590D01*
X68098Y-27546D01*
X69068Y-26576D01*
X69068Y-26623D01*
X69118Y-26742D01*
X69184Y-26809D01*
X69170Y-26814D01*
X69078Y-26906D01*
X69029Y-27025D01*
X69029Y-27154D01*
X69055Y-27218D01*
X68955Y-27218D01*
X68835Y-27267D01*
X68744Y-27358D01*
X68694Y-27478D01*
X68694Y-27607D01*
X68744Y-27727D01*
X68819Y-27802D01*
X68819Y-28763D01*
X68834Y-28840D01*
X68878Y-28905D01*
X69153Y-29180D01*
X69153Y-29180D01*
X69197Y-29209D01*
X69218Y-29224D01*
X69218Y-29224D01*
X69295Y-29239D01*
X69330Y-29239D01*
X69406Y-29314D01*
X69525Y-29364D01*
X69654Y-29364D01*
X69774Y-29315D01*
X69803Y-29285D01*
X69803Y-30014D01*
X69700Y-29911D01*
X69647Y-29911D01*
X69640Y-29918D01*
X69640Y-29904D01*
X69640Y-29851D01*
X69510Y-29721D01*
X69455Y-29698D01*
X69395Y-29698D01*
X69340Y-29721D01*
X69298Y-29763D01*
X69147Y-29914D01*
X69147Y-29967D01*
X69362Y-30182D01*
X69640Y-29904D01*
X69640Y-29918D01*
X69369Y-30189D01*
X69585Y-30404D01*
X69638Y-30404D01*
X69788Y-30254D01*
X69803Y-30239D01*
X69803Y-36567D01*
X69803Y-36567D01*
G37*
G54D28*
X69803Y-36567D02*
X69731Y-36597D01*
X69597Y-36730D01*
X69578Y-36777D01*
X69578Y-30464D01*
X69578Y-30411D01*
X69362Y-30196D01*
X69355Y-30203D01*
X69355Y-30189D01*
X69140Y-29974D01*
X69087Y-29974D01*
X68936Y-30125D01*
X68894Y-30167D01*
X68871Y-30222D01*
X68871Y-30282D01*
X68894Y-30337D01*
X69024Y-30467D01*
X69077Y-30467D01*
X69355Y-30189D01*
X69355Y-30203D01*
X69085Y-30474D01*
X69085Y-30527D01*
X69215Y-30657D01*
X69270Y-30680D01*
X69330Y-30680D01*
X69385Y-30657D01*
X69427Y-30615D01*
X69578Y-30464D01*
X69578Y-36777D01*
X69525Y-36905D01*
X69525Y-37094D01*
X69597Y-37268D01*
X69671Y-37343D01*
X69328Y-37343D01*
X69402Y-37269D01*
X69474Y-37094D01*
X69474Y-36905D01*
X69402Y-36731D01*
X69269Y-36597D01*
X69184Y-36562D01*
X69184Y-30786D01*
X69184Y-30727D01*
X69161Y-30671D01*
X69031Y-30541D01*
X68978Y-30541D01*
X68971Y-30548D01*
X68971Y-30534D01*
X68971Y-30481D01*
X68841Y-30351D01*
X68786Y-30328D01*
X68726Y-30328D01*
X68671Y-30351D01*
X68629Y-30393D01*
X68478Y-30544D01*
X68478Y-30597D01*
X68693Y-30812D01*
X68971Y-30534D01*
X68971Y-30548D01*
X68700Y-30819D01*
X68915Y-31034D01*
X68968Y-31034D01*
X69119Y-30884D01*
X69161Y-30841D01*
X69184Y-30786D01*
X69184Y-36562D01*
X69094Y-36525D01*
X68905Y-36525D01*
X68836Y-36553D01*
X67211Y-34928D01*
X67211Y-32051D01*
X67281Y-32080D01*
X67410Y-32080D01*
X67530Y-32031D01*
X67621Y-31940D01*
X67671Y-31820D01*
X67671Y-31756D01*
X67694Y-31765D01*
X67824Y-31766D01*
X67943Y-31716D01*
X68035Y-31625D01*
X68058Y-31569D01*
X68067Y-31578D01*
X68187Y-31628D01*
X68316Y-31628D01*
X68435Y-31578D01*
X68527Y-31487D01*
X68576Y-31368D01*
X68576Y-31300D01*
X68601Y-31310D01*
X68660Y-31310D01*
X68715Y-31287D01*
X68758Y-31245D01*
X68908Y-31094D01*
X68908Y-31041D01*
X68693Y-30826D01*
X68688Y-30832D01*
X68680Y-30825D01*
X68686Y-30819D01*
X68471Y-30604D01*
X68418Y-30604D01*
X68267Y-30755D01*
X68235Y-30787D01*
X68235Y-30710D01*
X68632Y-30312D01*
X68655Y-30257D01*
X68655Y-30198D01*
X68632Y-30143D01*
X68590Y-30100D01*
X68322Y-29832D01*
X68337Y-29826D01*
X68362Y-29801D01*
X68365Y-29808D01*
X68407Y-29850D01*
X68686Y-30128D01*
X68741Y-30151D01*
X68801Y-30151D01*
X68856Y-30128D01*
X68898Y-30086D01*
X69302Y-29683D01*
X69324Y-29627D01*
X69324Y-29568D01*
X69302Y-29513D01*
X69259Y-29470D01*
X68981Y-29192D01*
X68926Y-29169D01*
X68866Y-29169D01*
X68811Y-29192D01*
X68769Y-29234D01*
X68730Y-29274D01*
X68235Y-28779D01*
X68171Y-28736D01*
X68094Y-28721D01*
X67240Y-28721D01*
X67015Y-28495D01*
X66993Y-28486D01*
X66931Y-28424D01*
X66960Y-28424D01*
X67015Y-28401D01*
X67057Y-28359D01*
X67461Y-27956D01*
X67467Y-27941D01*
X67803Y-27605D01*
X67956Y-27605D01*
X68033Y-27590D01*
X68098Y-27546D01*
X69068Y-26576D01*
X69068Y-26623D01*
X69118Y-26742D01*
X69184Y-26809D01*
X69170Y-26814D01*
X69078Y-26906D01*
X69029Y-27025D01*
X69029Y-27154D01*
X69055Y-27218D01*
X68955Y-27218D01*
X68835Y-27267D01*
X68744Y-27358D01*
X68694Y-27478D01*
X68694Y-27607D01*
X68744Y-27727D01*
X68819Y-27802D01*
X68819Y-28763D01*
X68834Y-28840D01*
X68878Y-28905D01*
X69153Y-29180D01*
X69153Y-29180D01*
X69197Y-29209D01*
X69218Y-29224D01*
X69218Y-29224D01*
X69295Y-29239D01*
X69330Y-29239D01*
X69406Y-29314D01*
X69525Y-29364D01*
X69654Y-29364D01*
X69774Y-29315D01*
X69803Y-29285D01*
X69803Y-30014D01*
X69700Y-29911D01*
X69647Y-29911D01*
X69640Y-29918D01*
X69640Y-29904D01*
X69640Y-29851D01*
X69510Y-29721D01*
X69455Y-29698D01*
X69395Y-29698D01*
X69340Y-29721D01*
X69298Y-29763D01*
X69147Y-29914D01*
X69147Y-29967D01*
X69362Y-30182D01*
X69640Y-29904D01*
X69640Y-29918D01*
X69369Y-30189D01*
X69585Y-30404D01*
X69638Y-30404D01*
X69788Y-30254D01*
X69803Y-30239D01*
X69803Y-36567D01*
G54D10*
G36*
X81627Y-37453D02*
X81262Y-37453D01*
X81262Y-35750D01*
X81262Y-20750D01*
X81070Y-20285D01*
X80715Y-19930D01*
X80252Y-19738D01*
X79750Y-19737D01*
X79285Y-19929D01*
X78930Y-20284D01*
X78738Y-20747D01*
X78737Y-21249D01*
X78929Y-21714D01*
X79284Y-22069D01*
X79747Y-22261D01*
X80249Y-22262D01*
X80714Y-22070D01*
X81069Y-21715D01*
X81261Y-21252D01*
X81262Y-20750D01*
X81262Y-35750D01*
X81070Y-35285D01*
X80715Y-34930D01*
X80252Y-34738D01*
X79750Y-34737D01*
X79285Y-34929D01*
X78930Y-35284D01*
X78738Y-35747D01*
X78737Y-36249D01*
X78929Y-36714D01*
X79284Y-37069D01*
X79747Y-37261D01*
X80249Y-37262D01*
X80714Y-37070D01*
X81069Y-36715D01*
X81261Y-36252D01*
X81262Y-35750D01*
X81262Y-37453D01*
X77718Y-37453D01*
X78275Y-36897D01*
X78318Y-36832D01*
X78318Y-36832D01*
X78333Y-36755D01*
X78333Y-35342D01*
X80913Y-32763D01*
X80956Y-32698D01*
X80971Y-32622D01*
X80971Y-29472D01*
X80958Y-29408D01*
X80956Y-29395D01*
X80956Y-29395D01*
X80913Y-29331D01*
X80477Y-28895D01*
X80477Y-27919D01*
X80410Y-27742D01*
X80394Y-27719D01*
X80319Y-27687D01*
X80007Y-28000D01*
X80319Y-28312D01*
X80394Y-28280D01*
X80471Y-28108D01*
X80477Y-27919D01*
X80477Y-28895D01*
X80465Y-28883D01*
X80402Y-28731D01*
X80269Y-28597D01*
X80094Y-28525D01*
X79905Y-28525D01*
X79731Y-28597D01*
X79711Y-28616D01*
X79711Y-28376D01*
X79719Y-28394D01*
X79891Y-28471D01*
X80080Y-28477D01*
X80257Y-28410D01*
X80280Y-28394D01*
X80312Y-28319D01*
X80000Y-28007D01*
X79994Y-28012D01*
X79987Y-28005D01*
X79992Y-28000D01*
X79987Y-27994D01*
X79994Y-27987D01*
X80000Y-27992D01*
X80312Y-27680D01*
X80280Y-27605D01*
X80108Y-27528D01*
X79919Y-27522D01*
X79742Y-27589D01*
X79719Y-27605D01*
X79711Y-27623D01*
X79711Y-26165D01*
X79711Y-25224D01*
X79841Y-25094D01*
X79895Y-25094D01*
X80604Y-25094D01*
X80659Y-25072D01*
X80701Y-25029D01*
X80724Y-24974D01*
X80724Y-24915D01*
X80724Y-24481D01*
X80724Y-23518D01*
X80724Y-23458D01*
X80724Y-23314D01*
X80724Y-23229D01*
X80724Y-23084D01*
X80724Y-23025D01*
X80701Y-22970D01*
X80659Y-22927D01*
X80604Y-22905D01*
X80262Y-22905D01*
X80225Y-22942D01*
X80225Y-23266D01*
X80687Y-23266D01*
X80724Y-23229D01*
X80724Y-23314D01*
X80687Y-23276D01*
X80225Y-23276D01*
X80225Y-23600D01*
X80262Y-23638D01*
X80604Y-23638D01*
X80659Y-23615D01*
X80701Y-23573D01*
X80724Y-23518D01*
X80724Y-24481D01*
X80701Y-24426D01*
X80659Y-24384D01*
X80604Y-24361D01*
X80544Y-24361D01*
X80215Y-24361D01*
X80215Y-23600D01*
X80215Y-23276D01*
X80215Y-23266D01*
X80215Y-22942D01*
X80177Y-22905D01*
X79836Y-22905D01*
X79781Y-22927D01*
X79738Y-22970D01*
X79716Y-23025D01*
X79716Y-23084D01*
X79716Y-23229D01*
X79753Y-23266D01*
X80215Y-23266D01*
X80215Y-23276D01*
X79753Y-23276D01*
X79716Y-23314D01*
X79716Y-23458D01*
X79716Y-23518D01*
X79738Y-23573D01*
X79781Y-23615D01*
X79836Y-23638D01*
X80177Y-23638D01*
X80215Y-23600D01*
X80215Y-24361D01*
X79836Y-24361D01*
X79781Y-24384D01*
X79738Y-24426D01*
X79716Y-24481D01*
X79716Y-24528D01*
X78283Y-24528D01*
X78283Y-24481D01*
X78283Y-23518D01*
X78283Y-23458D01*
X78283Y-23314D01*
X78283Y-23229D01*
X78283Y-23084D01*
X78283Y-23025D01*
X78261Y-22970D01*
X78218Y-22927D01*
X78163Y-22905D01*
X77822Y-22905D01*
X77784Y-22942D01*
X77784Y-23266D01*
X78246Y-23266D01*
X78283Y-23229D01*
X78283Y-23314D01*
X78246Y-23276D01*
X77784Y-23276D01*
X77784Y-23600D01*
X77822Y-23638D01*
X78163Y-23638D01*
X78218Y-23615D01*
X78261Y-23573D01*
X78283Y-23518D01*
X78283Y-24481D01*
X78261Y-24426D01*
X78218Y-24384D01*
X78163Y-24361D01*
X78104Y-24361D01*
X77774Y-24361D01*
X77774Y-23600D01*
X77774Y-23276D01*
X77774Y-23266D01*
X77774Y-22942D01*
X77737Y-22905D01*
X77395Y-22905D01*
X77340Y-22927D01*
X77298Y-22970D01*
X77275Y-23025D01*
X77275Y-23084D01*
X77275Y-23229D01*
X77312Y-23266D01*
X77774Y-23266D01*
X77774Y-23276D01*
X77312Y-23276D01*
X77275Y-23314D01*
X77275Y-23458D01*
X77275Y-23518D01*
X77298Y-23573D01*
X77340Y-23615D01*
X77395Y-23638D01*
X77737Y-23638D01*
X77774Y-23600D01*
X77774Y-24361D01*
X77695Y-24361D01*
X77586Y-24252D01*
X77521Y-24208D01*
X77444Y-24193D01*
X76797Y-24193D01*
X76797Y-24167D01*
X76797Y-23872D01*
X76797Y-23688D01*
X76797Y-23603D01*
X76797Y-23418D01*
X76774Y-23363D01*
X76732Y-23321D01*
X76677Y-23298D01*
X76617Y-23298D01*
X76404Y-23298D01*
X76367Y-23336D01*
X76367Y-23640D01*
X76760Y-23640D01*
X76797Y-23603D01*
X76797Y-23688D01*
X76760Y-23650D01*
X76367Y-23650D01*
X76367Y-23955D01*
X76404Y-23992D01*
X76617Y-23992D01*
X76677Y-23992D01*
X76732Y-23969D01*
X76774Y-23927D01*
X76797Y-23872D01*
X76797Y-24167D01*
X76774Y-24111D01*
X76732Y-24069D01*
X76677Y-24046D01*
X76617Y-24046D01*
X76357Y-24046D01*
X76357Y-23955D01*
X76357Y-23650D01*
X76357Y-23640D01*
X76357Y-23336D01*
X76319Y-23298D01*
X76106Y-23298D01*
X76046Y-23298D01*
X75991Y-23321D01*
X75949Y-23363D01*
X75926Y-23418D01*
X75926Y-23603D01*
X75964Y-23640D01*
X76357Y-23640D01*
X76357Y-23650D01*
X75964Y-23650D01*
X75926Y-23688D01*
X75926Y-23872D01*
X75949Y-23927D01*
X75991Y-23969D01*
X76046Y-23992D01*
X76106Y-23992D01*
X76319Y-23992D01*
X76357Y-23955D01*
X76357Y-24046D01*
X76046Y-24046D01*
X75991Y-24069D01*
X75949Y-24111D01*
X75926Y-24167D01*
X75926Y-24226D01*
X75926Y-24620D01*
X75892Y-24586D01*
X75892Y-24433D01*
X75877Y-24356D01*
X75877Y-24356D01*
X75834Y-24291D01*
X73931Y-22388D01*
X73931Y-22301D01*
X73881Y-22182D01*
X73820Y-22120D01*
X73828Y-22120D01*
X73947Y-22070D01*
X74039Y-21979D01*
X74088Y-21860D01*
X74088Y-21730D01*
X74039Y-21611D01*
X74029Y-21601D01*
X74311Y-21601D01*
X74386Y-21676D01*
X74505Y-21726D01*
X74635Y-21726D01*
X74754Y-21677D01*
X74846Y-21585D01*
X74895Y-21466D01*
X74895Y-21337D01*
X74850Y-21227D01*
X75374Y-21227D01*
X75449Y-21302D01*
X75568Y-21352D01*
X75698Y-21352D01*
X75817Y-21303D01*
X75909Y-21211D01*
X75958Y-21092D01*
X75958Y-20963D01*
X75929Y-20892D01*
X76307Y-20892D01*
X76383Y-20877D01*
X76448Y-20834D01*
X76836Y-20446D01*
X76905Y-20474D01*
X77094Y-20474D01*
X77268Y-20402D01*
X77402Y-20269D01*
X77474Y-20094D01*
X77474Y-19905D01*
X77402Y-19731D01*
X77269Y-19597D01*
X77094Y-19525D01*
X76905Y-19525D01*
X76731Y-19597D01*
X76597Y-19730D01*
X76525Y-19905D01*
X76525Y-20094D01*
X76553Y-20163D01*
X76474Y-20242D01*
X76474Y-19905D01*
X76402Y-19731D01*
X76269Y-19597D01*
X76094Y-19525D01*
X75905Y-19525D01*
X75731Y-19597D01*
X75597Y-19730D01*
X75525Y-19905D01*
X75525Y-20094D01*
X75597Y-20268D01*
X75730Y-20402D01*
X75905Y-20474D01*
X76094Y-20474D01*
X76268Y-20402D01*
X76402Y-20269D01*
X76474Y-20094D01*
X76474Y-19905D01*
X76474Y-20242D01*
X76224Y-20492D01*
X75474Y-20492D01*
X75474Y-19905D01*
X75402Y-19731D01*
X75269Y-19597D01*
X75094Y-19525D01*
X74905Y-19525D01*
X74731Y-19597D01*
X74597Y-19730D01*
X74525Y-19905D01*
X74525Y-20094D01*
X74597Y-20268D01*
X74730Y-20402D01*
X74905Y-20474D01*
X75094Y-20474D01*
X75268Y-20402D01*
X75402Y-20269D01*
X75474Y-20094D01*
X75474Y-19905D01*
X75474Y-20492D01*
X74474Y-20492D01*
X74474Y-19905D01*
X74402Y-19731D01*
X74269Y-19597D01*
X74094Y-19525D01*
X73905Y-19525D01*
X73731Y-19597D01*
X73597Y-19730D01*
X73525Y-19905D01*
X73525Y-20094D01*
X73597Y-20268D01*
X73730Y-20402D01*
X73905Y-20474D01*
X74094Y-20474D01*
X74268Y-20402D01*
X74402Y-20269D01*
X74474Y-20094D01*
X74474Y-19905D01*
X74474Y-20492D01*
X73586Y-20492D01*
X73522Y-20505D01*
X73510Y-20508D01*
X73445Y-20551D01*
X70722Y-23274D01*
X70722Y-23229D01*
X73141Y-20810D01*
X73184Y-20745D01*
X73200Y-20669D01*
X73200Y-20431D01*
X73268Y-20402D01*
X73402Y-20269D01*
X73474Y-20094D01*
X73474Y-19905D01*
X73402Y-19731D01*
X73269Y-19597D01*
X73094Y-19525D01*
X72905Y-19525D01*
X72731Y-19597D01*
X72597Y-19730D01*
X72525Y-19905D01*
X72525Y-20094D01*
X72597Y-20268D01*
X72730Y-20402D01*
X72800Y-20431D01*
X72800Y-20586D01*
X70439Y-22946D01*
X70407Y-22946D01*
X70407Y-22855D01*
X72141Y-21121D01*
X72184Y-21056D01*
X72200Y-20980D01*
X72200Y-20431D01*
X72268Y-20402D01*
X72402Y-20269D01*
X72474Y-20094D01*
X72474Y-19905D01*
X72402Y-19731D01*
X72269Y-19597D01*
X72094Y-19525D01*
X71905Y-19525D01*
X71731Y-19597D01*
X71597Y-19730D01*
X71525Y-19905D01*
X71525Y-20094D01*
X71597Y-20268D01*
X71730Y-20402D01*
X71800Y-20431D01*
X71800Y-20897D01*
X70124Y-22572D01*
X70018Y-22572D01*
X69898Y-22621D01*
X69807Y-22713D01*
X69757Y-22832D01*
X69757Y-22962D01*
X69806Y-23081D01*
X69898Y-23172D01*
X70017Y-23222D01*
X70072Y-23222D01*
X70072Y-23336D01*
X70121Y-23455D01*
X70213Y-23547D01*
X70332Y-23596D01*
X70400Y-23596D01*
X68634Y-25361D01*
X68606Y-25292D01*
X68534Y-25220D01*
X68606Y-25148D01*
X68655Y-25029D01*
X68655Y-24900D01*
X68606Y-24780D01*
X68544Y-24718D01*
X68606Y-24656D01*
X68655Y-24537D01*
X68655Y-24408D01*
X68606Y-24288D01*
X68544Y-24226D01*
X68606Y-24164D01*
X68655Y-24045D01*
X68655Y-23938D01*
X69239Y-23354D01*
X69239Y-23354D01*
X69268Y-23310D01*
X69283Y-23289D01*
X69283Y-23289D01*
X69298Y-23212D01*
X69298Y-23212D01*
X69298Y-22464D01*
X69283Y-22388D01*
X69239Y-22323D01*
X68846Y-21929D01*
X68781Y-21886D01*
X68704Y-21870D01*
X67179Y-21870D01*
X67228Y-21822D01*
X67277Y-21702D01*
X67277Y-21573D01*
X67248Y-21503D01*
X67671Y-21503D01*
X67671Y-21505D01*
X67720Y-21624D01*
X67811Y-21716D01*
X67931Y-21765D01*
X68060Y-21766D01*
X68179Y-21716D01*
X68271Y-21625D01*
X68321Y-21505D01*
X68321Y-21376D01*
X68275Y-21266D01*
X68662Y-21266D01*
X68704Y-21368D01*
X68795Y-21460D01*
X68915Y-21509D01*
X69044Y-21510D01*
X69164Y-21460D01*
X69255Y-21369D01*
X69305Y-21249D01*
X69305Y-21120D01*
X69276Y-21050D01*
X69659Y-21050D01*
X69659Y-21052D01*
X69708Y-21172D01*
X69799Y-21263D01*
X69919Y-21313D01*
X70048Y-21313D01*
X70168Y-21263D01*
X70259Y-21172D01*
X70309Y-21053D01*
X70309Y-20923D01*
X70264Y-20814D01*
X70385Y-20814D01*
X70462Y-20798D01*
X70527Y-20755D01*
X70836Y-20446D01*
X70905Y-20474D01*
X71094Y-20474D01*
X71268Y-20402D01*
X71402Y-20269D01*
X71474Y-20094D01*
X71474Y-19905D01*
X71402Y-19731D01*
X71269Y-19597D01*
X71094Y-19525D01*
X70905Y-19525D01*
X70731Y-19597D01*
X70597Y-19730D01*
X70525Y-19905D01*
X70525Y-20094D01*
X70553Y-20163D01*
X70302Y-20414D01*
X70240Y-20414D01*
X70268Y-20402D01*
X70402Y-20269D01*
X70474Y-20094D01*
X70474Y-19905D01*
X70402Y-19731D01*
X70269Y-19597D01*
X70094Y-19525D01*
X69905Y-19525D01*
X69731Y-19597D01*
X69597Y-19730D01*
X69525Y-19905D01*
X69525Y-20094D01*
X69597Y-20268D01*
X69730Y-20402D01*
X69759Y-20414D01*
X69240Y-20414D01*
X69268Y-20402D01*
X69402Y-20269D01*
X69474Y-20094D01*
X69474Y-19905D01*
X69402Y-19731D01*
X69269Y-19597D01*
X69094Y-19525D01*
X68905Y-19525D01*
X68731Y-19597D01*
X68597Y-19730D01*
X68525Y-19905D01*
X68525Y-20094D01*
X68597Y-20268D01*
X68730Y-20402D01*
X68759Y-20414D01*
X68240Y-20414D01*
X68268Y-20402D01*
X68402Y-20269D01*
X68474Y-20094D01*
X68474Y-19905D01*
X68402Y-19731D01*
X68269Y-19597D01*
X68094Y-19525D01*
X67905Y-19525D01*
X67731Y-19597D01*
X67597Y-19730D01*
X67525Y-19905D01*
X67525Y-20094D01*
X67597Y-20268D01*
X67730Y-20402D01*
X67759Y-20414D01*
X67240Y-20414D01*
X67268Y-20402D01*
X67402Y-20269D01*
X67474Y-20094D01*
X67474Y-19905D01*
X67402Y-19731D01*
X67269Y-19597D01*
X67094Y-19525D01*
X66905Y-19525D01*
X66731Y-19597D01*
X66597Y-19730D01*
X66525Y-19905D01*
X66525Y-20094D01*
X66597Y-20268D01*
X66730Y-20402D01*
X66759Y-20414D01*
X66240Y-20414D01*
X66268Y-20402D01*
X66402Y-20269D01*
X66474Y-20094D01*
X66474Y-19905D01*
X66402Y-19731D01*
X66269Y-19597D01*
X66094Y-19525D01*
X65905Y-19525D01*
X65731Y-19597D01*
X65597Y-19730D01*
X65525Y-19905D01*
X65525Y-20094D01*
X65597Y-20268D01*
X65730Y-20402D01*
X65759Y-20414D01*
X65240Y-20414D01*
X65268Y-20402D01*
X65402Y-20269D01*
X65474Y-20094D01*
X65474Y-19905D01*
X65402Y-19731D01*
X65269Y-19597D01*
X65094Y-19525D01*
X64905Y-19525D01*
X64731Y-19597D01*
X64597Y-19730D01*
X64525Y-19905D01*
X64525Y-20094D01*
X64597Y-20268D01*
X64730Y-20402D01*
X64759Y-20414D01*
X64240Y-20414D01*
X64268Y-20402D01*
X64402Y-20269D01*
X64474Y-20094D01*
X64474Y-19905D01*
X64402Y-19731D01*
X64269Y-19597D01*
X64094Y-19525D01*
X63905Y-19525D01*
X63731Y-19597D01*
X63597Y-19730D01*
X63525Y-19905D01*
X63525Y-20094D01*
X63597Y-20268D01*
X63730Y-20402D01*
X63759Y-20414D01*
X63389Y-20414D01*
X63325Y-20426D01*
X63313Y-20429D01*
X63248Y-20472D01*
X62598Y-21122D01*
X62555Y-21187D01*
X62540Y-21263D01*
X62540Y-23365D01*
X62519Y-23386D01*
X62461Y-23386D01*
X62474Y-23354D01*
X62474Y-23294D01*
X62474Y-22645D01*
X62451Y-22590D01*
X62409Y-22548D01*
X62354Y-22525D01*
X62294Y-22525D01*
X61645Y-22525D01*
X61590Y-22548D01*
X61548Y-22590D01*
X61525Y-22645D01*
X61525Y-22705D01*
X61525Y-23354D01*
X61538Y-23386D01*
X61477Y-23386D01*
X61477Y-22919D01*
X61410Y-22742D01*
X61394Y-22719D01*
X61319Y-22687D01*
X61312Y-22694D01*
X61312Y-22680D01*
X61280Y-22605D01*
X61108Y-22528D01*
X60919Y-22522D01*
X60742Y-22589D01*
X60719Y-22605D01*
X60687Y-22680D01*
X61000Y-22992D01*
X61312Y-22680D01*
X61312Y-22694D01*
X61007Y-23000D01*
X61319Y-23312D01*
X61394Y-23280D01*
X61471Y-23108D01*
X61477Y-22919D01*
X61477Y-23386D01*
X61283Y-23386D01*
X61312Y-23319D01*
X61000Y-23007D01*
X60992Y-23014D01*
X60992Y-23000D01*
X60680Y-22687D01*
X60605Y-22719D01*
X60528Y-22891D01*
X60522Y-23080D01*
X60589Y-23257D01*
X60605Y-23280D01*
X60680Y-23312D01*
X60992Y-23000D01*
X60992Y-23014D01*
X60687Y-23319D01*
X60719Y-23394D01*
X60861Y-23458D01*
X60845Y-23458D01*
X60725Y-23507D01*
X60634Y-23599D01*
X60584Y-23718D01*
X60584Y-23847D01*
X60633Y-23967D01*
X60725Y-24058D01*
X60844Y-24108D01*
X60973Y-24108D01*
X61084Y-24062D01*
X61125Y-24164D01*
X61217Y-24255D01*
X61336Y-24305D01*
X61344Y-24305D01*
X60801Y-24848D01*
X60801Y-24821D01*
X60752Y-24701D01*
X60660Y-24610D01*
X60541Y-24560D01*
X60434Y-24560D01*
X60381Y-24507D01*
X60381Y-22921D01*
X62850Y-20452D01*
X62905Y-20474D01*
X63094Y-20474D01*
X63268Y-20402D01*
X63402Y-20269D01*
X63474Y-20094D01*
X63474Y-19905D01*
X63402Y-19731D01*
X63269Y-19597D01*
X63094Y-19525D01*
X62905Y-19525D01*
X62731Y-19597D01*
X62597Y-19730D01*
X62525Y-19905D01*
X62525Y-20094D01*
X62559Y-20177D01*
X60085Y-22651D01*
X60085Y-22197D01*
X61836Y-20446D01*
X61905Y-20474D01*
X62094Y-20474D01*
X62268Y-20402D01*
X62402Y-20269D01*
X62474Y-20094D01*
X62474Y-19905D01*
X62402Y-19731D01*
X62269Y-19597D01*
X62094Y-19525D01*
X61905Y-19525D01*
X61731Y-19597D01*
X61597Y-19730D01*
X61525Y-19905D01*
X61525Y-20094D01*
X61553Y-20163D01*
X59810Y-21906D01*
X59810Y-21405D01*
X60789Y-20426D01*
X60905Y-20474D01*
X61094Y-20474D01*
X61268Y-20402D01*
X61402Y-20269D01*
X61474Y-20094D01*
X61474Y-19905D01*
X61402Y-19731D01*
X61269Y-19597D01*
X61094Y-19525D01*
X60905Y-19525D01*
X60731Y-19597D01*
X60597Y-19730D01*
X60525Y-19905D01*
X60525Y-20094D01*
X60534Y-20116D01*
X60417Y-20232D01*
X60474Y-20094D01*
X60474Y-19905D01*
X60402Y-19731D01*
X60269Y-19597D01*
X60094Y-19525D01*
X59905Y-19525D01*
X59731Y-19597D01*
X59597Y-19730D01*
X59525Y-19905D01*
X59525Y-20094D01*
X59590Y-20252D01*
X59200Y-20643D01*
X59200Y-20431D01*
X59268Y-20402D01*
X59402Y-20269D01*
X59474Y-20094D01*
X59474Y-19905D01*
X59402Y-19731D01*
X59269Y-19597D01*
X59094Y-19525D01*
X58905Y-19525D01*
X58731Y-19597D01*
X58597Y-19730D01*
X58525Y-19905D01*
X58525Y-20094D01*
X58597Y-20268D01*
X58730Y-20402D01*
X58800Y-20431D01*
X58800Y-26102D01*
X58764Y-26138D01*
X58714Y-26257D01*
X58714Y-26387D01*
X58763Y-26506D01*
X58855Y-26598D01*
X58974Y-26647D01*
X59002Y-26647D01*
X58655Y-26994D01*
X58655Y-26947D01*
X58606Y-26827D01*
X58570Y-26792D01*
X58570Y-23901D01*
X58570Y-23448D01*
X58552Y-23356D01*
X58500Y-23279D01*
X58500Y-23279D01*
X58428Y-23206D01*
X58474Y-23094D01*
X58474Y-22905D01*
X58402Y-22731D01*
X58269Y-22597D01*
X58240Y-22585D01*
X58240Y-20414D01*
X58268Y-20402D01*
X58402Y-20269D01*
X58474Y-20094D01*
X58474Y-19905D01*
X58402Y-19731D01*
X58269Y-19597D01*
X58094Y-19525D01*
X57905Y-19525D01*
X57731Y-19597D01*
X57597Y-19730D01*
X57525Y-19905D01*
X57525Y-20094D01*
X57597Y-20268D01*
X57730Y-20402D01*
X57760Y-20414D01*
X57760Y-22585D01*
X57731Y-22597D01*
X57597Y-22730D01*
X57525Y-22905D01*
X57525Y-23094D01*
X57589Y-23250D01*
X57474Y-23135D01*
X57474Y-19905D01*
X57402Y-19731D01*
X57269Y-19597D01*
X57094Y-19525D01*
X56905Y-19525D01*
X56731Y-19597D01*
X56597Y-19730D01*
X56525Y-19905D01*
X56525Y-20094D01*
X56597Y-20268D01*
X56730Y-20402D01*
X56905Y-20474D01*
X57094Y-20474D01*
X57268Y-20402D01*
X57402Y-20269D01*
X57474Y-20094D01*
X57474Y-19905D01*
X57474Y-23135D01*
X57474Y-23135D01*
X57474Y-22645D01*
X57451Y-22590D01*
X57409Y-22548D01*
X57354Y-22525D01*
X57294Y-22525D01*
X56742Y-22525D01*
X56477Y-22259D01*
X56477Y-19919D01*
X56410Y-19742D01*
X56394Y-19719D01*
X56319Y-19687D01*
X56312Y-19694D01*
X56312Y-19680D01*
X56280Y-19605D01*
X56108Y-19528D01*
X55919Y-19522D01*
X55742Y-19589D01*
X55719Y-19605D01*
X55687Y-19680D01*
X56000Y-19992D01*
X56312Y-19680D01*
X56312Y-19694D01*
X56007Y-20000D01*
X56319Y-20312D01*
X56394Y-20280D01*
X56471Y-20108D01*
X56477Y-19919D01*
X56477Y-22259D01*
X56312Y-22094D01*
X56312Y-20319D01*
X56000Y-20007D01*
X55992Y-20014D01*
X55992Y-20000D01*
X55680Y-19687D01*
X55605Y-19719D01*
X55528Y-19891D01*
X55522Y-20080D01*
X55589Y-20257D01*
X55605Y-20280D01*
X55680Y-20312D01*
X55992Y-20000D01*
X55992Y-20014D01*
X55687Y-20319D01*
X55719Y-20394D01*
X55891Y-20471D01*
X56080Y-20477D01*
X56257Y-20410D01*
X56280Y-20394D01*
X56312Y-20319D01*
X56312Y-22094D01*
X55240Y-21022D01*
X55240Y-20414D01*
X55268Y-20402D01*
X55402Y-20269D01*
X55474Y-20094D01*
X55474Y-19905D01*
X55402Y-19731D01*
X55269Y-19597D01*
X55094Y-19525D01*
X54905Y-19525D01*
X54731Y-19597D01*
X54597Y-19730D01*
X54525Y-19905D01*
X54525Y-20094D01*
X54597Y-20268D01*
X54730Y-20402D01*
X54760Y-20414D01*
X54760Y-21122D01*
X54778Y-21213D01*
X54830Y-21291D01*
X56525Y-22986D01*
X56525Y-23354D01*
X56548Y-23409D01*
X56590Y-23451D01*
X56645Y-23474D01*
X56705Y-23474D01*
X57135Y-23474D01*
X57598Y-23937D01*
X57598Y-24486D01*
X57581Y-24446D01*
X57539Y-24404D01*
X57484Y-24381D01*
X57424Y-24381D01*
X57211Y-24381D01*
X57174Y-24418D01*
X57174Y-24723D01*
X57182Y-24723D01*
X57182Y-24733D01*
X57174Y-24733D01*
X57174Y-25037D01*
X57211Y-25075D01*
X57424Y-25075D01*
X57484Y-25075D01*
X57539Y-25052D01*
X57581Y-25010D01*
X57598Y-24969D01*
X57598Y-25121D01*
X57553Y-25166D01*
X57539Y-25152D01*
X57484Y-25129D01*
X57424Y-25129D01*
X57164Y-25129D01*
X57164Y-25037D01*
X57164Y-24733D01*
X57164Y-24723D01*
X57164Y-24418D01*
X57126Y-24381D01*
X56913Y-24381D01*
X56854Y-24381D01*
X56798Y-24404D01*
X56756Y-24446D01*
X56733Y-24501D01*
X56733Y-24685D01*
X56771Y-24723D01*
X57164Y-24723D01*
X57164Y-24733D01*
X56771Y-24733D01*
X56733Y-24770D01*
X56733Y-24955D01*
X56756Y-25010D01*
X56798Y-25052D01*
X56854Y-25075D01*
X56913Y-25075D01*
X57126Y-25075D01*
X57164Y-25037D01*
X57164Y-25129D01*
X56854Y-25129D01*
X56798Y-25152D01*
X56756Y-25194D01*
X56739Y-25236D01*
X56620Y-25236D01*
X56620Y-24955D01*
X56620Y-24770D01*
X56620Y-24685D01*
X56620Y-24501D01*
X56597Y-24446D01*
X56555Y-24404D01*
X56500Y-24381D01*
X56440Y-24381D01*
X56227Y-24381D01*
X56190Y-24418D01*
X56190Y-24723D01*
X56582Y-24723D01*
X56620Y-24685D01*
X56620Y-24770D01*
X56582Y-24733D01*
X56190Y-24733D01*
X56190Y-25037D01*
X56227Y-25075D01*
X56440Y-25075D01*
X56500Y-25075D01*
X56555Y-25052D01*
X56597Y-25010D01*
X56620Y-24955D01*
X56620Y-25236D01*
X56614Y-25236D01*
X56597Y-25194D01*
X56555Y-25152D01*
X56500Y-25129D01*
X56440Y-25129D01*
X56180Y-25129D01*
X56180Y-25037D01*
X56180Y-24733D01*
X56180Y-24723D01*
X56180Y-24418D01*
X56142Y-24381D01*
X55929Y-24381D01*
X55869Y-24381D01*
X55852Y-24388D01*
X55852Y-23311D01*
X55852Y-23251D01*
X55852Y-22979D01*
X55852Y-22894D01*
X55852Y-22622D01*
X55852Y-22562D01*
X55829Y-22507D01*
X55787Y-22465D01*
X55732Y-22442D01*
X55538Y-22442D01*
X55501Y-22480D01*
X55501Y-22932D01*
X55815Y-22932D01*
X55852Y-22894D01*
X55852Y-22979D01*
X55815Y-22942D01*
X55501Y-22942D01*
X55501Y-23393D01*
X55538Y-23431D01*
X55732Y-23431D01*
X55787Y-23408D01*
X55829Y-23366D01*
X55852Y-23311D01*
X55852Y-24388D01*
X55814Y-24404D01*
X55772Y-24446D01*
X55749Y-24501D01*
X55749Y-24685D01*
X55787Y-24723D01*
X56180Y-24723D01*
X56180Y-24733D01*
X55787Y-24733D01*
X55749Y-24770D01*
X55749Y-24955D01*
X55772Y-25010D01*
X55814Y-25052D01*
X55869Y-25075D01*
X55929Y-25075D01*
X56142Y-25075D01*
X56180Y-25037D01*
X56180Y-25129D01*
X55869Y-25129D01*
X55814Y-25152D01*
X55772Y-25194D01*
X55749Y-25249D01*
X55749Y-25309D01*
X55749Y-25572D01*
X55508Y-25813D01*
X55508Y-25762D01*
X55508Y-25702D01*
X55508Y-24442D01*
X55491Y-24401D01*
X55491Y-23393D01*
X55491Y-22942D01*
X55491Y-22932D01*
X55491Y-22480D01*
X55453Y-22442D01*
X55259Y-22442D01*
X55204Y-22465D01*
X55162Y-22507D01*
X55139Y-22562D01*
X55139Y-22622D01*
X55139Y-22894D01*
X55176Y-22932D01*
X55491Y-22932D01*
X55491Y-22942D01*
X55176Y-22942D01*
X55139Y-22979D01*
X55139Y-23251D01*
X55139Y-23311D01*
X55162Y-23366D01*
X55204Y-23408D01*
X55259Y-23431D01*
X55453Y-23431D01*
X55491Y-23393D01*
X55491Y-24401D01*
X55485Y-24387D01*
X55443Y-24345D01*
X55388Y-24322D01*
X55328Y-24322D01*
X54671Y-24322D01*
X54671Y-23311D01*
X54671Y-23251D01*
X54671Y-22562D01*
X54648Y-22507D01*
X54606Y-22465D01*
X54551Y-22442D01*
X54491Y-22442D01*
X54078Y-22442D01*
X54023Y-22465D01*
X53981Y-22507D01*
X53958Y-22562D01*
X53958Y-22622D01*
X53958Y-22737D01*
X53657Y-22737D01*
X53657Y-22621D01*
X53635Y-22566D01*
X53592Y-22524D01*
X53537Y-22501D01*
X53478Y-22501D01*
X53084Y-22501D01*
X53029Y-22524D01*
X52987Y-22566D01*
X52964Y-22621D01*
X52964Y-22681D01*
X52964Y-23252D01*
X52987Y-23307D01*
X53029Y-23349D01*
X53084Y-23372D01*
X53144Y-23372D01*
X53537Y-23372D01*
X53592Y-23349D01*
X53635Y-23307D01*
X53657Y-23252D01*
X53657Y-23192D01*
X53657Y-23137D01*
X53958Y-23137D01*
X53958Y-23311D01*
X53981Y-23366D01*
X54023Y-23408D01*
X54078Y-23431D01*
X54138Y-23431D01*
X54551Y-23431D01*
X54606Y-23408D01*
X54648Y-23366D01*
X54671Y-23311D01*
X54671Y-24322D01*
X54619Y-24322D01*
X54564Y-24345D01*
X54522Y-24387D01*
X54499Y-24442D01*
X54499Y-24502D01*
X54499Y-25762D01*
X54522Y-25817D01*
X54564Y-25859D01*
X54619Y-25882D01*
X54679Y-25882D01*
X55388Y-25882D01*
X55443Y-25859D01*
X55485Y-25817D01*
X55508Y-25762D01*
X55508Y-25813D01*
X55416Y-25905D01*
X54197Y-25905D01*
X53224Y-24932D01*
X53146Y-24880D01*
X53146Y-24880D01*
X53146Y-24403D01*
X53146Y-24344D01*
X53146Y-24239D01*
X53146Y-24154D01*
X53146Y-24049D01*
X53146Y-23989D01*
X53123Y-23934D01*
X53081Y-23892D01*
X53025Y-23869D01*
X52684Y-23869D01*
X52646Y-23907D01*
X52646Y-24191D01*
X53108Y-24191D01*
X53146Y-24154D01*
X53146Y-24239D01*
X53108Y-24201D01*
X52646Y-24201D01*
X52646Y-24486D01*
X52684Y-24524D01*
X53025Y-24524D01*
X53081Y-24501D01*
X53123Y-24458D01*
X53146Y-24403D01*
X53146Y-24880D01*
X53139Y-24879D01*
X53123Y-24840D01*
X53081Y-24798D01*
X53025Y-24775D01*
X52966Y-24775D01*
X52636Y-24775D01*
X52636Y-24486D01*
X52636Y-24201D01*
X52636Y-24191D01*
X52636Y-23907D01*
X52599Y-23869D01*
X52257Y-23869D01*
X52202Y-23892D01*
X52160Y-23934D01*
X52137Y-23989D01*
X52137Y-24049D01*
X52137Y-24154D01*
X52174Y-24191D01*
X52636Y-24191D01*
X52636Y-24201D01*
X52174Y-24201D01*
X52137Y-24239D01*
X52137Y-24344D01*
X52137Y-24403D01*
X52160Y-24458D01*
X52202Y-24501D01*
X52257Y-24524D01*
X52599Y-24524D01*
X52636Y-24486D01*
X52636Y-24775D01*
X52257Y-24775D01*
X52233Y-24785D01*
X52034Y-24586D01*
X52034Y-23748D01*
X52410Y-23372D01*
X52789Y-23372D01*
X52844Y-23349D01*
X52887Y-23307D01*
X52909Y-23252D01*
X52909Y-23192D01*
X52909Y-22621D01*
X52887Y-22566D01*
X52844Y-22524D01*
X52789Y-22501D01*
X52730Y-22501D01*
X52336Y-22501D01*
X52281Y-22524D01*
X52238Y-22566D01*
X52216Y-22621D01*
X52216Y-22681D01*
X52216Y-23001D01*
X51693Y-23523D01*
X51649Y-23588D01*
X51634Y-23665D01*
X51634Y-24669D01*
X51649Y-24745D01*
X51693Y-24810D01*
X52126Y-25243D01*
X52137Y-25251D01*
X52137Y-25309D01*
X52160Y-25364D01*
X52202Y-25406D01*
X52257Y-25429D01*
X52317Y-25429D01*
X53025Y-25429D01*
X53037Y-25424D01*
X53928Y-26315D01*
X54547Y-26934D01*
X54547Y-27123D01*
X54543Y-27117D01*
X53264Y-25838D01*
X53186Y-25786D01*
X53135Y-25776D01*
X53123Y-25745D01*
X53081Y-25703D01*
X53025Y-25680D01*
X52966Y-25680D01*
X52257Y-25680D01*
X52245Y-25685D01*
X50474Y-23914D01*
X50474Y-23905D01*
X50402Y-23731D01*
X50271Y-23599D01*
X51107Y-22763D01*
X51716Y-22763D01*
X51808Y-22745D01*
X51886Y-22693D01*
X54104Y-20474D01*
X54354Y-20474D01*
X54409Y-20451D01*
X54451Y-20409D01*
X54474Y-20354D01*
X54474Y-20294D01*
X54474Y-19645D01*
X54451Y-19590D01*
X54409Y-19548D01*
X54354Y-19525D01*
X54294Y-19525D01*
X53645Y-19525D01*
X53590Y-19548D01*
X53548Y-19590D01*
X53525Y-19645D01*
X53525Y-19705D01*
X53525Y-20354D01*
X53531Y-20369D01*
X52262Y-21638D01*
X52262Y-20750D01*
X52070Y-20285D01*
X51715Y-19930D01*
X51252Y-19738D01*
X50750Y-19737D01*
X50285Y-19929D01*
X49930Y-20284D01*
X49738Y-20747D01*
X49737Y-21249D01*
X49929Y-21714D01*
X50284Y-22069D01*
X50747Y-22261D01*
X51249Y-22262D01*
X51714Y-22070D01*
X52069Y-21715D01*
X52261Y-21252D01*
X52262Y-20750D01*
X52262Y-21638D01*
X51617Y-22283D01*
X51007Y-22283D01*
X50916Y-22301D01*
X50838Y-22353D01*
X49830Y-23361D01*
X49778Y-23439D01*
X49760Y-23531D01*
X49760Y-23585D01*
X49731Y-23597D01*
X49597Y-23730D01*
X49525Y-23905D01*
X49525Y-24094D01*
X49597Y-24268D01*
X49730Y-24402D01*
X49905Y-24474D01*
X50094Y-24474D01*
X50268Y-24402D01*
X50276Y-24395D01*
X52058Y-26177D01*
X52136Y-26229D01*
X52144Y-26231D01*
X52160Y-26270D01*
X52202Y-26312D01*
X52257Y-26335D01*
X52317Y-26335D01*
X53025Y-26335D01*
X53065Y-26318D01*
X54134Y-27386D01*
X54134Y-28134D01*
X54098Y-28048D01*
X54007Y-27956D01*
X53887Y-27907D01*
X53758Y-27907D01*
X53638Y-27956D01*
X53575Y-28020D01*
X53575Y-27932D01*
X53552Y-27877D01*
X53510Y-27835D01*
X53455Y-27812D01*
X53428Y-27812D01*
X53428Y-27797D01*
X53455Y-27797D01*
X53510Y-27774D01*
X53552Y-27732D01*
X53575Y-27677D01*
X53575Y-27617D01*
X53575Y-27046D01*
X53552Y-26991D01*
X53510Y-26949D01*
X53455Y-26926D01*
X53395Y-26926D01*
X53001Y-26926D01*
X52946Y-26949D01*
X52904Y-26991D01*
X52881Y-27046D01*
X52881Y-27106D01*
X52881Y-27677D01*
X52904Y-27732D01*
X52946Y-27774D01*
X53001Y-27797D01*
X53028Y-27797D01*
X53028Y-27812D01*
X53001Y-27812D01*
X52946Y-27835D01*
X52904Y-27877D01*
X52881Y-27932D01*
X52881Y-27992D01*
X52881Y-28563D01*
X52904Y-28618D01*
X52946Y-28660D01*
X53001Y-28683D01*
X53061Y-28683D01*
X53455Y-28683D01*
X53510Y-28660D01*
X53552Y-28618D01*
X53575Y-28563D01*
X53575Y-28503D01*
X53575Y-28448D01*
X53578Y-28448D01*
X53638Y-28507D01*
X53757Y-28557D01*
X53887Y-28557D01*
X54006Y-28507D01*
X54098Y-28416D01*
X54134Y-28330D01*
X54134Y-29530D01*
X54128Y-29536D01*
X54128Y-29073D01*
X54078Y-28953D01*
X53987Y-28862D01*
X53868Y-28812D01*
X53738Y-28812D01*
X53619Y-28862D01*
X53575Y-28906D01*
X53575Y-28818D01*
X53552Y-28763D01*
X53510Y-28721D01*
X53455Y-28698D01*
X53395Y-28698D01*
X53001Y-28698D01*
X52946Y-28721D01*
X52904Y-28763D01*
X52881Y-28818D01*
X52881Y-28878D01*
X52881Y-29449D01*
X52904Y-29504D01*
X52946Y-29546D01*
X53001Y-29569D01*
X53028Y-29569D01*
X53028Y-29584D01*
X53001Y-29584D01*
X52946Y-29607D01*
X52904Y-29649D01*
X52881Y-29704D01*
X52881Y-29764D01*
X52881Y-30334D01*
X52904Y-30390D01*
X52946Y-30432D01*
X53001Y-30455D01*
X53012Y-30455D01*
X53012Y-30474D01*
X52985Y-30474D01*
X52930Y-30496D01*
X52888Y-30539D01*
X52865Y-30594D01*
X52865Y-30653D01*
X52865Y-31224D01*
X52888Y-31279D01*
X52930Y-31322D01*
X52985Y-31344D01*
X53045Y-31344D01*
X53439Y-31344D01*
X53494Y-31322D01*
X53536Y-31279D01*
X53559Y-31224D01*
X53559Y-31165D01*
X53559Y-30594D01*
X53536Y-30539D01*
X53494Y-30496D01*
X53439Y-30474D01*
X53412Y-30474D01*
X53412Y-30455D01*
X53455Y-30455D01*
X53510Y-30432D01*
X53552Y-30390D01*
X53575Y-30334D01*
X53575Y-30275D01*
X53575Y-29704D01*
X53552Y-29649D01*
X53510Y-29607D01*
X53455Y-29584D01*
X53428Y-29584D01*
X53428Y-29569D01*
X53455Y-29569D01*
X53510Y-29546D01*
X53552Y-29504D01*
X53575Y-29449D01*
X53575Y-29389D01*
X53575Y-29369D01*
X53618Y-29413D01*
X53738Y-29462D01*
X53867Y-29462D01*
X53987Y-29413D01*
X54078Y-29322D01*
X54128Y-29202D01*
X54128Y-29073D01*
X54128Y-29536D01*
X53830Y-29834D01*
X53778Y-29912D01*
X53760Y-30003D01*
X53760Y-36525D01*
X53645Y-36525D01*
X53590Y-36548D01*
X53548Y-36590D01*
X53525Y-36645D01*
X53525Y-36705D01*
X53525Y-37336D01*
X53451Y-37263D01*
X53451Y-33441D01*
X53537Y-33441D01*
X53592Y-33418D01*
X53635Y-33376D01*
X53657Y-33321D01*
X53657Y-33261D01*
X53657Y-33025D01*
X53635Y-32970D01*
X53592Y-32927D01*
X53537Y-32905D01*
X53478Y-32905D01*
X53451Y-32905D01*
X53451Y-32225D01*
X53494Y-32207D01*
X53536Y-32165D01*
X53559Y-32110D01*
X53559Y-32050D01*
X53559Y-31480D01*
X53536Y-31424D01*
X53494Y-31382D01*
X53439Y-31359D01*
X53379Y-31359D01*
X52985Y-31359D01*
X52930Y-31382D01*
X52888Y-31424D01*
X52865Y-31480D01*
X52865Y-31539D01*
X52865Y-32110D01*
X52888Y-32165D01*
X52930Y-32207D01*
X52985Y-32230D01*
X53045Y-32230D01*
X53051Y-32230D01*
X53051Y-32905D01*
X52966Y-32905D01*
X52911Y-32927D01*
X52868Y-32970D01*
X52846Y-33025D01*
X52846Y-33084D01*
X52846Y-33321D01*
X52868Y-33376D01*
X52911Y-33418D01*
X52966Y-33441D01*
X53025Y-33441D01*
X53051Y-33441D01*
X53051Y-34442D01*
X52983Y-34374D01*
X52864Y-34324D01*
X52816Y-34324D01*
X52350Y-33858D01*
X52285Y-33815D01*
X52710Y-33815D01*
X52766Y-33792D01*
X52808Y-33750D01*
X52831Y-33695D01*
X52831Y-33635D01*
X52831Y-33399D01*
X52808Y-33344D01*
X52766Y-33301D01*
X52710Y-33279D01*
X52651Y-33279D01*
X52164Y-33279D01*
X52120Y-33235D01*
X52120Y-33128D01*
X52085Y-33045D01*
X52139Y-33067D01*
X52199Y-33067D01*
X52710Y-33067D01*
X52766Y-33044D01*
X52808Y-33002D01*
X52831Y-32947D01*
X52831Y-32887D01*
X52831Y-32651D01*
X52827Y-32641D01*
X52827Y-30334D01*
X52827Y-30275D01*
X52827Y-30062D01*
X52827Y-29977D01*
X52827Y-29764D01*
X52827Y-29704D01*
X52827Y-29449D01*
X52827Y-29389D01*
X52827Y-28818D01*
X52804Y-28763D01*
X52762Y-28721D01*
X52707Y-28698D01*
X52647Y-28698D01*
X52253Y-28698D01*
X52198Y-28721D01*
X52156Y-28763D01*
X52133Y-28818D01*
X52133Y-28878D01*
X52133Y-28933D01*
X52130Y-28933D01*
X51589Y-28392D01*
X52133Y-28392D01*
X52133Y-28563D01*
X52156Y-28618D01*
X52198Y-28660D01*
X52253Y-28683D01*
X52313Y-28683D01*
X52707Y-28683D01*
X52762Y-28660D01*
X52804Y-28618D01*
X52827Y-28563D01*
X52827Y-28503D01*
X52827Y-27932D01*
X52827Y-27677D01*
X52827Y-27617D01*
X52827Y-27404D01*
X52827Y-27319D01*
X52827Y-27106D01*
X52827Y-27046D01*
X52804Y-26991D01*
X52762Y-26949D01*
X52707Y-26926D01*
X52522Y-26926D01*
X52485Y-26964D01*
X52485Y-27357D01*
X52789Y-27357D01*
X52827Y-27319D01*
X52827Y-27404D01*
X52789Y-27367D01*
X52485Y-27367D01*
X52485Y-27760D01*
X52522Y-27797D01*
X52707Y-27797D01*
X52762Y-27774D01*
X52804Y-27732D01*
X52827Y-27677D01*
X52827Y-27932D01*
X52804Y-27877D01*
X52762Y-27835D01*
X52707Y-27812D01*
X52647Y-27812D01*
X52475Y-27812D01*
X52475Y-27760D01*
X52475Y-27367D01*
X52475Y-27357D01*
X52475Y-26964D01*
X52437Y-26926D01*
X52253Y-26926D01*
X52198Y-26949D01*
X52156Y-26991D01*
X52133Y-27046D01*
X52133Y-27106D01*
X52133Y-27319D01*
X52170Y-27357D01*
X52475Y-27357D01*
X52475Y-27367D01*
X52170Y-27367D01*
X52133Y-27404D01*
X52133Y-27617D01*
X52133Y-27677D01*
X52156Y-27732D01*
X52198Y-27774D01*
X52253Y-27797D01*
X52437Y-27797D01*
X52475Y-27760D01*
X52475Y-27812D01*
X52253Y-27812D01*
X52198Y-27835D01*
X52156Y-27877D01*
X52133Y-27932D01*
X52133Y-27992D01*
X52133Y-27992D01*
X51606Y-27992D01*
X51669Y-27929D01*
X51721Y-27851D01*
X51740Y-27759D01*
X51740Y-26500D01*
X51721Y-26408D01*
X51721Y-26408D01*
X51700Y-26376D01*
X51669Y-26330D01*
X50474Y-25135D01*
X50474Y-24645D01*
X50451Y-24590D01*
X50409Y-24548D01*
X50354Y-24525D01*
X50294Y-24525D01*
X49645Y-24525D01*
X49590Y-24548D01*
X49548Y-24590D01*
X49525Y-24645D01*
X49525Y-24705D01*
X49525Y-25354D01*
X49548Y-25409D01*
X49590Y-25451D01*
X49645Y-25474D01*
X49705Y-25474D01*
X50135Y-25474D01*
X51260Y-26599D01*
X51260Y-27660D01*
X51223Y-27697D01*
X50751Y-27697D01*
X50695Y-27708D01*
X50348Y-27708D01*
X50292Y-27731D01*
X50250Y-27773D01*
X50227Y-27828D01*
X50227Y-27888D01*
X50227Y-28045D01*
X50235Y-28064D01*
X50227Y-28084D01*
X50227Y-28144D01*
X50227Y-28301D01*
X50235Y-28320D01*
X50227Y-28340D01*
X50227Y-28399D01*
X50227Y-28557D01*
X50235Y-28576D01*
X50227Y-28596D01*
X50227Y-28655D01*
X50227Y-28813D01*
X50235Y-28832D01*
X50227Y-28852D01*
X50227Y-28918D01*
X50265Y-28955D01*
X50746Y-28955D01*
X50746Y-28947D01*
X50756Y-28947D01*
X50756Y-28955D01*
X51238Y-28955D01*
X51275Y-28918D01*
X51275Y-28852D01*
X51267Y-28832D01*
X51275Y-28813D01*
X51275Y-28753D01*
X51275Y-28648D01*
X51279Y-28648D01*
X51905Y-29275D01*
X51970Y-29318D01*
X52047Y-29333D01*
X52133Y-29333D01*
X52133Y-29449D01*
X52156Y-29504D01*
X52198Y-29546D01*
X52253Y-29569D01*
X52313Y-29569D01*
X52707Y-29569D01*
X52762Y-29546D01*
X52804Y-29504D01*
X52827Y-29449D01*
X52827Y-29704D01*
X52804Y-29649D01*
X52762Y-29607D01*
X52707Y-29584D01*
X52522Y-29584D01*
X52485Y-29621D01*
X52485Y-30014D01*
X52789Y-30014D01*
X52827Y-29977D01*
X52827Y-30062D01*
X52789Y-30024D01*
X52485Y-30024D01*
X52485Y-30417D01*
X52522Y-30455D01*
X52707Y-30455D01*
X52762Y-30432D01*
X52804Y-30390D01*
X52827Y-30334D01*
X52827Y-32641D01*
X52808Y-32596D01*
X52766Y-32553D01*
X52710Y-32531D01*
X52651Y-32531D01*
X52625Y-32531D01*
X52625Y-32230D01*
X52691Y-32230D01*
X52746Y-32207D01*
X52788Y-32165D01*
X52811Y-32110D01*
X52811Y-32050D01*
X52811Y-31480D01*
X52788Y-31424D01*
X52746Y-31382D01*
X52691Y-31359D01*
X52631Y-31359D01*
X52237Y-31359D01*
X52182Y-31382D01*
X52140Y-31424D01*
X52117Y-31480D01*
X52117Y-31539D01*
X52117Y-32110D01*
X52140Y-32165D01*
X52182Y-32207D01*
X52225Y-32225D01*
X52225Y-32531D01*
X52139Y-32531D01*
X52105Y-32545D01*
X52120Y-32509D01*
X52120Y-32380D01*
X52070Y-32261D01*
X51995Y-32185D01*
X51995Y-31385D01*
X52129Y-31252D01*
X52140Y-31279D01*
X52182Y-31322D01*
X52237Y-31344D01*
X52297Y-31344D01*
X52691Y-31344D01*
X52746Y-31322D01*
X52788Y-31279D01*
X52811Y-31224D01*
X52811Y-31165D01*
X52811Y-30594D01*
X52788Y-30539D01*
X52746Y-30496D01*
X52691Y-30474D01*
X52631Y-30474D01*
X52475Y-30474D01*
X52475Y-30417D01*
X52475Y-30024D01*
X52475Y-30014D01*
X52475Y-29621D01*
X52437Y-29584D01*
X52253Y-29584D01*
X52198Y-29607D01*
X52156Y-29649D01*
X52133Y-29704D01*
X52133Y-29764D01*
X52133Y-29977D01*
X52170Y-30014D01*
X52475Y-30014D01*
X52475Y-30024D01*
X52170Y-30024D01*
X52133Y-30062D01*
X52133Y-30275D01*
X52133Y-30334D01*
X52156Y-30390D01*
X52198Y-30432D01*
X52253Y-30455D01*
X52437Y-30455D01*
X52475Y-30417D01*
X52475Y-30474D01*
X52237Y-30474D01*
X52182Y-30496D01*
X52140Y-30539D01*
X52117Y-30594D01*
X52117Y-30653D01*
X52117Y-30723D01*
X52112Y-30724D01*
X52047Y-30768D01*
X51653Y-31161D01*
X51610Y-31226D01*
X51595Y-31303D01*
X51595Y-32185D01*
X51519Y-32260D01*
X51470Y-32379D01*
X51470Y-32509D01*
X51507Y-32599D01*
X51275Y-32599D01*
X51275Y-29069D01*
X51275Y-29003D01*
X51238Y-28965D01*
X50756Y-28965D01*
X50756Y-29151D01*
X50794Y-29189D01*
X51096Y-29189D01*
X51155Y-29189D01*
X51210Y-29166D01*
X51253Y-29124D01*
X51275Y-29069D01*
X51275Y-32599D01*
X50455Y-32599D01*
X50451Y-32590D01*
X50409Y-32548D01*
X50354Y-32525D01*
X50294Y-32525D01*
X49674Y-32525D01*
X49778Y-32421D01*
X49905Y-32474D01*
X50094Y-32474D01*
X50268Y-32402D01*
X50402Y-32269D01*
X50474Y-32094D01*
X50474Y-31905D01*
X50402Y-31731D01*
X50269Y-31597D01*
X50094Y-31525D01*
X49905Y-31525D01*
X49731Y-31597D01*
X49597Y-31730D01*
X49525Y-31905D01*
X49525Y-32094D01*
X49529Y-32104D01*
X49443Y-32190D01*
X49443Y-30527D01*
X49994Y-30527D01*
X50049Y-30505D01*
X50091Y-30462D01*
X50114Y-30407D01*
X50114Y-30348D01*
X50114Y-30110D01*
X50155Y-30150D01*
X50210Y-30173D01*
X50269Y-30173D01*
X50821Y-30173D01*
X50876Y-30150D01*
X50918Y-30108D01*
X50941Y-30053D01*
X50941Y-29993D01*
X50941Y-29363D01*
X50918Y-29308D01*
X50876Y-29266D01*
X50821Y-29243D01*
X50761Y-29243D01*
X50746Y-29243D01*
X50746Y-29151D01*
X50746Y-28965D01*
X50265Y-28965D01*
X50227Y-29003D01*
X50227Y-29069D01*
X50250Y-29124D01*
X50292Y-29166D01*
X50348Y-29189D01*
X50407Y-29189D01*
X50709Y-29189D01*
X50746Y-29151D01*
X50746Y-29243D01*
X50210Y-29243D01*
X50155Y-29266D01*
X50114Y-29307D01*
X50114Y-29265D01*
X50114Y-28517D01*
X50091Y-28462D01*
X50078Y-28448D01*
X50091Y-28435D01*
X50114Y-28380D01*
X50114Y-28320D01*
X50114Y-27590D01*
X50155Y-27631D01*
X50210Y-27653D01*
X50269Y-27653D01*
X50821Y-27653D01*
X50876Y-27631D01*
X50918Y-27588D01*
X50941Y-27533D01*
X50941Y-27474D01*
X50941Y-26844D01*
X50918Y-26789D01*
X50876Y-26746D01*
X50821Y-26724D01*
X50761Y-26724D01*
X50210Y-26724D01*
X50155Y-26746D01*
X50114Y-26787D01*
X50114Y-26489D01*
X50091Y-26434D01*
X50049Y-26392D01*
X49994Y-26369D01*
X49934Y-26369D01*
X49443Y-26369D01*
X49443Y-19443D01*
X81627Y-19443D01*
X81627Y-37453D01*
X81627Y-37453D01*
G37*
G54D28*
X81627Y-37453D02*
X81262Y-37453D01*
X81262Y-35750D01*
X81262Y-20750D01*
X81070Y-20285D01*
X80715Y-19930D01*
X80252Y-19738D01*
X79750Y-19737D01*
X79285Y-19929D01*
X78930Y-20284D01*
X78738Y-20747D01*
X78737Y-21249D01*
X78929Y-21714D01*
X79284Y-22069D01*
X79747Y-22261D01*
X80249Y-22262D01*
X80714Y-22070D01*
X81069Y-21715D01*
X81261Y-21252D01*
X81262Y-20750D01*
X81262Y-35750D01*
X81070Y-35285D01*
X80715Y-34930D01*
X80252Y-34738D01*
X79750Y-34737D01*
X79285Y-34929D01*
X78930Y-35284D01*
X78738Y-35747D01*
X78737Y-36249D01*
X78929Y-36714D01*
X79284Y-37069D01*
X79747Y-37261D01*
X80249Y-37262D01*
X80714Y-37070D01*
X81069Y-36715D01*
X81261Y-36252D01*
X81262Y-35750D01*
X81262Y-37453D01*
X77718Y-37453D01*
X78275Y-36897D01*
X78318Y-36832D01*
X78318Y-36832D01*
X78333Y-36755D01*
X78333Y-35342D01*
X80913Y-32763D01*
X80956Y-32698D01*
X80971Y-32622D01*
X80971Y-29472D01*
X80958Y-29408D01*
X80956Y-29395D01*
X80956Y-29395D01*
X80913Y-29331D01*
X80477Y-28895D01*
X80477Y-27919D01*
X80410Y-27742D01*
X80394Y-27719D01*
X80319Y-27687D01*
X80007Y-28000D01*
X80319Y-28312D01*
X80394Y-28280D01*
X80471Y-28108D01*
X80477Y-27919D01*
X80477Y-28895D01*
X80465Y-28883D01*
X80402Y-28731D01*
X80269Y-28597D01*
X80094Y-28525D01*
X79905Y-28525D01*
X79731Y-28597D01*
X79711Y-28616D01*
X79711Y-28376D01*
X79719Y-28394D01*
X79891Y-28471D01*
X80080Y-28477D01*
X80257Y-28410D01*
X80280Y-28394D01*
X80312Y-28319D01*
X80000Y-28007D01*
X79994Y-28012D01*
X79987Y-28005D01*
X79992Y-28000D01*
X79987Y-27994D01*
X79994Y-27987D01*
X80000Y-27992D01*
X80312Y-27680D01*
X80280Y-27605D01*
X80108Y-27528D01*
X79919Y-27522D01*
X79742Y-27589D01*
X79719Y-27605D01*
X79711Y-27623D01*
X79711Y-26165D01*
X79711Y-25224D01*
X79841Y-25094D01*
X79895Y-25094D01*
X80604Y-25094D01*
X80659Y-25072D01*
X80701Y-25029D01*
X80724Y-24974D01*
X80724Y-24915D01*
X80724Y-24481D01*
X80724Y-23518D01*
X80724Y-23458D01*
X80724Y-23314D01*
X80724Y-23229D01*
X80724Y-23084D01*
X80724Y-23025D01*
X80701Y-22970D01*
X80659Y-22927D01*
X80604Y-22905D01*
X80262Y-22905D01*
X80225Y-22942D01*
X80225Y-23266D01*
X80687Y-23266D01*
X80724Y-23229D01*
X80724Y-23314D01*
X80687Y-23276D01*
X80225Y-23276D01*
X80225Y-23600D01*
X80262Y-23638D01*
X80604Y-23638D01*
X80659Y-23615D01*
X80701Y-23573D01*
X80724Y-23518D01*
X80724Y-24481D01*
X80701Y-24426D01*
X80659Y-24384D01*
X80604Y-24361D01*
X80544Y-24361D01*
X80215Y-24361D01*
X80215Y-23600D01*
X80215Y-23276D01*
X80215Y-23266D01*
X80215Y-22942D01*
X80177Y-22905D01*
X79836Y-22905D01*
X79781Y-22927D01*
X79738Y-22970D01*
X79716Y-23025D01*
X79716Y-23084D01*
X79716Y-23229D01*
X79753Y-23266D01*
X80215Y-23266D01*
X80215Y-23276D01*
X79753Y-23276D01*
X79716Y-23314D01*
X79716Y-23458D01*
X79716Y-23518D01*
X79738Y-23573D01*
X79781Y-23615D01*
X79836Y-23638D01*
X80177Y-23638D01*
X80215Y-23600D01*
X80215Y-24361D01*
X79836Y-24361D01*
X79781Y-24384D01*
X79738Y-24426D01*
X79716Y-24481D01*
X79716Y-24528D01*
X78283Y-24528D01*
X78283Y-24481D01*
X78283Y-23518D01*
X78283Y-23458D01*
X78283Y-23314D01*
X78283Y-23229D01*
X78283Y-23084D01*
X78283Y-23025D01*
X78261Y-22970D01*
X78218Y-22927D01*
X78163Y-22905D01*
X77822Y-22905D01*
X77784Y-22942D01*
X77784Y-23266D01*
X78246Y-23266D01*
X78283Y-23229D01*
X78283Y-23314D01*
X78246Y-23276D01*
X77784Y-23276D01*
X77784Y-23600D01*
X77822Y-23638D01*
X78163Y-23638D01*
X78218Y-23615D01*
X78261Y-23573D01*
X78283Y-23518D01*
X78283Y-24481D01*
X78261Y-24426D01*
X78218Y-24384D01*
X78163Y-24361D01*
X78104Y-24361D01*
X77774Y-24361D01*
X77774Y-23600D01*
X77774Y-23276D01*
X77774Y-23266D01*
X77774Y-22942D01*
X77737Y-22905D01*
X77395Y-22905D01*
X77340Y-22927D01*
X77298Y-22970D01*
X77275Y-23025D01*
X77275Y-23084D01*
X77275Y-23229D01*
X77312Y-23266D01*
X77774Y-23266D01*
X77774Y-23276D01*
X77312Y-23276D01*
X77275Y-23314D01*
X77275Y-23458D01*
X77275Y-23518D01*
X77298Y-23573D01*
X77340Y-23615D01*
X77395Y-23638D01*
X77737Y-23638D01*
X77774Y-23600D01*
X77774Y-24361D01*
X77695Y-24361D01*
X77586Y-24252D01*
X77521Y-24208D01*
X77444Y-24193D01*
X76797Y-24193D01*
X76797Y-24167D01*
X76797Y-23872D01*
X76797Y-23688D01*
X76797Y-23603D01*
X76797Y-23418D01*
X76774Y-23363D01*
X76732Y-23321D01*
X76677Y-23298D01*
X76617Y-23298D01*
X76404Y-23298D01*
X76367Y-23336D01*
X76367Y-23640D01*
X76760Y-23640D01*
X76797Y-23603D01*
X76797Y-23688D01*
X76760Y-23650D01*
X76367Y-23650D01*
X76367Y-23955D01*
X76404Y-23992D01*
X76617Y-23992D01*
X76677Y-23992D01*
X76732Y-23969D01*
X76774Y-23927D01*
X76797Y-23872D01*
X76797Y-24167D01*
X76774Y-24111D01*
X76732Y-24069D01*
X76677Y-24046D01*
X76617Y-24046D01*
X76357Y-24046D01*
X76357Y-23955D01*
X76357Y-23650D01*
X76357Y-23640D01*
X76357Y-23336D01*
X76319Y-23298D01*
X76106Y-23298D01*
X76046Y-23298D01*
X75991Y-23321D01*
X75949Y-23363D01*
X75926Y-23418D01*
X75926Y-23603D01*
X75964Y-23640D01*
X76357Y-23640D01*
X76357Y-23650D01*
X75964Y-23650D01*
X75926Y-23688D01*
X75926Y-23872D01*
X75949Y-23927D01*
X75991Y-23969D01*
X76046Y-23992D01*
X76106Y-23992D01*
X76319Y-23992D01*
X76357Y-23955D01*
X76357Y-24046D01*
X76046Y-24046D01*
X75991Y-24069D01*
X75949Y-24111D01*
X75926Y-24167D01*
X75926Y-24226D01*
X75926Y-24620D01*
X75892Y-24586D01*
X75892Y-24433D01*
X75877Y-24356D01*
X75877Y-24356D01*
X75834Y-24291D01*
X73931Y-22388D01*
X73931Y-22301D01*
X73881Y-22182D01*
X73820Y-22120D01*
X73828Y-22120D01*
X73947Y-22070D01*
X74039Y-21979D01*
X74088Y-21860D01*
X74088Y-21730D01*
X74039Y-21611D01*
X74029Y-21601D01*
X74311Y-21601D01*
X74386Y-21676D01*
X74505Y-21726D01*
X74635Y-21726D01*
X74754Y-21677D01*
X74846Y-21585D01*
X74895Y-21466D01*
X74895Y-21337D01*
X74850Y-21227D01*
X75374Y-21227D01*
X75449Y-21302D01*
X75568Y-21352D01*
X75698Y-21352D01*
X75817Y-21303D01*
X75909Y-21211D01*
X75958Y-21092D01*
X75958Y-20963D01*
X75929Y-20892D01*
X76307Y-20892D01*
X76383Y-20877D01*
X76448Y-20834D01*
X76836Y-20446D01*
X76905Y-20474D01*
X77094Y-20474D01*
X77268Y-20402D01*
X77402Y-20269D01*
X77474Y-20094D01*
X77474Y-19905D01*
X77402Y-19731D01*
X77269Y-19597D01*
X77094Y-19525D01*
X76905Y-19525D01*
X76731Y-19597D01*
X76597Y-19730D01*
X76525Y-19905D01*
X76525Y-20094D01*
X76553Y-20163D01*
X76474Y-20242D01*
X76474Y-19905D01*
X76402Y-19731D01*
X76269Y-19597D01*
X76094Y-19525D01*
X75905Y-19525D01*
X75731Y-19597D01*
X75597Y-19730D01*
X75525Y-19905D01*
X75525Y-20094D01*
X75597Y-20268D01*
X75730Y-20402D01*
X75905Y-20474D01*
X76094Y-20474D01*
X76268Y-20402D01*
X76402Y-20269D01*
X76474Y-20094D01*
X76474Y-19905D01*
X76474Y-20242D01*
X76224Y-20492D01*
X75474Y-20492D01*
X75474Y-19905D01*
X75402Y-19731D01*
X75269Y-19597D01*
X75094Y-19525D01*
X74905Y-19525D01*
X74731Y-19597D01*
X74597Y-19730D01*
X74525Y-19905D01*
X74525Y-20094D01*
X74597Y-20268D01*
X74730Y-20402D01*
X74905Y-20474D01*
X75094Y-20474D01*
X75268Y-20402D01*
X75402Y-20269D01*
X75474Y-20094D01*
X75474Y-19905D01*
X75474Y-20492D01*
X74474Y-20492D01*
X74474Y-19905D01*
X74402Y-19731D01*
X74269Y-19597D01*
X74094Y-19525D01*
X73905Y-19525D01*
X73731Y-19597D01*
X73597Y-19730D01*
X73525Y-19905D01*
X73525Y-20094D01*
X73597Y-20268D01*
X73730Y-20402D01*
X73905Y-20474D01*
X74094Y-20474D01*
X74268Y-20402D01*
X74402Y-20269D01*
X74474Y-20094D01*
X74474Y-19905D01*
X74474Y-20492D01*
X73586Y-20492D01*
X73522Y-20505D01*
X73510Y-20508D01*
X73445Y-20551D01*
X70722Y-23274D01*
X70722Y-23229D01*
X73141Y-20810D01*
X73184Y-20745D01*
X73200Y-20669D01*
X73200Y-20431D01*
X73268Y-20402D01*
X73402Y-20269D01*
X73474Y-20094D01*
X73474Y-19905D01*
X73402Y-19731D01*
X73269Y-19597D01*
X73094Y-19525D01*
X72905Y-19525D01*
X72731Y-19597D01*
X72597Y-19730D01*
X72525Y-19905D01*
X72525Y-20094D01*
X72597Y-20268D01*
X72730Y-20402D01*
X72800Y-20431D01*
X72800Y-20586D01*
X70439Y-22946D01*
X70407Y-22946D01*
X70407Y-22855D01*
X72141Y-21121D01*
X72184Y-21056D01*
X72200Y-20980D01*
X72200Y-20431D01*
X72268Y-20402D01*
X72402Y-20269D01*
X72474Y-20094D01*
X72474Y-19905D01*
X72402Y-19731D01*
X72269Y-19597D01*
X72094Y-19525D01*
X71905Y-19525D01*
X71731Y-19597D01*
X71597Y-19730D01*
X71525Y-19905D01*
X71525Y-20094D01*
X71597Y-20268D01*
X71730Y-20402D01*
X71800Y-20431D01*
X71800Y-20897D01*
X70124Y-22572D01*
X70018Y-22572D01*
X69898Y-22621D01*
X69807Y-22713D01*
X69757Y-22832D01*
X69757Y-22962D01*
X69806Y-23081D01*
X69898Y-23172D01*
X70017Y-23222D01*
X70072Y-23222D01*
X70072Y-23336D01*
X70121Y-23455D01*
X70213Y-23547D01*
X70332Y-23596D01*
X70400Y-23596D01*
X68634Y-25361D01*
X68606Y-25292D01*
X68534Y-25220D01*
X68606Y-25148D01*
X68655Y-25029D01*
X68655Y-24900D01*
X68606Y-24780D01*
X68544Y-24718D01*
X68606Y-24656D01*
X68655Y-24537D01*
X68655Y-24408D01*
X68606Y-24288D01*
X68544Y-24226D01*
X68606Y-24164D01*
X68655Y-24045D01*
X68655Y-23938D01*
X69239Y-23354D01*
X69239Y-23354D01*
X69268Y-23310D01*
X69283Y-23289D01*
X69283Y-23289D01*
X69298Y-23212D01*
X69298Y-23212D01*
X69298Y-22464D01*
X69283Y-22388D01*
X69239Y-22323D01*
X68846Y-21929D01*
X68781Y-21886D01*
X68704Y-21870D01*
X67179Y-21870D01*
X67228Y-21822D01*
X67277Y-21702D01*
X67277Y-21573D01*
X67248Y-21503D01*
X67671Y-21503D01*
X67671Y-21505D01*
X67720Y-21624D01*
X67811Y-21716D01*
X67931Y-21765D01*
X68060Y-21766D01*
X68179Y-21716D01*
X68271Y-21625D01*
X68321Y-21505D01*
X68321Y-21376D01*
X68275Y-21266D01*
X68662Y-21266D01*
X68704Y-21368D01*
X68795Y-21460D01*
X68915Y-21509D01*
X69044Y-21510D01*
X69164Y-21460D01*
X69255Y-21369D01*
X69305Y-21249D01*
X69305Y-21120D01*
X69276Y-21050D01*
X69659Y-21050D01*
X69659Y-21052D01*
X69708Y-21172D01*
X69799Y-21263D01*
X69919Y-21313D01*
X70048Y-21313D01*
X70168Y-21263D01*
X70259Y-21172D01*
X70309Y-21053D01*
X70309Y-20923D01*
X70264Y-20814D01*
X70385Y-20814D01*
X70462Y-20798D01*
X70527Y-20755D01*
X70836Y-20446D01*
X70905Y-20474D01*
X71094Y-20474D01*
X71268Y-20402D01*
X71402Y-20269D01*
X71474Y-20094D01*
X71474Y-19905D01*
X71402Y-19731D01*
X71269Y-19597D01*
X71094Y-19525D01*
X70905Y-19525D01*
X70731Y-19597D01*
X70597Y-19730D01*
X70525Y-19905D01*
X70525Y-20094D01*
X70553Y-20163D01*
X70302Y-20414D01*
X70240Y-20414D01*
X70268Y-20402D01*
X70402Y-20269D01*
X70474Y-20094D01*
X70474Y-19905D01*
X70402Y-19731D01*
X70269Y-19597D01*
X70094Y-19525D01*
X69905Y-19525D01*
X69731Y-19597D01*
X69597Y-19730D01*
X69525Y-19905D01*
X69525Y-20094D01*
X69597Y-20268D01*
X69730Y-20402D01*
X69759Y-20414D01*
X69240Y-20414D01*
X69268Y-20402D01*
X69402Y-20269D01*
X69474Y-20094D01*
X69474Y-19905D01*
X69402Y-19731D01*
X69269Y-19597D01*
X69094Y-19525D01*
X68905Y-19525D01*
X68731Y-19597D01*
X68597Y-19730D01*
X68525Y-19905D01*
X68525Y-20094D01*
X68597Y-20268D01*
X68730Y-20402D01*
X68759Y-20414D01*
X68240Y-20414D01*
X68268Y-20402D01*
X68402Y-20269D01*
X68474Y-20094D01*
X68474Y-19905D01*
X68402Y-19731D01*
X68269Y-19597D01*
X68094Y-19525D01*
X67905Y-19525D01*
X67731Y-19597D01*
X67597Y-19730D01*
X67525Y-19905D01*
X67525Y-20094D01*
X67597Y-20268D01*
X67730Y-20402D01*
X67759Y-20414D01*
X67240Y-20414D01*
X67268Y-20402D01*
X67402Y-20269D01*
X67474Y-20094D01*
X67474Y-19905D01*
X67402Y-19731D01*
X67269Y-19597D01*
X67094Y-19525D01*
X66905Y-19525D01*
X66731Y-19597D01*
X66597Y-19730D01*
X66525Y-19905D01*
X66525Y-20094D01*
X66597Y-20268D01*
X66730Y-20402D01*
X66759Y-20414D01*
X66240Y-20414D01*
X66268Y-20402D01*
X66402Y-20269D01*
X66474Y-20094D01*
X66474Y-19905D01*
X66402Y-19731D01*
X66269Y-19597D01*
X66094Y-19525D01*
X65905Y-19525D01*
X65731Y-19597D01*
X65597Y-19730D01*
X65525Y-19905D01*
X65525Y-20094D01*
X65597Y-20268D01*
X65730Y-20402D01*
X65759Y-20414D01*
X65240Y-20414D01*
X65268Y-20402D01*
X65402Y-20269D01*
X65474Y-20094D01*
X65474Y-19905D01*
X65402Y-19731D01*
X65269Y-19597D01*
X65094Y-19525D01*
X64905Y-19525D01*
X64731Y-19597D01*
X64597Y-19730D01*
X64525Y-19905D01*
X64525Y-20094D01*
X64597Y-20268D01*
X64730Y-20402D01*
X64759Y-20414D01*
X64240Y-20414D01*
X64268Y-20402D01*
X64402Y-20269D01*
X64474Y-20094D01*
X64474Y-19905D01*
X64402Y-19731D01*
X64269Y-19597D01*
X64094Y-19525D01*
X63905Y-19525D01*
X63731Y-19597D01*
X63597Y-19730D01*
X63525Y-19905D01*
X63525Y-20094D01*
X63597Y-20268D01*
X63730Y-20402D01*
X63759Y-20414D01*
X63389Y-20414D01*
X63325Y-20426D01*
X63313Y-20429D01*
X63248Y-20472D01*
X62598Y-21122D01*
X62555Y-21187D01*
X62540Y-21263D01*
X62540Y-23365D01*
X62519Y-23386D01*
X62461Y-23386D01*
X62474Y-23354D01*
X62474Y-23294D01*
X62474Y-22645D01*
X62451Y-22590D01*
X62409Y-22548D01*
X62354Y-22525D01*
X62294Y-22525D01*
X61645Y-22525D01*
X61590Y-22548D01*
X61548Y-22590D01*
X61525Y-22645D01*
X61525Y-22705D01*
X61525Y-23354D01*
X61538Y-23386D01*
X61477Y-23386D01*
X61477Y-22919D01*
X61410Y-22742D01*
X61394Y-22719D01*
X61319Y-22687D01*
X61312Y-22694D01*
X61312Y-22680D01*
X61280Y-22605D01*
X61108Y-22528D01*
X60919Y-22522D01*
X60742Y-22589D01*
X60719Y-22605D01*
X60687Y-22680D01*
X61000Y-22992D01*
X61312Y-22680D01*
X61312Y-22694D01*
X61007Y-23000D01*
X61319Y-23312D01*
X61394Y-23280D01*
X61471Y-23108D01*
X61477Y-22919D01*
X61477Y-23386D01*
X61283Y-23386D01*
X61312Y-23319D01*
X61000Y-23007D01*
X60992Y-23014D01*
X60992Y-23000D01*
X60680Y-22687D01*
X60605Y-22719D01*
X60528Y-22891D01*
X60522Y-23080D01*
X60589Y-23257D01*
X60605Y-23280D01*
X60680Y-23312D01*
X60992Y-23000D01*
X60992Y-23014D01*
X60687Y-23319D01*
X60719Y-23394D01*
X60861Y-23458D01*
X60845Y-23458D01*
X60725Y-23507D01*
X60634Y-23599D01*
X60584Y-23718D01*
X60584Y-23847D01*
X60633Y-23967D01*
X60725Y-24058D01*
X60844Y-24108D01*
X60973Y-24108D01*
X61084Y-24062D01*
X61125Y-24164D01*
X61217Y-24255D01*
X61336Y-24305D01*
X61344Y-24305D01*
X60801Y-24848D01*
X60801Y-24821D01*
X60752Y-24701D01*
X60660Y-24610D01*
X60541Y-24560D01*
X60434Y-24560D01*
X60381Y-24507D01*
X60381Y-22921D01*
X62850Y-20452D01*
X62905Y-20474D01*
X63094Y-20474D01*
X63268Y-20402D01*
X63402Y-20269D01*
X63474Y-20094D01*
X63474Y-19905D01*
X63402Y-19731D01*
X63269Y-19597D01*
X63094Y-19525D01*
X62905Y-19525D01*
X62731Y-19597D01*
X62597Y-19730D01*
X62525Y-19905D01*
X62525Y-20094D01*
X62559Y-20177D01*
X60085Y-22651D01*
X60085Y-22197D01*
X61836Y-20446D01*
X61905Y-20474D01*
X62094Y-20474D01*
X62268Y-20402D01*
X62402Y-20269D01*
X62474Y-20094D01*
X62474Y-19905D01*
X62402Y-19731D01*
X62269Y-19597D01*
X62094Y-19525D01*
X61905Y-19525D01*
X61731Y-19597D01*
X61597Y-19730D01*
X61525Y-19905D01*
X61525Y-20094D01*
X61553Y-20163D01*
X59810Y-21906D01*
X59810Y-21405D01*
X60789Y-20426D01*
X60905Y-20474D01*
X61094Y-20474D01*
X61268Y-20402D01*
X61402Y-20269D01*
X61474Y-20094D01*
X61474Y-19905D01*
X61402Y-19731D01*
X61269Y-19597D01*
X61094Y-19525D01*
X60905Y-19525D01*
X60731Y-19597D01*
X60597Y-19730D01*
X60525Y-19905D01*
X60525Y-20094D01*
X60534Y-20116D01*
X60417Y-20232D01*
X60474Y-20094D01*
X60474Y-19905D01*
X60402Y-19731D01*
X60269Y-19597D01*
X60094Y-19525D01*
X59905Y-19525D01*
X59731Y-19597D01*
X59597Y-19730D01*
X59525Y-19905D01*
X59525Y-20094D01*
X59590Y-20252D01*
X59200Y-20643D01*
X59200Y-20431D01*
X59268Y-20402D01*
X59402Y-20269D01*
X59474Y-20094D01*
X59474Y-19905D01*
X59402Y-19731D01*
X59269Y-19597D01*
X59094Y-19525D01*
X58905Y-19525D01*
X58731Y-19597D01*
X58597Y-19730D01*
X58525Y-19905D01*
X58525Y-20094D01*
X58597Y-20268D01*
X58730Y-20402D01*
X58800Y-20431D01*
X58800Y-26102D01*
X58764Y-26138D01*
X58714Y-26257D01*
X58714Y-26387D01*
X58763Y-26506D01*
X58855Y-26598D01*
X58974Y-26647D01*
X59002Y-26647D01*
X58655Y-26994D01*
X58655Y-26947D01*
X58606Y-26827D01*
X58570Y-26792D01*
X58570Y-23901D01*
X58570Y-23448D01*
X58552Y-23356D01*
X58500Y-23279D01*
X58500Y-23279D01*
X58428Y-23206D01*
X58474Y-23094D01*
X58474Y-22905D01*
X58402Y-22731D01*
X58269Y-22597D01*
X58240Y-22585D01*
X58240Y-20414D01*
X58268Y-20402D01*
X58402Y-20269D01*
X58474Y-20094D01*
X58474Y-19905D01*
X58402Y-19731D01*
X58269Y-19597D01*
X58094Y-19525D01*
X57905Y-19525D01*
X57731Y-19597D01*
X57597Y-19730D01*
X57525Y-19905D01*
X57525Y-20094D01*
X57597Y-20268D01*
X57730Y-20402D01*
X57760Y-20414D01*
X57760Y-22585D01*
X57731Y-22597D01*
X57597Y-22730D01*
X57525Y-22905D01*
X57525Y-23094D01*
X57589Y-23250D01*
X57474Y-23135D01*
X57474Y-19905D01*
X57402Y-19731D01*
X57269Y-19597D01*
X57094Y-19525D01*
X56905Y-19525D01*
X56731Y-19597D01*
X56597Y-19730D01*
X56525Y-19905D01*
X56525Y-20094D01*
X56597Y-20268D01*
X56730Y-20402D01*
X56905Y-20474D01*
X57094Y-20474D01*
X57268Y-20402D01*
X57402Y-20269D01*
X57474Y-20094D01*
X57474Y-19905D01*
X57474Y-23135D01*
X57474Y-23135D01*
X57474Y-22645D01*
X57451Y-22590D01*
X57409Y-22548D01*
X57354Y-22525D01*
X57294Y-22525D01*
X56742Y-22525D01*
X56477Y-22259D01*
X56477Y-19919D01*
X56410Y-19742D01*
X56394Y-19719D01*
X56319Y-19687D01*
X56312Y-19694D01*
X56312Y-19680D01*
X56280Y-19605D01*
X56108Y-19528D01*
X55919Y-19522D01*
X55742Y-19589D01*
X55719Y-19605D01*
X55687Y-19680D01*
X56000Y-19992D01*
X56312Y-19680D01*
X56312Y-19694D01*
X56007Y-20000D01*
X56319Y-20312D01*
X56394Y-20280D01*
X56471Y-20108D01*
X56477Y-19919D01*
X56477Y-22259D01*
X56312Y-22094D01*
X56312Y-20319D01*
X56000Y-20007D01*
X55992Y-20014D01*
X55992Y-20000D01*
X55680Y-19687D01*
X55605Y-19719D01*
X55528Y-19891D01*
X55522Y-20080D01*
X55589Y-20257D01*
X55605Y-20280D01*
X55680Y-20312D01*
X55992Y-20000D01*
X55992Y-20014D01*
X55687Y-20319D01*
X55719Y-20394D01*
X55891Y-20471D01*
X56080Y-20477D01*
X56257Y-20410D01*
X56280Y-20394D01*
X56312Y-20319D01*
X56312Y-22094D01*
X55240Y-21022D01*
X55240Y-20414D01*
X55268Y-20402D01*
X55402Y-20269D01*
X55474Y-20094D01*
X55474Y-19905D01*
X55402Y-19731D01*
X55269Y-19597D01*
X55094Y-19525D01*
X54905Y-19525D01*
X54731Y-19597D01*
X54597Y-19730D01*
X54525Y-19905D01*
X54525Y-20094D01*
X54597Y-20268D01*
X54730Y-20402D01*
X54760Y-20414D01*
X54760Y-21122D01*
X54778Y-21213D01*
X54830Y-21291D01*
X56525Y-22986D01*
X56525Y-23354D01*
X56548Y-23409D01*
X56590Y-23451D01*
X56645Y-23474D01*
X56705Y-23474D01*
X57135Y-23474D01*
X57598Y-23937D01*
X57598Y-24486D01*
X57581Y-24446D01*
X57539Y-24404D01*
X57484Y-24381D01*
X57424Y-24381D01*
X57211Y-24381D01*
X57174Y-24418D01*
X57174Y-24723D01*
X57182Y-24723D01*
X57182Y-24733D01*
X57174Y-24733D01*
X57174Y-25037D01*
X57211Y-25075D01*
X57424Y-25075D01*
X57484Y-25075D01*
X57539Y-25052D01*
X57581Y-25010D01*
X57598Y-24969D01*
X57598Y-25121D01*
X57553Y-25166D01*
X57539Y-25152D01*
X57484Y-25129D01*
X57424Y-25129D01*
X57164Y-25129D01*
X57164Y-25037D01*
X57164Y-24733D01*
X57164Y-24723D01*
X57164Y-24418D01*
X57126Y-24381D01*
X56913Y-24381D01*
X56854Y-24381D01*
X56798Y-24404D01*
X56756Y-24446D01*
X56733Y-24501D01*
X56733Y-24685D01*
X56771Y-24723D01*
X57164Y-24723D01*
X57164Y-24733D01*
X56771Y-24733D01*
X56733Y-24770D01*
X56733Y-24955D01*
X56756Y-25010D01*
X56798Y-25052D01*
X56854Y-25075D01*
X56913Y-25075D01*
X57126Y-25075D01*
X57164Y-25037D01*
X57164Y-25129D01*
X56854Y-25129D01*
X56798Y-25152D01*
X56756Y-25194D01*
X56739Y-25236D01*
X56620Y-25236D01*
X56620Y-24955D01*
X56620Y-24770D01*
X56620Y-24685D01*
X56620Y-24501D01*
X56597Y-24446D01*
X56555Y-24404D01*
X56500Y-24381D01*
X56440Y-24381D01*
X56227Y-24381D01*
X56190Y-24418D01*
X56190Y-24723D01*
X56582Y-24723D01*
X56620Y-24685D01*
X56620Y-24770D01*
X56582Y-24733D01*
X56190Y-24733D01*
X56190Y-25037D01*
X56227Y-25075D01*
X56440Y-25075D01*
X56500Y-25075D01*
X56555Y-25052D01*
X56597Y-25010D01*
X56620Y-24955D01*
X56620Y-25236D01*
X56614Y-25236D01*
X56597Y-25194D01*
X56555Y-25152D01*
X56500Y-25129D01*
X56440Y-25129D01*
X56180Y-25129D01*
X56180Y-25037D01*
X56180Y-24733D01*
X56180Y-24723D01*
X56180Y-24418D01*
X56142Y-24381D01*
X55929Y-24381D01*
X55869Y-24381D01*
X55852Y-24388D01*
X55852Y-23311D01*
X55852Y-23251D01*
X55852Y-22979D01*
X55852Y-22894D01*
X55852Y-22622D01*
X55852Y-22562D01*
X55829Y-22507D01*
X55787Y-22465D01*
X55732Y-22442D01*
X55538Y-22442D01*
X55501Y-22480D01*
X55501Y-22932D01*
X55815Y-22932D01*
X55852Y-22894D01*
X55852Y-22979D01*
X55815Y-22942D01*
X55501Y-22942D01*
X55501Y-23393D01*
X55538Y-23431D01*
X55732Y-23431D01*
X55787Y-23408D01*
X55829Y-23366D01*
X55852Y-23311D01*
X55852Y-24388D01*
X55814Y-24404D01*
X55772Y-24446D01*
X55749Y-24501D01*
X55749Y-24685D01*
X55787Y-24723D01*
X56180Y-24723D01*
X56180Y-24733D01*
X55787Y-24733D01*
X55749Y-24770D01*
X55749Y-24955D01*
X55772Y-25010D01*
X55814Y-25052D01*
X55869Y-25075D01*
X55929Y-25075D01*
X56142Y-25075D01*
X56180Y-25037D01*
X56180Y-25129D01*
X55869Y-25129D01*
X55814Y-25152D01*
X55772Y-25194D01*
X55749Y-25249D01*
X55749Y-25309D01*
X55749Y-25572D01*
X55508Y-25813D01*
X55508Y-25762D01*
X55508Y-25702D01*
X55508Y-24442D01*
X55491Y-24401D01*
X55491Y-23393D01*
X55491Y-22942D01*
X55491Y-22932D01*
X55491Y-22480D01*
X55453Y-22442D01*
X55259Y-22442D01*
X55204Y-22465D01*
X55162Y-22507D01*
X55139Y-22562D01*
X55139Y-22622D01*
X55139Y-22894D01*
X55176Y-22932D01*
X55491Y-22932D01*
X55491Y-22942D01*
X55176Y-22942D01*
X55139Y-22979D01*
X55139Y-23251D01*
X55139Y-23311D01*
X55162Y-23366D01*
X55204Y-23408D01*
X55259Y-23431D01*
X55453Y-23431D01*
X55491Y-23393D01*
X55491Y-24401D01*
X55485Y-24387D01*
X55443Y-24345D01*
X55388Y-24322D01*
X55328Y-24322D01*
X54671Y-24322D01*
X54671Y-23311D01*
X54671Y-23251D01*
X54671Y-22562D01*
X54648Y-22507D01*
X54606Y-22465D01*
X54551Y-22442D01*
X54491Y-22442D01*
X54078Y-22442D01*
X54023Y-22465D01*
X53981Y-22507D01*
X53958Y-22562D01*
X53958Y-22622D01*
X53958Y-22737D01*
X53657Y-22737D01*
X53657Y-22621D01*
X53635Y-22566D01*
X53592Y-22524D01*
X53537Y-22501D01*
X53478Y-22501D01*
X53084Y-22501D01*
X53029Y-22524D01*
X52987Y-22566D01*
X52964Y-22621D01*
X52964Y-22681D01*
X52964Y-23252D01*
X52987Y-23307D01*
X53029Y-23349D01*
X53084Y-23372D01*
X53144Y-23372D01*
X53537Y-23372D01*
X53592Y-23349D01*
X53635Y-23307D01*
X53657Y-23252D01*
X53657Y-23192D01*
X53657Y-23137D01*
X53958Y-23137D01*
X53958Y-23311D01*
X53981Y-23366D01*
X54023Y-23408D01*
X54078Y-23431D01*
X54138Y-23431D01*
X54551Y-23431D01*
X54606Y-23408D01*
X54648Y-23366D01*
X54671Y-23311D01*
X54671Y-24322D01*
X54619Y-24322D01*
X54564Y-24345D01*
X54522Y-24387D01*
X54499Y-24442D01*
X54499Y-24502D01*
X54499Y-25762D01*
X54522Y-25817D01*
X54564Y-25859D01*
X54619Y-25882D01*
X54679Y-25882D01*
X55388Y-25882D01*
X55443Y-25859D01*
X55485Y-25817D01*
X55508Y-25762D01*
X55508Y-25813D01*
X55416Y-25905D01*
X54197Y-25905D01*
X53224Y-24932D01*
X53146Y-24880D01*
X53146Y-24880D01*
X53146Y-24403D01*
X53146Y-24344D01*
X53146Y-24239D01*
X53146Y-24154D01*
X53146Y-24049D01*
X53146Y-23989D01*
X53123Y-23934D01*
X53081Y-23892D01*
X53025Y-23869D01*
X52684Y-23869D01*
X52646Y-23907D01*
X52646Y-24191D01*
X53108Y-24191D01*
X53146Y-24154D01*
X53146Y-24239D01*
X53108Y-24201D01*
X52646Y-24201D01*
X52646Y-24486D01*
X52684Y-24524D01*
X53025Y-24524D01*
X53081Y-24501D01*
X53123Y-24458D01*
X53146Y-24403D01*
X53146Y-24880D01*
X53139Y-24879D01*
X53123Y-24840D01*
X53081Y-24798D01*
X53025Y-24775D01*
X52966Y-24775D01*
X52636Y-24775D01*
X52636Y-24486D01*
X52636Y-24201D01*
X52636Y-24191D01*
X52636Y-23907D01*
X52599Y-23869D01*
X52257Y-23869D01*
X52202Y-23892D01*
X52160Y-23934D01*
X52137Y-23989D01*
X52137Y-24049D01*
X52137Y-24154D01*
X52174Y-24191D01*
X52636Y-24191D01*
X52636Y-24201D01*
X52174Y-24201D01*
X52137Y-24239D01*
X52137Y-24344D01*
X52137Y-24403D01*
X52160Y-24458D01*
X52202Y-24501D01*
X52257Y-24524D01*
X52599Y-24524D01*
X52636Y-24486D01*
X52636Y-24775D01*
X52257Y-24775D01*
X52233Y-24785D01*
X52034Y-24586D01*
X52034Y-23748D01*
X52410Y-23372D01*
X52789Y-23372D01*
X52844Y-23349D01*
X52887Y-23307D01*
X52909Y-23252D01*
X52909Y-23192D01*
X52909Y-22621D01*
X52887Y-22566D01*
X52844Y-22524D01*
X52789Y-22501D01*
X52730Y-22501D01*
X52336Y-22501D01*
X52281Y-22524D01*
X52238Y-22566D01*
X52216Y-22621D01*
X52216Y-22681D01*
X52216Y-23001D01*
X51693Y-23523D01*
X51649Y-23588D01*
X51634Y-23665D01*
X51634Y-24669D01*
X51649Y-24745D01*
X51693Y-24810D01*
X52126Y-25243D01*
X52137Y-25251D01*
X52137Y-25309D01*
X52160Y-25364D01*
X52202Y-25406D01*
X52257Y-25429D01*
X52317Y-25429D01*
X53025Y-25429D01*
X53037Y-25424D01*
X53928Y-26315D01*
X54547Y-26934D01*
X54547Y-27123D01*
X54543Y-27117D01*
X53264Y-25838D01*
X53186Y-25786D01*
X53135Y-25776D01*
X53123Y-25745D01*
X53081Y-25703D01*
X53025Y-25680D01*
X52966Y-25680D01*
X52257Y-25680D01*
X52245Y-25685D01*
X50474Y-23914D01*
X50474Y-23905D01*
X50402Y-23731D01*
X50271Y-23599D01*
X51107Y-22763D01*
X51716Y-22763D01*
X51808Y-22745D01*
X51886Y-22693D01*
X54104Y-20474D01*
X54354Y-20474D01*
X54409Y-20451D01*
X54451Y-20409D01*
X54474Y-20354D01*
X54474Y-20294D01*
X54474Y-19645D01*
X54451Y-19590D01*
X54409Y-19548D01*
X54354Y-19525D01*
X54294Y-19525D01*
X53645Y-19525D01*
X53590Y-19548D01*
X53548Y-19590D01*
X53525Y-19645D01*
X53525Y-19705D01*
X53525Y-20354D01*
X53531Y-20369D01*
X52262Y-21638D01*
X52262Y-20750D01*
X52070Y-20285D01*
X51715Y-19930D01*
X51252Y-19738D01*
X50750Y-19737D01*
X50285Y-19929D01*
X49930Y-20284D01*
X49738Y-20747D01*
X49737Y-21249D01*
X49929Y-21714D01*
X50284Y-22069D01*
X50747Y-22261D01*
X51249Y-22262D01*
X51714Y-22070D01*
X52069Y-21715D01*
X52261Y-21252D01*
X52262Y-20750D01*
X52262Y-21638D01*
X51617Y-22283D01*
X51007Y-22283D01*
X50916Y-22301D01*
X50838Y-22353D01*
X49830Y-23361D01*
X49778Y-23439D01*
X49760Y-23531D01*
X49760Y-23585D01*
X49731Y-23597D01*
X49597Y-23730D01*
X49525Y-23905D01*
X49525Y-24094D01*
X49597Y-24268D01*
X49730Y-24402D01*
X49905Y-24474D01*
X50094Y-24474D01*
X50268Y-24402D01*
X50276Y-24395D01*
X52058Y-26177D01*
X52136Y-26229D01*
X52144Y-26231D01*
X52160Y-26270D01*
X52202Y-26312D01*
X52257Y-26335D01*
X52317Y-26335D01*
X53025Y-26335D01*
X53065Y-26318D01*
X54134Y-27386D01*
X54134Y-28134D01*
X54098Y-28048D01*
X54007Y-27956D01*
X53887Y-27907D01*
X53758Y-27907D01*
X53638Y-27956D01*
X53575Y-28020D01*
X53575Y-27932D01*
X53552Y-27877D01*
X53510Y-27835D01*
X53455Y-27812D01*
X53428Y-27812D01*
X53428Y-27797D01*
X53455Y-27797D01*
X53510Y-27774D01*
X53552Y-27732D01*
X53575Y-27677D01*
X53575Y-27617D01*
X53575Y-27046D01*
X53552Y-26991D01*
X53510Y-26949D01*
X53455Y-26926D01*
X53395Y-26926D01*
X53001Y-26926D01*
X52946Y-26949D01*
X52904Y-26991D01*
X52881Y-27046D01*
X52881Y-27106D01*
X52881Y-27677D01*
X52904Y-27732D01*
X52946Y-27774D01*
X53001Y-27797D01*
X53028Y-27797D01*
X53028Y-27812D01*
X53001Y-27812D01*
X52946Y-27835D01*
X52904Y-27877D01*
X52881Y-27932D01*
X52881Y-27992D01*
X52881Y-28563D01*
X52904Y-28618D01*
X52946Y-28660D01*
X53001Y-28683D01*
X53061Y-28683D01*
X53455Y-28683D01*
X53510Y-28660D01*
X53552Y-28618D01*
X53575Y-28563D01*
X53575Y-28503D01*
X53575Y-28448D01*
X53578Y-28448D01*
X53638Y-28507D01*
X53757Y-28557D01*
X53887Y-28557D01*
X54006Y-28507D01*
X54098Y-28416D01*
X54134Y-28330D01*
X54134Y-29530D01*
X54128Y-29536D01*
X54128Y-29073D01*
X54078Y-28953D01*
X53987Y-28862D01*
X53868Y-28812D01*
X53738Y-28812D01*
X53619Y-28862D01*
X53575Y-28906D01*
X53575Y-28818D01*
X53552Y-28763D01*
X53510Y-28721D01*
X53455Y-28698D01*
X53395Y-28698D01*
X53001Y-28698D01*
X52946Y-28721D01*
X52904Y-28763D01*
X52881Y-28818D01*
X52881Y-28878D01*
X52881Y-29449D01*
X52904Y-29504D01*
X52946Y-29546D01*
X53001Y-29569D01*
X53028Y-29569D01*
X53028Y-29584D01*
X53001Y-29584D01*
X52946Y-29607D01*
X52904Y-29649D01*
X52881Y-29704D01*
X52881Y-29764D01*
X52881Y-30334D01*
X52904Y-30390D01*
X52946Y-30432D01*
X53001Y-30455D01*
X53012Y-30455D01*
X53012Y-30474D01*
X52985Y-30474D01*
X52930Y-30496D01*
X52888Y-30539D01*
X52865Y-30594D01*
X52865Y-30653D01*
X52865Y-31224D01*
X52888Y-31279D01*
X52930Y-31322D01*
X52985Y-31344D01*
X53045Y-31344D01*
X53439Y-31344D01*
X53494Y-31322D01*
X53536Y-31279D01*
X53559Y-31224D01*
X53559Y-31165D01*
X53559Y-30594D01*
X53536Y-30539D01*
X53494Y-30496D01*
X53439Y-30474D01*
X53412Y-30474D01*
X53412Y-30455D01*
X53455Y-30455D01*
X53510Y-30432D01*
X53552Y-30390D01*
X53575Y-30334D01*
X53575Y-30275D01*
X53575Y-29704D01*
X53552Y-29649D01*
X53510Y-29607D01*
X53455Y-29584D01*
X53428Y-29584D01*
X53428Y-29569D01*
X53455Y-29569D01*
X53510Y-29546D01*
X53552Y-29504D01*
X53575Y-29449D01*
X53575Y-29389D01*
X53575Y-29369D01*
X53618Y-29413D01*
X53738Y-29462D01*
X53867Y-29462D01*
X53987Y-29413D01*
X54078Y-29322D01*
X54128Y-29202D01*
X54128Y-29073D01*
X54128Y-29536D01*
X53830Y-29834D01*
X53778Y-29912D01*
X53760Y-30003D01*
X53760Y-36525D01*
X53645Y-36525D01*
X53590Y-36548D01*
X53548Y-36590D01*
X53525Y-36645D01*
X53525Y-36705D01*
X53525Y-37336D01*
X53451Y-37263D01*
X53451Y-33441D01*
X53537Y-33441D01*
X53592Y-33418D01*
X53635Y-33376D01*
X53657Y-33321D01*
X53657Y-33261D01*
X53657Y-33025D01*
X53635Y-32970D01*
X53592Y-32927D01*
X53537Y-32905D01*
X53478Y-32905D01*
X53451Y-32905D01*
X53451Y-32225D01*
X53494Y-32207D01*
X53536Y-32165D01*
X53559Y-32110D01*
X53559Y-32050D01*
X53559Y-31480D01*
X53536Y-31424D01*
X53494Y-31382D01*
X53439Y-31359D01*
X53379Y-31359D01*
X52985Y-31359D01*
X52930Y-31382D01*
X52888Y-31424D01*
X52865Y-31480D01*
X52865Y-31539D01*
X52865Y-32110D01*
X52888Y-32165D01*
X52930Y-32207D01*
X52985Y-32230D01*
X53045Y-32230D01*
X53051Y-32230D01*
X53051Y-32905D01*
X52966Y-32905D01*
X52911Y-32927D01*
X52868Y-32970D01*
X52846Y-33025D01*
X52846Y-33084D01*
X52846Y-33321D01*
X52868Y-33376D01*
X52911Y-33418D01*
X52966Y-33441D01*
X53025Y-33441D01*
X53051Y-33441D01*
X53051Y-34442D01*
X52983Y-34374D01*
X52864Y-34324D01*
X52816Y-34324D01*
X52350Y-33858D01*
X52285Y-33815D01*
X52710Y-33815D01*
X52766Y-33792D01*
X52808Y-33750D01*
X52831Y-33695D01*
X52831Y-33635D01*
X52831Y-33399D01*
X52808Y-33344D01*
X52766Y-33301D01*
X52710Y-33279D01*
X52651Y-33279D01*
X52164Y-33279D01*
X52120Y-33235D01*
X52120Y-33128D01*
X52085Y-33045D01*
X52139Y-33067D01*
X52199Y-33067D01*
X52710Y-33067D01*
X52766Y-33044D01*
X52808Y-33002D01*
X52831Y-32947D01*
X52831Y-32887D01*
X52831Y-32651D01*
X52827Y-32641D01*
X52827Y-30334D01*
X52827Y-30275D01*
X52827Y-30062D01*
X52827Y-29977D01*
X52827Y-29764D01*
X52827Y-29704D01*
X52827Y-29449D01*
X52827Y-29389D01*
X52827Y-28818D01*
X52804Y-28763D01*
X52762Y-28721D01*
X52707Y-28698D01*
X52647Y-28698D01*
X52253Y-28698D01*
X52198Y-28721D01*
X52156Y-28763D01*
X52133Y-28818D01*
X52133Y-28878D01*
X52133Y-28933D01*
X52130Y-28933D01*
X51589Y-28392D01*
X52133Y-28392D01*
X52133Y-28563D01*
X52156Y-28618D01*
X52198Y-28660D01*
X52253Y-28683D01*
X52313Y-28683D01*
X52707Y-28683D01*
X52762Y-28660D01*
X52804Y-28618D01*
X52827Y-28563D01*
X52827Y-28503D01*
X52827Y-27932D01*
X52827Y-27677D01*
X52827Y-27617D01*
X52827Y-27404D01*
X52827Y-27319D01*
X52827Y-27106D01*
X52827Y-27046D01*
X52804Y-26991D01*
X52762Y-26949D01*
X52707Y-26926D01*
X52522Y-26926D01*
X52485Y-26964D01*
X52485Y-27357D01*
X52789Y-27357D01*
X52827Y-27319D01*
X52827Y-27404D01*
X52789Y-27367D01*
X52485Y-27367D01*
X52485Y-27760D01*
X52522Y-27797D01*
X52707Y-27797D01*
X52762Y-27774D01*
X52804Y-27732D01*
X52827Y-27677D01*
X52827Y-27932D01*
X52804Y-27877D01*
X52762Y-27835D01*
X52707Y-27812D01*
X52647Y-27812D01*
X52475Y-27812D01*
X52475Y-27760D01*
X52475Y-27367D01*
X52475Y-27357D01*
X52475Y-26964D01*
X52437Y-26926D01*
X52253Y-26926D01*
X52198Y-26949D01*
X52156Y-26991D01*
X52133Y-27046D01*
X52133Y-27106D01*
X52133Y-27319D01*
X52170Y-27357D01*
X52475Y-27357D01*
X52475Y-27367D01*
X52170Y-27367D01*
X52133Y-27404D01*
X52133Y-27617D01*
X52133Y-27677D01*
X52156Y-27732D01*
X52198Y-27774D01*
X52253Y-27797D01*
X52437Y-27797D01*
X52475Y-27760D01*
X52475Y-27812D01*
X52253Y-27812D01*
X52198Y-27835D01*
X52156Y-27877D01*
X52133Y-27932D01*
X52133Y-27992D01*
X52133Y-27992D01*
X51606Y-27992D01*
X51669Y-27929D01*
X51721Y-27851D01*
X51740Y-27759D01*
X51740Y-26500D01*
X51721Y-26408D01*
X51721Y-26408D01*
X51700Y-26376D01*
X51669Y-26330D01*
X50474Y-25135D01*
X50474Y-24645D01*
X50451Y-24590D01*
X50409Y-24548D01*
X50354Y-24525D01*
X50294Y-24525D01*
X49645Y-24525D01*
X49590Y-24548D01*
X49548Y-24590D01*
X49525Y-24645D01*
X49525Y-24705D01*
X49525Y-25354D01*
X49548Y-25409D01*
X49590Y-25451D01*
X49645Y-25474D01*
X49705Y-25474D01*
X50135Y-25474D01*
X51260Y-26599D01*
X51260Y-27660D01*
X51223Y-27697D01*
X50751Y-27697D01*
X50695Y-27708D01*
X50348Y-27708D01*
X50292Y-27731D01*
X50250Y-27773D01*
X50227Y-27828D01*
X50227Y-27888D01*
X50227Y-28045D01*
X50235Y-28064D01*
X50227Y-28084D01*
X50227Y-28144D01*
X50227Y-28301D01*
X50235Y-28320D01*
X50227Y-28340D01*
X50227Y-28399D01*
X50227Y-28557D01*
X50235Y-28576D01*
X50227Y-28596D01*
X50227Y-28655D01*
X50227Y-28813D01*
X50235Y-28832D01*
X50227Y-28852D01*
X50227Y-28918D01*
X50265Y-28955D01*
X50746Y-28955D01*
X50746Y-28947D01*
X50756Y-28947D01*
X50756Y-28955D01*
X51238Y-28955D01*
X51275Y-28918D01*
X51275Y-28852D01*
X51267Y-28832D01*
X51275Y-28813D01*
X51275Y-28753D01*
X51275Y-28648D01*
X51279Y-28648D01*
X51905Y-29275D01*
X51970Y-29318D01*
X52047Y-29333D01*
X52133Y-29333D01*
X52133Y-29449D01*
X52156Y-29504D01*
X52198Y-29546D01*
X52253Y-29569D01*
X52313Y-29569D01*
X52707Y-29569D01*
X52762Y-29546D01*
X52804Y-29504D01*
X52827Y-29449D01*
X52827Y-29704D01*
X52804Y-29649D01*
X52762Y-29607D01*
X52707Y-29584D01*
X52522Y-29584D01*
X52485Y-29621D01*
X52485Y-30014D01*
X52789Y-30014D01*
X52827Y-29977D01*
X52827Y-30062D01*
X52789Y-30024D01*
X52485Y-30024D01*
X52485Y-30417D01*
X52522Y-30455D01*
X52707Y-30455D01*
X52762Y-30432D01*
X52804Y-30390D01*
X52827Y-30334D01*
X52827Y-32641D01*
X52808Y-32596D01*
X52766Y-32553D01*
X52710Y-32531D01*
X52651Y-32531D01*
X52625Y-32531D01*
X52625Y-32230D01*
X52691Y-32230D01*
X52746Y-32207D01*
X52788Y-32165D01*
X52811Y-32110D01*
X52811Y-32050D01*
X52811Y-31480D01*
X52788Y-31424D01*
X52746Y-31382D01*
X52691Y-31359D01*
X52631Y-31359D01*
X52237Y-31359D01*
X52182Y-31382D01*
X52140Y-31424D01*
X52117Y-31480D01*
X52117Y-31539D01*
X52117Y-32110D01*
X52140Y-32165D01*
X52182Y-32207D01*
X52225Y-32225D01*
X52225Y-32531D01*
X52139Y-32531D01*
X52105Y-32545D01*
X52120Y-32509D01*
X52120Y-32380D01*
X52070Y-32261D01*
X51995Y-32185D01*
X51995Y-31385D01*
X52129Y-31252D01*
X52140Y-31279D01*
X52182Y-31322D01*
X52237Y-31344D01*
X52297Y-31344D01*
X52691Y-31344D01*
X52746Y-31322D01*
X52788Y-31279D01*
X52811Y-31224D01*
X52811Y-31165D01*
X52811Y-30594D01*
X52788Y-30539D01*
X52746Y-30496D01*
X52691Y-30474D01*
X52631Y-30474D01*
X52475Y-30474D01*
X52475Y-30417D01*
X52475Y-30024D01*
X52475Y-30014D01*
X52475Y-29621D01*
X52437Y-29584D01*
X52253Y-29584D01*
X52198Y-29607D01*
X52156Y-29649D01*
X52133Y-29704D01*
X52133Y-29764D01*
X52133Y-29977D01*
X52170Y-30014D01*
X52475Y-30014D01*
X52475Y-30024D01*
X52170Y-30024D01*
X52133Y-30062D01*
X52133Y-30275D01*
X52133Y-30334D01*
X52156Y-30390D01*
X52198Y-30432D01*
X52253Y-30455D01*
X52437Y-30455D01*
X52475Y-30417D01*
X52475Y-30474D01*
X52237Y-30474D01*
X52182Y-30496D01*
X52140Y-30539D01*
X52117Y-30594D01*
X52117Y-30653D01*
X52117Y-30723D01*
X52112Y-30724D01*
X52047Y-30768D01*
X51653Y-31161D01*
X51610Y-31226D01*
X51595Y-31303D01*
X51595Y-32185D01*
X51519Y-32260D01*
X51470Y-32379D01*
X51470Y-32509D01*
X51507Y-32599D01*
X51275Y-32599D01*
X51275Y-29069D01*
X51275Y-29003D01*
X51238Y-28965D01*
X50756Y-28965D01*
X50756Y-29151D01*
X50794Y-29189D01*
X51096Y-29189D01*
X51155Y-29189D01*
X51210Y-29166D01*
X51253Y-29124D01*
X51275Y-29069D01*
X51275Y-32599D01*
X50455Y-32599D01*
X50451Y-32590D01*
X50409Y-32548D01*
X50354Y-32525D01*
X50294Y-32525D01*
X49674Y-32525D01*
X49778Y-32421D01*
X49905Y-32474D01*
X50094Y-32474D01*
X50268Y-32402D01*
X50402Y-32269D01*
X50474Y-32094D01*
X50474Y-31905D01*
X50402Y-31731D01*
X50269Y-31597D01*
X50094Y-31525D01*
X49905Y-31525D01*
X49731Y-31597D01*
X49597Y-31730D01*
X49525Y-31905D01*
X49525Y-32094D01*
X49529Y-32104D01*
X49443Y-32190D01*
X49443Y-30527D01*
X49994Y-30527D01*
X50049Y-30505D01*
X50091Y-30462D01*
X50114Y-30407D01*
X50114Y-30348D01*
X50114Y-30110D01*
X50155Y-30150D01*
X50210Y-30173D01*
X50269Y-30173D01*
X50821Y-30173D01*
X50876Y-30150D01*
X50918Y-30108D01*
X50941Y-30053D01*
X50941Y-29993D01*
X50941Y-29363D01*
X50918Y-29308D01*
X50876Y-29266D01*
X50821Y-29243D01*
X50761Y-29243D01*
X50746Y-29243D01*
X50746Y-29151D01*
X50746Y-28965D01*
X50265Y-28965D01*
X50227Y-29003D01*
X50227Y-29069D01*
X50250Y-29124D01*
X50292Y-29166D01*
X50348Y-29189D01*
X50407Y-29189D01*
X50709Y-29189D01*
X50746Y-29151D01*
X50746Y-29243D01*
X50210Y-29243D01*
X50155Y-29266D01*
X50114Y-29307D01*
X50114Y-29265D01*
X50114Y-28517D01*
X50091Y-28462D01*
X50078Y-28448D01*
X50091Y-28435D01*
X50114Y-28380D01*
X50114Y-28320D01*
X50114Y-27590D01*
X50155Y-27631D01*
X50210Y-27653D01*
X50269Y-27653D01*
X50821Y-27653D01*
X50876Y-27631D01*
X50918Y-27588D01*
X50941Y-27533D01*
X50941Y-27474D01*
X50941Y-26844D01*
X50918Y-26789D01*
X50876Y-26746D01*
X50821Y-26724D01*
X50761Y-26724D01*
X50210Y-26724D01*
X50155Y-26746D01*
X50114Y-26787D01*
X50114Y-26489D01*
X50091Y-26434D01*
X50049Y-26392D01*
X49994Y-26369D01*
X49934Y-26369D01*
X49443Y-26369D01*
X49443Y-19443D01*
X81627Y-19443D01*
X81627Y-37453D01*
M02*
